<?xml version="1.0" encoding="UTF-8" standalone="no"?>
<!-- Created with Inkscape (http://www.inkscape.org/) -->

<svg
   width="1920"
   height="1920"
   viewBox="0 0 507.99999 508"
   version="1.1"
   id="svg1"
   xml:space="preserve"
   xmlns="http://www.w3.org/2000/svg"
   xmlns:svg="http://www.w3.org/2000/svg"><defs
     id="defs1" /><g
     id="layer1"><path
       style="fill:#ffffff;fill-opacity:1"
       d="m 60.060417,417.77708 v -30.1625 H 223.70521 387.35 V 335.88854 284.1625 h -21.69583 -21.69584 v 29.89792 29.89791 H 254 164.04167 V 314.06042 284.1625 H 112.09419 60.146713 l -0.175125,-12.10469 c -0.09632,-6.65758 -0.175266,-57.1598 -0.175439,-112.22717 l -3.16e-4,-100.122492 45.684547,0.176134 c 25.12651,0.09687 112.39932,0.176135 193.93959,0.176135 H 447.675 v 30.1625 30.162503 H 284.1625 120.65 v 51.85833 51.85833 h 21.69583 21.69584 v -30.0302 -30.03021 H 254 343.95833 v 30.03021 30.0302 h 51.94766 51.94766 l 0.17488,10.12032 c 0.0962,5.56617 0.17505,55.92961 0.17526,111.91875 l 3.8e-4,101.79843 H 254.13229 60.060417 Z M 284.03021,254 v -30.03021 l -29.96406,-0.0673 -29.96407,-0.0673 V 254 284.16476 l 29.96407,-0.0673 29.96406,-0.0673 z"
       id="path1" /></g></svg>
