<?xml version="1.0" encoding="UTF-8" standalone="no"?>
<!-- Created with Inkscape (http://www.inkscape.org/) -->

<svg
   width="1920"
   height="1920"
   viewBox="0 0 507.99999 508"
   version="1.1"
   id="svg1"
   xml:space="preserve"
   xmlns="http://www.w3.org/2000/svg"
   xmlns:svg="http://www.w3.org/2000/svg"><defs
     id="defs1" /><g
     id="layer1"><path
       style="fill:#ffffff;fill-opacity:1"
       d="m 60.791421,446.92447 c 0.252791,-0.41368 1.888371,-2.73976 3.634621,-5.16907 1.74625,-2.42931 4.816308,-6.70488 6.82235,-9.50127 2.006043,-2.79639 3.946938,-5.50106 4.313101,-6.01038 1.84753,-2.56987 8.157173,-11.36283 8.733533,-12.17083 0.363308,-0.50933 2.173131,-3.03562 4.02183,-5.61398 1.848698,-2.57837 5.206738,-7.26703 7.462311,-10.41924 2.255573,-3.15221 6.006043,-8.38462 8.334373,-11.62758 2.32833,-3.24296 5.7094,-7.96024 7.51348,-10.48285 1.80408,-2.52261 3.62781,-5.06281 4.05274,-5.6449 1.00589,-1.37793 6.57208,-9.14199 7.77705,-10.84791 0.51394,-0.72761 1.19399,-1.68293 1.51121,-2.12294 2.23153,-3.09527 6.59977,-9.1992 7.58823,-10.60336 1.36024,-1.9323 5.34568,-7.48637 10.61312,-14.79037 1.99397,-2.76489 4.14243,-5.76778 4.77437,-6.67307 0.63193,-0.9053 2.57772,-3.61995 4.32397,-6.03257 1.74625,-2.41262 3.32115,-4.59281 3.49978,-4.84489 0.27705,-0.39095 0.0826,-0.80789 -1.32292,-2.83697 -0.90623,-1.30826 -1.95718,-2.79268 -2.33544,-3.2987 -0.37826,-0.50603 -2.10467,-2.89965 -3.83646,-5.31917 -1.73179,-2.41951 -4.99418,-6.97472 -7.24975,-10.12268 -2.25558,-3.14797 -5.61346,-7.83586 -7.46197,-10.41755 -1.8485,-2.58169 -3.79161,-5.28929 -4.31802,-6.0169 -0.83571,-1.15513 -6.5839,-9.17832 -8.4354,-11.77396 -0.36331,-0.50932 -2.30355,-3.21459 -4.31165,-6.01172 -2.0081,-2.79712 -5.13937,-7.17098 -6.95838,-9.71969 -4.88366,-6.84274 -9.900462,-13.85233 -10.991189,-15.35713 -0.527391,-0.7276 -2.01831,-2.8112 -3.313152,-4.63021 -2.743879,-3.85463 -4.032666,-5.65283 -5.167831,-7.21049 -0.450475,-0.61813 -1.965646,-2.73123 -3.367046,-4.69576 -2.981071,-4.17897 -3.079115,-4.31599 -7.288513,-10.18646 -8.600253,-11.99398 -11.537875,-16.09969 -14.586852,-20.387 -1.819011,-2.5578 -3.575183,-4.98741 -3.902605,-5.39913 -0.327421,-0.41172 -0.595312,-0.8207 -0.595312,-0.90883 0,-0.0881 19.101451,-0.16024 42.44767,-0.16024 h 42.44767 l 2.46535,3.43882 c 1.35594,1.89136 4.19755,5.85019 6.31469,8.7974 2.11713,2.94721 5.00312,6.97618 6.41331,8.95326 1.41019,1.97708 2.85457,4.00114 3.20973,4.49792 0.35516,0.49677 1.06624,1.49853 1.58018,2.22614 1.20498,1.70592 6.77117,9.46998 7.77706,10.84791 0.42492,0.58209 2.24865,3.12306 4.05273,5.64661 1.80409,2.52355 5.06609,7.07597 7.2489,10.11649 2.18281,3.04052 5.93328,8.27172 8.33438,11.62488 2.40109,3.35317 5.87819,8.20668 7.72689,10.7856 1.8487,2.57891 3.65852,5.10564 4.02183,5.61497 0.36331,0.50932 2.30355,3.21555 4.31165,6.01384 2.0081,2.79829 5.29385,7.3822 7.30166,10.18646 2.00782,2.80426 5.46064,7.62451 7.67292,10.71167 2.21229,3.08715 5.51062,7.70279 7.32963,10.25696 1.81901,2.55417 3.67493,5.148 4.12426,5.76407 4.55848,6.24997 5.76604,8.02486 5.73552,8.4301 -0.0464,0.61658 -1.03594,2.04477 -10.51684,15.1796 -2.18897,3.0326 -9.29789,12.93565 -13.36586,18.61926 -2.40109,3.35471 -5.88892,8.21729 -7.75073,10.80573 -1.86181,2.58845 -3.68029,5.12298 -4.04107,5.63231 -0.36078,0.50932 -1.84838,2.59291 -3.30579,4.6302 -1.45742,2.0373 -2.97268,4.15771 -3.36727,4.71202 -0.39459,0.55432 -1.19368,1.65752 -1.77576,2.45156 -0.58209,0.79403 -2.07037,2.8787 -3.30729,4.63259 -1.23693,1.75389 -2.72521,3.83276 -3.3073,4.61971 -0.58208,0.78695 -2.54661,3.52066 -4.36562,6.07492 -1.81901,2.55425 -4.95028,6.93265 -6.95838,9.72978 -2.0081,2.79712 -3.94899,5.50239 -4.3131,6.01172 -0.36411,0.50932 -2.32864,3.24776 -4.36562,6.08541 -2.03699,2.83766 -4.00087,5.5761 -4.36418,6.08542 -0.3633,0.50932 -2.17313,3.03606 -4.02183,5.61497 -1.84869,2.57891 -5.3258,7.4327 -7.72689,10.7862 -2.40109,3.3535 -5.32701,7.43473 -6.50204,9.06941 l -2.13642,2.97213 -42.50862,0.067 -42.50862,0.0669 z M 289.98333,417.64479 v -30.03021 h 30.03021 30.03021 v 30.03021 30.03021 h -30.03021 -30.03021 z m 118.90702,-25.08023 c -5.5957,-4.51512 -13.20119,-10.63962 -23.1569,-18.64763 -3.29019,-2.64652 -6.11155,-4.96775 -6.26969,-5.15829 -0.21907,-0.26397 0.11342,-0.85576 1.39679,-2.48612 4.02611,-5.11464 8.10233,-11.14743 12.12746,-17.94856 2.3152,-3.91193 7.67433,-14.50632 9.03408,-17.85938 0.38359,-0.94588 0.80757,-1.95791 0.94219,-2.24896 1.21239,-2.62114 4.20142,-11.10696 5.68499,-16.13958 7.09201,-24.05788 8.57101,-49.18482 4.36061,-74.08333 -3.96294,-23.43516 -13.53203,-46.75987 -27.08242,-66.01354 -2.29984,-3.26783 -6.19668,-8.51445 -6.485,-8.73125 -0.0968,-0.0728 -0.58586,-0.66808 -1.0869,-1.32292 -1.35646,-1.77286 -6.09967,-7.11165 -9.11848,-10.26342 -2.24509,-2.34399 -5.67998,-5.60638 -10.24838,-9.73373 -2.01153,-1.81732 -5.96353,-5.0466 -7.58343,-6.1966 -0.92241,-0.65484 -2.29072,-1.67317 -3.04067,-2.26294 -0.74996,-0.58977 -1.95887,-1.47371 -2.68648,-1.9643 -0.7276,-0.4906 -2.02331,-1.37728 -2.87936,-1.9704 -0.85605,-0.59312 -1.74594,-1.19746 -1.97753,-1.34299 -0.2316,-0.14552 -1.079,-0.68563 -1.88313,-1.20024 -6.6729,-4.27042 -18.31556,-10.26983 -25.46261,-13.12075 -15.82556,-6.31275 -31.19048,-10.02884 -47.43695,-11.47291 -11.45014,-1.01774 -21.13611,-0.93172 -32.41146,0.28784 -22.04422,2.38434 -42.9899,9.11829 -62.76756,20.1795 -3.02856,1.69381 -9.06865,5.38994 -10.87071,6.65215 -0.30954,0.21682 -0.647,0.39421 -0.74991,0.39421 -0.22915,0 -26.41807,-36.380111 -26.41807,-36.698433 0,-0.522024 9.7803,-6.674962 16.93842,-10.656223 41.17401,-22.900506 88.92919,-31.23786 135.46158,-23.649607 7.53127,1.228158 19.46085,3.948864 25.4745,5.809809 13.67683,4.232345 21.72608,7.401167 33.92446,13.355339 3.66324,1.788072 5.5454,2.787435 9.92188,5.268176 1.23692,0.701135 2.66567,1.509078 3.175,1.795429 2.06423,1.160552 6.16641,3.753281 9.78958,6.187378 12.73503,8.555573 20.64,15.036432 31.24393,25.615242 3.43244,3.4243 7.18291,7.28685 8.33438,8.58344 1.15146,1.29658 2.27216,2.55417 2.49044,2.79465 0.7388,0.81392 3.04261,3.57185 4.09492,4.90209 0.57558,0.7276 1.11696,1.38245 1.20305,1.45521 0.12875,0.1088 2.02793,2.61503 6.81689,8.99583 1.48421,1.97756 6.36741,9.36958 8.38967,12.7 10.19004,16.78174 17.62523,33.93086 23.11467,53.31354 3.51108,12.39728 6.36488,29.10187 7.05139,41.275 0.0903,1.60073 0.21764,3.38667 0.28304,3.96875 0.23053,2.05185 0.12196,19.36412 -0.14582,23.25294 -2.18623,31.74935 -10.40524,60.36097 -25.12821,87.47519 -4.9848,9.18013 -10.3107,17.38452 -17.32456,26.68798 -1.46658,1.94531 -2.82985,3.76102 -3.0295,4.03489 -0.19965,0.27388 -0.43777,0.49303 -0.52917,0.487 -0.0914,-0.006 -2.55785,-1.9408 -5.48102,-4.29948 z m -68.80773,-55.43234 c -2.30675,-1.8615 -6.69439,-5.39658 -9.75033,-7.85574 -3.05594,-2.45917 -8.29469,-6.67659 -11.64167,-9.37204 -3.34697,-2.69545 -6.82955,-5.49436 -7.73906,-6.21979 -0.9095,-0.72543 -1.65364,-1.43429 -1.65364,-1.57524 0,-0.14096 0.17215,-0.44651 0.38255,-0.67901 0.86649,-0.95745 5.2797,-7.55322 6.29491,-9.40805 6.8841,-12.57759 9.73613,-24.306 9.38539,-38.59565 -0.19324,-7.87293 -1.2377,-13.98485 -3.59437,-21.03347 -6.71882,-20.0954 -21.03888,-35.84772 -40.51432,-44.56646 -10.83264,-4.84954 -24.39505,-7.0545 -36.24056,-5.89194 -10.97219,1.07685 -21.22735,4.313 -30.34093,9.5745 -1.35514,0.78235 -2.5789,1.45304 -2.71948,1.49042 -0.14058,0.0374 -6.21068,-8.20689 -13.48911,-18.32058 -10.05239,-13.96824 -13.15643,-18.45786 -12.91286,-18.6769 0.17636,-0.15859 1.39221,-0.94673 2.7019,-1.75141 6.68529,-4.10749 12.91592,-7.23986 19.71146,-9.90971 19.88348,-7.81187 42.24416,-10.12741 63.23542,-6.54828 12.56851,2.143 23.08726,5.60853 34.39583,11.33214 1.81901,0.92066 3.72401,1.92626 4.23333,2.23468 0.50933,0.30842 1.10464,0.64242 1.32292,0.74223 0.60966,0.27877 5.74311,3.5037 7.67292,4.82027 4.0614,2.77081 8.45129,6.15743 11.33118,8.74155 5.79042,5.19571 12.4546,12.30094 15.77652,16.82063 0.42783,0.58209 0.84815,1.11787 0.93404,1.19063 0.0859,0.0728 0.74933,0.96573 1.47429,1.98437 9.99259,14.04067 16.58073,29.01435 20.08103,45.64063 1.72809,8.20835 2.36642,14.78753 2.36169,24.34167 -0.005,9.39921 -0.40781,13.75835 -2.12698,22.99814 -1.23277,6.62567 -4.4309,17.20121 -6.88727,22.77477 -0.35273,0.80037 -0.7462,1.69334 -0.87437,1.98438 -2.69875,6.12824 -6.46763,13.03994 -9.8828,18.12396 -2.08037,3.09696 -6.14572,8.63052 -6.50268,8.85113 -0.12698,0.0785 -2.11821,-1.38034 -4.42495,-3.24183 z"
       id="path2" /></g></svg>
