<?xml version="1.0" encoding="UTF-8" standalone="no"?>
<!-- Created with Inkscape (http://www.inkscape.org/) -->

<svg
   width="1920"
   height="1920"
   viewBox="0 0 507.99999 508"
   version="1.1"
   id="svg1"
   xml:space="preserve"
   xmlns="http://www.w3.org/2000/svg"
   xmlns:svg="http://www.w3.org/2000/svg"><defs
     id="defs1" /><g
     id="layer1"><path
       style="fill:#ffffff;fill-opacity:1"
       d="m 78.58125,387.71206 c 0,-0.0919 0.857165,-1.37183 1.904812,-2.84427 2.047724,-2.87802 7.480463,-10.46821 8.733799,-12.20217 0.901171,-1.24674 3.602662,-5.03719 5.104097,-7.16153 0.582084,-0.82358 1.35599,-1.8989 1.719792,-2.3896 1.129628,-1.52367 4.38743,-6.07365 6.61178,-9.23428 0.76239,-1.0833 7.14613,-10.00372 8.33115,-11.64167 1.07396,-1.48444 5.5325,-7.70272 12.04457,-16.79846 2.40109,-3.35373 4.68817,-6.54199 5.08239,-7.08503 0.64062,-0.88244 7.10125,-9.88169 8.78155,-12.23213 1.4371,-2.01026 8.10989,-11.30662 8.83101,-12.30313 0.42122,-0.58208 2.21384,-3.08239 3.9836,-5.55625 1.76976,-2.47385 4.71038,-6.58151 6.5347,-9.12812 1.82433,-2.54662 3.64039,-5.08375 4.03571,-5.63806 0.39531,-0.55432 1.195,-1.65257 1.77708,-2.44056 0.58208,-0.78799 1.77271,-2.4553 2.64583,-3.70513 0.87313,-1.24984 1.88516,-2.67993 2.24896,-3.17798 0.6934,-0.94928 1.23616,-1.70125 4.93332,-6.83483 2.44807,-3.3992 2.42664,-3.30958 1.17788,-4.92636 -0.41342,-0.53526 -5.30083,-7.31879 -8.38761,-11.64167 -0.36368,-0.50932 -2.32787,-3.24776 -4.36486,-6.08541 -2.03698,-2.83766 -4.00086,-5.5761 -4.36417,-6.08542 -1.91025,-2.67799 -7.60566,-10.62697 -8.43598,-11.77396 -1.01323,-1.39964 -5.28197,-7.38937 -6.22257,-8.73125 -0.30601,-0.43656 -1.42099,-1.98437 -2.47773,-3.43958 -1.05675,-1.45521 -2.42407,-3.36021 -3.03849,-4.23334 -1.32074,-1.87682 -2.79567,-3.94313 -4.24934,-5.95312 -0.57884,-0.80036 -1.59596,-2.22911 -2.26026,-3.175 -0.66429,-0.94589 -1.65342,-2.33814 -2.19806,-3.09389 -0.54464,-0.75576 -2.28919,-3.19654 -3.87679,-5.42396 -1.5876,-2.22742 -3.32573,-4.64517 -3.86253,-5.37278 -0.53679,-0.7276 -2.393,-3.30345 -4.12492,-5.72411 -4.13956,-5.7858 -11.11222,-15.51291 -16.378095,-22.84808 -4.488454,-6.25224 -10.267064,-14.31816 -15.788371,-22.03778 -1.844125,-2.57837 -3.600297,-5.00443 -3.902605,-5.39125 -0.302307,-0.38681 -0.549649,-0.8333 -0.549649,-0.99218 0,-0.2076 12.053082,-0.28889 42.83637,-0.28889 h 42.83636 l 0.54555,0.8599 c 0.30005,0.47294 0.99642,1.47824 1.54749,2.234 0.55106,0.75575 2.30088,3.19653 3.88848,5.42396 1.58759,2.22742 3.32744,4.64516 3.86633,5.37277 0.95599,1.29078 5.08343,7.0441 6.71691,9.36284 0.44974,0.63841 2.28191,3.19826 4.07148,5.68854 1.78956,2.49028 3.55186,4.9445 3.91622,5.45383 0.36436,0.50932 2.32909,3.24776 4.36608,6.08541 2.03699,2.83766 4.00152,5.5761 4.36563,6.08542 0.3641,0.50932 2.32863,3.24776 4.36562,6.08542 2.03699,2.83765 4.00086,5.57609 4.36417,6.08541 1.91025,2.67799 7.60566,10.62698 8.43599,11.77396 0.52672,0.72761 2.01746,2.8112 3.31274,4.63021 1.29528,1.81901 2.78627,3.9026 3.31331,4.63021 0.52705,0.7276 2.01174,2.8112 3.29932,4.63021 1.28757,1.81901 2.57281,3.60494 2.85608,3.96875 0.28327,0.3638 0.88591,1.19724 1.3392,1.85208 0.45328,0.65484 1.2957,1.84547 1.87204,2.64583 0.57633,0.80037 1.59321,2.22912 2.25972,3.175 0.66651,0.94589 1.65564,2.33342 2.19806,3.0834 0.54243,0.74998 2.28517,3.19076 3.87276,5.42396 1.5876,2.23319 3.32507,4.65566 3.86105,5.38327 0.87868,1.19283 3.18825,4.40897 9.00854,12.5446 1.08403,1.51525 3.30854,4.61088 4.94336,6.87916 1.63482,2.26829 2.97427,4.33196 2.97656,4.58594 0.002,0.25398 -0.88281,1.68273 -1.9669,3.175 -1.08408,1.49227 -2.22143,3.0704 -2.52744,3.50696 -0.9316,1.32904 -5.20375,7.32386 -6.22225,8.73125 -1.61417,2.23051 -9.55525,13.28831 -13.8855,19.33529 -2.25557,3.1498 -6.00604,8.3805 -8.33437,11.62377 -5.26588,7.33517 -12.23853,17.06228 -16.3781,22.84808 -1.73191,2.42066 -3.58813,4.99651 -4.12492,5.72411 -0.53679,0.72761 -2.27493,3.14536 -3.86253,5.37278 -1.58759,2.22742 -3.33215,4.6682 -3.87679,5.42396 -0.54463,0.75575 -1.53376,2.148 -2.19806,3.09389 -0.6643,0.94589 -1.68141,2.37464 -2.26025,3.175 -1.45367,2.00999 -2.92861,4.0763 -4.24934,5.95312 -0.61443,0.87313 -1.98175,2.77813 -3.03849,4.23334 -1.05675,1.45521 -2.17147,3.00302 -2.47716,3.43958 -0.57945,0.82752 -6.67723,9.34087 -8.33847,11.64167 -3.98514,5.51934 -6.41478,8.90002 -7.23615,10.06858 -0.529,0.75261 -1.77132,2.51577 -2.76069,3.91813 l -1.79887,2.54975 h -42.84957 c -23.567264,0 -42.84957,-0.0752 -42.84957,-0.16711 z m 171.6382,-2.67716 c 1.12188,-1.56435 3.40287,-4.74928 5.06886,-7.07761 1.66598,-2.32833 3.37331,-4.70958 3.79405,-5.29167 0.90117,-1.24674 3.60266,-5.03719 5.1041,-7.16153 0.58208,-0.82358 1.35599,-1.8989 1.71979,-2.3896 1.12963,-1.52367 4.38743,-6.07365 6.61178,-9.23428 0.76239,-1.0833 7.14613,-10.00372 8.33115,-11.64167 1.07396,-1.48444 5.5325,-7.70272 12.04457,-16.79846 2.40109,-3.35373 4.68817,-6.54199 5.08239,-7.08503 0.64062,-0.88244 7.10125,-9.88169 8.78155,-12.23213 1.4371,-2.01026 8.10989,-11.30662 8.83101,-12.30313 0.42122,-0.58208 2.21384,-3.08239 3.9836,-5.55625 1.76976,-2.47385 4.71038,-6.58151 6.5347,-9.12812 1.82433,-2.54662 3.64039,-5.08375 4.03571,-5.63806 0.39531,-0.55432 1.195,-1.65257 1.77708,-2.44056 0.58209,-0.78799 1.77271,-2.4553 2.64583,-3.70513 0.87313,-1.24984 1.88516,-2.67993 2.24896,-3.17798 0.6934,-0.94928 1.23616,-1.70125 4.93332,-6.83483 2.44807,-3.3992 2.42664,-3.30958 1.17788,-4.92636 -0.41342,-0.53526 -5.30083,-7.31879 -8.38761,-11.64167 -0.36368,-0.50932 -2.32787,-3.24776 -4.36486,-6.08541 -2.03698,-2.83766 -4.00086,-5.5761 -4.36417,-6.08542 -1.91025,-2.67799 -7.60566,-10.62697 -8.43598,-11.77396 -1.01323,-1.39964 -5.28197,-7.38937 -6.22257,-8.73125 -0.30601,-0.43656 -1.42099,-1.98437 -2.47773,-3.43958 -1.05675,-1.45521 -2.42407,-3.36021 -3.03849,-4.23334 -1.32074,-1.87682 -2.79567,-3.94313 -4.24934,-5.95312 -0.57884,-0.80036 -1.59596,-2.22911 -2.26026,-3.175 -0.66429,-0.94589 -1.65342,-2.33814 -2.19806,-3.09389 -0.54464,-0.75576 -2.28919,-3.19654 -3.87679,-5.42396 -1.5876,-2.22742 -3.32573,-4.64517 -3.86253,-5.37278 -0.53679,-0.7276 -2.393,-3.30345 -4.12492,-5.72411 -4.13956,-5.7858 -11.11222,-15.51291 -16.3781,-22.84808 -2.32833,-3.24327 -6.0788,-8.47371 -8.33437,-11.62319 -2.25557,-3.14948 -5.45414,-7.59785 -7.10792,-9.88526 -1.65378,-2.28742 -3.28962,-4.57566 -3.6352,-5.08498 -0.34558,-0.50932 -0.82271,-1.19393 -1.06029,-1.52135 l -0.43197,-0.59532 h 43.00093 43.00093 l 0.54555,0.8599 c 0.30005,0.47294 0.99642,1.47824 1.54749,2.234 0.55106,0.75575 2.30088,3.19653 3.88848,5.42396 1.58759,2.22742 3.32744,4.64516 3.86633,5.37277 0.95599,1.29078 5.08343,7.0441 6.71691,9.36284 0.44974,0.63841 2.28191,3.19826 4.07148,5.68854 1.78956,2.49028 3.55186,4.9445 3.91622,5.45383 0.36436,0.50932 2.32909,3.24776 4.36608,6.08541 2.03699,2.83766 4.00152,5.5761 4.36563,6.08542 0.3641,0.50932 2.32863,3.24776 4.36562,6.08542 2.03699,2.83765 4.00086,5.57609 4.36417,6.08541 1.91025,2.67799 7.60566,10.62698 8.43599,11.77396 0.52672,0.72761 2.01746,2.8112 3.31274,4.63021 1.29528,1.81901 2.78627,3.9026 3.31331,4.63021 0.52705,0.7276 2.01174,2.8112 3.29932,4.63021 1.28757,1.81901 2.57281,3.60494 2.85608,3.96875 0.28327,0.3638 0.88591,1.19724 1.3392,1.85208 0.45328,0.65484 1.2957,1.84547 1.87204,2.64583 0.57633,0.80037 1.59321,2.22912 2.25972,3.175 0.66651,0.94589 1.65564,2.33342 2.19806,3.0834 0.54243,0.74998 2.28517,3.19076 3.87276,5.42396 1.5876,2.23319 3.32507,4.65566 3.86105,5.38327 0.87868,1.19283 3.18825,4.40897 9.00854,12.5446 1.08403,1.51525 3.30854,4.61088 4.94336,6.87916 1.63482,2.26829 2.97427,4.33196 2.97656,4.58594 0.002,0.25398 -0.88281,1.68273 -1.9669,3.175 -1.08408,1.49227 -2.22143,3.0704 -2.52744,3.50696 -0.9316,1.32904 -5.20375,7.32386 -6.22225,8.73125 -1.61417,2.23051 -9.55525,13.28831 -13.8855,19.33529 -2.25557,3.1498 -6.00604,8.3805 -8.33437,11.62377 -5.26588,7.33517 -12.23853,17.06228 -16.3781,22.84808 -1.73191,2.42066 -3.58813,4.99651 -4.12492,5.72411 -0.53679,0.72761 -2.27493,3.14536 -3.86253,5.37278 -1.58759,2.22742 -3.33215,4.6682 -3.87679,5.42396 -0.54463,0.75575 -1.53376,2.148 -2.19806,3.09389 -0.6643,0.94589 -1.68141,2.37464 -2.26025,3.175 -1.45367,2.00999 -2.92861,4.0763 -4.24934,5.95312 -0.61443,0.87313 -1.98175,2.77813 -3.03849,4.23334 -1.05675,1.45521 -2.17147,3.00302 -2.47716,3.43958 -0.57945,0.82752 -6.67723,9.34087 -8.33847,11.64167 -3.98514,5.51934 -6.41478,8.90002 -7.23615,10.06858 -0.529,0.75261 -1.77132,2.51577 -2.76069,3.91813 l -1.79887,2.54975 h -42.98161 -42.98161 z"
       id="path16" /></g></svg>
