<?xml version="1.0" encoding="UTF-8" standalone="no"?>
<!-- Created with Inkscape (http://www.inkscape.org/) -->

<svg
   width="1920"
   height="1920"
   viewBox="0 0 507.99999 508"
   version="1.1"
   id="svg1"
   xml:space="preserve"
   xmlns="http://www.w3.org/2000/svg"
   xmlns:svg="http://www.w3.org/2000/svg"><defs
     id="defs1" /><g
     id="layer1"><path
       style="fill:#ffffff;fill-opacity:1"
       d="m 85.989583,254.03086 c 0,-166.486823 0.05271,-193.970443 0.37204,-193.970443 0.284618,0 210.228867,121.098423 320.699837,184.983613 8.14916,4.71265 14.81666,8.73011 14.81666,8.92769 0,0.32645 -334.333649,193.59562 -335.425516,193.90035 -0.440669,0.12299 -0.463021,-9.23462 -0.463021,-193.84121 z M 224.13132,298.7076 c 42.40324,-24.47605 77.17384,-44.57795 77.268,-44.6709 0.0942,-0.093 -34.13631,-19.96904 -76.06771,-44.16909 -41.93139,-24.20006 -76.86398,-44.36121 -77.62796,-44.80257 l -1.38907,-0.80247 v 89.61161 c 0,75.46286 0.0568,89.58979 0.35997,89.47347 0.19799,-0.076 35.05353,-20.164 77.45677,-44.64005 z"
       id="path16" /></g></svg>
