<?xml version="1.0" encoding="UTF-8" standalone="no"?>
<!-- Created with Inkscape (http://www.inkscape.org/) -->

<svg
   width="1920"
   height="1920"
   viewBox="0 0 507.99999 508"
   version="1.1"
   id="svg1"
   xml:space="preserve"
   xmlns="http://www.w3.org/2000/svg"
   xmlns:svg="http://www.w3.org/2000/svg"><defs
     id="defs1" /><g
     id="layer1"><path
       id="path12"
       style="fill:#ffffff;fill-opacity:1"
       d="m 102.59374,119.85625 0.43201,0.59531 c 0.23758,0.32742 0.71482,1.01203 1.0604,1.52136 0.34558,0.50932 1.98114,2.79754 3.63492,5.08496 1.65378,2.28741 4.85252,6.7357 7.1081,9.88518 2.25557,3.14948 6.00604,8.37979 8.33437,11.62307 5.26588,7.33516 12.23876,17.06242 16.37833,22.84821 1.73191,2.42066 3.58802,4.9966 4.12481,5.7242 0.53679,0.72761 2.2747,3.14538 3.8623,5.3728 1.58759,2.22743 3.33213,4.66821 3.87677,5.42396 0.54463,0.75576 1.53401,2.14798 2.19831,3.09387 0.6643,0.94588 1.68149,2.37463 2.26033,3.175 1.45367,2.00999 2.92862,4.0763 4.24935,5.95312 0.61443,0.87313 1.98132,2.77813 3.03806,4.23333 1.05675,1.45521 2.17187,3.00303 2.47788,3.43959 0.94059,1.34188 5.20966,7.33161 6.22288,8.73125 0.83033,1.14698 6.52541,9.09597 8.43566,11.77396 0.36331,0.50932 2.32708,3.24776 4.36407,6.08541 2.03699,2.83766 4.00142,5.5761 4.36511,6.08542 3.08678,4.32288 7.97418,11.1064 8.3876,11.64167 1.24875,1.61678 1.27037,1.5271 -1.1777,4.92631 -3.69715,5.13358 -4.24016,5.88546 -4.93355,6.83473 -0.3638,0.49806 -1.37583,1.92827 -2.24896,3.1781 -0.87312,1.24984 -2.06375,2.91722 -2.64583,3.7052 -0.58209,0.78799 -1.38183,1.88635 -1.77715,2.44067 -0.39531,0.55432 -2.2111,3.09129 -4.03542,5.6379 -1.82432,2.54662 -4.76524,6.65427 -6.535,9.12813 -1.76977,2.47385 -3.56252,4.97416 -3.98373,5.55625 -0.72112,0.99651 -7.39388,10.29286 -8.83099,12.30312 -1.68029,2.35044 -8.14077,11.3499 -8.78138,12.23233 -0.39422,0.54304 -2.68128,3.73111 -5.08237,7.08484 -6.51208,9.09574 -10.97079,15.31402 -12.04475,16.79846 -1.18503,1.63795 -7.56836,10.55835 -8.33075,11.64166 -2.22435,3.16063 -5.48238,7.71041 -6.612,9.23407 -0.36381,0.49071 -1.13772,1.56646 -1.7198,2.39003 -1.50143,2.12435 -4.20291,5.91458 -5.10408,7.16132 -0.42074,0.58209 -2.12809,2.96333 -3.79408,5.29167 -1.66599,2.32833 -3.94706,5.51325 -5.06894,7.0776 l -2.03967,2.84427 h 42.98136 42.98187 l 1.79886,-2.54971 c 0.98938,-1.40236 2.23154,-3.1655 2.76055,-3.91811 0.82137,-1.16857 3.25112,-4.54927 7.23625,-10.06864 1.66125,-2.30079 7.75906,-10.81414 8.33851,-11.64166 0.30569,-0.43656 1.42063,-1.98438 2.47737,-3.43959 1.05675,-1.4552 2.42364,-3.3602 3.03806,-4.23333 1.32074,-1.87682 2.79568,-3.94313 4.24935,-5.95312 0.57884,-0.80037 1.59603,-2.22912 2.26033,-3.175 0.66429,-0.94589 1.65367,-2.33811 2.19831,-3.09387 0.54464,-0.75575 2.28917,-3.19653 3.87677,-5.42396 1.5876,-2.22742 3.32549,-4.64519 3.86229,-5.3728 0.53679,-0.7276 2.3929,-3.30354 4.12482,-5.7242 4.13956,-5.78579 11.11245,-15.51305 16.37832,-22.84821 2.32834,-3.24328 6.07881,-8.47378 8.33438,-11.62358 4.33025,-6.04699 12.27129,-17.10475 13.88546,-19.33526 1.01851,-1.4074 5.29077,-7.40221 6.22236,-8.73125 0.30601,-0.43656 1.4434,-2.01449 2.52749,-3.50676 1.08408,-1.49227 1.96881,-2.92102 1.96681,-3.175 -0.002,-0.25398 -1.34175,-2.318 -2.97657,-4.58628 -1.63482,-2.26828 -3.85934,-5.36391 -4.94336,-6.87917 -5.82029,-8.13562 -8.13008,-11.35162 -9.00876,-12.54446 -0.53597,-0.72759 -2.27314,-3.14993 -3.86074,-5.38313 -1.5876,-2.23319 -3.33021,-4.67397 -3.87263,-5.42396 -0.54242,-0.74998 -1.53181,-2.13764 -2.19832,-3.08353 -0.66652,-0.94589 -1.68347,-2.37464 -2.25981,-3.175 -0.57633,-0.80036 -1.41843,-1.99099 -1.87172,-2.64583 -0.45329,-0.65485 -1.05619,-1.48828 -1.33945,-1.85209 -0.28327,-0.3638 -1.56858,-2.14974 -2.85616,-3.96875 -1.28758,-1.81901 -2.77198,-3.9026 -3.29902,-4.63021 -0.52704,-0.72759 -2.01822,-2.81119 -3.3135,-4.6302 -1.29528,-1.81901 -2.78624,-3.90261 -3.31297,-4.63021 -0.83032,-1.14699 -6.52541,-9.09597 -8.43566,-11.77396 -0.36331,-0.50932 -2.3271,-3.24776 -4.36408,-6.08542 -2.03699,-2.83765 -4.00151,-5.57609 -4.36562,-6.08541 -0.3641,-0.50933 -2.32865,-3.24776 -4.36563,-6.08542 -2.03699,-2.83766 -4.00179,-5.57609 -4.36614,-6.08542 -0.36436,-0.50932 -2.12699,-2.96365 -3.91656,-5.45393 -1.78956,-2.49029 -3.62133,-5.05012 -4.07107,-5.68854 -1.63349,-2.31873 -5.76091,-8.07194 -6.7169,-9.36274 -0.53888,-0.7276 -2.27883,-3.14537 -3.86643,-5.37279 -1.58759,-2.22742 -3.33758,-4.6682 -3.88865,-5.42396 -0.55107,-0.75575 -1.24714,-1.76103 -1.54719,-2.23397 l -0.54571,-0.8599 h -43.00099 z m 230.25209,207.69792 v 30.0302 30.03021 h 30.1625 30.1625 v -30.03021 -30.0302 h -30.1625 z" /></g></svg>
