<?xml version="1.0" encoding="UTF-8" standalone="no"?>
<!-- Created with Inkscape (http://www.inkscape.org/) -->

<svg
   width="1920"
   height="1920"
   viewBox="0 0 507.99999 508"
   version="1.1"
   id="svg1"
   xml:space="preserve"
   xmlns="http://www.w3.org/2000/svg"
   xmlns:svg="http://www.w3.org/2000/svg"><defs
     id="defs1" /><g
     id="layer1"><path
       style="fill:#ffffff;fill-opacity:1"
       d="m 240.90313,406.93678 c -2.90364,-0.12729 -5.01372,-0.35298 -5.95313,-0.63672 -0.80036,-0.24174 -2.82443,-0.54909 -4.49792,-0.683 -1.67349,-0.13391 -3.69755,-0.4401 -4.49791,-0.68042 -0.80037,-0.24032 -2.05052,-0.53223 -2.77813,-0.64868 -0.7276,-0.11646 -2.03729,-0.40952 -2.91042,-0.65125 -0.87312,-0.24172 -2.54,-0.67161 -3.70416,-0.95531 -1.16417,-0.28369 -2.41432,-0.64867 -2.77813,-0.81106 -0.3638,-0.16239 -1.61396,-0.57067 -2.77812,-0.90728 -2.79835,-0.80914 -5.34067,-1.6567 -6.48229,-2.16107 -0.50933,-0.22501 -1.46183,-0.56117 -2.11667,-0.74701 -3.66751,-1.04082 -15.65632,-6.68161 -20.76979,-9.77228 -1.74625,-1.05547 -4.00844,-2.37542 -5.02709,-2.93324 -2.55804,-1.40081 -7.90216,-4.9783 -9.65729,-6.46485 -0.80036,-0.67788 -2.05052,-1.63322 -2.77812,-2.12296 -4.74151,-3.19145 -23.06508,-21.4821 -26.63347,-26.58561 -0.61049,-0.87312 -1.59474,-2.17272 -2.18722,-2.88799 -2.81027,-3.39271 -9.19309,-13.25159 -12.51914,-19.33701 -2.23113,-4.08212 -5.70134,-11.23581 -6.57853,-13.56136 -0.34337,-0.91031 -0.93434,-2.45812 -1.31327,-3.43958 -0.37893,-0.98146 -0.8647,-2.32026 -1.07949,-2.9751 -0.21479,-0.65484 -0.62079,-1.78768 -0.90221,-2.51742 -0.28143,-0.72973 -0.75866,-2.15848 -1.06053,-3.175 -0.30186,-1.01651 -0.9026,-3.03883 -1.33497,-4.49404 -1.3458,-4.52944 -1.60763,-5.51505 -1.82745,-6.87917 -0.11725,-0.7276 -0.45947,-2.21588 -0.76048,-3.30729 -0.30101,-1.0914 -0.55138,-2.57968 -0.55637,-3.30729 -0.005,-0.7276 -0.25505,-2.21588 -0.5557,-3.30729 -1.13934,-4.13602 -1.6175,-24.03265 -1.01101,-42.06875 0.2558,-7.60701 0.36284,-8.89444 0.92793,-11.16045 0.35133,-1.40882 0.64082,-3.13522 0.64332,-3.83646 0.002,-0.70123 0.25082,-2.16793 0.55183,-3.25934 0.30101,-1.09141 0.64323,-2.57969 0.76048,-3.30729 0.21982,-1.36412 0.48165,-2.34973 1.82745,-6.87917 0.43237,-1.45521 1.03311,-3.47753 1.33497,-4.49404 0.30187,-1.01652 0.7791,-2.44527 1.06053,-3.175 0.28142,-0.72974 0.68742,-1.86257 0.90221,-2.51742 0.21479,-0.65484 0.70056,-1.99364 1.07949,-2.9751 0.37893,-0.98146 0.9699,-2.52927 1.31327,-3.43958 0.87719,-2.32554 4.3474,-9.47924 6.57853,-13.56136 3.32605,-6.08542 9.70887,-15.9443 12.51914,-19.33701 0.59248,-0.71527 1.57673,-2.01486 2.18722,-2.88799 3.56839,-5.1035 21.89196,-23.39415 26.63347,-26.58561 0.7276,-0.48974 1.97776,-1.44507 2.77812,-2.12296 1.75513,-1.48655 7.09925,-5.06404 9.65729,-6.46484 1.01865,-0.55782 3.28084,-1.87778 5.02709,-2.93325 5.11347,-3.09067 17.10228,-8.73146 20.76979,-9.77227 0.65484,-0.18584 1.60734,-0.522 2.11667,-0.74702 1.14162,-0.50437 3.68394,-1.35193 6.48229,-2.16106 1.16416,-0.33662 2.41432,-0.7449 2.77812,-0.90729 0.36381,-0.16239 1.61396,-0.52737 2.77813,-0.81106 1.16416,-0.28369 2.83104,-0.71358 3.70416,-0.95531 0.87313,-0.24173 2.18282,-0.53479 2.91042,-0.65124 0.72761,-0.11646 1.97776,-0.40855 2.77813,-0.6491 0.80036,-0.24055 2.76489,-0.53789 4.36562,-0.66075 1.60073,-0.12287 3.92245,-0.49427 5.15938,-0.82534 2.23449,-0.59808 2.3647,-0.60197 20.24062,-0.60544 l 17.99167,-0.003 2.77812,0.71257 c 1.7867,0.45827 3.48629,0.71431 4.7625,0.71745 1.17826,0.003 2.79049,0.22764 3.96875,0.55325 1.09141,0.30161 2.69875,0.65428 3.57188,0.78371 2.00925,0.29785 13.05916,3.34564 15.61041,4.30566 0.58209,0.21904 1.59412,0.57543 2.24896,0.79198 0.65485,0.21656 1.99364,0.70377 2.9751,1.0827 0.98146,0.37893 2.52928,0.96924 3.43959,1.31181 3.61952,1.36209 10.98627,4.90438 16.73636,8.04766 5.48445,2.99807 14.65338,8.98038 18.12395,11.82506 1.09141,0.89458 2.81782,2.20512 3.83646,2.9123 2.71092,1.88204 20.35662,19.6466 22.86783,23.02186 1.08116,1.45316 2.36544,3.06831 2.85396,3.58923 1.33549,1.42405 4.92646,6.7927 9.80798,14.66329 3.25015,5.24032 7.40182,13.48778 9.22326,18.3224 0.34266,0.9095 0.93538,2.45732 1.31716,3.43958 0.38177,0.98227 0.92834,2.50031 1.21459,3.37344 0.28625,0.87312 0.74586,2.12328 1.02136,2.77812 0.27549,0.65485 0.63905,1.78594 0.8079,2.51354 0.16885,0.72761 0.42894,1.56089 0.57798,1.85174 0.14904,0.29085 0.54031,1.541 0.86949,2.77812 0.32919,1.23712 0.79709,2.96369 1.03979,3.83681 0.2427,0.87313 0.53941,2.12328 0.65935,2.77813 0.11995,0.65484 0.45344,2.08359 0.7411,3.175 0.28765,1.0914 0.59854,2.9964 0.69087,4.23333 0.0923,1.23693 0.4067,3.14193 0.69861,4.23333 0.47201,1.76474 0.55982,3.33151 0.79341,14.15521 0.35286,16.35017 -0.0217,33.47254 -0.79584,36.38021 -0.29057,1.09141 -0.60385,2.99641 -0.69618,4.23333 -0.0923,1.23693 -0.40322,3.14193 -0.69087,4.23334 -0.28766,1.0914 -0.62115,2.52015 -0.7411,3.175 -0.11994,0.65484 -0.41665,1.905 -0.65935,2.77812 -0.2427,0.87313 -0.7106,2.59969 -1.03979,3.83681 -0.32918,1.23712 -0.72045,2.48728 -0.86949,2.77813 -0.14904,0.29084 -0.40913,1.12412 -0.57798,1.85173 -0.16885,0.7276 -0.53241,1.8587 -0.8079,2.51354 -0.2755,0.65484 -0.73511,1.905 -1.02136,2.77812 -0.28625,0.87313 -0.83282,2.39118 -1.21459,3.37344 -0.38178,0.98227 -0.9745,2.53008 -1.31716,3.43959 -1.82144,4.83461 -5.97311,13.08208 -9.22326,18.32239 -4.88152,7.8706 -8.47249,13.23925 -9.80798,14.66329 -0.48852,0.52092 -1.7728,2.13608 -2.85396,3.58924 -2.51121,3.37525 -20.15691,21.13981 -22.86783,23.02185 -1.01864,0.70719 -2.74505,2.01773 -3.83646,2.9123 -3.47057,2.84468 -12.6395,8.82699 -18.12395,11.82506 -5.75009,3.14328 -13.11684,6.68558 -16.73636,8.04767 -0.91031,0.34256 -2.45813,0.93288 -3.43959,1.3118 -0.98146,0.37893 -2.32025,0.86615 -2.9751,1.0827 -0.65484,0.21656 -1.66687,0.57295 -2.24896,0.79198 -2.55125,0.96003 -13.60116,4.00781 -15.61041,4.30566 -0.87313,0.12943 -2.48047,0.4821 -3.57188,0.78371 -1.17826,0.32561 -2.79049,0.55036 -3.96875,0.55326 -1.22726,0.003 -3.04433,0.26614 -4.7625,0.68964 l -2.77812,0.68476 -14.15521,0.0788 c -7.78536,0.0433 -16.17927,-0.01 -18.65312,-0.11843 z m 19.04999,-59.91875 c 0.87313,-0.20463 3.01626,-0.45244 4.7625,-0.55068 1.74626,-0.0982 3.88938,-0.35708 4.7625,-0.57519 0.87313,-0.21812 2.36141,-0.55343 3.3073,-0.74515 2.60264,-0.52751 9.94567,-2.61905 12.03854,-3.42898 1.01864,-0.39421 2.38786,-0.89505 3.04271,-1.11298 3.44264,-1.14569 14.43352,-6.79305 17.03631,-8.75363 0.91601,-0.69 2.83568,-2.08798 4.26592,-3.10663 1.43025,-1.01864 3.3243,-2.44547 4.209,-3.17073 2.72381,-2.23289 12.80087,-12.52222 13.95418,-14.24811 0.59951,-0.89714 1.35952,-1.92881 1.68892,-2.29262 1.05096,-1.16072 5.30465,-7.7332 6.33579,-9.78958 0.54727,-1.09141 1.19961,-2.28203 1.44963,-2.64583 0.25003,-0.36381 0.84382,-1.55443 1.31953,-2.64584 2.03928,-4.67862 3.42004,-7.87595 3.82769,-8.86354 0.53194,-1.28868 1.24276,-3.90841 2.29728,-8.46667 2.17403,-9.39738 1.95637,-6.89529 1.95637,-22.48958 0,-13.49457 -0.0219,-14.11762 -0.58032,-16.53646 -3.14043,-13.6021 -2.81953,-12.50388 -5.37313,-18.38854 -0.69463,-1.60073 -1.65218,-3.80338 -2.12789,-4.89479 -0.47571,-1.09141 -1.0695,-2.28203 -1.31953,-2.64583 -0.25002,-0.36381 -0.90236,-1.55443 -1.44963,-2.64584 -1.03114,-2.05638 -5.28483,-8.62886 -6.33579,-9.78958 -0.3294,-0.3638 -1.08941,-1.39548 -1.68892,-2.29262 -1.15331,-1.72589 -11.23037,-12.01522 -13.95418,-14.24811 -0.8847,-0.72525 -2.77875,-2.15208 -4.209,-3.17073 -1.43024,-1.01864 -3.34991,-2.41663 -4.26592,-3.10663 -2.60279,-1.96058 -13.59367,-7.60793 -17.03631,-8.75363 -0.65485,-0.21793 -2.02407,-0.71877 -3.04271,-1.11298 -2.09287,-0.80993 -9.4359,-2.90147 -12.03854,-3.42898 -0.94589,-0.19172 -2.43417,-0.52703 -3.3073,-0.74514 -0.87312,-0.21812 -3.01624,-0.47695 -4.7625,-0.57519 -1.74624,-0.0982 -3.88937,-0.34606 -4.7625,-0.55069 -2.02278,-0.47408 -4.90248,-0.47722 -6.66766,-0.007 -0.75679,0.20148 -2.89992,0.44891 -4.7625,0.54983 -1.86257,0.10093 -4.27947,0.40054 -5.37088,0.66581 -1.0914,0.26527 -2.52015,0.5627 -3.175,0.66096 -2.44812,0.36734 -10.47353,2.64855 -14.55208,4.13641 -6.69262,2.44147 -16.45301,7.75451 -21.03438,11.45002 -0.58208,0.46953 -1.65364,1.25516 -2.38125,1.74585 -2.51689,1.69738 -7.89316,6.82546 -12.63314,12.04994 -4.13582,4.55858 -4.63681,5.23106 -9.84519,13.21543 -2.79037,4.27761 -5.0331,8.7141 -7.55697,14.94896 -1.25943,3.11124 -3.4666,10.68273 -3.93356,13.49375 -0.10879,0.65484 -0.45229,2.32172 -0.76335,3.70417 -0.664,2.9511 -1.06422,7.42555 -1.47909,16.53645 -0.34916,7.66799 -0.23681,9.21729 1.04572,14.4198 0.52018,2.11005 1.04736,4.43177 1.17153,5.15937 0.51453,3.01512 2.67836,10.46302 3.95875,13.62604 2.52387,6.23487 4.7666,10.67135 7.55697,14.94896 5.20838,7.98438 5.70937,8.65686 9.84519,13.21543 4.73998,5.22448 10.11625,10.35256 12.63314,12.04994 0.72761,0.49069 1.79917,1.27633 2.38125,1.74586 4.58137,3.6955 14.34176,9.00855 21.03438,11.45002 4.07855,1.48785 12.10396,3.76906 14.55208,4.1364 0.65485,0.0983 2.0836,0.39569 3.175,0.66096 1.09141,0.26527 3.50067,0.56444 5.35391,0.66483 1.85324,0.10039 3.93683,0.33858 4.63021,0.52932 1.68881,0.46457 4.86711,0.47121 6.81692,0.0142 z m -56.22395,-62.06726 c -7.24606,-2.11194 -11.6032,-4.67458 -16.82303,-9.89441 -4.4138,-4.4138 -7.68621,-9.48401 -8.80869,-13.64803 -0.29421,-1.0914 -0.77915,-2.81523 -1.07765,-3.83073 -0.47405,-1.61273 -0.54214,-2.56686 -0.53818,-7.54062 0.004,-4.88784 0.0807,-5.9753 0.54228,-7.67865 0.29576,-1.0914 0.76762,-2.9048 1.04857,-4.02977 0.58786,-2.35385 2.3782,-6.06502 4.29934,-8.91202 1.62781,-2.41232 7.19247,-8.18823 9.21497,-9.56481 2.81336,-1.91487 6.45669,-3.96493 7.51218,-4.22702 0.58208,-0.14454 1.65364,-0.49363 2.38125,-0.77577 2.64494,-1.02559 3.48519,-1.09703 11.90625,-1.01225 7.23155,0.0728 8.34297,0.14012 9.39271,0.56887 0.65484,0.26747 1.7264,0.66486 2.38125,0.8831 2.63617,0.87857 7.18938,3.13881 8.89583,4.41595 2.49089,1.86423 6.74564,5.99314 8.2474,8.00348 2.06186,2.76013 5.14477,9.1736 5.59875,11.64727 0.95819,5.22104 1.17375,6.94046 1.27038,10.13354 0.0882,2.91331 0.011,3.96893 -0.42538,5.82083 -0.29319,1.24418 -0.6693,3.02852 -0.83581,3.96519 -0.16651,0.93668 -0.59114,2.27217 -0.94362,2.96777 -0.35249,0.69559 -0.64089,1.43844 -0.64089,1.65076 0,0.21232 -0.72223,1.82886 -1.60496,3.59231 -1.37831,2.7535 -1.95998,3.58761 -4.11891,5.90661 -1.38267,1.48519 -3.07145,3.21669 -3.75285,3.84778 -2.57287,2.38294 -8.21951,5.74744 -10.89619,6.4924 -0.80037,0.22276 -2.16959,0.67841 -3.04271,1.01256 -1.51561,0.58004 -1.94698,0.60981 -9.525,0.65723 -7.10082,0.0444 -8.11878,-0.003 -9.65729,-0.45157 z m 82.55,-0.002 c -3.36052,-0.95548 -4.40317,-1.35644 -7.55681,-2.90598 -2.1893,-1.07572 -3.80911,-2.09716 -5.15938,-3.25347 -2.93773,-2.51574 -6.92659,-6.78821 -8.46213,-9.06378 -1.71175,-2.5367 -3.8072,-6.99845 -4.23596,-9.01943 -0.18047,-0.85065 -0.60827,-2.54222 -0.95067,-3.75905 -0.53495,-1.9011 -0.62255,-2.80505 -0.62255,-6.4242 0,-3.52072 0.10432,-4.65544 0.6358,-6.91571 0.34969,-1.48716 0.77353,-3.45995 0.94187,-4.38398 0.30711,-1.68579 0.81778,-2.98233 2.61447,-6.63786 1.48831,-3.02809 2.65908,-4.70194 5.08699,-7.27286 3.66737,-3.88338 6.80478,-6.31407 10.42995,-8.08054 7.18081,-3.49908 7.15626,-3.49418 17.02386,-3.39451 7.12239,0.0719 8.25943,0.14099 9.30456,0.56498 0.65484,0.26567 2.08359,0.74909 3.175,1.07429 3.09362,0.92178 7.01362,3.08154 9.81405,5.40714 3.06002,2.54118 6.611,6.267 7.96003,8.35196 1.77717,2.74665 4.11493,7.63233 4.44337,9.2862 0.1734,0.87313 0.496,2.215 0.71689,2.98195 1.03478,3.59278 1.20578,10.78987 0.33776,14.21597 -0.29495,1.16417 -0.71019,2.83104 -0.92276,3.70417 -0.39417,1.61904 -0.92597,2.94109 -2.8657,7.12408 -2.05739,4.43676 -3.58533,6.36798 -8.82637,11.15601 -2.60716,2.38182 -3.3645,2.90636 -6.21771,4.30644 -3.01697,1.48043 -4.63088,2.10175 -8.01144,3.08419 -1.03247,0.30005 -3.03655,0.3799 -9.12812,0.36371 -6.75299,-0.0179 -8.03706,-0.0867 -9.525,-0.50972 z"
       id="path2" /></g></svg>
