<?xml version="1.0" encoding="UTF-8" standalone="no"?>
<!-- Created with Inkscape (http://www.inkscape.org/) -->

<svg
   width="1920"
   height="1920"
   viewBox="0 0 507.99999 508"
   version="1.1"
   id="svg1"
   xml:space="preserve"
   xmlns="http://www.w3.org/2000/svg"
   xmlns:svg="http://www.w3.org/2000/svg"><defs
     id="defs1" /><g
     id="layer1"><path
       style="fill:#ffffff;fill-opacity:1"
       d="m 245.79792,404.81511 c -0.94589,-0.11294 -2.73183,-0.22314 -3.96875,-0.2449 -1.7323,-0.0305 -3.40386,-0.33516 -7.27605,-1.32623 -6.0714,-1.55396 -7.50069,-2.02941 -11.77395,-3.91655 -5.49532,-2.42683 -7.18176,-3.39862 -15.0191,-8.65456 -1.20274,-0.80659 -3.20297,-2.44209 -4.44494,-3.63444 l -2.25814,-2.1679 -2.56652,1.21084 c -5.82028,2.74592 -10.85562,4.45147 -14.32985,4.85373 -0.8062,0.0934 -2.41833,0.42239 -3.5825,0.73121 -1.94002,0.51462 -2.81218,0.5621 -10.45104,0.56893 -7.6547,0.007 -8.52856,-0.0393 -10.71562,-0.56591 -1.30969,-0.31535 -3.43022,-0.76442 -4.71228,-0.99793 -1.28207,-0.23351 -2.82988,-0.60831 -3.43958,-0.83289 -0.60971,-0.22458 -1.88246,-0.62688 -2.82835,-0.894 -11.07282,-3.12704 -24.80394,-13.83738 -32.50188,-25.35163 -2.39297,-3.57931 -6.23447,-10.77032 -6.53135,-12.22621 -0.10386,-0.50933 -0.36799,-1.27637 -0.58696,-1.70454 -0.37246,-0.72833 -0.98501,-2.7452 -2.17427,-7.15901 -0.966,-3.58521 -1.06796,-10.83725 -1.06993,-76.10162 -0.002,-69.01582 0.12978,-77.94699 1.21519,-82.29945 0.35133,-1.40882 0.64082,-3.13522 0.64332,-3.83646 0.002,-0.70123 0.25082,-2.16793 0.55183,-3.25934 0.30101,-1.09141 0.64323,-2.57969 0.76048,-3.30729 0.21982,-1.36412 0.48165,-2.34973 1.82745,-6.87917 0.43237,-1.45521 1.03311,-3.47753 1.33497,-4.49404 0.30187,-1.01652 0.7791,-2.44527 1.06053,-3.175 0.28142,-0.72974 0.68742,-1.86257 0.90221,-2.51742 0.21479,-0.65484 0.71119,-2.02406 1.10311,-3.04271 0.39193,-1.01864 0.9829,-2.56645 1.31327,-3.43958 0.86115,-2.27587 4.35732,-9.47298 6.55491,-13.49375 3.32605,-6.08542 9.70887,-15.9443 12.51914,-19.33701 0.59248,-0.71527 1.57673,-2.01486 2.18722,-2.88799 3.56839,-5.1035 21.89196,-23.394154 26.63347,-26.585607 0.7276,-0.489742 1.97776,-1.445075 2.77812,-2.122962 1.75513,-1.486546 7.09925,-5.064041 9.65729,-6.464845 1.01865,-0.557818 3.28084,-1.877777 5.02709,-2.933241 5.11347,-3.090676 17.10228,-8.731462 20.76979,-9.772279 0.65484,-0.185841 1.60734,-0.521998 2.11667,-0.747017 1.14162,-0.504368 3.68394,-1.351925 6.48229,-2.161063 1.16416,-0.336617 2.41432,-0.744896 2.77812,-0.907286 0.36381,-0.162391 1.61396,-0.527367 2.77813,-0.81106 1.16416,-0.283692 2.83104,-0.713582 3.70416,-0.955311 0.87313,-0.241729 2.18282,-0.534787 2.91042,-0.651241 0.72761,-0.116454 1.97776,-0.408547 2.77813,-0.649096 0.80036,-0.240549 2.76489,-0.537888 4.36562,-0.660754 1.60073,-0.122866 3.92245,-0.494269 5.15938,-0.82534 2.23449,-0.598074 2.3647,-0.601969 20.24062,-0.605438 l 17.99167,-0.0035 2.77812,0.712569 c 1.7867,0.458274 3.48629,0.714311 4.7625,0.717447 1.17826,0.0029 2.79049,0.227646 3.96875,0.553258 1.09141,0.301609 2.69875,0.654279 3.57188,0.783711 2.00925,0.29785 13.05916,3.345632 15.61041,4.305657 0.58209,0.219035 1.59412,0.575427 2.24896,0.791981 0.65485,0.216555 1.99364,0.703768 2.9751,1.082697 0.98146,0.378928 2.52928,0.969242 3.43959,1.311807 3.61952,1.36209 10.98627,4.904386 16.73635,8.047665 5.48446,2.998072 14.65339,8.980383 18.12396,11.825059 1.09141,0.894578 2.81782,2.205115 3.83646,2.912305 2.71092,1.882038 20.35662,19.646594 22.86783,23.021854 1.08116,1.45316 2.36544,3.06831 2.85396,3.58923 1.33549,1.42405 4.92646,6.7927 9.80798,14.66329 3.22418,5.19845 7.38815,13.46118 9.20015,18.25625 0.32994,0.87313 0.92266,2.42094 1.31715,3.43958 0.39449,1.01865 0.95146,2.56646 1.23771,3.43959 0.28625,0.87312 0.74586,2.12328 1.02136,2.77812 0.27549,0.65485 0.63905,1.78594 0.8079,2.51354 0.16885,0.72761 0.42894,1.56089 0.57798,1.85174 0.14904,0.29085 0.54031,1.541 0.86949,2.77812 0.32919,1.23712 0.79709,2.96369 1.03979,3.83681 0.2427,0.87313 0.53941,2.12328 0.65935,2.77813 0.11995,0.65484 0.45344,2.08359 0.7411,3.175 0.28765,1.0914 0.59854,2.9964 0.69087,4.23333 0.0923,1.23693 0.40713,3.14193 0.69955,4.23333 0.46687,1.74244 0.56103,3.29083 0.77231,12.7 0.30002,13.361 0.30367,115.24158 0.005,130.30729 -0.20276,10.21635 -0.26667,11.27253 -0.79248,13.09688 -0.31457,1.09141 -0.68111,2.50243 -0.81454,3.13562 -0.7146,3.39106 -1.02911,4.19879 -4.13621,10.62271 -1.24627,2.57666 -3.12887,5.82213 -5.06472,8.73125 -2.75368,4.13811 -3.53133,5.08249 -7.31701,8.88571 -2.32972,2.34053 -5.18836,4.92579 -6.35252,5.74504 -8.38454,5.90034 -14.1463,9.01476 -19.44688,10.51168 -0.94588,0.26712 -2.21864,0.66942 -2.82834,0.894 -0.60971,0.22458 -2.15752,0.59426 -3.43959,0.82152 -1.28206,0.22726 -3.40259,0.64895 -4.71228,0.93709 -2.10383,0.46286 -3.37789,0.5234 -10.93612,0.51964 -7.53523,-0.004 -8.79665,-0.0646 -10.58333,-0.51076 -1.11566,-0.27857 -2.89301,-0.58844 -3.94969,-0.68861 -3.92612,-0.37216 -8.88549,-2.04302 -15.18349,-5.11547 l -3.08181,-1.50344 -1.81392,1.7242 c -2.15426,2.04769 -5.01873,4.16846 -9.88184,7.31621 -3.8451,2.48882 -10.05569,5.75476 -11.77396,6.19154 -0.58209,0.14796 -1.71318,0.55136 -2.51354,0.89644 -5.26983,2.27212 -11.53034,3.83747 -16.66875,4.16777 -5.03847,0.32388 -17.79108,0.46557 -19.84375,0.22047 z m 10.36471,-60.61539 c 4.76945,-0.97397 7.445,-2.43215 9.28976,-5.06296 1.55171,-2.21289 2.2973,-3.73893 2.87968,-5.89405 0.46052,-1.70416 0.5124,-3.31017 0.6495,-20.10834 l 0.14901,-18.25625 1.0613,-4.09821 c 1.13955,-4.40039 1.66994,-5.64513 3.72164,-8.73408 1.56078,-2.34984 5.81454,-6.77736 7.86773,-8.18912 2.27013,-1.56092 6.54813,-3.59027 8.73125,-4.14182 1.71341,-0.43289 2.99597,-0.50135 9.39271,-0.50135 9.82481,0 10.80069,0.23348 16.53646,3.95628 2.90431,1.88504 7.0242,5.6901 8.45622,7.81002 1.76655,2.61514 3.64409,6.44776 4.08663,8.34203 0.87557,3.74782 1.04024,6.05913 1.23473,17.33021 0.20132,11.66756 0.3567,13.8968 1.13412,16.27188 0.93104,2.8444 4.3113,6.12952 6.97582,6.77949 0.69494,0.16951 1.44815,0.40161 1.67381,0.51576 0.3933,0.19896 2.36539,-0.2795 3.61598,-0.87729 0.74849,-0.35778 1.8082,-1.95625 2.36792,-3.57178 0.40056,-1.15613 0.43422,-6.37659 0.41312,-64.07536 -0.0126,-34.54918 -0.0968,-63.42184 -0.18697,-64.16146 -0.26489,-2.17192 -2.11502,-10.5902 -3.2902,-14.97082 -0.63337,-2.36093 -0.59695,-2.27052 -4.7969,-11.90625 -0.47571,-1.09141 -1.0695,-2.28203 -1.31953,-2.64583 -0.25002,-0.36381 -0.90236,-1.55443 -1.44963,-2.64584 -1.03114,-2.05638 -5.28483,-8.62886 -6.33579,-9.78958 -0.3294,-0.3638 -1.08941,-1.39548 -1.68892,-2.29262 -1.15331,-1.72589 -11.23037,-12.01522 -13.95418,-14.24811 -0.8847,-0.72525 -2.77875,-2.15208 -4.209,-3.17073 -1.43024,-1.01864 -3.34991,-2.41663 -4.26592,-3.10663 -2.60279,-1.96058 -13.59367,-7.60793 -17.03631,-8.75363 -0.65485,-0.21793 -2.02407,-0.71877 -3.04271,-1.11298 -2.09287,-0.80993 -9.4359,-2.90147 -12.03854,-3.42898 -0.94589,-0.19172 -2.43417,-0.52703 -3.3073,-0.74514 -0.87312,-0.21812 -3.01625,-0.47695 -4.7625,-0.57519 -1.74625,-0.0983 -3.88937,-0.34606 -4.7625,-0.55069 -2.02278,-0.47408 -4.90248,-0.47722 -6.66766,-0.007 -0.75679,0.20148 -2.89992,0.44891 -4.7625,0.54983 -1.86257,0.10093 -4.27947,0.40054 -5.37088,0.66581 -1.0914,0.26527 -2.52015,0.5627 -3.175,0.66096 -2.44812,0.36734 -10.47353,2.64855 -14.55208,4.13641 -6.69262,2.44147 -16.45301,7.75451 -21.03438,11.45002 -0.58208,0.46953 -1.65364,1.25516 -2.38125,1.74585 -2.51689,1.69738 -7.89316,6.82546 -12.63314,12.04994 -4.13582,4.55858 -4.63681,5.23106 -9.84519,13.21543 -2.79037,4.27761 -5.0331,8.7141 -7.55697,14.94896 -1.25943,3.11124 -3.4666,10.68273 -3.93356,13.49375 -0.10879,0.65484 -0.4527,2.32172 -0.76425,3.70417 -0.66316,2.94259 -1.02385,7.0174 -1.47547,16.66875 -0.4854,10.37311 -0.29358,109.04628 0.21602,111.125 0.19621,0.80036 0.43701,2.14832 0.53512,2.99547 0.23219,2.00501 0.67969,3.02169 1.80843,4.10859 0.68043,0.65521 1.15156,0.88334 1.80662,0.87479 3.20238,-0.0418 6.09858,-2.74467 7.48643,-6.98667 0.22614,-0.69122 0.59758,-1.82231 0.82541,-2.51354 1.09149,-3.3115 3.62271,-7.34065 6.75068,-10.74564 3.66303,-3.98742 8.97171,-7.12118 14.66321,-8.6558 1.58271,-0.42675 2.81414,-0.49938 8.46666,-0.49938 7.5975,0 8.5755,0.16556 12.87292,2.17928 3.51173,1.64555 5.35805,2.96203 8.75596,6.24326 3.31351,3.19971 4.51303,4.83328 6.21298,8.4611 1.42349,3.03784 2.09858,5.45643 2.33266,8.35709 0.0947,1.17401 0.39869,3.04738 0.67544,4.16303 0.27674,1.11565 0.50317,2.31347 0.50317,2.66181 0,0.34834 0.2944,1.38457 0.65422,2.30273 2.03962,5.20447 5.47984,7.83999 12.04578,9.22819 1.66401,0.35181 2.14471,0.35533 3.75013,0.0275 z m -52.43346,-102.9052 c -7.24606,-2.11194 -11.6032,-4.67458 -16.82303,-9.89441 -4.4138,-4.4138 -7.68621,-9.48401 -8.80869,-13.64803 -0.29421,-1.0914 -0.77915,-2.81523 -1.07765,-3.83073 -0.47405,-1.61273 -0.54214,-2.56686 -0.53818,-7.54062 0.004,-4.88784 0.0807,-5.9753 0.54228,-7.67865 0.29576,-1.0914 0.76762,-2.9048 1.04857,-4.02977 0.58786,-2.35385 2.3782,-6.06502 4.29934,-8.91202 1.62781,-2.41232 7.19247,-8.18823 9.21497,-9.56481 2.81336,-1.91487 6.45669,-3.96493 7.51218,-4.22702 0.58208,-0.14454 1.65364,-0.49363 2.38125,-0.77577 2.64494,-1.02559 3.48519,-1.09703 11.90625,-1.01225 7.23155,0.0728 8.34297,0.14012 9.39271,0.56887 0.65484,0.26747 1.7264,0.66486 2.38125,0.8831 2.63617,0.87857 7.18938,3.13881 8.89583,4.41595 2.49089,1.86423 6.74564,5.99314 8.2474,8.00348 2.06186,2.76013 5.14477,9.1736 5.59875,11.64727 0.95819,5.22104 1.17375,6.94046 1.27038,10.13354 0.0882,2.91331 0.011,3.96893 -0.42538,5.82083 -0.29319,1.24418 -0.6693,3.02852 -0.83581,3.96519 -0.16651,0.93668 -0.59114,2.27217 -0.94362,2.96777 -0.35249,0.69559 -0.64089,1.43844 -0.64089,1.65076 0,0.21232 -0.72223,1.82886 -1.60496,3.59231 -1.37831,2.7535 -1.95998,3.58761 -4.11891,5.90661 -1.38267,1.48519 -3.07145,3.21669 -3.75285,3.84778 -2.57287,2.38294 -8.21951,5.74744 -10.89619,6.4924 -0.80037,0.22276 -2.16959,0.67841 -3.04271,1.01256 -1.51561,0.58004 -1.94698,0.60981 -9.525,0.65723 -7.10082,0.0444 -8.11878,-0.003 -9.65729,-0.45157 z m 82.55,-0.002 c -3.36052,-0.95548 -4.40317,-1.35644 -7.55681,-2.90598 -2.1893,-1.07572 -3.80911,-2.09716 -5.15938,-3.25347 -2.93773,-2.51574 -6.92659,-6.78821 -8.46213,-9.06378 -1.71175,-2.5367 -3.8072,-6.99845 -4.23596,-9.01943 -0.18047,-0.85065 -0.60827,-2.54222 -0.95067,-3.75905 -0.53495,-1.9011 -0.62255,-2.80505 -0.62255,-6.4242 0,-3.52072 0.10432,-4.65544 0.6358,-6.91571 0.34969,-1.48716 0.77353,-3.45995 0.94187,-4.38398 0.30711,-1.68579 0.81778,-2.98233 2.61447,-6.63786 1.48831,-3.02809 2.65908,-4.70194 5.08699,-7.27286 3.66737,-3.88338 6.80478,-6.31407 10.42995,-8.08054 7.18081,-3.49908 7.15626,-3.49418 17.02386,-3.39451 7.12239,0.0719 8.25943,0.14099 9.30456,0.56498 0.65484,0.26567 2.08359,0.74909 3.175,1.07429 3.09362,0.92178 7.01362,3.08154 9.81405,5.40714 3.06002,2.54118 6.611,6.267 7.96003,8.35196 1.77717,2.74665 4.11493,7.63233 4.44337,9.2862 0.1734,0.87313 0.496,2.215 0.71689,2.98195 1.03478,3.59278 1.20578,10.78987 0.33776,14.21597 -0.29495,1.16417 -0.71019,2.83104 -0.92276,3.70417 -0.39417,1.61904 -0.92597,2.94109 -2.8657,7.12408 -2.05739,4.43676 -3.58533,6.36798 -8.82637,11.15601 -2.60716,2.38182 -3.3645,2.90636 -6.21771,4.30644 -3.01697,1.48043 -4.63088,2.10175 -8.01144,3.08419 -1.03247,0.30005 -3.03655,0.3799 -9.12812,0.36371 -6.75299,-0.0179 -8.03706,-0.0867 -9.525,-0.50972 z"
       id="path2" /></g></svg>
