<?xml version="1.0" encoding="UTF-8" standalone="no"?>
<!-- Created with Inkscape (http://www.inkscape.org/) -->

<svg
   width="1920"
   height="1920"
   viewBox="0 0 507.99999 508"
   version="1.1"
   id="svg1"
   xml:space="preserve"
   xmlns="http://www.w3.org/2000/svg"
   xmlns:svg="http://www.w3.org/2000/svg"><defs
     id="defs1" /><g
     id="layer1"><path
       style="fill:#ffffff;fill-opacity:1"
       d="m 61.11875,417.76586 v -30.15128 h 193.01354 193.01354 v 30.15128 30.15128 H 254.13229 61.11875 Z m 0,-87.03669 v -30.1625 h 193.01354 193.01354 v 30.1625 30.1625 H 254.13229 61.11875 Z m 59.17847,-90.13473 c -0.097,-0.097 -0.17639,-13.67013 -0.17639,-30.1625 v -29.98611 h -30.162497 -30.1625 v -30.1625 -30.1625 h 30.1625 30.162497 v -30.162497 -30.1625 h 30.03021 30.03021 v 30.1625 30.162497 h 30.03021 30.03021 v 30.1625 30.1625 h -30.03021 -30.03021 v 30.1625 30.1625 h -29.85382 c -16.4196,0 -29.93319,-0.0794 -30.03021,-0.17639 z M 387.35,177.40312 v -30.29479 h 30.42708 30.42709 v 30.29479 30.2948 H 417.77708 387.35 Z m 0.1775,-56.66381 C 387.4299,120.64171 387.35,106.94899 387.35,90.311111 V 60.060417 h 30.4282 30.4282 l -0.0673,30.360937 -0.0673,30.360936 -30.18344,0.0673 c -16.60089,0.037 -30.26331,-0.0126 -30.36094,-0.11024 z M 300.56667,90.222917 v -30.1625 h 30.0302 30.03021 v 30.1625 30.162503 h -30.03021 -30.0302 z"
       id="path2" /></g></svg>
