<?xml version="1.0" encoding="UTF-8" standalone="no"?>
<!-- Created with Inkscape (http://www.inkscape.org/) -->

<svg
   width="1920"
   height="1920"
   viewBox="0 0 507.99999 508"
   version="1.1"
   id="svg1"
   xml:space="preserve"
   xmlns="http://www.w3.org/2000/svg"
   xmlns:svg="http://www.w3.org/2000/svg"><defs
     id="defs1" /><g
     id="layer1"><path
       style="fill:#ffffff;fill-opacity:1"
       d="m 218.08281,447.74115 -52.45364,-0.0675 V 417.51185 387.35 h 62.13308 c 34.1732,0 97.51445,0.0793 140.75834,0.17624 l 78.62524,0.17624 v 30.11855 30.11855 l -88.30468,-0.0655 c -48.56758,-0.036 -111.90883,-0.0958 -140.75834,-0.13295 z M 61.11875,330.77312 v -30.11856 l 78.38281,-0.17619 c 43.11055,-0.0969 106.39227,-0.17621 140.62604,-0.17624 l 62.24323,-5e-5 v 30.11855 30.11856 l -78.38281,0.17619 c -43.11055,0.0969 -106.39226,0.17621 -140.62604,0.17624 l -62.24323,5e-5 z m 59.17847,-90.17868 c -0.097,-0.097 -0.17639,-13.67013 -0.17639,-30.1625 v -29.98611 h -30.162497 -30.1625 v -30.1625 -30.1625 h 30.1625 30.162497 v -30.162497 -30.1625 h 30.03021 30.03021 v 30.1625 30.162497 h 30.03021 30.03021 v 30.1625 30.1625 h -30.03021 -30.03021 v 30.1625 30.1625 h -29.85382 c -16.4196,0 -29.93319,-0.0794 -30.03021,-0.17639 z M 387.35,177.40312 v -30.29479 h 30.42708 30.42709 v 30.29479 30.2948 H 417.77708 387.35 Z M 300.56667,90.222917 v -30.1625 h 30.0302 30.03021 v 30.1625 30.162503 h -30.03021 -30.0302 z"
       id="path2" /></g></svg>
