<?xml version="1.0" encoding="UTF-8" standalone="no"?>
<!-- Created with Inkscape (http://www.inkscape.org/) -->

<svg
   width="1920"
   height="1920"
   viewBox="0 0 507.99999 508"
   version="1.1"
   id="svg1"
   xml:space="preserve"
   xmlns="http://www.w3.org/2000/svg"
   xmlns:svg="http://www.w3.org/2000/svg"><defs
     id="defs1" /><g
     id="layer1"><path
       style="fill:#ffffff;fill-opacity:1"
       d="m 270.40417,417.77708 v -30.1625 h 88.37083 88.37083 v 30.1625 30.1625 H 358.775 270.40417 Z M 61.11875,330.72917 v -30.1625 h 88.37083 88.37084 v 30.1625 30.1625 H 149.48958 61.11875 Z M 85.989595,214.44316 64.695121,193.14257 85.991215,171.84524 107.28731,150.54792 86.055113,129.31449 C 74.377405,117.63611 64.822917,107.962 64.822917,107.81648 c 0,-0.34512 42.385083,-42.72898 42.730203,-42.72898 0.14485,0 9.8184,9.554488 21.49679,21.232196 l 21.23342,21.232194 21.29917,-21.297929 21.29916,-21.297932 21.36449,21.364488 21.36449,21.364493 -21.29814,21.29936 -21.29814,21.29937 21.23221,21.23221 21.2322,21.2322 -21.49659,21.4978 -21.49658,21.4978 -21.23343,-21.2322 -21.23342,-21.23219 -21.23342,21.23219 c -11.67839,11.67771 -21.29369,21.2322 -21.36735,21.2322 -0.0737,0 -9.716424,-9.58527 -21.428385,-21.30059 z M 387.5275,120.73931 C 387.4299,120.64171 387.35,106.94899 387.35,90.311111 V 60.060417 h 30.4282 30.4282 l -0.0673,30.360937 -0.0673,30.360936 -30.18344,0.0673 c -16.60089,0.037 -30.26331,-0.0126 -30.36094,-0.11024 z M 300.56667,90.222917 v -30.1625 h 30.0302 30.03021 v 30.1625 30.162503 h -30.03021 -30.0302 z"
       id="path2" /></g></svg>
