<?xml version="1.0" encoding="UTF-8" standalone="no"?>
<!-- Created with Inkscape (http://www.inkscape.org/) -->

<svg
   width="1920"
   height="1920"
   viewBox="0 0 507.99999 508"
   version="1.1"
   id="svg1"
   xml:space="preserve"
   xmlns="http://www.w3.org/2000/svg"
   xmlns:svg="http://www.w3.org/2000/svg"><defs
     id="defs1" /><g
     id="layer1"><path
       style="fill:#ffffff;fill-opacity:1"
       d="M 60.060417,366.05122 V 284.1625 l 67.138023,-3e-5 c 36.92591,-2e-5 124.19891,-0.0793 193.94,-0.1763 l 126.80199,-0.17627 -0.0666,81.9987 -0.0666,81.99869 -193.87344,0.0663 -193.873433,0.0663 z M 387.87917,365.2856 c 0,-27.11373 -0.0403,-30.01736 -0.41852,-30.1625 -0.23018,-0.0883 -13.74377,-0.1606 -30.03021,-0.1606 h -29.61169 v 30.1625 30.1625 h 30.03021 30.03021 z M 169.53135,223.90365 60.059571,223.83687 60.12614,142.01479 60.192708,60.192708 H 254 447.80729 l 0.0666,81.954692 0.0666,81.95468 -84.46865,-0.0658 c -46.45776,-0.0362 -133.73095,-0.0959 -193.94043,-0.13261 z m 217.7525,-51.01978 0.59532,-0.12104 V 142.73767 112.7125 l -75.4724,7e-5 c -41.50982,3e-5 -101.63638,0.0793 -133.61458,0.17619 L 120.65,113.06488 v 30.13137 30.13137 l 133.01927,-0.16135 c 73.1606,-0.0888 133.28716,-0.21583 133.61458,-0.2824 z"
       id="path2" /></g></svg>
