<?xml version="1.0" encoding="UTF-8" standalone="no"?>
<!-- Created with Inkscape (http://www.inkscape.org/) -->

<svg
   width="1920"
   height="1920"
   viewBox="0 0 507.99999 508"
   version="1.1"
   id="svg1"
   xml:space="preserve"
   xmlns="http://www.w3.org/2000/svg"
   xmlns:svg="http://www.w3.org/2000/svg"><defs
     id="defs1" /><g
     id="layer1"><path
       style="fill:#ffffff;fill-opacity:1"
       d="M 60.060417,366.05122 V 284.1625 l 67.138023,-3e-5 c 36.92591,-2e-5 124.19891,-0.0793 193.94,-0.1763 l 126.80199,-0.17627 -0.0666,81.9987 -0.0666,81.99869 -193.87344,0.0663 -193.873433,0.0663 z M 387.87917,365.2856 c 0,-27.11373 -0.0403,-30.01736 -0.41852,-30.1625 -0.23018,-0.0883 -13.74377,-0.1606 -30.03021,-0.1606 h -29.61169 v 30.1625 30.1625 h 30.03021 30.03021 z M 169.53177,223.90365 60.060417,223.83685 V 141.94844 60.060037 l 193.873433,0.06633 193.87344,0.06633 0.0666,81.954693 0.0666,81.95468 -84.46865,-0.0658 c -46.45776,-0.0362 -133.73076,-0.0959 -193.94001,-0.13261 z M 387.46065,172.8769 c 0.37823,-0.14514 0.41852,-3.04877 0.41852,-30.1625 v -30.0019 h -30.03021 -30.03021 v 30.1625 30.1625 h 29.61169 c 16.28644,0 29.80003,-0.0723 30.03021,-0.1606 z"
       id="path2" /></g></svg>
