<?xml version="1.0" encoding="UTF-8" standalone="no"?>
<!-- Created with Inkscape (http://www.inkscape.org/) -->

<svg
   width="1920"
   height="1920"
   viewBox="0 0 507.99999 508"
   version="1.1"
   id="svg1"
   xml:space="preserve"
   xmlns="http://www.w3.org/2000/svg"
   xmlns:svg="http://www.w3.org/2000/svg"><defs
     id="defs1" /><g
     id="layer1"><path
       style="fill:#ffffff;fill-opacity:1"
       d="m 110.72813,447.78677 c -0.43657,-0.0614 -1.91257,-0.24146 -3.28001,-0.40026 -8.717117,-1.01228 -18.333162,-4.97299 -25.774742,-10.61624 -2.789648,-2.11551 -7.182329,-6.37339 -9.358481,-9.07131 -6.14535,-7.6188 -10.117321,-16.64204 -11.646781,-26.45833 -0.563516,-3.61673 -0.621497,-11.86444 -0.108811,-15.47813 2.545826,-17.94439 13.463267,-33.25591 29.53132,-41.41717 5.180365,-2.6312 10.716015,-4.40432 16.668755,-5.33913 3.87078,-0.60787 12.39086,-0.60924 16.15965,-0.003 l 2.6659,0.42911 13.09348,-13.14916 c 7.20141,-7.23204 24.03244,-24.22198 37.40229,-37.75542 13.36985,-13.53343 26.68969,-27.01069 29.59964,-29.94945 l 5.29084,-5.3432 -10.43403,-10.54181 c -5.73871,-5.79799 -24.65901,-24.92028 -42.04511,-42.49397 -27.73292,-28.03216 -31.68727,-31.93306 -32.23202,-31.79633 -4.43404,1.11287 -14.27627,1.41088 -19.50064,0.59044 -12.200774,-1.916 -22.77216,-7.36577 -31.231011,-16.10022 -8.189422,-8.45624 -13.315865,-18.95629 -14.967234,-30.65608 -0.456711,-3.23575 -0.456711,-11.58092 0,-14.81667 2.529748,-17.923023 13.461914,-33.256148 29.52949,-41.417167 5.187346,-2.634748 10.738085,-4.4115 16.668755,-5.335547 3.61672,-0.563516 11.86443,-0.621497 15.47812,-0.108811 17.94439,2.545826 33.25591,13.463267 41.41717,29.53132 2.6312,5.180365 4.40432,10.716015 5.33913,16.668755 0.52423,3.33821 0.60847,12.34163 0.14234,15.21354 l -0.27914,1.71979 7.32844,7.40833 C 236.89927,192.47676 253.83444,209.55 254,209.55 c 0.16556,0 17.10073,-17.07324 77.81456,-78.44896 l 7.32844,-7.40833 -0.27914,-1.71979 c -0.46613,-2.87191 -0.38189,-11.87533 0.14234,-15.21354 1.916,-12.200774 7.36577,-22.77216 16.10022,-31.231011 8.45557,-8.18878 18.93609,-13.306313 30.65608,-14.969064 3.61369,-0.512686 11.8614,-0.454705 15.47813,0.108811 12.16784,1.895851 22.77057,7.360559 31.231,16.096635 8.18942,8.45624 13.31587,18.956288 14.96724,30.656079 0.45671,3.23575 0.45671,11.58092 0,14.81667 -2.52975,17.92303 -13.46192,33.25615 -29.5295,41.41717 -5.18036,2.6312 -10.71601,4.40432 -16.66874,5.33913 -5.22438,0.82044 -15.06661,0.52243 -19.50065,-0.59044 -0.54475,-0.13673 -4.4991,3.76417 -32.23202,31.79633 -17.3861,17.57369 -36.3064,36.69598 -42.04511,42.49397 l -10.43403,10.54181 5.29084,5.3432 c 2.90995,2.93876 16.22979,16.41602 29.59964,29.94945 13.36985,13.53344 30.20088,30.52338 37.40229,37.75542 l 13.09348,13.14916 2.6659,-0.42911 c 3.76879,-0.60663 12.28887,-0.60526 16.15966,0.003 12.20076,1.916 22.77215,7.36577 31.231,16.10022 8.18942,8.45624 13.31587,18.95629 14.96724,30.65608 0.45671,3.23575 0.45671,11.58092 0,14.81667 -2.52975,17.92302 -13.46192,33.25615 -29.5295,41.41717 -5.18734,2.63475 -10.73808,4.4115 -16.66874,5.33554 -3.61673,0.56352 -11.86444,0.6215 -15.47813,0.10882 -17.94439,-2.54583 -33.25591,-13.46327 -41.41717,-29.53133 -2.6297,-5.17741 -4.40125,-10.70659 -5.34065,-16.66874 -0.57,-3.61765 -0.58908,-12.6081 -0.034,-16.01332 l 0.36759,-2.25498 -42.53056,-42.98877 C 273.41592,316.33974 254.15244,296.99479 254,296.99479 c -0.15244,0 -19.41592,19.34495 -42.80773,42.98877 l -42.53056,42.98877 0.36562,2.25498 c 0.49365,3.04455 0.53783,12.11592 0.0748,15.35186 -2.57297,17.98045 -13.46553,33.25549 -29.5344,41.41717 -5.10809,2.59449 -10.73388,4.40753 -16.41987,5.29168 -2.54103,0.39512 -10.79763,0.72669 -12.41971,0.49875 z"
       id="path16" /></g></svg>
