<?xml version="1.0" encoding="UTF-8" standalone="no"?>
<!-- Created with Inkscape (http://www.inkscape.org/) -->

<svg
   width="1920"
   height="1920"
   viewBox="0 0 507.99999 508"
   version="1.1"
   id="svg1"
   xml:space="preserve"
   xmlns="http://www.w3.org/2000/svg"
   xmlns:svg="http://www.w3.org/2000/svg"><defs
     id="defs1" /><g
     id="layer1"><path
       style="fill:#ffffff;fill-opacity:1"
       d="m 250.16354,447.78677 c -0.43656,-0.0614 -1.91256,-0.24146 -3.28,-0.40026 -2.99846,-0.3482 -7.76196,-1.48721 -11.0075,-2.63204 -13.07471,-4.61196 -24.07,-14.3097 -30.43696,-26.8451 -4.00624,-7.88755 -5.78301,-15.43028 -5.79629,-24.60624 -0.0123,-8.50942 1.32259,-14.95714 4.66375,-22.52642 l 1.30094,-2.94725 -1.93134,-3.83682 c -7.87001,-15.63458 -42.74282,-84.42548 -43.25866,-85.33301 -0.35553,-0.62548 -2.84389,-5.50704 -5.5297,-10.84791 -2.68581,-5.34088 -7.38706,-14.65177 -10.44722,-20.69089 -3.06016,-6.03911 -7.9456,-15.68317 -10.85653,-21.43125 -2.91093,-5.74807 -7.61749,-15.03494 -10.459,-20.6375 -2.84152,-5.60255 -7.41818,-14.6513 -10.17035,-20.10833 -2.75216,-5.45703 -5.77003,-11.34542 -6.70637,-13.0853 l -1.70243,-3.16343 -3.25888,-0.84642 C 91.10089,165.203 82.759108,160.35991 75.528369,152.89358 67.338947,144.43734 62.212504,133.93729 60.561135,122.2375 c -0.456711,-3.23575 -0.456711,-11.58092 0,-14.81667 2.529748,-17.923023 13.461914,-33.256148 29.52949,-41.417167 5.187346,-2.634748 10.738085,-4.4115 16.668755,-5.335547 3.61672,-0.563516 11.86443,-0.621497 15.47812,-0.108811 9.29722,1.319025 18.20533,5.003462 25.74746,10.649261 1.19134,0.891806 3.90252,3.374649 6.02484,5.517429 l 3.85877,3.895964 96.15644,0.131236 96.15644,0.131237 0.92334,-1.164653 c 1.48744,-1.876187 6.56341,-6.713694 8.91025,-8.491657 7.39991,-5.606145 16.42644,-9.346414 25.74746,-10.668817 3.61369,-0.512686 11.8614,-0.454705 15.47813,0.108811 12.16784,1.895851 22.77057,7.360559 31.231,16.096635 6.9656,7.192545 11.48759,15.377165 13.86763,25.099829 1.1186,4.5696 1.45438,7.56277 1.45438,12.96459 0,2.69213 -0.15965,6.02588 -0.35477,7.40833 -2.52975,17.92303 -13.46192,33.25615 -29.5295,41.41717 -7.94312,4.03446 -15.45222,5.79279 -24.73854,5.79279 -9.28632,0 -16.79542,-1.75833 -24.73854,-5.79279 -9.04961,-4.59646 -16.74906,-11.6786 -21.92308,-20.16538 l -1.42299,-2.33408 -91.0596,-0.0665 c -84.04235,-0.0614 -91.07238,-0.0332 -91.22545,0.36567 -0.10382,0.27055 1.19604,3.11559 3.4756,7.60715 3.44115,6.7803 7.12074,14.04336 19.51897,38.52808 2.91063,5.74808 7.61571,15.03495 10.45573,20.6375 2.84003,5.60256 7.45443,14.71084 10.25424,20.24063 2.7998,5.52979 7.47328,14.75713 10.38552,20.50521 2.91223,5.74807 7.61735,15.03494 10.4558,20.6375 12.08184,23.84715 16.44611,32.45875 21.38703,42.20104 2.8783,5.67531 7.11586,14.09962 9.4168,18.72068 3.12859,6.28328 4.31695,8.42978 4.71268,8.51233 6.62293,1.38158 10.5184,2.5983 14.81667,4.62787 5.48744,2.59108 10.13548,5.82679 14.64879,10.1977 8.73608,8.46042 14.20078,19.06316 16.09663,31.231 0.56352,3.61673 0.6215,11.86443 0.10882,15.47813 -2.54583,17.94438 -13.46327,33.25591 -29.53133,41.41717 -5.10809,2.59449 -10.73387,4.40753 -16.41987,5.29168 -2.54102,0.39512 -10.79763,0.72669 -12.41971,0.49875 z"
       id="path16" /></g></svg>
