<?xml version="1.0" encoding="UTF-8" standalone="no"?>
<!-- Created with Inkscape (http://www.inkscape.org/) -->

<svg
   width="1920"
   height="1920"
   viewBox="0 0 507.99999 508"
   version="1.1"
   id="svg1"
   xml:space="preserve"
   xmlns="http://www.w3.org/2000/svg"
   xmlns:svg="http://www.w3.org/2000/svg"><defs
     id="defs1" /><g
     id="layer1"><path
       style="fill:#ffffff;fill-opacity:1"
       d="m 107.42083,447.81399 c -9.852464,-1.45534 -18.705367,-5.1369 -26.326038,-10.94792 -2.224002,-1.69587 -7.289419,-6.66975 -9.201096,-9.03482 -5.04341,-6.23955 -9.150196,-14.71645 -10.806715,-22.30635 -1.755681,-8.04424 -1.755681,-16.66389 0,-24.70813 1.561262,-7.15345 5.355649,-15.22806 10.046945,-21.38031 1.695875,-2.224 6.669756,-7.28942 9.034824,-9.2011 6.239553,-5.04341 14.716449,-9.15019 22.30635,-10.80671 8.04424,-1.75568 16.66389,-1.75568 24.70813,0 7.5899,1.65652 16.0668,5.7633 22.30635,10.80671 2.36507,1.91168 7.33895,6.9771 9.03483,9.2011 4.69129,6.15225 8.48568,14.22686 10.04694,21.38031 1.75568,8.04424 1.75568,16.66389 0,24.70813 -1.65652,7.5899 -5.7633,16.0668 -10.80671,22.30635 -1.91168,2.36507 -6.9771,7.33895 -9.2011,9.03482 -7.67955,5.85592 -16.60305,9.55082 -26.44634,10.95047 -3.2596,0.4635 -11.55101,0.46206 -14.69637,-0.003 z m 122.50209,-54.90774 v -30.1625 h 48.68333 48.68333 v 30.1625 30.1625 h -48.68333 -48.68333 z m -122.50209,-84.2631 c -9.852464,-1.45534 -18.705367,-5.13689 -26.326038,-10.94791 -2.224002,-1.69587 -7.289419,-6.66976 -9.201096,-9.03482 -5.04341,-6.23956 -9.150196,-14.71645 -10.806715,-22.30635 -1.755681,-8.04424 -1.755681,-16.6639 0,-24.70814 1.561262,-7.15344 5.355649,-15.22805 10.046945,-21.38031 1.695875,-2.224 6.669756,-7.28941 9.034824,-9.20109 6.239553,-5.04341 14.716449,-9.1502 22.30635,-10.80672 8.04424,-1.75568 16.66389,-1.75568 24.70813,0 7.5899,1.65652 16.0668,5.76331 22.30635,10.80672 2.36507,1.91168 7.33895,6.97709 9.03483,9.20109 4.69129,6.15226 8.48568,14.22687 10.04694,21.38031 1.75568,8.04424 1.75568,16.6639 0,24.70814 -1.65652,7.5899 -5.7633,16.06679 -10.80671,22.30635 -1.91168,2.36506 -6.9771,7.33895 -9.2011,9.03482 -7.67955,5.85592 -16.60305,9.55081 -26.44634,10.95047 -3.2596,0.4635 -11.55101,0.46206 -14.69637,-0.003 z M 229.92292,254 V 223.8375 H 338.66667 447.41042 V 254 284.1625 H 338.66667 229.92292 Z M 107.42083,169.47232 c -9.852464,-1.45534 -18.705367,-5.1369 -26.326038,-10.94791 -2.224002,-1.69588 -7.289419,-6.66976 -9.201096,-9.03483 -5.04341,-6.23955 -9.150196,-14.71645 -10.806715,-22.30635 -1.755681,-8.04424 -1.755681,-16.66389 0,-24.70813 1.561262,-7.153445 5.355649,-15.228056 10.046945,-21.380308 1.695875,-2.224002 6.669756,-7.289419 9.034824,-9.201096 6.239553,-5.04341 14.716449,-9.150196 22.30635,-10.806715 8.04424,-1.755681 16.66389,-1.755681 24.70813,0 7.5899,1.656519 16.0668,5.763305 22.30635,10.806715 2.36507,1.911677 7.33895,6.977094 9.03483,9.201096 4.69129,6.152252 8.48568,14.226863 10.04694,21.380308 1.75568,8.04424 1.75568,16.66389 0,24.70813 -1.65652,7.5899 -5.7633,16.0668 -10.80671,22.30635 -1.91168,2.36507 -6.9771,7.33895 -9.2011,9.03483 -7.67955,5.85591 -16.60305,9.55081 -26.44634,10.95047 -3.2596,0.46349 -11.55101,0.46205 -14.69637,-0.003 z M 229.92292,115.09375 V 84.93125 H 308.63646 387.35 v 30.1625 30.1625 h -78.71354 -78.71354 z"
       id="path2" /></g></svg>
