<?xml version="1.0" encoding="UTF-8" standalone="no"?>
<!-- Created with Inkscape (http://www.inkscape.org/) -->

<svg
   width="1920"
   height="1920"
   viewBox="0 0 507.99999 508"
   version="1.1"
   id="svg1"
   xml:space="preserve"
   xmlns="http://www.w3.org/2000/svg"
   xmlns:svg="http://www.w3.org/2000/svg"><defs
     id="defs1" /><g
     id="layer1"><path
       style="fill:#ffffff;fill-opacity:1"
       d="m 60.060417,417.77708 v -30.1625 H 223.70521 387.35 v -21.84803 -21.84803 l -51.85833,0.193 -51.85834,0.193 V 314.23351 284.1625 H 254 224.36667 v 30.03021 30.03021 l -18.98386,-1.2e-4 c -10.44112,-6e-5 -33.89643,-0.0793 -52.12291,-0.17604 l -33.13907,-0.17592 V 314.01667 284.1625 H 90.133773 60.146713 l -0.175125,-12.10469 c -0.09632,-6.65758 -0.175266,-57.1598 -0.175439,-112.22717 l -3.16e-4,-100.122492 45.684547,0.176134 c 25.12651,0.09687 112.39932,0.176135 193.93959,0.176135 H 447.675 v 30.1625 30.162503 H 284.1625 120.65 v 21.82812 21.82813 h 51.72604 51.72604 v 29.89791 29.89792 H 254 283.89792 v -29.89792 -29.89791 h 51.99062 51.99063 v 30.0302 30.03021 h 29.98724 29.98724 l 0.17488,10.12032 c 0.0962,5.56617 0.17505,55.92961 0.17526,111.91875 l 3.8e-4,101.79843 H 254.13229 60.060417 Z M 223.8375,254 V 224.10208 H 202.14167 180.44583 V 254 283.89792 h 21.69584 21.69583 z m 103.71667,0 V 224.10208 H 305.85833 284.1625 V 254 283.89792 h 21.69583 21.69584 z"
       id="path1" /></g></svg>
