<?xml version="1.0" encoding="UTF-8" standalone="no"?>
<!-- Created with Inkscape (http://www.inkscape.org/) -->

<svg
   width="1920"
   height="1920"
   viewBox="0 0 507.99999 508"
   version="1.1"
   id="svg1"
   xml:space="preserve"
   xmlns="http://www.w3.org/2000/svg"
   xmlns:svg="http://www.w3.org/2000/svg"><defs
     id="defs1" /><g
     id="layer1"><path
       style="fill:#ffffff;fill-opacity:1"
       d="m 292.09797,443.96183 c -4.03464,-0.46734 -8.23363,-2.48822 -11.42456,-5.49838 -5.45102,-5.14222 -7.75815,-11.75192 -6.84467,-19.60935 0.17786,-1.52995 1.18841,-6.1665 2.29693,-10.53867 3.1172,-12.29479 3.98618,-18.8879 3.51152,-26.64281 -0.7494,-12.24353 -5.90496,-22.74197 -16.24617,-33.08257 -7.21043,-7.21001 -14.61903,-12.11924 -22.33492,-14.80001 -3.86111,-1.34148 -6.76468,-2.03801 -14.96964,-3.591 -11.3834,-2.15459 -17.72601,-3.69266 -25.13542,-6.09529 -35.58057,-11.53763 -61.13424,-31.95926 -77.36032,-61.82375 -10.09476,-18.57964 -17.55861,-44.77993 -21.31526,-74.82271 -2.356866,-18.84842 -3.044948,-30.96644 -3.042257,-53.57812 0.0025,-21.21676 0.430318,-32.30443 1.856667,-48.121487 1.10884,-12.296173 2.36735,-15.967374 6.1593,-17.967313 1.26313,-0.666195 1.58377,-0.716912 4.405,-0.696746 3.59561,0.0257 5.07867,0.447751 13.62604,3.877717 30.37999,12.191152 60.16709,27.576217 84.79896,43.798729 14.70309,9.68343 24.59931,17.2935 35.71875,27.46724 20.69311,18.93319 33.43042,37.57473 40.7504,59.63977 4.55129,13.71922 6.33111,25.268 6.34134,41.14723 0.0111,17.18575 -2.04277,30.52129 -7.76573,50.4227 -2.61228,9.08413 -3.00327,11.90633 -2.15058,15.52289 0.79168,3.35779 2.51271,5.97674 7.4493,11.33589 7.38054,8.01227 11.56838,12.92987 15.52352,18.22858 21.92628,29.3747 27.32058,58.90707 15.27165,83.60834 -7.27019,14.90447 -18.18838,23.08533 -29.11985,21.81912 z"
       id="path16" /></g></svg>
