<?xml version="1.0" encoding="UTF-8" standalone="no"?>
<!-- Created with Inkscape (http://www.inkscape.org/) -->

<svg
   width="1920"
   height="1920"
   viewBox="0 0 507.99999 508"
   version="1.1"
   id="svg1"
   xml:space="preserve"
   xmlns="http://www.w3.org/2000/svg"
   xmlns:svg="http://www.w3.org/2000/svg"><defs
     id="defs1" /><g
     id="layer1"><path
       style="fill:#ffffff;fill-opacity:1"
       d="M 242.8875,458.88658 C 228.0054,457.87334 216.783,456.1604 203.95616,452.94426 161.68179,442.3446 124.25609,418.78095 96.128746,385.05489 71.273009,355.25165 55.424142,318.62011 50.416492,279.4 c -1.122831,-8.79405 -1.32268,-12.61186 -1.32268,-25.26771 0,-12.65585 0.199849,-16.47365 1.32268,-25.26771 4.582349,-35.88913 18.092573,-69.31835 39.54757,-97.85512 C 101.981,115.02602 116.96756,100.23856 132.97938,88.565606 161.18628,68.00218 193.63756,55.145103 228.6,50.681075 c 8.81857,-1.125961 12.60161,-1.323009 25.4,-1.323009 12.79839,0 16.58143,0.197048 25.4,1.323009 34.96244,4.464028 67.41372,17.321105 95.62062,37.884531 16.01182,11.672954 30.99838,26.460414 43.01532,42.443854 21.45499,28.53677 34.96522,61.96599 39.54757,97.85512 1.12283,8.79406 1.32268,12.61186 1.32268,25.26771 0,12.65585 -0.19985,16.47366 -1.32268,25.26771 -4.58235,35.88913 -18.09258,69.31836 -39.54757,97.85512 -12.01694,15.98344 -27.0035,30.7709 -43.01532,42.44386 -28.18733,20.54916 -60.94269,33.5259 -95.62062,37.88218 -8.1996,1.03004 -12.09085,1.24928 -23.54792,1.32671 -6.33015,0.0428 -12.16422,0.0332 -12.96458,-0.0213 z m 25.92917,-57.36117 c 13.66318,-1.53725 25.55342,-4.35583 37.70054,-8.93691 4.23075,-1.59555 10.18904,-4.18578 10.18904,-4.42945 0,-0.0991 -0.21079,-0.41091 -0.46841,-0.69301 -0.25763,-0.28211 -1.71301,-2.0012 -3.23419,-3.82021 -1.52117,-1.81901 -2.88797,-3.43652 -3.03732,-3.59448 -0.14934,-0.15795 -0.66637,-0.77369 -1.14895,-1.36829 -0.48258,-0.59461 -1.17571,-1.41788 -1.5403,-1.82948 -0.36459,-0.4116 -0.98178,-1.16372 -1.37154,-1.67136 -0.38977,-0.50764 -1.02892,-1.28155 -1.42034,-1.71979 -1.34099,-1.50139 -1.93497,-2.19619 -2.66988,-3.12308 -0.40465,-0.51035 -1.08716,-1.32681 -1.51669,-1.81436 -0.42953,-0.48755 -1.52721,-1.80119 -2.43928,-2.91921 -1.71664,-2.10427 -2.03758,-2.25654 -3.31508,-1.57284 -0.28191,0.15088 -1.8104,0.70193 -3.39665,1.22457 -1.58624,0.52264 -3.06267,1.02378 -3.28095,1.11363 -0.47611,0.19598 -0.40375,0.17641 -1.7198,0.46507 -1.24665,0.27345 -1.43323,0.3216 -1.52135,0.39263 -0.0364,0.0293 -0.24474,0.0895 -0.46302,0.1338 -0.21828,0.0443 -1.02195,0.26687 -1.78594,0.49467 -0.76398,0.22779 -1.38906,0.35403 -1.38906,0.28052 0,-0.0735 -0.14883,-0.0407 -0.33073,0.073 -0.3445,0.21522 -0.67632,0.30553 -1.78594,0.48607 -0.80779,0.13144 -1.71979,0.3419 -1.71979,0.39688 0,0.0734 -1.03912,0.25377 -2.21246,0.38412 -0.63477,0.0705 -1.3955,0.20482 -1.69051,0.29845 -0.295,0.0936 -0.96627,0.20774 -1.4917,0.25357 -0.52543,0.0458 -0.95533,0.10119 -0.95533,0.12301 0,0.0832 -1.00665,0.22527 -2.85009,0.40222 -1.05182,0.10097 -2.14357,0.22774 -2.4261,0.28171 -2.27466,0.43455 -15.5503,0.62711 -19.72693,0.28613 -2.54305,-0.20761 -4.60868,-0.40319 -5.89166,-0.55783 -1.01277,-0.12208 -1.01561,-0.11976 -0.88713,0.72443 0.0709,0.46579 0.21019,1.68034 0.30956,2.69898 0.0994,1.01865 0.22868,2.09021 0.28735,2.38125 0.0587,0.29104 0.16355,1.12448 0.23304,1.85209 0.0695,0.7276 0.17334,1.56104 0.23075,1.85208 0.0574,0.29104 0.187,1.38975 0.28796,2.44158 0.17755,1.8496 0.31903,2.85009 0.40304,2.85009 0.0684,0 0.18506,0.72356 0.38389,2.38125 0.46797,3.90174 0.51001,3.62576 -1.32022,8.66703 -0.95105,2.61961 -1.6779,4.81421 -1.61523,4.87688 0.0992,0.0992 2.37357,0.34665 6.52031,0.70952 3.15104,0.27574 20.43553,-0.0652 24.07709,-0.4749 z m -96.4328,-42.97823 c 4.78615,-13.18315 5.45396,-15.2081 5.08382,-15.41524 -0.23437,-0.13116 -0.90567,-0.71325 -1.49179,-1.29354 -0.58611,-0.58029 -1.1246,-1.05507 -1.19663,-1.05507 -0.19544,0 -7.00196,-6.884 -8.22406,-8.31769 -0.58209,-0.68286 -1.51026,-1.73987 -2.06262,-2.34891 -0.55235,-0.60905 -1.37621,-1.61337 -1.83079,-2.23183 -0.45458,-0.61847 -0.92538,-1.12448 -1.04624,-1.12448 -0.12085,0 -0.21973,-0.16868 -0.21973,-0.37483 0,-0.20615 -0.0968,-0.41451 -0.21503,-0.46302 -0.11827,-0.0485 -0.73588,-0.80257 -1.37247,-1.67569 -0.63659,-0.87313 -1.2542,-1.62719 -1.37246,-1.6757 -0.11827,-0.0485 -0.21504,-0.19739 -0.21504,-0.33085 0,-0.13347 -0.7739,-1.36042 -1.71979,-2.72656 -0.94588,-1.36614 -1.71979,-2.61998 -1.71979,-2.7863 0,-0.16633 -0.17859,-0.37094 -0.39688,-0.45471 -0.21828,-0.0838 -0.39687,-0.2733 -0.39687,-0.42121 0,-0.1479 -0.53578,-1.15142 -1.19063,-2.23003 -0.65484,-1.07862 -1.19062,-2.06604 -1.19062,-2.19427 0,-0.12824 -0.0893,-0.27284 -0.19844,-0.32135 -0.10914,-0.0485 -0.46148,-0.62397 -0.78297,-1.27882 -0.3215,-0.65484 -0.76418,-1.48828 -0.98373,-1.85208 -0.44115,-0.73096 -2.08089,-4.2354 -2.51059,-5.36561 -0.33277,-0.87526 -0.72605,-0.90466 -1.66087,-0.12417 -0.39195,0.32724 -1.40398,1.09457 -2.24896,1.70516 -0.84497,0.61059 -1.77444,1.29725 -2.06548,1.5259 -0.29104,0.22865 -1.30307,0.97642 -2.24896,1.66172 -0.94589,0.68529 -1.815,1.39762 -1.93138,1.58295 -0.11637,0.18533 -0.32337,0.33697 -0.45999,0.33697 -0.13663,0 -0.45813,0.17127 -0.71446,0.38059 -0.25632,0.20933 -0.94863,0.77488 -1.53845,1.25677 -2.92466,2.38949 -5.14801,3.95391 -5.774,4.06276 -0.38182,0.0664 -1.02164,0.18013 -1.42182,0.25276 -0.40019,0.0726 -2.15392,0.37776 -3.89719,0.67809 -1.74327,0.30032 -3.2109,0.58735 -3.26139,0.63784 -0.16353,0.16353 4.09324,8.36913 6.31754,12.17806 4.33604,7.42513 9.34384,14.50676 15.06165,21.29896 3.77141,4.48008 12.57913,13.30528 16.93407,16.96769 3.18385,2.67755 8.5358,6.88202 8.61485,6.7678 0.021,-0.0304 2.51773,-6.88483 5.54819,-15.23206 z m 206.04059,-24.29762 c 10.76872,-16.99801 17.83649,-35.10659 21.20122,-54.32039 0.58126,-3.31926 0.99044,-6.2765 1.62346,-11.73318 l 0.14873,-1.28214 -1.00466,0.15915 c -0.55257,0.0875 -1.46624,0.22775 -2.03038,0.31159 -0.56415,0.0838 -1.21899,0.18957 -1.45521,0.23493 -0.23622,0.0454 -1.44153,0.27343 -2.67845,0.50681 -1.23693,0.23339 -2.54185,0.48216 -2.89983,0.55284 -0.35797,0.0707 -1.07712,0.19209 -1.59809,0.26979 -0.90036,0.13429 -1.39523,0.2221 -2.91042,0.51644 -0.3638,0.0707 -1.14247,0.19377 -1.73038,0.27354 -0.58791,0.0798 -1.36182,0.20304 -1.71979,0.27393 -0.35798,0.0709 -1.96056,0.36103 -3.56129,0.64477 -1.60072,0.28374 -3.20807,0.5814 -3.57187,0.66146 -0.3638,0.0801 -2.01649,0.37893 -3.67263,0.66416 -1.65615,0.28523 -3.03956,0.55264 -3.07426,0.59423 -0.0347,0.0416 -0.26503,1.1472 -0.51185,2.45689 -0.60293,3.19918 -0.61273,3.248 -0.95628,4.76249 -0.16505,0.72761 -0.33902,1.56105 -0.38658,1.85209 -0.0476,0.29104 -0.26572,1.02442 -0.48477,1.62972 -0.21905,0.60531 -0.34346,1.15538 -0.27646,1.22238 0.067,0.067 -0.12471,0.74723 -0.42601,1.51163 -0.3013,0.7644 -0.58886,1.70262 -0.63903,2.08492 -0.12067,0.91952 -4.17195,12.04842 -4.42483,12.15504 -0.10809,0.0456 -0.45157,0.84924 -0.76328,1.78594 -0.31171,0.93669 -0.66664,1.70308 -0.78874,1.70308 -0.12209,0 -0.29914,0.32742 -0.39344,0.7276 -0.0943,0.40018 -0.74861,1.79917 -1.45402,3.10885 -0.70541,1.30969 -1.61878,3.0361 -2.02971,3.83646 -0.41092,0.80037 -0.80787,1.51474 -0.8821,1.5875 -0.26556,0.26029 -0.81456,1.19888 -0.96726,1.65365 -0.0855,0.25466 -0.26064,0.46302 -0.38919,0.46302 -0.12855,0 -0.23373,0.17009 -0.23373,0.37798 0,0.20788 -0.14882,0.54033 -0.33073,0.73877 -0.48279,0.5267 -0.98511,1.32997 -1.16302,1.85981 -0.0855,0.25466 -0.26064,0.46302 -0.38919,0.46302 -0.12855,0 -0.23372,0.1786 -0.23372,0.39688 0,0.21828 -0.10032,0.39687 -0.22292,0.39687 -0.12261,0 -0.44734,0.41672 -0.72163,0.92605 -0.27429,0.50932 -0.59069,0.92604 -0.70312,0.92604 -0.11243,0 -0.20442,0.17859 -0.20442,0.39687 0,0.21828 -0.11906,0.39688 -0.26458,0.39688 -0.14552,0 -0.26458,0.16867 -0.26458,0.37482 0,0.20616 -0.14883,0.43488 -0.33073,0.50828 -0.1819,0.0734 -0.0628,0.14285 0.26458,0.15434 0.32742,0.0115 0.59531,0.11643 0.59531,0.23321 0,0.11677 0.62508,0.43348 1.38907,0.7038 0.76398,0.27031 2.24676,0.88914 3.29505,1.37518 1.0483,0.48603 1.97486,0.8837 2.05902,0.8837 0.0842,0 0.56808,0.17342 1.07537,0.38538 0.50729,0.21196 0.99617,0.38038 1.0864,0.37428 0.0902,-0.006 0.2369,0.0884 0.32593,0.20993 0.14712,0.2009 4.0321,1.89367 4.65979,2.03037 0.14552,0.0317 0.38607,0.13371 0.53455,0.22669 0.14848,0.093 1.39861,0.59382 2.77808,1.11297 2.73431,1.02905 2.51389,0.83918 6.47695,5.57931 l 2.11667,2.53171 0.5589,-0.64149 c 0.30739,-0.35282 1.45673,-2.05869 2.5541,-3.79084 z m -117.14842,-8.09107 c 0.91672,-0.0893 2.208,-0.26817 4.23333,-0.58654 0.29105,-0.0457 0.82683,-0.15089 1.19063,-0.23364 0.3638,-0.0827 1.07818,-0.21797 1.5875,-0.30049 0.50932,-0.0825 1.0451,-0.18581 1.19062,-0.22956 0.36836,-0.11073 2.34294,-0.53492 2.55764,-0.54945 0.097,-0.007 0.26569,-0.10123 0.37483,-0.21037 0.10914,-0.10914 0.41494,-0.19844 0.67955,-0.19844 0.56638,0 5.48837,-1.62022 7.76507,-2.55611 2.56952,-1.05626 6.29315,-2.77347 6.48229,-2.98941 0.0728,-0.0831 0.63694,-0.38736 1.25374,-0.6762 0.61679,-0.28883 1.1228,-0.59223 1.12447,-0.67421 0.002,-0.082 0.41976,-0.31256 0.92908,-0.5124 0.50932,-0.19985 0.92604,-0.46019 0.92604,-0.57855 0,-0.11836 0.11063,-0.2152 0.24584,-0.2152 0.27838,0 4.61042,-2.84633 5.48657,-3.60491 1.21381,-1.05093 1.68662,-1.42218 1.81124,-1.42218 0.0711,0 0.34955,-0.20836 0.61877,-0.46302 0.26923,-0.25466 1.05273,-0.93927 1.74112,-1.52135 2.03608,-1.72166 8.08813,-7.9004 8.08813,-8.25745 0,-0.0631 0.14883,-0.26596 0.33073,-0.4508 0.1819,-0.18484 0.62838,-0.73097 0.99219,-1.21363 0.3638,-0.48265 0.81028,-1.02878 0.99218,-1.21362 0.18191,-0.18484 0.33073,-0.45372 0.33073,-0.59751 0,-0.14379 0.0908,-0.30112 0.20177,-0.34963 0.24911,-0.10889 2.17948,-2.80178 2.17948,-3.0404 0,-0.0951 0.29766,-0.56309 0.66146,-1.04006 0.3638,-0.47697 0.66146,-0.99423 0.66146,-1.14946 0,-0.15523 0.11906,-0.28223 0.26458,-0.28223 0.14552,0 0.26459,-0.1288 0.26459,-0.28621 0,-0.15742 0.41555,-0.99524 0.92344,-1.86184 0.5079,-0.86659 0.99706,-1.86889 1.08702,-2.22733 0.09,-0.35844 0.26016,-0.65171 0.37821,-0.65171 0.11805,0 0.40985,-0.58774 0.64845,-1.30609 0.2386,-0.71835 0.52058,-1.34343 0.62663,-1.38906 0.25774,-0.11091 3.23125,-8.24037 3.34829,-9.15411 0.0506,-0.39514 0.23124,-1.07563 0.4014,-1.51219 0.17015,-0.43657 0.34647,-1.03188 0.39182,-1.32292 0.0801,-0.51391 0.49016,-2.49436 0.7944,-3.83646 0.18558,-0.81866 0.40793,-2.21832 0.54641,-3.43958 0.0577,-0.50933 0.16282,-1.28323 0.23349,-1.71979 0.4023,-2.4851 0.54067,-9.51545 0.25777,-13.09688 -0.0747,-0.94589 -0.16997,-2.19604 -0.21169,-2.77812 -0.0417,-0.58209 -0.14992,-1.41553 -0.24045,-1.85209 -0.0905,-0.43656 -0.2299,-1.32953 -0.30971,-1.98437 -0.16441,-1.34895 -0.32396,-2.22186 -0.52376,-2.86541 -0.0755,-0.24304 -0.21302,-0.91813 -0.30569,-1.50022 -0.20316,-1.27605 -0.31902,-1.85208 -0.37253,-1.85208 -0.022,0 -0.0882,-0.25711 -0.14722,-0.57134 -0.19015,-1.01238 -2.22855,-7.06548 -2.76918,-8.22317 -0.28807,-0.61688 -0.52377,-1.24439 -0.52377,-1.39446 0,-0.15007 -0.47625,-1.28004 -1.05833,-2.51103 -0.58209,-1.231 -1.05834,-2.35375 -1.05834,-2.495 0,-0.14126 -0.14882,-0.35205 -0.33073,-0.46842 -0.1819,-0.11637 -0.79203,-1.10455 -1.35584,-2.19596 -0.56382,-1.0914 -1.0996,-2.0439 -1.19063,-2.11666 -0.2563,-0.20487 -1.10713,-1.66607 -1.27101,-2.18282 -0.0808,-0.25466 -0.25201,-0.46302 -0.38056,-0.46302 -0.12855,0 -0.23373,-0.16585 -0.23373,-0.36856 0,-0.20272 -0.17859,-0.4371 -0.39687,-0.52087 -0.21828,-0.0838 -0.39688,-0.33462 -0.39688,-0.55747 0,-0.22285 -0.11906,-0.40518 -0.26458,-0.40518 -0.14552,0 -0.26458,-0.17859 -0.26458,-0.39687 0,-0.21829 -0.11907,-0.39688 -0.26459,-0.39688 -0.14552,0 -0.26458,-0.11906 -0.26458,-0.26458 0,-0.14552 -0.20836,-0.486 -0.46302,-0.75661 -0.25466,-0.27062 -0.82021,-0.94378 -1.25677,-1.49592 -2.0808,-2.63168 -6.77398,-7.47081 -9.23427,-9.52143 -1.19227,-0.99374 -1.49576,-1.24548 -2.71585,-2.25273 -0.26691,-0.22035 -0.90202,-0.69087 -1.41134,-1.04559 -0.50932,-0.35471 -0.98557,-0.71917 -1.05833,-0.8099 -0.0728,-0.0907 -0.51925,-0.39003 -0.99219,-0.66511 -0.47294,-0.27508 -0.8599,-0.58062 -0.8599,-0.67899 0,-0.0984 -0.27026,-0.24669 -0.60057,-0.32959 -0.33032,-0.0829 -0.84334,-0.36371 -1.14004,-0.624 -0.52606,-0.46151 -1.25833,-0.8926 -3.41876,-2.01265 -0.58209,-0.30177 -1.11906,-0.63497 -1.19328,-0.74044 -0.0742,-0.10546 -0.45628,-0.27241 -0.84904,-0.37098 -0.39276,-0.0986 -0.85263,-0.34614 -1.02193,-0.55015 -0.16931,-0.204 -0.44668,-0.37091 -0.61637,-0.37091 -0.16969,0 -0.78019,-0.24767 -1.35667,-0.55036 -1.28368,-0.67405 -8.76228,-3.45575 -9.56832,-3.55898 -0.32048,-0.041 -1.03486,-0.2266 -1.5875,-0.41234 -0.55265,-0.18574 -1.1834,-0.36296 -1.40168,-0.39384 -0.37829,-0.0535 -2.28888,-0.45269 -3.70417,-0.77391 -0.81942,-0.18599 -1.5817,-0.30572 -5.02708,-0.78964 -4.2012,-0.59007 -13.88331,-0.59061 -16.94519,-9.4e-4 -0.34563,0.0666 -1.10944,0.18777 -1.69735,0.26936 -1.03473,0.1436 -3.28442,0.5233 -4.6408,0.78327 -1.81385,0.34766 -2.38958,0.48577 -4.10104,0.98379 -1.01864,0.29641 -1.97114,0.56606 -2.11667,0.59921 -0.14552,0.0332 -0.44317,0.12376 -0.66145,0.20134 -0.21828,0.0776 -0.93266,0.29561 -1.5875,0.4845 -0.65485,0.18889 -1.30969,0.42554 -1.45521,0.52588 -0.14552,0.10034 -0.74084,0.33254 -1.32292,0.51599 -0.58208,0.18345 -1.17739,0.41763 -1.32292,0.52039 -0.14552,0.10276 -0.97895,0.4684 -1.85208,0.81253 -4.77219,1.88087 -13.76919,7.34485 -16.66433,10.12043 -0.18393,0.17634 -0.91362,0.79686 -1.62153,1.37894 -1.49231,1.22707 -6.98185,6.66209 -6.98185,6.91251 0,0.0931 -0.21125,0.36173 -0.46945,0.59708 -0.25819,0.23535 -1.20971,1.38041 -2.11447,2.54458 -0.90477,1.16417 -1.74934,2.24362 -1.87682,2.39878 -0.12749,0.15516 -0.69368,0.9886 -1.25821,1.85208 -0.56453,0.86349 -1.08629,1.6295 -1.15946,1.70226 -0.13408,0.13332 -0.59871,0.95066 -1.49722,2.63376 -0.26835,0.50269 -0.63674,1.07674 -0.81864,1.27567 -0.1819,0.19894 -0.33073,0.53179 -0.33073,0.73968 0,0.20789 -0.11906,0.37798 -0.26458,0.37798 -0.14552,0 -0.26458,0.11645 -0.26458,0.25878 0,0.27422 -1.56902,3.82691 -2.28116,5.16518 -0.56857,1.06845 -2.50269,6.44828 -2.61583,7.27604 -0.0497,0.3638 -0.23364,1.01864 -0.40869,1.45521 -0.455,1.13473 -1.90467,8.32806 -2.2395,11.1125 -0.98008,8.15033 -0.2997,18.19532 1.76522,26.06145 0.85127,3.24285 2.89006,9.27101 3.56464,10.53973 0.3453,0.64942 0.62782,1.34323 0.62782,1.54181 0,0.35009 0.51034,1.40853 0.80848,1.6768 0.18926,0.17028 1.30818,2.58278 1.30818,2.82055 0,0.0993 0.16788,0.36846 0.37307,0.5982 0.20518,0.22974 0.76085,1.13208 1.23482,2.00521 0.47396,0.87312 1.13952,1.95592 1.47902,2.40622 0.33949,0.4503 0.61726,0.95631 0.61726,1.12448 0,0.16816 0.092,0.30575 0.20442,0.30575 0.11242,0 0.42883,0.41672 0.70312,0.92604 0.27429,0.50933 0.59902,0.92605 0.72162,0.92605 0.12261,0 0.22292,0.17859 0.22292,0.39687 0,0.21828 0.0893,0.39769 0.19844,0.39868 0.10914,0.001 0.47997,0.41523 0.82407,0.92052 0.66664,0.97893 0.8335,1.18049 3.16438,3.82246 2.80245,3.1765 6.60826,6.75799 9.57808,9.01355 0.479,0.3638 1.02215,0.81029 1.20699,0.99219 0.18484,0.1819 0.46365,0.33073 0.61956,0.33073 0.15592,0 0.2837,0.0893 0.28396,0.19843 2.6e-4,0.10914 0.5658,0.55049 1.25677,0.98078 0.69096,0.43029 1.31583,0.85569 1.38859,0.94534 0.0728,0.0897 0.31088,0.24286 0.52916,0.34046 0.45428,0.20312 1.39128,0.77834 1.5875,0.97457 0.2252,0.2252 1.1291,0.74132 2.64584,1.51074 0.80036,0.40602 1.51474,0.79895 1.5875,0.87319 0.26,0.26527 3.05622,1.58482 3.35833,1.58482 0.16942,0 0.46537,0.15606 0.65766,0.34681 0.39678,0.39358 8.42355,3.37536 9.36425,3.47862 0.33799,0.0371 0.94828,0.18882 1.3562,0.33714 0.40793,0.14833 1.33699,0.395 2.0646,0.54817 0.7276,0.15317 1.6801,0.36375 2.11666,0.46796 0.99338,0.23712 1.27366,0.28508 2.91042,0.49795 0.72761,0.0946 1.62057,0.22783 1.98438,0.296 0.3638,0.0682 1.25677,0.19233 1.98437,0.27591 0.72761,0.0836 1.36024,0.18786 1.40587,0.23171 0.1124,0.10803 12.34592,-0.0736 13.67538,-0.20303 z M 108.74375,240.63854 c 0.52097,-0.0777 1.23535,-0.19676 1.5875,-0.26458 0.35215,-0.0678 1.06653,-0.18688 1.5875,-0.26458 0.52097,-0.0777 1.24012,-0.19883 1.59809,-0.26917 0.71541,-0.14056 4.83604,-0.89666 5.67795,-1.04185 1.33521,-0.23025 2.62841,-0.4614 3.14238,-0.56167 0.84561,-0.16496 3.36668,-0.59826 4.26595,-0.73319 0.90649,-0.13601 5.22491,-0.89856 6.21771,-1.09793 0.36381,-0.0731 1.66054,-0.30835 2.88163,-0.52287 1.22109,-0.21453 2.27801,-0.4479 2.34871,-0.51859 0.14608,-0.14608 0.70762,-2.75356 0.98095,-4.55496 0.0475,-0.31293 0.18037,-0.84871 0.29529,-1.19062 0.11493,-0.34191 0.22193,-0.74072 0.23778,-0.88624 0.0772,-0.70895 0.47745,-2.50538 0.79577,-3.57187 0.19546,-0.65485 0.5682,-1.905 0.82833,-2.77813 0.26012,-0.87312 0.49079,-1.78233 0.5126,-2.02045 0.0635,-0.69311 4.08005,-11.56779 4.61272,-12.4887 0.26617,-0.46017 0.63203,-1.3427 0.81301,-1.96116 0.18098,-0.61846 0.4197,-1.12448 0.5305,-1.12448 0.11079,0 0.39917,-0.59531 0.64084,-1.32292 0.24167,-0.7276 0.53943,-1.32291 0.6617,-1.32291 0.12226,0 0.29894,-0.34896 0.39262,-0.77547 0.0937,-0.42651 0.3336,-0.91099 0.53318,-1.07662 0.19957,-0.16563 0.4395,-0.6501 0.53318,-1.07661 0.0937,-0.42651 0.2719,-0.77547 0.39605,-0.77547 0.12416,0 0.30734,-0.2571 0.40707,-0.57134 0.0997,-0.31424 0.82214,-1.62812 1.60533,-2.91972 0.7832,-1.29161 1.42399,-2.46326 1.42399,-2.60366 0,-0.1404 0.1168,-0.25528 0.25955,-0.25528 0.14274,0 0.33425,-0.29766 0.42555,-0.66146 0.0913,-0.3638 0.27217,-0.66146 0.40192,-0.66146 0.12974,0 0.2359,-0.17859 0.2359,-0.39687 0,-0.21828 0.10031,-0.39688 0.22292,-0.39688 0.1226,0 0.44734,-0.41672 0.72162,-0.92604 0.27429,-0.50932 0.5907,-0.92604 0.70313,-0.92604 0.11243,0 0.20441,-0.17859 0.20441,-0.39687 0,-0.21829 0.11907,-0.39688 0.26459,-0.39688 0.14552,0 0.26458,-0.17859 0.26458,-0.39687 0,-0.21829 0.0893,-0.39763 0.19844,-0.39855 0.10914,-9.2e-4 0.41348,-0.3794 0.67631,-0.84107 0.57007,-1.00135 0.61926,-0.95694 -2.46065,-2.22187 -1.09228,-0.44861 -2.58129,-1.08035 -3.30889,-1.40385 -1.75124,-0.77864 -2.64584,-1.14717 -2.64584,-1.08995 0,0.0257 -0.59531,-0.24674 -1.32291,-0.60547 -0.72761,-0.35873 -1.76774,-0.79417 -2.31142,-0.96765 -0.54368,-0.17347 -1.05672,-0.42579 -1.14009,-0.56069 -0.0834,-0.1349 -0.4352,-0.24528 -0.78183,-0.24528 -0.34662,0 -0.69513,-0.10503 -0.77447,-0.23339 -0.0793,-0.12837 -1.23056,-0.63439 -2.55829,-1.12448 -2.20272,-0.81309 -2.53308,-1.03005 -3.77397,-2.47859 -0.74796,-0.87312 -1.47899,-1.71673 -1.62452,-1.87469 -0.14552,-0.15795 -0.66234,-0.77728 -1.1485,-1.37628 -0.48616,-0.599 -1.1036,-1.34238 -1.37209,-1.65195 l -0.48816,-0.56286 -1.40604,2.00934 c -4.88359,6.97905 -11.51544,19.46328 -14.98504,28.20882 -5.05978,12.75379 -8.44953,26.41715 -9.78712,39.4498 -0.19908,1.93971 -0.18543,2.02079 0.32375,1.92273 0.29238,-0.0563 0.95786,-0.16596 1.47883,-0.24366 z m 255.05833,-35.96922 c 1.09141,-0.79999 2.10344,-1.55236 2.24896,-1.67194 0.356,-0.29254 3.19499,-2.44442 4.09602,-3.10467 0.39717,-0.29104 1.04892,-0.76729 1.44832,-1.05833 0.3994,-0.29105 1.16078,-0.86706 1.69196,-1.28004 0.53118,-0.41298 1.30349,-1.00829 1.71624,-1.32292 0.41275,-0.31462 0.889,-0.69677 1.05833,-0.84922 1.41207,-1.27123 3.40957,-2.5132 4.25925,-2.64824 0.55576,-0.0883 1.25852,-0.20836 1.56167,-0.26674 0.30316,-0.0584 1.03221,-0.18025 1.62012,-0.27082 0.58791,-0.0906 1.24752,-0.20238 1.4658,-0.24848 0.21828,-0.0461 0.96368,-0.16812 1.65645,-0.27116 l 1.25958,-0.18734 -2.33478,-4.52961 c -5.28308,-10.24946 -11.27286,-19.21439 -18.88176,-28.2604 -3.78676,-4.50197 -12.57528,-13.29468 -17.05025,-17.05837 -4.79244,-4.03069 -10.67936,-8.41027 -10.92588,-8.12831 -0.11259,0.12878 -2.53607,6.66352 -5.38551,14.52165 -2.84944,7.85812 -5.25851,14.48512 -5.35348,14.72667 -0.16647,0.42338 0.3117,0.97356 2.24688,2.58521 2.55419,2.12717 7.01485,6.44942 9.7369,9.43476 0.91691,1.00559 2.01824,2.21209 2.44739,2.6811 0.42916,0.46901 0.78029,0.90701 0.78029,0.97335 0,0.0663 0.43043,0.57556 0.95651,1.13163 0.52608,0.55606 1.30571,1.51704 1.73251,2.1355 0.42679,0.61847 0.88933,1.12448 1.02786,1.12448 0.13853,0 0.25187,0.1786 0.25187,0.39688 0,0.21828 0.11907,0.39687 0.26459,0.39687 0.14552,0 0.26458,0.1786 0.26458,0.39688 0,0.21828 0.11906,0.39687 0.26458,0.39687 0.14552,0 0.26459,0.11293 0.26459,0.25095 0,0.13803 0.29765,0.57213 0.66145,0.96468 0.36381,0.39255 0.66146,0.87493 0.66146,1.07197 0,0.19703 0.11907,0.35824 0.26459,0.35824 0.14552,0 0.26458,0.16585 0.26458,0.36856 0,0.20272 0.17859,0.4371 0.39687,0.52087 0.21829,0.0838 0.39688,0.33462 0.39688,0.55747 0,0.22285 0.11906,0.40518 0.26458,0.40518 0.14552,0 0.26459,0.17859 0.26459,0.39688 0,0.21828 0.11906,0.39687 0.26458,0.39687 0.14552,0 0.26458,0.18233 0.26458,0.40518 0,0.22285 0.1786,0.47371 0.39688,0.55747 0.21828,0.0838 0.39687,0.27331 0.39687,0.42121 0,0.14791 0.55295,1.17696 1.22877,2.2868 1.56398,2.56839 2.1271,3.55231 2.97199,5.19288 0.37471,0.72761 0.75032,1.38245 0.83469,1.45521 0.0844,0.0728 0.42242,0.7276 0.75121,1.45521 2.05984,4.55832 2.51569,5.3327 2.93384,4.98378 0.22419,-0.18708 1.3006,-0.99468 2.392,-1.79467 z M 213.39969,144.24151 c 0.13824,-0.12154 1.32291,-0.5565 2.6326,-0.96658 1.30969,-0.41008 2.50031,-0.81483 2.64583,-0.89944 0.14553,-0.0846 0.32412,-0.15795 0.39688,-0.16297 0.0728,-0.005 1.14432,-0.28697 2.38125,-0.62656 2.27573,-0.62481 2.62279,-0.71952 2.97167,-0.81101 0.10645,-0.0279 0.5827,-0.16818 1.05833,-0.31171 0.47564,-0.14353 1.69823,-0.43421 2.71687,-0.64595 1.65821,-0.34469 2.56614,-0.52439 5.29167,-1.04734 1.28023,-0.24564 4.14728,-0.67489 5.29167,-0.79227 0.58208,-0.0597 1.65364,-0.17421 2.38125,-0.25446 0.7276,-0.0803 1.97776,-0.19975 2.77812,-0.26556 0.80037,-0.0658 2.28865,-0.19226 3.30729,-0.28102 4.2378,-0.36925 17.24752,0.0234 19.01774,0.5739 0.46774,0.14547 0.48629,0.0288 0.31607,-1.98794 -0.0995,-1.17837 -0.21994,-2.35209 -0.26774,-2.60827 -0.0478,-0.25618 -0.16732,-1.29923 -0.26558,-2.31787 -0.0983,-1.01865 -0.23826,-2.20927 -0.31109,-2.64583 -0.0728,-0.43657 -0.17983,-1.27 -0.23779,-1.85209 -0.31579,-3.1717 -0.53451,-4.7625 -0.6548,-4.7625 -0.0212,0 -0.0844,-0.35719 -0.14065,-0.79375 -0.0562,-0.43656 -0.17741,-1.32953 -0.26935,-1.98437 -0.46653,-3.32276 -0.4455,-3.4753 1.04412,-7.57561 l 1.42913,-3.93377 -0.7019,-0.23631 c -1.14236,-0.3846 -21.63926,-0.3441 -25.44045,0.0503 -13.83259,1.43512 -26.17616,4.2438 -38.23229,8.69943 -4.64725,1.71751 -10.77868,4.37979 -10.50173,4.55988 0.13186,0.0857 0.86955,0.92979 1.63932,1.87568 0.76977,0.94589 1.5309,1.83885 1.69141,1.98438 0.16051,0.14552 0.61073,0.6813 1.0005,1.19062 0.38976,0.50932 1.00695,1.26281 1.37154,1.67441 0.36459,0.41161 1.05772,1.23487 1.5403,1.82948 0.48258,0.59461 0.99647,1.21034 1.14199,1.36829 0.14553,0.15796 0.91943,1.0611 1.7198,2.00699 0.80036,0.94588 1.57427,1.84756 1.71979,2.00372 0.14552,0.15616 0.62177,0.74061 1.05833,1.29877 0.43656,0.55816 1.03188,1.28068 1.32292,1.60559 0.29104,0.32492 0.88635,1.02899 1.32291,1.56461 0.43657,0.53561 1.06777,1.29267 1.40268,1.68234 0.33491,0.38968 1.2189,1.45265 1.96443,2.36215 1.28838,1.57177 1.90285,1.92861 2.46696,1.43266 z"
       id="path16" /></g></svg>
