<?xml version="1.0" encoding="UTF-8" standalone="no"?>
<!-- Created with Inkscape (http://www.inkscape.org/) -->

<svg
   width="1920"
   height="1920"
   viewBox="0 0 507.99999 508"
   version="1.1"
   id="svg1"
   xml:space="preserve"
   xmlns="http://www.w3.org/2000/svg"
   xmlns:svg="http://www.w3.org/2000/svg"><defs
     id="defs1" /><g
     id="layer1"><path
       style="fill:#ffffff;fill-opacity:1"
       d="M 242.8875,458.88658 C 228.0054,457.87334 216.783,456.1604 203.95616,452.94426 161.68179,442.3446 124.25609,418.78095 96.128746,385.05489 71.273009,355.25165 55.424142,318.62011 50.416492,279.4 c -1.122831,-8.79405 -1.32268,-12.61186 -1.32268,-25.26771 0,-12.65585 0.199849,-16.47365 1.32268,-25.26771 4.582349,-35.88913 18.092573,-69.31835 39.54757,-97.85512 C 101.981,115.02602 116.96756,100.23856 132.97938,88.565606 161.18628,68.00218 193.63756,55.145103 228.6,50.681075 c 8.81857,-1.125961 12.60161,-1.323009 25.4,-1.323009 12.79839,0 16.58143,0.197048 25.4,1.323009 34.96244,4.464028 67.41372,17.321105 95.62062,37.884531 16.01182,11.672954 30.99838,26.460414 43.01532,42.443854 21.45499,28.53677 34.96522,61.96599 39.54757,97.85512 1.12283,8.79406 1.32268,12.61186 1.32268,25.26771 0,12.65585 -0.19985,16.47366 -1.32268,25.26771 -4.58235,35.88913 -18.09258,69.31836 -39.54757,97.85512 -12.01694,15.98344 -27.0035,30.7709 -43.01532,42.44386 -28.18733,20.54916 -60.94269,33.5259 -95.62062,37.88218 -8.1996,1.03004 -12.09085,1.24928 -23.54792,1.32671 -6.33015,0.0428 -12.16422,0.0332 -12.96458,-0.0213 z m 21.11763,-56.96904 c 1.50099,-0.12433 2.79431,-0.29128 2.87403,-0.371 0.0797,-0.0797 -0.0395,-0.65741 -0.26488,-1.28376 -0.2254,-0.62635 -0.83895,-2.32945 -1.36343,-3.78466 -0.52449,-1.4552 -1.11678,-3.12208 -1.31621,-3.70416 -0.19942,-0.58209 -0.68162,-1.89177 -1.07155,-2.91042 -0.38993,-1.01864 -0.8092,-2.14974 -0.93171,-2.51354 -0.12251,-0.3638 -0.53241,-1.4949 -0.91089,-2.51354 -0.37848,-1.01865 -0.73756,-2.03068 -0.79797,-2.24896 -0.0604,-0.21828 -0.47823,-1.34937 -0.92851,-2.51354 -0.73799,-1.90803 -1.09908,-2.91993 -2.64365,-7.40834 l -0.45525,-1.32291 -2.7512,-0.0385 c -2.91429,-0.0408 -8.82853,-0.31318 -10.82099,-0.49841 -2.38947,-0.22215 -3.85104,-0.39107 -4.49792,-0.51986 -0.3638,-0.0724 -1.25677,-0.19782 -1.98438,-0.27864 -0.7276,-0.0808 -1.73963,-0.25068 -2.24895,-0.37746 -0.50933,-0.12677 -1.46183,-0.30944 -2.11667,-0.40593 -2.058,-0.30325 -1.95251,-0.28082 -5.55625,-1.18161 -1.23693,-0.30918 -2.53527,-0.62148 -2.8852,-0.69399 -0.34994,-0.0725 -0.85595,-0.24943 -1.12448,-0.39314 -0.26853,-0.14372 -0.48824,-0.19854 -0.48824,-0.12184 0,0.0767 -0.44648,-0.0239 -0.99218,-0.22357 -0.90031,-0.3294 -3.18119,-1.05147 -3.50573,-1.10981 -0.0728,-0.0131 -0.37042,-0.11422 -0.66146,-0.22476 -1.19328,-0.45318 -1.3312,-0.50371 -1.52136,-0.5573 -0.10914,-0.0308 -0.2282,-0.0796 -0.26458,-0.10865 -0.0364,-0.029 -0.34303,-0.10405 -0.68145,-0.16676 -0.33842,-0.0627 -0.8742,-0.25801 -1.19063,-0.43398 -0.31642,-0.17598 -0.66461,-0.33907 -0.77375,-0.36242 -0.10914,-0.0233 -0.25797,-0.0722 -0.33073,-0.10859 -0.0728,-0.0364 -0.22159,-0.0883 -0.33073,-0.11529 -0.10914,-0.027 -0.65946,-0.25028 -1.22294,-0.4961 -0.56347,-0.24582 -1.08126,-0.44694 -1.15064,-0.44694 -0.18971,0 -1.77148,-0.70963 -4.57173,-2.051 -1.38245,-0.66222 -2.53081,-1.15626 -2.55191,-1.09787 -0.0211,0.0584 -0.289,-0.12065 -0.59532,-0.39787 -0.30631,-0.27722 -0.55694,-0.41146 -0.55694,-0.29833 0,0.11313 -0.16858,0.0658 -0.37462,-0.10522 -0.39705,-0.32952 -0.49969,-0.16156 -0.79715,1.30445 -0.0738,0.36381 -0.26089,1.13771 -0.41573,1.7198 -0.15484,0.58208 -0.34192,1.35598 -0.41573,1.71979 -0.0738,0.3638 -0.19408,0.8603 -0.26724,1.10334 -0.1432,0.4757 -0.3261,1.28077 -0.53074,2.33624 -0.0705,0.3638 -0.23874,1.01865 -0.37379,1.45521 -0.13505,0.43656 -0.31561,1.15094 -0.40126,1.5875 -0.0856,0.43656 -0.18987,0.91281 -0.23161,1.05833 -0.0417,0.14552 -0.16329,0.74083 -0.2701,1.32292 -0.19037,1.03746 -0.82031,4.11627 -1.10977,5.42396 -0.0805,0.3638 -0.1567,0.80074 -0.16927,0.97097 -0.0126,0.17024 -1.55072,2.12891 -3.41812,4.35261 -1.86741,2.2237 -3.30608,4.1244 -3.19705,4.22378 0.4261,0.38839 8.34301,3.83794 12.10447,5.27415 12.81341,4.89244 26.87397,8.15771 39.81979,9.24732 1.81901,0.1531 3.72401,0.31759 4.23334,0.36555 2.04676,0.19269 16.4489,0.13414 19.00096,-0.0773 z m 78.91024,-29.42288 c 5.71267,-4.31201 9.81293,-7.9066 15.48105,-13.57181 9.55289,-9.54798 16.77617,-18.87214 23.37847,-30.17806 2.24174,-3.83879 6.48059,-12.01501 6.31492,-12.18068 -0.0945,-0.0945 -0.77124,-0.22841 -2.69157,-0.53249 -0.56414,-0.0893 -1.27852,-0.21194 -1.5875,-0.27246 -0.72982,-0.14297 -8.26021,-1.43551 -9.29303,-1.59509 -0.43656,-0.0675 -0.97235,-0.17363 -1.19063,-0.23594 -0.39749,-0.11348 -1.09239,-0.23868 -3.01009,-0.54234 -0.56414,-0.0893 -1.27852,-0.21241 -1.5875,-0.27352 -0.30898,-0.0611 -1.57381,-0.28928 -2.81074,-0.50706 -1.23693,-0.21779 -2.54661,-0.45746 -2.91042,-0.53262 -0.3638,-0.0752 -1.79255,-0.32502 -3.175,-0.55526 -1.38244,-0.23024 -2.84096,-0.47376 -3.24114,-0.54116 -0.51316,-0.0864 -0.72761,-0.0104 -0.72761,0.25784 0,0.2092 -0.17728,0.52749 -0.39396,0.70732 -0.21668,0.17983 -0.33705,0.41904 -0.2675,0.53159 0.0696,0.11254 -0.0508,0.35175 -0.26749,0.53158 -0.21668,0.17983 -0.39396,0.43723 -0.39396,0.572 0,0.13478 -0.47625,0.96206 -1.05834,1.8384 -0.58208,0.87634 -1.05833,1.68554 -1.05833,1.79822 0,0.11268 -0.23813,0.42037 -0.52917,0.68376 -0.29104,0.26338 -0.52916,0.61759 -0.52916,0.78713 0,0.16953 -0.426,0.80592 -0.94666,1.4142 -0.52066,0.60828 -0.86677,1.10596 -0.76911,1.10596 0.0977,0 -0.33671,0.61421 -0.96524,1.36492 -0.62853,0.75071 -1.27764,1.62488 -1.44247,1.94259 -0.61315,1.18184 -7.53045,9.11435 -10.90482,12.50525 -1.9209,1.9303 -3.49254,3.45912 -3.49254,3.39736 0,-0.0618 -0.60648,0.47227 -1.34773,1.18671 -0.74126,0.71445 -1.45563,1.299 -1.5875,1.299 -0.13187,0 -0.23977,0.10779 -0.23977,0.23954 0,0.13174 -0.83343,0.85739 -1.85208,1.61254 -1.01865,0.75516 -1.85208,1.48783 -1.85208,1.62816 0,0.14034 -0.11991,0.18105 -0.26646,0.0905 -0.14654,-0.0906 -0.33117,0.004 -0.41027,0.21011 -0.0791,0.20613 -1.38794,1.24179 -2.90854,2.30145 -1.52061,1.05967 -2.76473,2.02117 -2.76473,2.13669 0,0.32411 1.78009,2.04956 8.58088,8.31749 1.57892,1.45521 3.18141,2.9512 3.56109,3.32443 0.37967,0.37324 1.38431,1.25892 2.23253,1.96819 1.31916,1.10307 2.83922,3.27084 2.82739,4.03214 -0.006,0.37715 2.24478,6.41082 2.39265,6.41439 0.0812,0.002 1.74809,-1.20447 3.70416,-2.68095 z M 135.59896,331.44569 c 2.32833,-2.79048 6.96265,-8.32996 10.29848,-12.30995 4.23449,-5.05218 5.96462,-7.29848 5.73209,-7.44219 -0.18318,-0.11321 -0.33371,-0.31159 -0.3345,-0.44084 -0.001,-0.2255 -1.32755,-2.73503 -2.39624,-4.53448 -0.28089,-0.47294 -0.43838,-0.8599 -0.34999,-0.8599 0.0884,0 -0.32938,-0.89297 -0.92837,-1.98437 -0.599,-1.09141 -1.01679,-1.98438 -0.92843,-1.98438 0.0884,0 -0.12603,-0.56576 -0.47643,-1.25724 -0.80418,-1.58697 -2.01892,-4.56359 -1.86237,-4.56359 0.065,0 -0.18345,-0.59531 -0.55216,-1.32292 -0.3687,-0.7276 -0.60724,-1.32291 -0.53007,-1.32291 0.0772,0 -0.0496,-0.44649 -0.28159,-0.99219 -0.23204,-0.5457 -0.45986,-1.17078 -0.50627,-1.38906 -0.0464,-0.21828 -0.33038,-1.17078 -0.63104,-2.11667 -0.68915,-2.1681 -1.61262,-5.51566 -1.72221,-6.24299 -0.0459,-0.30495 -0.17269,-0.6987 -0.28166,-0.87501 -0.10896,-0.17631 -0.24968,-0.64119 -0.31271,-1.03305 -0.063,-0.39187 -0.16191,-0.95062 -0.21975,-1.24166 -0.69619,-3.50349 -1.46251,-7.88747 -1.50548,-8.61258 -0.0297,-0.50183 -0.13746,-1.09101 -0.23939,-1.30929 -0.10193,-0.21828 -0.27282,-1.5875 -0.37975,-3.04271 -0.10693,-1.45521 -0.22583,-2.88396 -0.26421,-3.175 -0.0384,-0.29104 -0.085,-0.73458 -0.10356,-0.98564 -0.0289,-0.38995 -0.13981,-0.41432 -0.76137,-0.16723 -0.40018,0.15908 -1.08479,0.38187 -1.52136,0.49508 -1.49042,0.38651 -8.20022,2.41417 -8.97958,2.71358 -0.42762,0.16429 -0.9634,0.32315 -1.19062,0.35304 -0.22722,0.0299 -2.23029,0.65517 -4.45127,1.38951 l -4.03814,1.33516 -2.17957,-0.38956 c -1.19876,-0.21426 -2.58161,-0.45631 -3.07299,-0.53788 -0.49138,-0.0816 -1.14623,-0.19924 -1.45521,-0.26149 -0.30898,-0.0622 -1.01452,-0.18778 -1.56786,-0.27897 l -1.00608,-0.1658 0.15015,1.29281 c 0.63832,5.49588 1.04325,8.42253 1.62487,11.74385 3.30245,18.85818 10.05847,36.38075 20.53013,53.24739 1.15192,1.85539 2.17692,3.36653 2.27779,3.35809 0.10086,-0.008 2.08838,-2.29848 4.41672,-5.08896 z m 125.4125,-5.29124 c 0.29104,-0.0666 1.24354,-0.21152 2.11666,-0.32217 1.72052,-0.21803 1.65725,-0.20757 4.7625,-0.78765 1.16417,-0.21748 2.35592,-0.43666 2.64834,-0.48707 0.29242,-0.0504 0.78278,-0.22604 1.08969,-0.3903 0.30691,-0.16425 0.6155,-0.24117 0.68575,-0.17092 0.0702,0.0703 0.97887,-0.16024 2.01916,-0.51219 1.04029,-0.35196 1.89144,-0.58916 1.89144,-0.52712 0,0.062 0.34115,-0.0636 0.75811,-0.27922 0.41695,-0.21562 1.04203,-0.44369 1.38906,-0.50682 0.34702,-0.0631 1.16674,-0.35502 1.82158,-0.64863 0.65484,-0.29361 2.44078,-1.09161 3.96875,-1.77333 1.52797,-0.68172 3.37344,-1.60444 4.10104,-2.05049 0.72761,-0.44604 1.47175,-0.81209 1.65365,-0.81344 0.1819,-0.001 0.33073,-0.10168 0.33073,-0.22295 0,-0.12126 0.17859,-0.22048 0.39687,-0.22048 0.21828,0 0.39688,-0.11907 0.39688,-0.26459 0,-0.14552 0.17859,-0.26458 0.39687,-0.26458 0.21828,0 0.39688,-0.12609 0.39688,-0.2802 0,-0.15411 0.10103,-0.21776 0.22451,-0.14144 0.12348,0.0763 0.47569,-0.0953 0.78269,-0.38126 0.30699,-0.28601 0.68221,-0.52002 0.83382,-0.52002 0.1516,0 0.27564,-0.11906 0.27564,-0.26458 0,-0.14552 0.1786,-0.26458 0.39688,-0.26458 0.21828,0 0.39687,-0.11907 0.39687,-0.26459 0,-0.14552 0.1786,-0.26458 0.39688,-0.26458 0.21828,0 0.39687,-0.11906 0.39687,-0.26458 0,-0.14552 0.1786,-0.26459 0.39688,-0.26459 0.21828,0 0.39687,-0.0982 0.39687,-0.21825 0,-0.12004 0.92593,-0.88118 2.05762,-1.69142 1.13169,-0.81024 2.8581,-2.24274 3.83646,-3.18332 0.97836,-0.94059 1.77884,-1.66564 1.77884,-1.61123 0,0.0544 0.55566,-0.46871 1.23479,-1.16248 1.6766,-1.71276 6.96729,-7.96032 6.96729,-8.2274 0,-0.11815 0.426,-0.7125 0.94666,-1.32077 0.52066,-0.60828 0.8571,-1.10596 0.74763,-1.10596 -0.10946,0 0.0459,-0.26789 0.34531,-0.59531 0.29939,-0.32742 0.74048,-0.9525 0.98021,-1.38907 0.23973,-0.43656 0.66358,-1.15093 0.9419,-1.5875 0.27831,-0.43656 0.83088,-1.44859 1.22793,-2.24895 0.39705,-0.80037 0.90986,-1.67607 1.13957,-1.94601 0.22972,-0.26994 0.3839,-0.53968 0.34262,-0.59943 -0.0413,-0.0598 0.29831,-0.91045 0.75463,-1.89045 0.80858,-1.7365 1.35364,-2.96949 1.43099,-3.23703 0.021,-0.0728 0.24404,-0.6045 0.49558,-1.18164 0.25153,-0.57715 0.4943,-1.23199 0.53948,-1.45521 0.0452,-0.22322 0.15034,-0.58445 0.23367,-0.80273 0.26203,-0.68638 1.08824,-3.29369 1.14262,-3.60581 0.0286,-0.16418 0.23711,-0.93809 0.46334,-1.71979 0.22624,-0.7817 0.4813,-1.838 0.56681,-2.34732 0.0855,-0.50932 0.20645,-1.10464 0.26876,-1.32292 0.0623,-0.21828 0.17711,-0.78382 0.25509,-1.25677 0.078,-0.47294 0.19947,-1.19696 0.26998,-1.60893 0.21901,-1.27975 0.40069,-2.72805 0.66944,-5.33638 0.31464,-3.05386 0.1557,-13.38122 -0.23414,-15.21354 -0.1548,-0.72761 -0.33954,-1.8587 -0.41052,-2.51354 -0.071,-0.65485 -0.19727,-1.48828 -0.28064,-1.85209 -0.0834,-0.3638 -0.32171,-1.52768 -0.52966,-2.5864 -0.20794,-1.05872 -0.454,-2.04779 -0.54679,-2.19793 -0.0928,-0.15014 -0.20833,-0.53407 -0.25674,-0.85318 -0.19785,-1.3041 -0.43493,-2.14619 -0.80653,-2.8648 -0.21562,-0.41696 -0.32785,-0.7581 -0.2494,-0.7581 0.0784,0 -0.0472,-0.44649 -0.27925,-0.99219 -0.23204,-0.5457 -0.45942,-1.17196 -0.50529,-1.39168 -0.0459,-0.21972 -0.3224,-0.93409 -0.6145,-1.5875 -2.32136,-5.19267 -3.19134,-7.00812 -4.20972,-8.78476 -0.64329,-1.12227 -1.15387,-2.11538 -1.13463,-2.2069 0.0192,-0.0915 -0.18129,-0.33038 -0.44564,-0.53078 -0.26435,-0.2004 -0.39251,-0.36815 -0.28479,-0.37278 0.10771,-0.005 0.0174,-0.21677 -0.20061,-0.47143 -0.21804,-0.25467 -0.39853,-0.54949 -0.40108,-0.65516 -0.003,-0.10568 -0.297,-0.50761 -0.65433,-0.89319 -0.35734,-0.38557 -0.58538,-0.80512 -0.50676,-0.93234 0.0786,-0.12721 0.0375,-0.23129 -0.0915,-0.23129 -0.12893,0 -1.09733,-1.19063 -2.15198,-2.64584 -1.05466,-1.45521 -2.02776,-2.64583 -2.16245,-2.64583 -0.13468,0 -0.24488,-0.11384 -0.24488,-0.25297 0,-0.13913 -0.65482,-0.91304 -1.45515,-1.71979 -0.80033,-0.80675 -1.38276,-1.46682 -1.2943,-1.46682 0.0885,0 -0.32214,-0.38696 -0.91245,-0.8599 -0.59031,-0.47294 -1.08628,-0.97896 -1.10215,-1.12448 -0.0355,-0.32544 -6.03261,-5.34824 -7.28662,-6.10282 -0.49958,-0.30061 -1.21683,-0.83639 -1.59389,-1.19062 -0.37707,-0.35423 -0.70575,-0.59673 -0.7304,-0.53889 -0.0247,0.0579 -0.75921,-0.3576 -1.63233,-0.92321 -1.99633,-1.29322 -2.54554,-1.62853 -3.04271,-1.85763 -0.21828,-0.10059 -0.60523,-0.36184 -0.8599,-0.58055 -0.25466,-0.21872 -0.46302,-0.3221 -0.46302,-0.22974 0,0.0924 -0.38695,-0.0663 -0.85989,-0.35258 -0.8667,-0.52462 -2.07032,-1.09323 -2.31511,-1.0937 -0.0728,-1.4e-4 -0.31088,-0.16188 -0.52916,-0.35943 -0.21828,-0.19754 -0.45641,-0.35928 -0.52917,-0.35942 -0.14279,-2.7e-4 -1.14874,-0.38055 -2.3151,-0.87518 -0.40019,-0.1697 -0.78714,-0.32576 -0.8599,-0.3468 -0.0728,-0.021 -0.54901,-0.22037 -1.05833,-0.44298 -0.83317,-0.36413 -3.5357,-1.3269 -4.0349,-1.43741 -0.10914,-0.0242 -0.25797,-0.0588 -0.33073,-0.077 -0.0728,-0.0182 -0.22159,-0.0448 -0.33073,-0.0592 -0.10914,-0.0144 -0.38838,-0.12775 -0.62052,-0.25199 -0.23215,-0.12424 -0.7084,-0.28499 -1.05834,-0.35722 -1.1217,-0.23153 -1.67329,-0.36137 -2.75394,-0.64829 -0.58152,-0.15439 -1.47402,-0.35071 -1.98334,-0.43626 -0.50933,-0.0855 -1.28323,-0.22318 -1.7198,-0.30585 -0.43656,-0.0827 -1.03187,-0.19077 -1.32291,-0.24023 -0.29104,-0.0495 -0.85659,-0.15517 -1.25677,-0.23491 -1.64301,-0.32741 -2.28091,-0.40166 -5.0778,-0.59105 -4.29765,-0.29103 -11.56427,-0.14175 -14.03835,0.28837 -0.43656,0.0759 -1.32953,0.19443 -1.98437,0.26339 -0.65485,0.069 -2.14313,0.32002 -3.3073,0.55789 -1.16416,0.23787 -2.40597,0.48975 -2.75958,0.55972 -0.35361,0.07 -0.7439,0.18963 -0.86733,0.26591 -0.12342,0.0763 -0.54848,0.18492 -0.94458,0.24141 -1.2248,0.1747 -1.7719,0.3209 -2.78516,0.74426 -0.53774,0.22469 -0.97772,0.3593 -0.97772,0.29913 0,-0.0602 -0.53731,0.12093 -1.19403,0.40244 -0.65672,0.2815 -1.25484,0.50789 -1.32916,0.50308 -0.28313,-0.0183 -3.09958,1.10775 -4.32936,1.73093 -0.7068,0.35816 -1.35912,0.57717 -1.4496,0.48668 -0.0905,-0.0905 -0.16452,-0.006 -0.16452,0.18826 0,0.19403 -0.0778,0.27498 -0.17288,0.1799 -0.0951,-0.0951 -0.54157,0.0498 -0.99219,0.32193 -0.45061,0.27215 -1.98672,1.10442 -3.41357,1.84949 -3.00141,1.56728 -7.85677,4.71547 -7.85677,5.09429 0,0.1422 -0.11175,0.18948 -0.24833,0.10507 -0.13657,-0.0844 -0.34493,0.0155 -0.46302,0.222 -0.11808,0.20651 -0.92907,0.91148 -1.8022,1.56659 -0.87312,0.65512 -1.94468,1.52781 -2.38125,1.93932 -0.43656,0.4115 -1.31484,1.20411 -1.95173,1.76134 -0.6369,0.55722 -1.57509,1.51237 -2.08487,2.12254 -0.50979,0.61018 -0.95521,1.04988 -0.98982,0.97712 -0.0816,-0.1715 -4.55902,5.19004 -4.94661,5.92336 -0.16248,0.30741 -0.69369,1.02684 -1.18046,1.59874 -0.48678,0.5719 -0.88505,1.17622 -0.88505,1.34294 0,0.16672 -0.29398,0.57932 -0.6533,0.91688 -0.35932,0.33756 -0.60025,0.69959 -0.53541,0.80451 0.0649,0.10492 -0.11742,0.40372 -0.40503,0.664 -0.28761,0.26029 -0.52292,0.56862 -0.52292,0.68518 0,0.11656 -0.3361,0.78272 -0.74689,1.48035 -1.32043,2.24245 -4.01561,7.67948 -4.01561,8.10075 0,0.063 -0.20113,0.57552 -0.44695,1.139 -0.24582,0.56347 -0.46415,1.08403 -0.48519,1.15679 -0.021,0.0728 -0.1771,0.46746 -0.3468,0.87712 -0.16971,0.40965 -0.30856,0.89186 -0.30856,1.07156 0,0.1797 -0.14288,0.46961 -0.3175,0.64423 -0.17463,0.17463 -0.23256,0.3175 -0.12874,0.3175 0.10381,0 0.0146,0.41672 -0.19817,0.92604 -0.21281,0.50933 -0.33187,0.92605 -0.26458,0.92605 0.0673,0 -0.0584,0.43256 -0.2793,0.96125 -0.2209,0.52868 -0.45452,1.21329 -0.51915,1.52135 -0.26485,1.2623 -0.39373,1.81526 -0.5209,2.23489 -0.0737,0.24303 -0.202,0.8586 -0.28521,1.36792 -0.0832,0.50933 -0.20448,1.10464 -0.2695,1.32292 -0.065,0.21828 -0.18173,0.93266 -0.25936,1.5875 -0.22967,1.93735 -0.396,3.02326 -0.56899,3.71476 -0.2451,0.97976 -0.33233,14.83714 -0.0973,15.45761 0.11231,0.2965 0.2833,1.31299 0.37996,2.25888 0.0967,0.94589 0.34817,2.67229 0.55889,3.83646 0.21072,1.16416 0.4255,2.36617 0.47729,2.67112 0.0518,0.30494 0.1669,0.67215 0.25581,0.81601 0.0889,0.14386 0.22326,0.60874 0.29856,1.03305 0.16962,0.95582 1.38966,5.05182 1.61181,5.41126 0.0897,0.14506 0.21953,0.57548 0.28862,0.95648 0.0691,0.38101 0.29422,1.0188 0.5003,1.4173 0.20608,0.39851 0.30006,0.79919 0.20885,0.8904 -0.0912,0.0912 -0.007,0.16584 0.18694,0.16584 0.19403,0 0.27892,0.0738 0.18865,0.16412 -0.0903,0.0903 0.18754,0.86078 0.61736,1.71225 0.42982,0.85147 0.78149,1.68031 0.78149,1.84187 0,0.16157 0.43394,1.02817 0.96432,1.92578 0.53037,0.89761 0.96694,1.78085 0.97014,1.96275 0.003,0.1819 0.0921,0.33073 0.19762,0.33073 0.10549,0 0.26075,0.27469 0.34501,0.61043 0.20899,0.83267 5.3751,8.64998 5.71639,8.64998 0.15025,0 0.27319,0.1786 0.27319,0.39688 0,0.21828 0.11906,0.39687 0.26458,0.39687 0.14552,0 0.26458,0.10759 0.26458,0.23908 0,0.24437 1.14467,1.6529 2.4474,3.01154 0.40018,0.41736 0.7276,0.79708 0.7276,0.84382 0,0.56252 10.09059,9.64388 10.74981,9.67465 0.12672,0.006 0.64262,0.3631 1.14645,0.79375 0.50382,0.43065 1.04862,0.783 1.21065,0.783 0.16203,0 0.57079,0.29398 0.90835,0.6533 0.33756,0.35932 0.70201,0.59875 0.80989,0.53208 0.10788,-0.0667 0.34123,0.0536 0.51855,0.26725 0.17732,0.21366 0.63729,0.55008 1.02216,0.74761 0.38487,0.19753 1.11649,0.59656 1.62581,0.88674 2.20074,1.25384 5.82081,3.04057 6.87917,3.39531 0.14023,0.047 1.28096,0.52373 2.38125,0.99516 0.3638,0.15588 0.75075,0.30827 0.85989,0.33866 0.10914,0.0304 0.25797,0.085 0.33073,0.12139 0.0728,0.0364 0.22159,0.0859 0.33073,0.11007 0.26958,0.0597 3.01178,0.95221 3.50573,1.14105 0.21828,0.0834 0.53121,0.1806 0.69539,0.21591 0.16418,0.0353 0.99762,0.27524 1.85208,0.53319 1.78949,0.54022 1.76339,0.53388 3.07002,0.7457 0.54301,0.088 1.52437,0.28042 2.18081,0.42753 1.60499,0.35968 4.52415,0.76554 6.83852,0.95078 1.0441,0.0836 1.93823,0.19179 1.98694,0.2405 0.12945,0.12945 11.19468,-0.0655 11.81895,-0.2082 z m 111.0464,-80.33928 c 0.59688,-0.2429 2.49126,-0.82656 5.63485,-1.73612 1.49171,-0.43161 2.30612,-0.68117 4.68491,-1.43564 0.53941,-0.17108 1.19425,-0.35663 1.45521,-0.41234 0.26095,-0.0557 2.31993,-0.70439 4.5755,-1.44151 3.86691,-1.26371 4.18413,-1.32561 5.55625,-1.08425 0.80037,0.14079 1.84216,0.31907 2.31511,0.39617 2.23515,0.36439 2.6063,0.43136 2.97656,0.53706 0.21828,0.0623 0.7609,0.17476 1.20582,0.24989 l 0.80894,0.13658 -0.21001,-2.04532 c -2.37203,-23.10156 -10.70975,-46.34501 -23.68377,-66.02431 -1.22899,-1.86417 -2.33524,-3.35245 -2.45833,-3.30729 -0.21339,0.0783 -19.85498,23.39594 -20.2612,24.05321 -0.18483,0.29907 0.82433,2.56855 1.29563,2.9137 0.12157,0.089 0.22168,0.26762 0.22248,0.39687 10e-4,0.22551 1.32754,2.73504 2.39624,4.53448 0.28088,0.47295 0.43837,0.8599 0.34998,0.8599 -0.0884,0 0.32938,0.89297 0.92838,1.98437 0.599,1.09141 1.01679,1.98438 0.92842,1.98438 -0.0884,0 0.12603,0.56576 0.47643,1.25725 0.98814,1.94998 1.98203,4.51101 1.81535,4.6777 -0.0828,0.0828 -0.0314,0.15047 0.11411,0.15047 0.14552,0 0.27719,0.14882 0.2926,0.33073 0.0154,0.1819 0.46189,1.58088 0.9922,3.10885 1.17734,3.39223 2.21023,6.7493 2.39235,7.7755 0.0746,0.42023 0.24589,0.97012 0.38068,1.22199 0.1348,0.25186 0.18009,0.52292 0.10066,0.60235 -0.0794,0.0794 -0.004,0.40754 0.16851,0.72913 0.17211,0.32159 0.36035,0.86757 0.41831,1.21329 0.058,0.34571 0.15846,0.89646 0.22332,1.22389 1.09296,5.517 1.13324,5.75095 1.62243,9.42358 0.0653,0.48992 0.16239,0.96617 0.21586,1.05833 0.0535,0.0922 0.17577,1.29866 0.27179,2.68111 0.096,1.38244 0.2202,2.75166 0.27596,3.04271 0.0557,0.29104 0.11048,0.67799 0.12162,0.85989 0.024,0.3928 0.55819,0.4247 1.39685,0.0834 z M 151.97597,196.25469 c 0.23651,-0.47295 0.72552,-1.33615 1.08669,-1.91823 0.36116,-0.58209 0.7351,-1.23693 0.83097,-1.45521 0.0959,-0.21828 0.35399,-0.60605 0.57362,-0.86172 0.41568,-0.48389 0.64375,-0.84817 1.4681,-2.34487 0.27095,-0.49195 0.83101,-1.25164 1.24456,-1.6882 0.41356,-0.43656 0.72765,-0.8776 0.69799,-0.98009 -0.0297,-0.10248 0.36585,-0.69779 0.87894,-1.32291 0.51308,-0.62512 1.15937,-1.49377 1.43621,-1.93034 0.27683,-0.43656 1.99667,-2.5753 3.82186,-4.75275 4.42368,-5.27744 11.94918,-12.76843 15.30644,-15.23625 0.61847,-0.45461 1.12448,-0.94235 1.12448,-1.08387 0,-0.14152 0.11309,-0.18742 0.25131,-0.102 0.13822,0.0854 0.38232,-0.0895 0.54244,-0.38867 0.16013,-0.29919 0.40423,-0.47409 0.54245,-0.38867 0.13821,0.0854 0.2513,0.0356 0.2513,-0.11075 0,-0.14634 1.48828,-1.30729 3.30729,-2.57989 1.81902,-1.2726 3.3073,-2.40525 3.3073,-2.517 0,-0.11176 -0.50172,-0.65447 -1.11492,-1.20604 -0.61321,-0.55157 -1.66814,-1.53864 -2.34429,-2.19348 -0.67615,-0.65484 -2.39581,-2.26219 -3.82147,-3.57188 -1.42565,-1.30968 -3.25799,-3.00852 -4.07186,-3.77519 -0.81386,-0.76667 -2.21579,-2.01683 -3.11539,-2.77813 -1.70567,-1.44344 -1.69392,-1.42238 -3.28134,-5.88209 -0.41438,-1.16417 -0.9175,-2.57102 -1.11804,-3.12634 l -0.36462,-1.00967 -3.94393,2.96389 c -6.03054,4.53198 -10.05597,8.04704 -15.86848,13.85656 -11.40342,11.39757 -19.87335,22.96489 -27.14411,37.07053 l -2.32531,4.51122 4.16053,0.71397 c 2.28828,0.39268 4.45817,0.76825 4.82198,0.8346 0.3638,0.0663 1.01864,0.18439 1.4552,0.26232 1.12774,0.20132 3.60231,0.65827 4.26596,0.78773 0.30898,0.0603 1.02335,0.18167 1.5875,0.26975 1.25681,0.19624 5.28385,0.89333 6.17449,1.06883 0.35798,0.0705 1.07712,0.19182 1.5981,0.26952 1.0186,0.15193 1.85989,0.30489 2.91041,0.52917 1.07893,0.23035 1.89925,0.37836 3.03212,0.54712 0.58791,0.0876 1.11853,0.20866 1.17917,0.26907 0.17976,0.17912 0.20761,0.1473 0.65635,-0.75004 z m 154.12728,-48.29763 c 0.14261,-0.53956 0.3127,-1.27867 0.37799,-1.64248 0.0653,-0.3638 0.37992,-1.67349 0.6992,-2.91041 0.62697,-2.42901 0.75262,-2.95344 0.9508,-3.96875 0.071,-0.36381 0.18898,-0.86031 0.26215,-1.10335 0.0732,-0.24303 0.18755,-0.68952 0.25419,-0.99218 0.0666,-0.30267 0.1757,-0.79794 0.24234,-1.10061 0.0666,-0.30267 0.18143,-0.74915 0.25509,-0.99219 0.0736,-0.24303 0.20009,-0.8586 0.28096,-1.36792 0.14227,-0.89598 0.52315,-2.87364 0.81529,-4.23334 0.0782,-0.3638 0.20121,-0.94776 0.27344,-1.2977 0.21473,-1.0403 0.59657,-1.59549 3.33864,-4.85418 l 2.61625,-3.10917 -2.06448,-0.94331 c -13.30404,-6.07896 -29.40488,-10.37568 -45.58844,-12.16587 -6.61021,-0.73121 -25.82779,-0.83609 -26.94268,-0.14705 -0.21338,0.13188 -0.10283,0.72054 0.38032,2.02504 0.37463,1.01152 0.78072,2.13677 0.90241,2.50058 0.1217,0.3638 0.53632,1.49489 0.92137,2.51354 0.38506,1.01864 0.74482,2.03068 0.79945,2.24896 0.0546,0.21828 0.47086,1.34937 0.92493,2.51354 0.45408,1.16417 0.92568,2.41432 1.048,2.77812 0.12232,0.36381 0.53646,1.4949 0.92031,2.51354 0.38385,1.01865 0.98033,2.68553 1.32551,3.70417 0.34518,1.01865 0.9397,2.68552 1.32115,3.70417 0.38146,1.01864 0.93805,2.50693 1.23687,3.30729 0.29882,0.80036 0.55197,1.5802 0.56255,1.73297 0.0124,0.17847 1.30413,0.28405 3.61317,0.29535 1.97666,0.01 4.36783,0.0931 5.31372,0.18544 0.94589,0.0923 2.55323,0.2328 3.57187,0.31219 1.89215,0.14746 2.991,0.26477 4.63021,0.49433 0.50933,0.0713 1.46183,0.19505 2.11667,0.27493 0.65484,0.0799 1.45852,0.20458 1.78594,0.2771 0.32742,0.0725 0.81835,0.18165 1.09095,0.2425 0.43782,0.0977 1.31353,0.25801 3.07623,0.56303 0.75597,0.13081 1.69075,0.34095 2.20395,0.49544 0.24304,0.0732 0.73954,0.19113 1.10335,0.26214 1.30799,0.25532 1.94634,0.41068 3.27765,0.79771 0.74391,0.21626 1.44242,0.39716 1.55226,0.40201 0.10983,0.005 0.61585,0.18269 1.12447,0.39521 0.50863,0.21252 0.92478,0.33822 0.92478,0.27934 0,-0.0589 0.50602,0.0766 1.12448,0.30096 0.61847,0.22441 1.30308,0.44815 1.52136,0.49719 0.21828,0.049 0.39687,0.10739 0.39687,0.12966 0,0.0223 0.1786,0.0791 0.39688,0.12626 0.21828,0.0472 0.75406,0.23486 1.19062,0.41708 0.43656,0.18221 0.97639,0.36795 1.19961,0.41276 0.22322,0.0448 0.87806,0.28726 1.45521,0.53879 0.57714,0.25154 1.13865,0.47945 1.24779,0.50648 0.10914,0.027 0.25796,0.0789 0.33072,0.1153 0.0728,0.0364 0.22159,0.091 0.33073,0.12139 0.57044,0.1588 2.93394,1.19654 5.6224,2.46862 1.09141,0.51641 2.06772,0.94859 2.16958,0.96039 0.10187,0.0118 0.32929,0.16555 0.50538,0.34164 0.44852,0.44852 0.70934,0.20911 1.00954,-0.92665 z"
       id="path16" /></g></svg>
