<?xml version="1.0" encoding="UTF-8" standalone="no"?>
<!-- Created with Inkscape (http://www.inkscape.org/) -->

<svg
   width="1920"
   height="1920"
   viewBox="0 0 507.99999 508"
   version="1.1"
   id="svg1"
   xml:space="preserve"
   xmlns="http://www.w3.org/2000/svg"
   xmlns:svg="http://www.w3.org/2000/svg"><defs
     id="defs1" /><g
     id="layer1"><path
       style="fill:#ffffff;fill-opacity:1"
       d="M 242.8875,458.88658 C 228.0054,457.87334 216.783,456.1604 203.95616,452.94426 161.68179,442.3446 124.25609,418.78095 96.128746,385.05489 71.273009,355.25165 55.424142,318.62011 50.416492,279.4 c -1.122831,-8.79405 -1.32268,-12.61186 -1.32268,-25.26771 0,-12.65585 0.199849,-16.47365 1.32268,-25.26771 4.582349,-35.88913 18.092573,-69.31835 39.54757,-97.85512 C 101.981,115.02602 116.96756,100.23856 132.97938,88.565606 161.18628,68.00218 193.63756,55.145103 228.6,50.681075 c 8.81857,-1.125961 12.60161,-1.323009 25.4,-1.323009 12.79839,0 16.58143,0.197048 25.4,1.323009 34.96244,4.464028 67.41372,17.321105 95.62062,37.884531 16.01182,11.672954 30.99838,26.460414 43.01532,42.443854 21.45499,28.53677 34.96522,61.96599 39.54757,97.85512 1.12283,8.79406 1.32268,12.61186 1.32268,25.26771 0,12.65585 -0.19985,16.47366 -1.32268,25.26771 -4.58235,35.88913 -18.09258,69.31836 -39.54757,97.85512 -12.01694,15.98344 -27.0035,30.7709 -43.01532,42.44386 -28.18733,20.54916 -60.94269,33.5259 -95.62062,37.88218 -8.1996,1.03004 -12.09085,1.24928 -23.54792,1.32671 -6.33015,0.0428 -12.16422,0.0332 -12.96458,-0.0213 z m 51.36503,-62.26368 c 20.75034,-5.91858 39.18917,-15.74636 55.43315,-29.5455 3.41329,-2.89956 9.08932,-8.23575 9.08932,-8.5451 0,-0.10167 -6.25226,-3.79313 -13.89392,-8.20324 -12.49449,-7.21076 -13.94347,-7.98205 -14.38588,-7.65758 -0.27058,0.19845 -1.90621,1.50408 -3.63473,2.9014 -10.70829,8.65653 -22.95534,15.31145 -36.21568,19.67923 -2.76489,0.91071 -6.3963,1.98623 -8.06979,2.39002 -1.67349,0.4038 -3.0794,0.76362 -3.12424,0.7996 -0.11548,0.0927 6.58487,13.45608 6.8273,13.6166 0.10989,0.0728 0.80993,1.35052 1.55566,2.83947 l 1.35586,2.70717 v 5.16418 c 0,2.8403 0.10544,5.16418 0.2343,5.16418 0.12887,0 2.30176,-0.58969 4.82865,-1.31043 z m -81.00646,-16.4828 -0.008,-16.20573 -2.96847,-1.14457 c -4.0842,-1.57479 -12.29475,-5.65601 -16.5945,-8.24864 -7.89085,-4.75796 -16.37183,-11.37468 -22.3302,-17.42165 -1.99853,-2.02824 -1.94545,-2.02526 -3.0713,-0.17264 -0.35374,0.58209 -0.73868,1.1774 -0.85543,1.32292 -0.11675,0.14552 -0.71584,1.03849 -1.33131,1.98438 -0.61548,0.94588 -1.20909,1.75972 -1.31914,1.80853 -0.11004,0.0488 -0.13278,0.19764 -0.0505,0.33073 0.0823,0.13309 0.0507,0.24199 -0.07,0.24199 -0.12077,0 -0.51226,0.53578 -0.86999,1.19062 -0.35772,0.65485 -0.72774,1.19063 -0.82227,1.19063 -0.0945,0 -0.31981,0.35718 -0.50064,0.79375 -0.18083,0.43656 -0.40633,0.79375 -0.5011,0.79375 -0.0948,0 -0.40569,0.44648 -0.69092,0.99218 -0.28523,0.54571 -1.20513,2.06375 -2.04421,3.37344 -0.83909,1.30969 -1.55553,2.45956 -1.59209,2.55528 -0.0366,0.0957 -1.85241,1.2033 -4.03523,2.46129 -2.18281,1.258 -4.06355,2.38178 -4.17943,2.49729 -0.25748,0.25666 4.53893,4.88639 8.90313,8.59375 14.69873,12.48647 31.06949,21.64252 49.78047,27.84187 2.32833,0.77142 4.44169,1.40798 4.69636,1.41458 0.43614,0.0113 0.46255,-0.92854 0.45492,-16.19375 z m 51.20497,-54.13555 c 6.0717,-0.9391 10.46949,-2.11766 16.00729,-4.28975 22.40483,-8.78786 39.02827,-28.19214 44.29725,-51.70751 1.28777,-5.74729 1.59331,-8.79149 1.59331,-15.875 0,-7.08351 -0.30554,-10.12771 -1.59331,-15.875 -6.14205,-27.41186 -27.60101,-48.87082 -55.01287,-55.01287 -5.71338,-1.28017 -8.80136,-1.59256 -15.74271,-1.59256 -6.95862,0 -9.95317,0.30463 -15.875,1.61496 -26.46533,5.85598 -47.70216,26.36964 -54.51263,52.65633 -8.32364,32.12715 6.14053,65.64203 35.30682,81.8093 8.7091,4.82757 18.10889,7.6615 29.39227,8.86141 2.75047,0.2925 12.81413,-0.075 16.13958,-0.58931 z m -138.73779,-42.06797 13.39763,-7.72807 -0.21912,-0.98394 c -0.12051,-0.54117 -0.46119,-2.76988 -0.75706,-4.95269 -2.10639,-15.54013 -1.15028,-31.09898 2.84126,-46.23594 l 0.75002,-2.84427 -1.07913,-0.0283 c -1.13392,-0.0298 -1.61975,-0.0613 -5.04789,-0.32729 -3.21115,-0.24916 -7.48883,-0.44877 -12.05722,-0.56263 l -4.11971,-0.10267 -3.92583,-2.27867 c -2.16597,-1.2572 -4.027,-2.17751 -4.15151,-2.053 -0.35504,0.35504 -2.26414,8.87952 -3.11202,13.89576 -3.26284,19.30358 -2.7356,38.09587 1.6124,57.47039 0.58784,2.61937 1.12732,4.85826 1.19886,4.97531 0.0715,0.11705 0.38694,0.0489 0.70088,-0.15153 0.31395,-0.20038 6.59975,-3.84197 13.96844,-8.09241 z m 272.34242,3.7544 c 4.43413,-19.57541 4.99413,-38.53647 1.71166,-57.95616 -0.8294,-4.90693 -2.75902,-13.55923 -3.08778,-13.84546 -0.11078,-0.0965 -6.45221,3.44335 -14.09205,7.86624 -10.15734,5.88032 -13.88159,8.16307 -13.857,8.49353 0.0185,0.24855 0.33901,2.53551 0.71226,5.08212 2.28777,15.60888 1.42576,31.28259 -2.57193,46.7651 l -0.63194,2.4474 1.22899,0.0283 c 1.28044,0.0295 1.7046,0.0563 5.19774,0.32729 3.21095,0.24914 7.48876,0.44877 12.05614,0.5626 l 4.11864,0.10264 3.81886,2.24506 c 2.10038,1.23478 3.9491,2.25524 4.10828,2.26769 0.16282,0.0127 0.72627,-1.90597 1.28813,-4.3864 z M 339.12906,172.11146 c 0.11873,-0.14552 0.50596,-0.74083 0.86052,-1.32292 0.35457,-0.58208 0.74018,-1.17739 0.85693,-1.32292 0.11675,-0.14552 0.71584,-1.03848 1.33132,-1.98437 0.61547,-0.94589 1.20908,-1.75973 1.31913,-1.80854 0.11005,-0.0488 0.13279,-0.19763 0.0505,-0.33072 -0.0822,-0.1331 -0.0507,-0.24199 0.07,-0.24199 0.12076,0 0.51226,-0.53578 0.86998,-1.19063 0.35772,-0.65484 0.72775,-1.19062 0.82227,-1.19062 0.0945,0 0.31982,-0.35719 0.50065,-0.79375 0.18083,-0.43656 0.40632,-0.79375 0.5011,-0.79375 0.0948,0 0.40512,-0.44648 0.68966,-0.99219 0.28454,-0.5457 1.14829,-1.97312 1.91943,-3.17205 0.77114,-1.19893 1.4626,-2.3376 1.53658,-2.53039 0.074,-0.19279 1.87944,-1.34653 4.01213,-2.56386 l 3.87763,-2.21334 -2.74131,-2.62143 c -14.28293,-13.65837 -32.31116,-24.78821 -51.24396,-31.63577 -3.32118,-1.20119 -9.52202,-3.15402 -11.53408,-3.63242 l -0.7276,-0.173 v 16.04428 c 0,15.04258 0.0289,16.05432 0.46302,16.20518 6.15194,2.13776 15.67061,6.62835 21.4974,10.14174 7.90466,4.7663 16.36921,11.37245 22.35632,17.44798 1.67481,1.69954 1.88185,1.83377 2.17379,1.40926 0.17747,-0.25806 0.41981,-0.58826 0.53853,-0.73378 z m -158.2329,-9.19427 c 11.00172,-8.79249 22.94832,-15.27538 36.19446,-19.64114 2.7649,-0.91127 5.92006,-1.86576 7.01146,-2.12109 1.09141,-0.25533 2.0819,-0.5525 2.20109,-0.66037 0.20319,-0.1839 -6.79448,-14.5312 -7.22701,-14.81751 -0.10991,-0.0728 -0.80999,-1.35052 -1.55571,-2.83946 l -1.35587,-2.70717 v -4.33761 -4.3376 l -3.10885,0.89474 c -20.08712,5.78116 -38.81648,15.82556 -54.70261,29.33657 -4.09861,3.48584 -8.37688,7.54322 -8.27527,7.84804 0.0542,0.1626 23.8033,14.10158 27.37509,16.06716 0.0274,0.0151 1.57685,-1.19297 3.44322,-2.68456 z"
       id="path16" /></g></svg>
