<?xml version="1.0" encoding="UTF-8" standalone="no"?>
<!-- Created with Inkscape (http://www.inkscape.org/) -->

<svg
   width="1920"
   height="1920"
   viewBox="0 0 507.99999 508"
   version="1.1"
   id="svg1"
   xml:space="preserve"
   xmlns="http://www.w3.org/2000/svg"
   xmlns:svg="http://www.w3.org/2000/svg"><defs
     id="defs1" /><g
     id="layer1"><path
       style="fill:#fffffc;fill-opacity:1"
       d="m 186.45226,344.94033 c -3.01249,-11.24709 -5.47726,-20.53523 -5.47726,-20.6403 0,-0.10507 9.64406,-16.89629 21.43125,-37.31382 L 223.8375,249.86344 V 176.19387 102.5243 L 238.91875,87.444792 254,72.365282 269.08125,87.444792 284.1625,102.5243 v 63.01683 63.01682 l 0.7276,0.14803 c 0.40019,0.0814 28.17151,4.97799 61.71407,10.88126 33.54255,5.90328 61.17918,10.79028 61.41473,10.86 0.59053,0.17481 24.96487,35.02516 24.67545,35.28088 -0.12809,0.11317 -8.01687,5.64643 -17.53061,12.29612 l -17.29772,12.09035 -62.46623,-11.01597 c -34.35642,-6.05879 -62.73108,-11.03481 -63.05479,-11.05782 -0.51472,-0.0366 -2.9841,4.1081 -19.6797,33.03107 -10.50012,18.19011 -19.17555,33.1633 -19.27873,33.27376 -0.21186,0.22678 -40.41158,11.0419 -41.04733,11.04315 -0.31926,6.3e-4 -1.61912,-4.51447 -5.88698,-20.44845 z"
       id="path2" /></g></svg>
