<?xml version="1.0" encoding="UTF-8" standalone="no"?>
<!-- Created with Inkscape (http://www.inkscape.org/) -->

<svg
   width="1920"
   height="1920"
   viewBox="0 0 507.99999 508"
   version="1.1"
   id="svg1"
   xml:space="preserve"
   xmlns="http://www.w3.org/2000/svg"
   xmlns:svg="http://www.w3.org/2000/svg"><defs
     id="defs1" /><g
     id="layer1"><path
       style="fill:#ffffff;fill-opacity:1"
       d="m 137.19877,383.57969 c -0.0569,-0.1819 -0.89038,-9.55808 -1.85228,-20.83594 -0.96189,-11.27786 -1.79118,-20.70483 -1.84285,-20.94882 -0.0597,-0.2817 16.40849,-20.11073 45.11996,-54.32823 l 45.2139,-53.88463 V 168.05319 102.5243 L 238.91875,87.444792 254,72.365282 269.08125,87.444792 284.1625,102.5243 v 62.33414 62.33414 l 57.8776,33.40645 c 31.83269,18.37355 57.96798,33.49077 58.07844,33.59382 0.22675,0.21153 11.0419,40.41117 11.04315,41.04708 10e-4,0.60793 -40.837,11.53566 -41.64291,11.14305 -0.30653,-0.14933 -24.84607,-14.31246 -54.53232,-31.47363 l -53.975,-31.20212 -0.69385,0.69066 c -0.38161,0.37986 -18.40629,21.82425 -40.05483,47.65419 -21.64854,25.82995 -39.61398,47.2303 -39.92319,47.55634 -0.54107,0.57051 -1.35544,0.66254 -21.65566,2.4474 -11.60139,1.02003 -21.15832,1.8546 -21.23761,1.8546 -0.0793,0 -0.1907,-0.14883 -0.24755,-0.33073 z"
       id="path2" /></g></svg>
