<?xml version="1.0" encoding="UTF-8" standalone="no"?>
<!-- Created with Inkscape (http://www.inkscape.org/) -->

<svg
   width="1920"
   height="1920"
   viewBox="0 0 507.99999 508"
   version="1.1"
   id="svg1"
   xml:space="preserve"
   xmlns="http://www.w3.org/2000/svg"
   xmlns:svg="http://www.w3.org/2000/svg"><defs
     id="defs1" /><g
     id="layer1"><path
       style="fill:#ffffff;fill-opacity:1"
       d="m 156.89792,374.48171 c -0.21828,-0.0405 -9.68375,-0.87016 -21.03438,-1.84362 -11.35062,-0.97345 -20.72885,-1.84974 -20.8405,-1.94732 -0.19126,-0.16714 3.38222,-42.19172 3.61944,-42.5651 0.061,-0.096 23.7502,-19.99853 52.64261,-44.22775 l 52.53166,-44.05313 0.0104,-23.54879 0.0104,-23.54878 L 238.9188,177.66771 254,162.5882 l 15.08125,15.07951 15.08125,15.07951 0.0104,23.54878 0.0104,23.54879 52.53166,44.05313 c 28.89241,24.22922 52.58159,44.1317 52.64261,44.22775 0.23722,0.37338 3.8107,42.39796 3.61944,42.5651 -0.11165,0.0976 -9.48988,0.97248 -20.8405,1.94424 -11.35063,0.97175 -20.83717,1.80925 -21.08122,1.86109 -0.28191,0.0599 -18.02798,-14.66059 -48.66433,-40.36739 -26.52133,-22.2539 -48.36263,-40.40715 -48.53622,-40.34054 -0.17358,0.0666 -21.79547,18.13895 -48.04864,40.16074 -26.25317,22.0218 -47.90814,40.16718 -48.12215,40.32307 -0.21401,0.15588 -0.5677,0.25026 -0.78598,0.20973 z"
       id="path2" /></g></svg>
