<?xml version="1.0" encoding="UTF-8" standalone="no"?>
<!-- Created with Inkscape (http://www.inkscape.org/) -->

<svg
   width="1920"
   height="1920"
   viewBox="0 0 507.99999 508"
   version="1.1"
   id="svg1"
   xml:space="preserve"
   xmlns="http://www.w3.org/2000/svg"
   xmlns:svg="http://www.w3.org/2000/svg"><defs
     id="defs1" /><g
     id="layer1"><path
       style="fill:#ffffff;fill-opacity:1"
       d="M 63.018095,329.07552 C 55.792324,310.43535 51.544564,292.24981 49.560904,271.4625 c -0.670217,-7.02339 -0.670217,-27.63702 0,-34.66042 1.160901,-12.1654 2.773857,-21.72934 5.494833,-32.58134 10.957795,-43.70269 35.940423,-82.44497 71.352843,-110.651748 19.80961,-15.778798 43.29928,-28.120973 67.54435,-35.48982 13.80824,-4.196764 27.12731,-6.778298 42.58457,-8.253849 7.03003,-0.671086 27.89497,-0.671086 34.925,0 12.16858,1.161613 21.73007,2.774203 32.58134,5.494997 42.26148,10.596433 79.7764,34.214475 107.80984,67.8732 2.16514,2.59961 2.93565,3.70038 2.69236,3.8464 -0.18746,0.1125 -11.52616,6.66871 -25.19712,14.56934 l -24.85629,14.36478 -5.70309,-5.71075 c -7.82087,-7.83138 -14.19633,-13.12053 -22.5304,-18.69147 -20.68053,-13.82399 -43.13184,-21.78239 -69.02997,-24.46931 -4.44654,-0.46133 -22.0118,-0.46133 -26.45834,0 -25.89813,2.68692 -48.34944,10.64532 -69.02997,24.46931 -8.17628,5.46547 -14.65645,10.8221 -22.13728,18.29908 -12.09688,12.09066 -20.86649,24.31438 -28.29419,39.43847 -8.04279,16.37653 -12.63744,32.66496 -14.59093,51.72605 -0.62315,6.0804 -0.62315,20.64251 0,26.72291 1.11729,10.90187 3.07778,20.84382 5.88982,29.86804 0.77526,2.48794 0.87764,3.06979 0.58767,3.33975 -0.19314,0.1798 -9.39991,5.53803 -20.459492,11.90716 -11.059583,6.36914 -20.465521,11.84278 -20.902083,12.16365 -0.73444,0.53979 -8.20698,4.89849 -8.397966,4.89849 -0.04674,0 -0.23498,-0.38696 -0.418314,-0.8599 z M 419.98296,315.54835 c -13.41161,-7.75102 -24.6436,-14.26463 -24.95999,-14.47471 l -0.57524,-0.38195 1.06721,-3.47583 c 1.01186,-3.29552 2.72006,-9.94805 3.08909,-12.03035 l 0.17038,-0.96137 29.01436,-0.11525 c 15.95789,-0.0634 29.0505,-0.0907 29.09468,-0.0607 0.12937,0.0878 -0.92072,6.29625 -1.81294,10.71866 -1.7147,8.4991 -4.77309,19.63751 -7.47714,27.2311 -1.76541,4.95769 -2.84625,7.67466 -3.04646,7.65805 -0.0986,-0.008 -11.15234,-6.35661 -24.56395,-14.10762 z m -21.37494,-92.04158 c -0.73178,-3.37325 -2.27183,-9.2622 -3.25265,-12.43768 -0.71451,-2.31331 -1.11237,-4.01215 -0.97024,-4.14298 0.27471,-0.25286 49.83777,-28.86153 50.00114,-28.86153 0.16676,0 0.80585,1.61186 2.62264,6.61459 4.3179,11.88984 7.6032,24.80112 9.81244,38.56302 l 0.13804,0.85989 h -29.11111 -29.11111 z"
       id="path16" /></g></svg>
