<?xml version="1.0" encoding="UTF-8" standalone="no"?>
<!-- Created with Inkscape (http://www.inkscape.org/) -->

<svg
   width="1920"
   height="1920"
   viewBox="0 0 507.99999 508"
   version="1.1"
   id="svg1"
   xml:space="preserve"
   xmlns="http://www.w3.org/2000/svg"
   xmlns:svg="http://www.w3.org/2000/svg"><defs
     id="defs1" /><g
     id="layer1"><path
       style="fill:#ffffff;fill-opacity:1"
       d="m 283.77475,428.22876 c -0.10825,-15.8074 -0.14043,-28.79711 -0.0715,-28.86603 0.0689,-0.0689 1.84553,-0.52681 3.94803,-1.01754 2.1025,-0.49072 5.71975,-1.45409 8.03833,-2.14082 2.31859,-0.68673 4.45373,-1.29455 4.74477,-1.35071 0.4521,-0.0872 2.20544,2.81294 12.03855,19.91287 6.33015,11.00825 11.86557,20.56454 12.30092,21.23621 0.43535,0.67167 1.75974,2.88732 2.94308,4.92367 l 2.15154,3.70245 -0.82642,0.34972 c -0.45453,0.19235 -2.91001,1.10619 -5.45662,2.03077 -11.82672,4.29384 -26.1024,7.92377 -38.5262,9.79621 l -1.08765,0.16393 z m 89.53272,-26.7897 c -4.26179,-7.38518 -7.90584,-13.58493 -8.09788,-13.77723 -0.19205,-0.1923 -0.34917,-0.51121 -0.34917,-0.70871 0,-0.19749 -0.15386,-0.5164 -0.34191,-0.7087 -0.18804,-0.1923 -0.50014,-0.73658 -0.69355,-1.20952 -0.19341,-0.47295 -0.44337,-0.8599 -0.55546,-0.8599 -0.11209,0 -0.27851,-0.29766 -0.36982,-0.66146 -0.0913,-0.3638 -0.27357,-0.66146 -0.40504,-0.66146 -0.13146,0 -0.37655,-0.41672 -0.54464,-0.92604 C 361.78191,381.41672 361.54746,381 361.429,381 c -0.11846,0 -0.288,-0.28933 -0.37676,-0.64296 -0.0888,-0.35362 -0.31002,-0.80436 -0.4917,-1.00163 -0.43001,-0.4669 -1.16674,-1.73623 -1.54094,-2.65489 -0.163,-0.40018 -0.39455,-0.7276 -0.51455,-0.7276 -0.12,0 -0.35571,-0.41672 -0.5238,-0.92605 -0.16809,-0.50932 -0.39153,-0.92604 -0.49653,-0.92604 -0.10501,0 -0.3416,-0.41672 -0.52578,-0.92604 -0.18417,-0.50932 -0.43331,-0.92604 -0.55363,-0.92604 -0.12033,0 -0.29348,-0.29766 -0.38479,-0.66146 -0.0913,-0.3638 -0.27358,-0.66146 -0.40504,-0.66146 -0.13146,0 -0.37655,-0.41672 -0.54465,-0.92604 -0.16809,-0.50932 -0.40621,-0.92604 -0.52916,-0.92604 -0.12295,0 -0.36108,-0.41672 -0.52917,-0.92604 -0.16809,-0.50932 -0.40254,-0.92604 -0.521,-0.92604 -0.11846,0 -0.288,-0.28933 -0.37676,-0.64296 -0.0888,-0.35363 -0.33727,-0.81886 -0.55226,-1.03384 -0.34479,-0.3448 0.35189,-1.13496 5.90814,-6.70086 l 6.29902,-6.30997 20.96926,12.10631 c 11.53309,6.65848 21.08676,12.10632 21.23038,12.10632 0.20161,0 7.389,4.02223 7.87045,4.40449 0.15781,0.12529 -1.45022,2.1337 -5.47666,6.8403 -4.21505,4.92707 -12.48941,13.43137 -17.29672,17.77738 -3.84371,3.47487 -10.51672,9.07783 -10.81152,9.07783 -0.10925,0 -3.68557,-6.04243 -7.94736,-13.42761 z M 63.018095,329.07552 C 55.792324,310.43535 51.544564,292.24981 49.560904,271.4625 c -0.670217,-7.02339 -0.670217,-27.63702 0,-34.66042 2.044588,-21.4258 6.438995,-39.92589 13.968675,-58.80699 C 77.674932,142.52484 102.09232,111.08293 132.97938,88.565606 161.18628,68.00218 193.63756,55.145103 228.6,50.681075 c 8.81857,-1.125961 12.60161,-1.323009 25.4,-1.323009 12.79839,0 16.58143,0.197048 25.4,1.323009 35.88913,4.582349 69.31836,18.092573 97.85512,39.54757 15.98344,12.016935 30.7709,27.003505 42.44386,43.015315 20.56342,28.2069 33.4205,60.65819 37.88453,95.62062 1.12283,8.79406 1.32268,12.61186 1.32268,25.26771 0,12.65585 -0.19985,16.47366 -1.32268,25.26771 -2.11814,16.58935 -6.29806,33.3221 -12.01262,48.08802 -0.46462,1.20055 -0.89865,2.18281 -0.96451,2.18281 -0.17453,0 -49.67536,-28.57665 -49.93372,-28.82655 -0.11988,-0.11596 0.2041,-1.56531 0.71996,-3.22079 2.81109,-9.02122 4.77177,-18.96463 5.88892,-29.86516 0.62315,-6.0804 0.62315,-20.64251 0,-26.72291 -1.95349,-19.06109 -6.54814,-35.34952 -14.59093,-51.72605 -7.4277,-15.12409 -16.19731,-27.34781 -28.29419,-39.43847 -7.48083,-7.47698 -13.961,-12.83361 -22.13728,-18.29908 -20.68053,-13.82399 -43.13184,-21.78239 -69.02997,-24.46931 -4.44654,-0.46133 -22.0118,-0.46133 -26.45834,0 -25.89813,2.68692 -48.34944,10.64532 -69.02997,24.46931 -8.17628,5.46547 -14.65645,10.8221 -22.13728,18.29908 -12.09688,12.09066 -20.86649,24.31438 -28.29419,39.43847 -8.04279,16.37653 -12.63744,32.66496 -14.59093,51.72605 -0.62315,6.0804 -0.62315,20.64251 0,26.72291 1.11729,10.90187 3.07778,20.84382 5.88982,29.86804 0.77526,2.48794 0.87764,3.06979 0.58767,3.33975 -0.19314,0.1798 -9.39991,5.53803 -20.459492,11.90716 -11.059583,6.36914 -20.465521,11.84278 -20.902083,12.16365 -0.73444,0.53979 -8.20698,4.89849 -8.397966,4.89849 -0.04674,0 -0.23498,-0.38696 -0.418314,-0.8599 z"
       id="path16" /></g></svg>
