<?xml version="1.0" encoding="UTF-8" standalone="no"?>
<!-- Created with Inkscape (http://www.inkscape.org/) -->

<svg
   width="1920"
   height="1920"
   viewBox="0 0 507.99999 508"
   version="1.1"
   id="svg1"
   xml:space="preserve"
   xmlns="http://www.w3.org/2000/svg"
   xmlns:svg="http://www.w3.org/2000/svg"><defs
     id="defs1" /><g
     id="layer1"><path
       style="fill:#ffffff;fill-opacity:1"
       d="m 244.21042,443.01863 c -29.43962,-1.61741 -55.02854,-8.63927 -79.95647,-21.94089 -17.48559,-9.33036 -32.62836,-20.68683 -46.24978,-34.68547 -10.41157,-10.6999 -19.384713,-22.4475 -27.258778,-35.68706 -2.446551,-4.11367 -7.684624,-14.22756 -9.792496,-18.90777 -7.655059,-16.99688 -13.036045,-37.07088 -14.93207,-55.70473 -0.951101,-9.34728 -1.243505,-23.83211 -0.667639,-33.07292 1.036141,-16.62676 3.898611,-31.40728 9.120812,-47.09583 2.956397,-8.88162 4.974597,-13.81927 9.030097,-22.09271 4.712079,-9.6129 8.286821,-15.81722 13.775368,-23.90853 8.241456,-12.14971 17.098106,-22.50833 27.716896,-32.41734 6.86632,-6.40737 10.88288,-9.73992 17.87864,-14.83393 25.13844,-18.30474 53.15405,-29.875076 82.94687,-34.256725 17.71235,-2.604967 38.67776,-2.604406 56.35625,0.0015 27.5157,4.055974 52.81835,13.885404 76.72917,29.807318 5.29644,3.526827 13.11681,9.425427 17.99167,13.570417 4.45324,3.78649 16.49611,15.72484 20.14336,19.96853 24.70512,28.74519 40.01351,62.61351 44.66723,98.82187 1.70652,13.27763 1.91813,31.55393 0.52232,45.11146 -1.96184,19.05529 -6.85124,37.59634 -14.54756,55.16563 -1.926,4.3967 -7.14396,14.5805 -9.76082,19.05 -4.9838,8.51214 -12.38662,19.02164 -18.73025,26.59062 -6.13837,7.32407 -15.65075,16.80895 -23.08803,23.02128 -7.01258,5.85758 -17.49185,13.19664 -25.66459,17.97398 -4.55641,2.66343 -15.8987,8.38872 -20.92799,10.56392 -17.79252,7.69534 -37.55743,12.62053 -58.05013,14.46543 -4.36315,0.3928 -22.94964,0.72832 -27.25208,0.49194 z m -60.70058,-84.53948 c -2.29664,-5.07003 -5.66658,-13.34983 -7.44463,-18.29113 l -1.02347,-2.84427 h -9.46878 c -5.20784,0 -9.46879,0.0748 -9.46879,0.16612 0,0.43466 4.23465,5.15762 8.05474,8.98355 5.78838,5.79724 10.58027,9.71482 17.87819,14.61622 1.9583,1.31522 3.58951,2.36236 3.6249,2.32697 0.0354,-0.0354 -0.93308,-2.26624 -2.15216,-4.95746 z m 144.74525,1.71575 c 8.37203,-5.9152 16.02064,-12.89441 22.5057,-20.53605 l 1.96471,-2.3151 h -9.2125 -9.21251 l -1.03499,2.97656 c -1.39693,4.01747 -5.38931,14.01471 -7.46272,18.68725 -0.92851,2.09243 -1.6882,3.85563 -1.6882,3.91822 0,0.17553 0.40515,-0.0917 4.14051,-2.73088 z m -70.7068,-3.53657 c 2.99449,-4.81299 5.51279,-9.18713 8.30182,-14.41979 l 1.83332,-3.43958 -6.55864,-0.0707 c -3.60725,-0.0389 -9.59566,-0.0389 -13.30757,0 l -6.74893,0.0707 2.31871,4.63021 c 2.88133,5.7537 8.14384,14.99 10.15833,17.82903 0.659,0.92873 0.32309,1.31474 4.00296,-4.59987 z M 160.3375,277.92181 c 0,-0.0854 -0.17621,-1.60344 -0.39159,-3.37343 -1.2581,-10.33942 -1.77266,-19.34663 -1.82005,-31.85926 l -0.0373,-9.85567 -15.12637,-6e-5 -15.12637,-6e-5 -0.15015,0.72761 c -0.30415,1.47393 -1.20412,9.03898 -1.50296,12.63385 -0.43852,5.27508 -0.37236,14.52836 0.14189,19.84375 0.43275,4.47299 1.39834,11.44529 1.63896,11.83464 0.14519,0.23492 32.37396,0.28333 32.37396,0.0486 z m 127.61062,-1.1015 c 0.0853,-0.69122 0.45127,-3.63802 0.81318,-6.54843 1.36145,-10.9485 2.16279,-24.09499 1.90082,-31.18416 -0.096,-2.5992 -0.24342,-5.06975 -0.32749,-5.4901 l -0.15286,-0.76429 h -35.51561 -35.51561 l -0.18117,4.56407 c -0.36874,9.28923 0.72491,26.05635 2.51963,38.62916 l 0.2927,2.05052 h 33.00562 33.00563 z m 93.14362,0.66146 c 0.082,-0.32742 0.39788,-2.61937 0.70194,-5.09323 0.30406,-2.47385 0.81541,-6.04573 1.13635,-7.9375 1.00186,-5.90559 0.75522,-12.08094 -1.01977,-25.53229 -0.35524,-2.69214 -0.70764,-5.16268 -0.78312,-5.4901 l -0.13722,-0.59532 -14.74548,-2.1e-4 -14.74548,-2.1e-4 0.0894,6.41636 c 0.1622,11.63838 -0.72904,26.60397 -2.23745,37.57104 l -0.17286,1.25677 h 15.88228 15.88228 z M 167.9048,167.74583 c 0.6265,-2.40109 1.49378,-5.55442 1.92729,-7.00738 0.43351,-1.45297 0.73953,-2.69045 0.68003,-2.74994 -0.18351,-0.18351 -10.20919,10.03075 -11.98521,12.21064 l -1.67545,2.05645 4.95713,-0.0721 4.95713,-0.0721 z m 110.17228,4.25815 c 0,-0.56892 -3.13842,-9.3495 -5.21018,-14.5769 -3.86804,-9.75968 -7.91033,-18.46714 -12.43636,-26.78906 L 258.45193,127 h -3.77307 -3.77306 l -2.30851,4.0349 c -4.64895,8.12562 -9.50748,18.48107 -13.30701,28.36252 -1.62356,4.2224 -4.30903,12.08105 -4.30903,12.60975 0,0.13728 9.88424,0.23658 23.54792,0.23658 13.89753,0 23.54791,-0.0983 23.54791,-0.23977 z m 73.81781,-0.48783 c -1.89951,-2.43105 -6.73591,-7.52199 -9.90642,-10.4278 -2.02931,-1.85989 -3.72717,-3.34409 -3.77303,-3.29823 -0.0459,0.0459 0.28142,1.26285 0.72729,2.70444 0.44588,1.44159 1.34389,4.52607 1.99559,6.8544 0.65171,2.32833 1.23689,4.38216 1.30041,4.56406 0.087,0.24901 1.3644,0.33073 5.17009,0.33073 h 5.05459 z"
       id="path2" /></g></svg>
