<?xml version="1.0" encoding="UTF-8" standalone="no"?>
<!-- Created with Inkscape (http://www.inkscape.org/) -->

<svg
   width="1920"
   height="1920"
   viewBox="0 0 507.99999 508"
   version="1.1"
   id="svg1"
   xml:space="preserve"
   xmlns="http://www.w3.org/2000/svg"
   xmlns:svg="http://www.w3.org/2000/svg"><defs
     id="defs1" /><g
     id="layer1"><path
       style="fill:#ffffff;fill-opacity:1"
       d="M 137.31875,403.50111 111.78646,388.72749 V 253.82932 118.93114 l 25.53229,-14.75364 c 14.04276,-8.11451 25.71089,-14.708072 25.92917,-14.652365 0.21828,0.05571 52.78437,30.352365 116.81354,67.325905 l 116.41666,67.22462 0.062,29.84498 0.062,29.84498 -116.41336,67.20417 c -64.02735,36.96229 -116.62135,67.22684 -116.87556,67.25455 -0.25421,0.0277 -11.95173,-6.59774 -25.99449,-14.72323 z M 249.79591,298.7076 c 42.40324,-24.47605 77.17384,-44.57795 77.268,-44.6709 0.0942,-0.093 -34.13631,-19.96904 -76.06771,-44.16909 -41.9314,-24.20006 -76.86399,-44.36121 -77.62797,-44.80257 l -1.38906,-0.80247 v 89.61161 c 0,75.46286 0.0568,89.58979 0.35997,89.47347 0.19798,-0.076 35.05353,-20.164 77.45677,-44.64005 z"
       id="path16" /></g></svg>
