<?xml version="1.0" encoding="UTF-8" standalone="no"?>
<!-- Created with Inkscape (http://www.inkscape.org/) -->

<svg
   width="1920"
   height="1920"
   viewBox="0 0 507.99999 508"
   version="1.1"
   id="svg1"
   xml:space="preserve"
   xmlns="http://www.w3.org/2000/svg"
   xmlns:svg="http://www.w3.org/2000/svg"><defs
     id="defs1" /><g
     id="layer1"><path
       style="fill:#ffffff;fill-opacity:1"
       d="M 245.65104,447.65669 C 189.86875,445.30619 137.59178,418.8056 102.67664,375.17917 64.725872,327.75973 51.17656,265.20915 66.139998,206.50729 76.60235,165.46328 99.886491,129.29926 132.82083,102.94122 172.04114,71.552391 222.03281,56.585499 272.03134,61.263303 c 52.37291,4.899947 100.47732,30.820182 133.29202,71.822117 31.35156,39.17374 46.33745,89.13973 41.67671,138.95862 -4.89834,52.35868 -30.82331,100.4681 -71.8209,133.27932 -26.99053,21.60108 -59.30541,35.62357 -93.29374,40.4832 -12.57041,1.79731 -23.83634,2.37255 -36.23439,1.85013 z m 19.99063,-60.83539 c 7.73153,-0.73728 16.48214,-2.34402 23.80277,-4.37054 5.69664,-1.57696 8.15041,-2.40545 13.90035,-4.69333 43.05926,-17.13311 74.29098,-55.86243 81.98346,-101.66472 2.46793,-14.69444 2.47344,-29.02516 0.0168,-43.78854 -3.63341,-21.8356 -12.75622,-42.58163 -26.40077,-60.03757 -12.35338,-15.8041 -27.80339,-28.42085 -45.67764,-37.30117 -10.658,-5.29513 -21.2884,-8.96122 -32.67605,-11.26893 -9.82388,-1.99081 -16.30161,-2.63199 -26.59062,-2.63199 -10.28901,0 -16.76674,0.64118 -26.59063,2.63199 -11.38764,2.30771 -22.01804,5.9738 -32.67604,11.26893 -40.64571,20.19369 -68.27105,59.85361 -73.14645,105.01165 -1.03638,9.59944 -1.03399,18.58242 0.008,28.31042 3.8297,35.76927 22.24737,68.81197 50.67216,90.90969 21.08003,16.38783 46.16493,25.91798 73.39902,27.88547 3.93934,0.28459 15.89061,0.12822 19.97605,-0.26136 z m -16.0073,-72.38477 c -0.43656,-0.0612 -1.92484,-0.23828 -3.30729,-0.39347 -1.38244,-0.15519 -3.8529,-0.57791 -5.48989,-0.93938 -22.71856,-5.01656 -40.67543,-22.97414 -45.67446,-45.67629 -1.0477,-4.7579 -1.3439,-7.65911 -1.3439,-13.16281 0,-5.5037 0.2962,-8.40491 1.3439,-13.16281 4.99887,-22.70144 22.97302,-40.67558 45.67446,-45.67446 4.7579,-1.04769 7.65911,-1.3439 13.16281,-1.3439 5.5037,0 8.40491,0.29621 13.16281,1.3439 22.70144,4.99888 40.67559,22.97302 45.67446,45.67446 1.0477,4.7579 1.3439,7.65911 1.3439,13.16281 0,5.5037 -0.2962,8.40491 -1.3439,13.16281 -5.35457,24.31679 -25.33808,42.85548 -50.13696,46.51205 -2.65072,0.39085 -11.43919,0.7252 -13.06594,0.49709 z"
       id="path2" /></g></svg>
