<?xml version="1.0" encoding="UTF-8" standalone="no"?>
<!-- Created with Inkscape (http://www.inkscape.org/) -->

<svg
   width="1920"
   height="1920"
   viewBox="0 0 507.99999 508"
   version="1.1"
   id="svg1"
   xml:space="preserve"
   xmlns="http://www.w3.org/2000/svg"
   xmlns:svg="http://www.w3.org/2000/svg"><defs
     id="defs1" /><g
     id="layer1"><path
       style="fill:#ffffff;fill-opacity:1"
       d="M 103.45208,344.35521 V 284.1625 h 60.02742 60.02742 l 0.19791,59.90061 c 0.10885,32.94534 0.11667,60.03206 0.0174,60.19271 -0.13083,0.21168 -16.71066,0.2921 -60.22532,0.2921 H 103.4521 Z m 180.82571,59.90061 c -0.0993,-0.16065 -0.0915,-27.24737 0.0174,-60.19271 l 0.19791,-59.90061 h 60.02742 60.02742 v 60.19271 60.19271 h -60.04481 c -43.51466,0 -60.09449,-0.0804 -60.22532,-0.2921 z M 159.0311,224.0798 c -25.77841,-1.9747 -47.43452,-20.19827 -53.8514,-45.31584 -1.44143,-5.6422 -1.83304,-8.84403 -1.83304,-14.98688 0,-6.14284 0.39161,-9.34467 1.83304,-14.98687 8.40854,-32.91352 42.18153,-52.406609 74.86677,-43.21158 20.68279,5.81849 36.71916,22.29259 42.06341,43.21158 1.44143,5.6422 1.83305,8.84403 1.83305,14.98687 0,6.14285 -0.39162,9.34468 -1.83305,14.98688 -5.87638,23.00189 -24.57806,40.40167 -47.88176,44.5485 -2.97116,0.52871 -9.10141,1.08255 -11.24479,1.0159 -0.65484,-0.0204 -2.43335,-0.13221 -3.95223,-0.24856 z m 142.85838,-42.70803 -42.46511,-42.46573 42.53157,-42.531561 42.53156,-42.531565 42.53156,42.531565 42.53157,42.531561 -42.46511,42.46573 c -23.35581,23.35615 -42.52492,42.46573 -42.59802,42.46573 -0.0731,0 -19.24221,-19.10958 -42.59802,-42.46573 z"
       id="path2" /></g></svg>
