<?xml version="1.0" encoding="UTF-8" standalone="no"?>
<!-- Created with Inkscape (http://www.inkscape.org/) -->

<svg
   width="1920"
   height="1920"
   viewBox="0 0 507.99999 508"
   version="1.1"
   id="svg1"
   xml:space="preserve"
   xmlns="http://www.w3.org/2000/svg"
   xmlns:svg="http://www.w3.org/2000/svg"><defs
     id="defs1" /><g
     id="layer1"><path
       style="fill:#ffffff;fill-opacity:1"
       d="m 334.89451,427.93964 c -0.0506,-0.0506 -0.50251,-0.11634 -1.00421,-0.14606 -0.50169,-0.0297 -1.10212,-0.14681 -1.33426,-0.26018 -0.23215,-0.11337 -0.76793,-0.27758 -1.19063,-0.36491 -1.25217,-0.25872 -1.28116,-0.26775 -1.69458,-0.52787 -0.21828,-0.13733 -0.51593,-0.2681 -0.66146,-0.29059 -0.14552,-0.0225 -0.8949,-0.41279 -1.66528,-0.86733 -0.77039,-0.45455 -1.46011,-0.82645 -1.53271,-0.82645 -0.27711,0 -3.01971,-2.1916 -3.01971,-2.41304 0,-0.12804 -0.1786,-0.23279 -0.39688,-0.23279 -0.21828,0 -0.39687,-0.0901 -0.39687,-0.2002 0,-0.11011 -0.53392,-0.79472 -1.18648,-1.52135 -0.65256,-0.72664 -1.18834,-1.46999 -1.19062,-1.65189 -0.002,-0.1819 -0.12322,-0.33073 -0.26874,-0.33073 -0.14552,0 -0.26458,-0.17859 -0.26458,-0.39688 0,-0.21828 -0.0968,-0.39687 -0.2152,-0.39687 -0.11836,0 -0.37871,-0.41672 -0.57855,-0.92604 -0.19984,-0.50932 -0.46019,-0.92604 -0.57855,-0.92604 -0.11836,0 -0.21593,-0.20836 -0.21683,-0.46302 -9e-4,-0.25467 -0.18002,-0.80508 -0.39806,-1.22316 -0.46499,-0.89158 -1.17604,-3.52824 -1.35751,-5.03379 -0.07,-0.58074 -0.18058,-1.14214 -0.24573,-1.24756 -0.15877,-0.2569 -0.3875,-6.40667 -0.51553,-13.8606 -0.10167,-5.9197 -0.20101,-7.86945 -0.51226,-10.05417 -0.17064,-1.19784 -0.41752,-3.1159 -0.52784,-4.10104 -0.0407,-0.3638 -0.27635,-1.42229 -0.52357,-2.3522 -0.24723,-0.92992 -0.50325,-2.11051 -0.56893,-2.62354 -0.0657,-0.51303 -0.21975,-1.06188 -0.34236,-1.21967 -0.12262,-0.15778 -0.44273,-1.12032 -0.71136,-2.13896 -0.26863,-1.01865 -0.64203,-2.14974 -0.82977,-2.51354 -0.18775,-0.36381 -0.34209,-0.7522 -0.34299,-0.8631 -0.002,-0.25115 -1.89975,-4.24753 -2.10294,-4.42857 -0.0817,-0.0728 -0.32492,-0.48948 -0.54056,-0.92604 -0.41569,-0.84158 -2.14944,-3.61324 -2.3998,-3.83646 -0.0816,-0.0728 -0.33207,-0.40132 -0.55659,-0.73013 -1.49505,-2.1895 -6.70126,-7.47059 -9.10356,-9.23448 -0.93629,-0.68747 -1.70234,-1.34605 -1.70234,-1.4635 0,-0.11746 -0.13288,-0.21356 -0.29528,-0.21356 -0.16241,0 -0.86297,-0.41672 -1.55681,-0.92604 -0.69383,-0.50932 -1.3475,-0.92604 -1.45258,-0.92604 -0.10508,0 -0.62538,-0.32742 -1.15622,-0.7276 -1.11328,-0.83927 -1.85504,-1.31964 -2.41828,-1.5661 -0.21828,-0.0955 -0.73115,-0.4054 -1.13971,-0.68863 -0.40856,-0.28324 -0.81433,-0.44349 -0.9017,-0.35612 -0.0874,0.0874 -0.33134,0.0157 -0.54215,-0.15924 -0.45974,-0.38155 -1.27808,-0.86643 -2.17894,-1.29106 -2.90914,-1.37123 -3.60884,-1.67674 -3.86674,-1.6883 -0.16218,-0.007 -0.45984,-0.15013 -0.66146,-0.31746 -0.20163,-0.16733 -0.42612,-0.30668 -0.49888,-0.30966 -0.14937,-0.006 -0.83078,-0.21951 -1.52136,-0.47642 -0.25466,-0.0947 -0.64161,-0.21817 -0.85989,-0.27429 -0.63429,-0.16307 -0.88058,-0.24726 -1.67087,-0.57113 -0.40966,-0.16788 -0.95536,-0.30524 -1.21268,-0.30524 -0.25731,0 -0.55066,-0.0828 -0.65189,-0.18405 -0.10123,-0.10122 -0.32943,-0.21333 -0.50712,-0.24911 -0.17769,-0.0358 -0.59096,-0.13156 -0.91838,-0.21283 -0.32742,-0.0813 -0.8632,-0.21433 -1.19063,-0.29569 -0.32742,-0.0813 -0.92273,-0.20042 -1.32291,-0.26458 -0.40018,-0.0642 -1.11456,-0.183 -1.5875,-0.26409 -3.00976,-0.51602 -11.0881,-0.67226 -15.80886,-0.30575 -1.23692,0.096 -2.96333,0.22633 -3.83646,0.28955 -0.87312,0.0632 -2.52404,0.19269 -3.66871,0.28769 -7.69696,0.63885 -21.09963,0.6313 -27.15524,-0.0153 -0.80037,-0.0855 -1.87193,-0.18773 -2.38125,-0.22726 -1.74964,-0.13581 -4.63124,-0.43876 -5.55625,-0.58414 -0.50933,-0.08 -1.31208,-0.17941 -1.7839,-0.2208 -0.47182,-0.0414 -1.24573,-0.14606 -1.71979,-0.23261 -0.47407,-0.0865 -1.33819,-0.22596 -1.92027,-0.30983 -0.58209,-0.0839 -1.23693,-0.1991 -1.45521,-0.25608 -0.21828,-0.057 -0.93266,-0.17699 -1.5875,-0.26667 -0.65484,-0.0897 -2.32172,-0.44413 -3.70417,-0.78765 -1.38244,-0.34352 -2.87073,-0.69108 -3.30729,-0.77235 -0.97514,-0.18154 -4.99576,-1.24994 -7.14375,-1.89832 -0.87312,-0.26355 -1.64703,-0.49555 -1.71979,-0.51554 -0.0728,-0.02 -0.31089,-0.10452 -0.52917,-0.18783 -0.21828,-0.0833 -1.4089,-0.46717 -2.64583,-0.85302 -1.23693,-0.38584 -2.42755,-0.77335 -2.64583,-0.86115 -0.21828,-0.0878 -0.45641,-0.18018 -0.52917,-0.20532 -0.40414,-0.13961 -1.30254,-0.50186 -2.11667,-0.85346 -0.50932,-0.21997 -1.34276,-0.57323 -1.85208,-0.78503 -0.88548,-0.36822 -1.29614,-0.54619 -3.47957,-1.50789 -0.53131,-0.23402 -1.07305,-0.42549 -1.20385,-0.42549 -0.13081,0 -0.38666,-0.14883 -0.56856,-0.33073 -0.1819,-0.1819 -0.42338,-0.33073 -0.53662,-0.33073 -0.18731,0 -1.46057,-0.57898 -2.81036,-1.27791 -4.93798,-2.55697 -7.44145,-3.92005 -8.59896,-4.68194 -0.21828,-0.14368 -0.56637,-0.34067 -0.77353,-0.43777 -0.20717,-0.0971 -0.56436,-0.34727 -0.79375,-0.55593 -0.57922,-0.52686 -4.45334,-2.96833 -4.71015,-2.96833 -0.11542,0 -0.35857,-0.23812 -0.54033,-0.52916 -0.18176,-0.29104 -0.50806,-0.52917 -0.7251,-0.52917 -0.21705,0 -0.39464,-0.12201 -0.39464,-0.27113 0,-0.14912 -0.29765,-0.3843 -0.66146,-0.52262 -0.3638,-0.13832 -0.66145,-0.3735 -0.66145,-0.52262 0,-0.14912 -0.17759,-0.27113 -0.39464,-0.27113 -0.21704,0 -0.54334,-0.23813 -0.7251,-0.52917 -0.18176,-0.29104 -0.48416,-0.52916 -0.672,-0.52916 -0.18785,0 -0.41007,-0.1786 -0.49383,-0.39688 -0.0838,-0.21828 -0.32189,-0.39687 -0.52917,-0.39687 -0.20728,0 -0.4454,-0.1786 -0.52917,-0.39688 -0.0838,-0.21828 -0.31223,-0.39687 -0.50771,-0.39687 -0.19548,0 -0.45064,-0.15083 -0.56701,-0.33518 -0.11637,-0.18434 -0.6283,-0.67353 -1.13762,-1.08708 -3.88327,-3.15305 -15.34584,-14.48275 -15.34584,-15.16795 0,-0.1147 -0.69843,-0.92653 -1.91823,-2.22971 -0.25466,-0.27207 -0.46302,-0.60381 -0.46302,-0.7372 0,-0.1334 -0.0964,-0.28222 -0.21431,-0.33073 -0.20756,-0.0854 -1.74806,-1.99576 -2.8284,-3.50743 -0.29104,-0.40724 -0.67799,-0.89734 -0.85989,-1.0891 -0.1819,-0.19176 -0.33073,-0.46349 -0.33073,-0.60383 0,-0.14035 -0.17859,-0.32371 -0.39688,-0.40747 -0.21828,-0.0838 -0.39687,-0.33463 -0.39687,-0.55748 0,-0.22285 -0.11906,-0.40518 -0.26458,-0.40518 -0.14552,0 -0.26459,-0.16585 -0.26459,-0.36856 0,-0.20272 -0.17859,-0.4371 -0.39687,-0.52087 -0.21828,-0.0838 -0.39688,-0.3247 -0.39688,-0.53542 0,-0.21072 -0.10126,-0.42282 -0.22504,-0.47133 -0.12377,-0.0485 -0.54023,-0.56444 -0.92548,-1.14652 -0.38524,-0.58209 -1.01635,-1.53459 -1.40246,-2.11667 -0.38612,-0.58209 -0.77836,-1.11787 -0.87166,-1.19063 -0.0933,-0.0728 -0.34648,-0.48948 -0.56264,-0.92604 -0.21617,-0.43656 -1.07434,-1.82404 -1.90704,-3.08328 -0.83271,-1.25924 -1.51401,-2.4201 -1.51401,-2.57968 0,-0.15959 -0.10518,-0.29016 -0.23372,-0.29016 -0.12855,0 -0.29981,-0.20836 -0.38057,-0.46302 -0.15563,-0.49075 -1.00179,-1.96002 -1.25709,-2.18282 -0.0834,-0.0728 -0.22968,-0.31088 -0.32513,-0.52916 -0.0954,-0.21828 -0.46755,-0.87313 -0.8269,-1.45521 -0.90077,-1.45908 -1.21863,-2.0284 -2.65895,-4.7625 -0.68995,-1.30969 -1.36054,-2.49436 -1.49021,-2.63261 -0.12967,-0.13824 -0.23576,-0.46566 -0.23576,-0.7276 0,-0.26194 -0.11907,-0.47625 -0.26459,-0.47625 -0.14552,0 -0.26458,-0.17859 -0.26458,-0.39688 0,-0.21828 -0.11906,-0.39687 -0.26458,-0.39687 -0.14552,0 -0.26481,-0.14883 -0.26508,-0.33073 -2.7e-4,-0.1819 -0.71442,-1.75948 -1.587007,-3.50573 -0.872584,-1.74625 -1.586737,-3.32383 -1.587008,-3.50573 -2.7e-4,-0.1819 -0.119554,-0.33073 -0.265075,-0.33073 -0.145521,0 -0.264583,-0.23812 -0.264583,-0.52916 0,-0.29105 -0.119063,-0.52917 -0.264584,-0.52917 -0.14552,0 -0.264583,-0.21537 -0.264583,-0.4786 0,-0.26323 -0.174807,-0.70971 -0.38846,-0.99218 -0.213654,-0.28248 -0.392247,-0.72195 -0.396875,-0.97662 -0.0046,-0.25466 -0.127477,-0.46302 -0.272998,-0.46302 -0.145521,0 -0.264584,-0.21537 -0.264584,-0.47859 0,-0.26323 -0.174807,-0.70972 -0.38846,-0.99219 -0.213653,-0.28248 -0.392247,-0.72195 -0.396875,-0.97661 -0.0046,-0.25466 -0.127477,-0.46302 -0.272998,-0.46302 -0.145521,0 -0.264583,-0.18999 -0.264583,-0.4222 0,-0.23221 -0.167932,-0.73823 -0.373183,-1.12448 -0.597937,-1.12524 -1.214317,-2.60999 -1.214317,-2.92508 0,-0.15991 -0.119063,-0.29074 -0.264584,-0.29074 -0.145521,0 -0.264583,-0.21537 -0.264583,-0.4786 0,-0.26323 -0.174807,-0.70971 -0.38846,-0.99219 -0.213654,-0.28247 -0.392247,-0.67419 -0.396875,-0.87048 -0.0085,-0.36161 -0.566557,-1.74262 -1.192183,-2.9504 -0.188447,-0.3638 -0.425371,-1.04841 -0.526496,-1.52135 -0.101126,-0.47295 -0.293467,-0.8599 -0.427425,-0.8599 -0.133959,0 -0.244295,-0.20836 -0.245191,-0.46302 -8.97e-4,-0.25466 -0.17949,-0.80405 -0.396875,-1.22087 -0.217385,-0.41682 -0.399285,-0.89307 -0.404223,-1.05833 -0.0049,-0.16527 -0.239022,-0.77674 -0.520189,-1.35882 -0.281166,-0.58209 -0.515251,-1.2402 -0.520189,-1.46248 -0.0049,-0.22229 -0.177733,-0.64509 -0.383989,-0.93956 -0.206257,-0.29447 -0.457632,-0.97581 -0.558612,-1.51408 -0.100981,-0.53827 -0.279953,-0.97867 -0.397716,-0.97867 -0.117763,0 -0.295665,-0.38696 -0.395337,-0.8599 -0.09967,-0.47294 -0.341937,-1.21708 -0.538365,-1.65365 -0.40869,-0.90831 -1.039662,-2.63532 -1.595003,-4.36562 -0.210172,-0.65484 -0.548874,-1.54781 -0.75267,-1.98437 -0.203797,-0.43657 -0.453183,-1.24024 -0.554192,-1.78594 -0.101008,-0.54571 -0.276638,-0.99219 -0.390288,-0.99219 -0.113651,0 -0.414098,-0.8632 -0.667661,-1.91823 -0.253562,-1.05503 -0.620845,-2.21588 -0.816184,-2.57969 -0.195338,-0.3638 -0.845006,-2.50692 -1.443705,-4.7625 -0.598699,-2.25557 -1.182737,-4.2201 -1.297862,-4.36562 -0.278843,-0.35247 -7.952628,-29.09107 -8.047586,-30.1385 -0.04078,-0.44976 -0.680118,-3.13947 -1.420763,-5.97713 -1.423913,-5.45548 -2.236932,-8.96087 -2.331903,-10.05416 -0.0316,-0.36381 -0.255216,-1.41877 -0.49692,-2.34438 -0.241703,-0.9256 -0.390082,-1.73229 -0.32973,-1.79264 0.06035,-0.0603 -0.101359,-0.87099 -0.359357,-1.80141 -0.257998,-0.93042 -0.411667,-1.7491 -0.341486,-1.81928 0.07018,-0.0702 -0.05704,-0.74935 -0.282709,-1.50926 -0.22567,-0.75992 -0.354887,-1.47135 -0.287148,-1.58095 0.06774,-0.1096 -0.06148,-0.82103 -0.287148,-1.58095 -0.225671,-0.75991 -0.355348,-1.43662 -0.288172,-1.5038 0.06718,-0.0672 -0.03834,-0.73046 -0.234471,-1.47397 -0.196134,-0.74352 -0.301675,-1.44072 -0.234536,-1.54936 0.06714,-0.10863 -7.34e-4,-0.52052 -0.150829,-0.9153 -0.150094,-0.39478 -0.340725,-1.3275 -0.423623,-2.07272 -0.0829,-0.74522 -0.201953,-1.71213 -0.264568,-2.14869 -0.373451,-2.60379 -0.338578,-6.68859 0.07105,-8.32232 1.474561,-5.88102 6.223261,-7.56133 17.674717,-6.25412 1.56066,0.17815 2.766748,0.32666 4.378206,0.53907 1.973438,0.26014 2.977164,0.38693 4.365625,0.5515 0.727604,0.0862 1.620573,0.21446 1.984375,0.28494 0.363802,0.0705 1.19724,0.1804 1.852084,0.24427 0.654843,0.0639 1.607343,0.18187 2.116666,0.26224 0.509323,0.0804 1.699948,0.25645 2.645834,0.39129 0.945885,0.13485 2.13651,0.31132 2.645833,0.39217 0.509323,0.0808 1.283229,0.20087 1.719789,0.26671 0.95512,0.14406 2.20754,0.34704 3.37344,0.54675 0.47294,0.081 1.33615,0.20486 1.91823,0.27523 0.87801,0.10613 1.72174,0.27327 2.51354,0.49791 0.0728,0.0206 0.78714,0.12914 1.5875,0.24111 0.80036,0.11197 1.87193,0.30542 2.38125,0.42989 0.8715,0.21297 1.54662,0.34203 3.43958,0.65752 0.43657,0.0728 1.15094,0.19183 1.5875,0.26459 1.97054,0.32842 2.57832,0.44805 3.52235,0.6933 0.55485,0.14415 1.32875,0.30928 1.71979,0.36696 0.39105,0.0577 1.00864,0.17717 1.37245,0.26554 0.3638,0.0884 1.01864,0.22136 1.45521,0.29552 0.43656,0.0742 1.74625,0.37124 2.91041,0.66015 1.16417,0.28892 2.41432,0.57266 2.77813,0.63053 0.3638,0.0579 0.95911,0.17752 1.32291,0.26588 0.36381,0.0884 1.01865,0.21881 1.45521,0.28985 0.43656,0.071 0.97235,0.20096 1.19063,0.2887 0.21828,0.0877 0.635,0.20438 0.92604,0.2592 0.29104,0.0548 1.50972,0.33195 2.70819,0.61585 1.19846,0.28389 2.45008,0.56532 2.78139,0.6254 0.3313,0.0601 1.22598,0.29442 1.98817,0.52077 0.76218,0.22634 1.38579,0.35423 1.38579,0.28419 0,-0.07 0.20836,-0.0159 0.46302,0.12034 0.25466,0.13623 0.82021,0.31355 1.25677,0.39405 1.01721,0.18757 4.90392,1.19978 5.42396,1.41254 0.21828,0.0893 0.69453,0.20726 1.05833,0.26211 0.36381,0.0549 0.84006,0.17359 1.05834,0.26386 0.21828,0.0903 0.56846,0.1985 0.77818,0.24048 0.32729,0.0655 1.45416,0.37034 1.86765,0.5052 0.41349,0.13485 1.54036,0.43966 1.86765,0.50519 0.20972,0.042 0.5599,0.14659 0.77818,0.23246 0.43072,0.16944 4.16223,1.23864 4.6887,1.34347 0.17769,0.0354 0.40589,0.14714 0.50712,0.24837 0.10122,0.10123 0.39457,0.18405 0.65189,0.18405 0.25731,0 0.80302,0.13726 1.21267,0.30502 0.40966,0.16777 0.95912,0.34652 1.22102,0.39723 0.6984,0.13522 5.89999,1.78806 7.5936,2.41291 0.21828,0.0805 0.45641,0.16699 0.52917,0.19213 0.0728,0.0251 0.31089,0.11955 0.52917,0.20982 0.21828,0.0903 1.4089,0.47575 2.64583,0.85662 1.23693,0.38088 2.42755,0.76271 2.64583,0.84851 0.21828,0.0858 0.45641,0.17658 0.52917,0.20172 0.0728,0.0251 0.34065,0.12471 0.59531,0.22128 0.25466,0.0966 0.67138,0.2546 0.92604,0.35118 0.25467,0.0966 0.52256,0.19615 0.59532,0.22129 0.39335,0.13589 2.98411,1.12106 3.96875,1.50917 0.3638,0.1434 1.19724,0.43987 1.85208,0.65884 0.65484,0.21896 1.54781,0.55212 1.98437,0.74036 0.70307,0.30316 1.60267,0.66393 1.98438,0.79579 0.47922,0.16556 1.34483,0.52295 2.31222,0.95467 0.61688,0.2753 1.17917,0.50054 1.24954,0.50054 0.1663,0 2.97974,1.26212 3.8874,1.7439 0.38625,0.20502 0.87769,0.37277 1.09208,0.37277 0.21439,0 0.54041,0.18147 0.72448,0.40327 0.18408,0.22179 0.39396,0.34399 0.4664,0.27155 0.0724,-0.0724 0.44243,0.0342 0.82219,0.23696 0.37977,0.20277 1.64298,0.80917 2.80715,1.34755 2.61506,1.20936 10.85883,5.30646 12.03854,5.98308 0.21828,0.12519 0.57547,0.30892 0.79375,0.40829 0.21828,0.0994 1.01623,0.57486 1.77323,1.05665 0.75699,0.48179 1.43176,0.87598 1.49949,0.87598 0.0677,0 0.99618,0.5137 2.06323,1.14157 1.06705,0.62786 2.11869,1.22448 2.33697,1.32583 0.21828,0.10134 0.75406,0.41976 1.19062,0.7076 0.43656,0.28784 0.97235,0.60657 1.19063,0.70829 0.21828,0.10173 0.51593,0.33026 0.66145,0.50785 0.14553,0.1776 0.88967,0.64394 1.65365,1.03632 0.76399,0.39238 1.38906,0.7989 1.38906,0.90337 0,0.10448 0.53578,0.45754 1.19063,0.78458 0.65484,0.32705 1.19062,0.67826 1.19062,0.78048 0,0.10222 0.44649,0.42071 0.99219,0.70775 0.5457,0.28704 1.14777,0.73084 1.33792,0.98621 0.19015,0.25537 0.52131,0.46432 0.73591,0.46432 0.2146,0 0.45871,0.17859 0.54247,0.39687 0.0838,0.21828 0.26032,0.39688 0.39236,0.39688 0.2038,0 4.51256,3.24169 5.43125,4.0862 0.16718,0.15368 0.75696,0.63661 1.3106,1.07317 0.55365,0.43656 1.28548,1.06164 1.62629,1.38906 0.34081,0.32743 0.67365,0.59532 0.73965,0.59532 0.33551,0 9.05596,8.61205 10.96845,10.83209 0.65484,0.76016 1.48828,1.7038 1.85208,2.09699 0.3638,0.39319 1.07497,1.24664 1.58037,1.89655 0.5054,0.64991 1.07094,1.27687 1.25677,1.39324 0.18582,0.11637 0.33786,0.34085 0.33786,0.49883 0,0.15798 0.29766,0.5631 0.66146,0.90026 0.3638,0.33716 0.66146,0.7415 0.66146,0.89854 0,0.15704 0.17859,0.35405 0.39687,0.43782 0.21828,0.0838 0.39688,0.26712 0.39688,0.40747 0,0.14034 0.14882,0.42113 0.33073,0.62397 0.71855,0.80125 0.99218,1.16555 0.99218,1.32093 0,0.0893 0.14883,0.32831 0.33073,0.53115 0.78516,0.87552 0.99219,1.17481 0.99219,1.43432 0,0.15167 0.0908,0.27575 0.20184,0.27575 0.20209,0 0.68002,0.78398 1.00811,1.65365 0.0961,0.25466 0.27986,0.46302 0.40841,0.46302 0.12855,0 0.23372,0.17859 0.23372,0.39687 0,0.21829 0.092,0.39688 0.20442,0.39688 0.11243,0 0.42883,0.41672 0.70312,0.92604 0.27429,0.50932 0.59902,0.92604 0.72163,0.92604 0.1226,0 0.22292,0.23813 0.22292,0.52917 0,0.29104 0.11906,0.52917 0.26458,0.52917 0.14552,0 0.26458,0.17859 0.26458,0.39687 0,0.21828 0.09,0.39688 0.2,0.39688 0.11,0 0.36682,0.38695 0.57072,0.85989 0.2039,0.47295 0.58357,1.16669 0.84371,1.54165 0.75396,1.08676 4.47099,8.4603 4.47099,8.86918 0,0.20402 0.11906,0.37094 0.26458,0.37094 0.14552,0 0.26459,0.13084 0.26459,0.29075 0,0.1599 0.19147,0.72545 0.42549,1.25677 0.50513,1.14683 1.00263,2.30449 1.38164,3.21498 0.15144,0.36381 0.52116,1.24214 0.8216,1.95187 0.30045,0.70972 0.547,1.42409 0.5479,1.5875 8.9e-4,0.1634 0.17425,0.62804 0.38524,1.03253 0.21099,0.40449 0.6391,1.6459 0.95135,2.7587 0.31225,1.11279 0.67699,2.21059 0.81054,2.43956 0.34617,0.59351 4.20319,15.14804 4.07099,15.36195 -0.0604,0.0977 0.0643,0.75578 0.27698,1.46251 0.37422,1.24345 0.63857,2.6028 1.20834,6.21372 0.14925,0.94588 0.31899,2.01744 0.3772,2.38125 0.0956,0.59716 0.20821,1.43325 0.51691,3.83645 0.18432,1.43486 0.64346,5.85733 0.7966,7.67292 0.24477,2.9019 0.48667,11.09641 0.45301,15.34584 -0.0879,11.09871 -0.0832,13.58498 0.0283,14.94895 0.13635,1.66822 0.89426,4.77367 1.25596,5.14615 0.13424,0.13824 0.24408,0.46567 0.24408,0.7276 0,0.26194 0.11906,0.47625 0.26458,0.47625 0.14552,0 0.26459,0.1786 0.26459,0.39688 0,0.21828 0.11906,0.39687 0.26458,0.39687 0.14552,0 0.26458,0.1201 0.26458,0.26688 0,0.42765 2.75721,3.43729 3.149,3.43729 0.12868,0 0.3025,0.17859 0.38627,0.39687 0.0838,0.21829 0.30598,0.39688 0.49383,0.39688 0.18784,0 0.49024,0.23813 0.672,0.52917 0.18176,0.29104 0.50214,0.52916 0.71196,0.52916 0.20981,0 0.4767,0.14883 0.59307,0.33073 0.22391,0.35 0.62658,0.61626 2.31684,1.53193 0.5758,0.31194 1.17111,0.71882 1.32291,0.90418 0.1518,0.18536 0.81178,0.61859 1.46662,0.96273 0.65485,0.34415 1.60782,0.9257 2.11771,1.29235 1.24931,0.89832 1.87047,1.28055 2.57865,1.58675 0.32742,0.14157 0.59531,0.35736 0.59531,0.47953 0,0.12217 0.38695,0.41159 0.8599,0.64317 0.47294,0.23157 1.09802,0.60959 1.38906,0.84004 1.03619,0.8205 3.29851,2.27651 3.53719,2.27651 0.13346,0 0.31187,0.18038 0.39647,0.40085 0.0846,0.22046 0.45453,0.51517 0.82206,0.65491 0.36753,0.13973 0.66824,0.37607 0.66824,0.52519 0,0.14912 0.12914,0.27113 0.28698,0.27113 0.28484,0 5.50236,3.94117 6.39241,4.82865 0.25539,0.25466 0.57068,0.46302 0.70063,0.46302 0.12995,0 0.30481,0.17859 0.38857,0.39687 0.0838,0.21829 0.27907,0.39688 0.43401,0.39688 0.15493,0 0.69842,0.41672 1.20774,0.92604 0.50933,0.50932 0.96887,0.92604 1.02121,0.92604 0.41631,0 10.47053,9.92277 10.47053,10.33365 0,0.13733 0.17859,0.24969 0.39687,0.24969 0.21829,0 0.3989,0.14882 0.40136,0.33073 0.002,0.1819 0.50848,0.8694 1.12448,1.52778 0.616,0.65838 1.535,1.72994 2.04223,2.38125 0.50723,0.65131 1.04302,1.32889 1.19063,1.50574 0.14761,0.17685 0.41722,0.49925 0.59912,0.71644 0.1819,0.21719 0.33073,0.50624 0.33073,0.64233 0,0.1361 0.17859,0.31598 0.39687,0.39974 0.21828,0.0838 0.39688,0.28029 0.39688,0.43673 0,0.15644 0.29765,0.60544 0.66146,0.99779 0.3638,0.39234 0.66145,0.8634 0.66145,1.04678 0,0.18339 0.11907,0.33344 0.26459,0.33344 0.14552,0 0.26458,0.17859 0.26458,0.39687 0,0.21828 0.092,0.39688 0.20442,0.39688 0.11242,0 0.43985,0.44648 0.7276,0.99218 0.28775,0.54571 0.73155,1.223 0.98621,1.5051 0.25466,0.2821 0.46302,0.62992 0.46302,0.77292 0,0.143 0.16411,0.44797 0.36468,0.67771 0.30552,0.34994 0.97072,1.55136 3.05827,5.52351 0.4824,0.91791 1.07497,2.39151 1.07497,2.67325 0,0.15991 0.11906,0.29074 0.26458,0.29074 0.14552,0 0.26458,0.18021 0.26458,0.40047 0,0.22025 0.1133,0.60721 0.25177,0.85989 0.40465,0.73843 1.00195,2.19379 1.6002,3.89902 0.83605,2.38307 2.63336,8.93444 2.50712,9.1387 -0.0607,0.0983 0.0117,0.58257 0.16084,1.07623 0.30901,1.02248 0.35664,1.37152 0.89874,6.58611 0.26903,2.58786 0.12024,9.66476 -0.25866,12.30312 -0.0836,0.58209 -0.21306,1.53459 -0.28768,2.11667 -0.0746,0.58209 -0.25554,1.5123 -0.40202,2.06714 -0.14647,0.55485 -0.31609,1.32875 -0.37691,1.71979 -0.13868,0.89152 -0.2642,1.39569 -0.47344,1.90161 -0.0903,0.21828 -0.20058,0.69453 -0.2451,1.05834 -0.0445,0.3638 -0.15155,0.78052 -0.23783,0.92604 -0.0863,0.14552 -0.41909,1.12293 -0.73959,2.17202 -0.32049,1.04909 -0.87197,2.50703 -1.22549,3.23985 -0.35353,0.73283 -0.64278,1.50456 -0.64278,1.71497 0,0.2104 -0.11152,0.45148 -0.24783,0.53572 -0.1363,0.0842 -0.41451,0.47822 -0.61823,0.87551 -1.46359,2.8542 -2.83048,5.00798 -3.698,5.82685 -0.25466,0.24038 -0.46302,0.53187 -0.46302,0.64775 0,0.75963 -5.41946,5.22307 -7.34219,6.04698 -0.47294,0.20267 -0.8599,0.44523 -0.8599,0.53903 0,0.0938 -0.44648,0.25214 -0.99218,0.35186 -0.54571,0.0997 -1.23032,0.33238 -1.52136,0.51702 -0.29104,0.18463 -1.18401,0.42678 -1.98437,0.53809 -1.58303,0.22017 -6.00467,0.40253 -6.15341,0.25378 z"
       id="path16" /></g></svg>
