<?xml version="1.0" encoding="UTF-8" standalone="no"?>
<!-- Created with Inkscape (http://www.inkscape.org/) -->

<svg
   width="1920"
   height="1920"
   viewBox="0 0 507.99999 508"
   version="1.1"
   id="svg1"
   xml:space="preserve"
   xmlns="http://www.w3.org/2000/svg"
   xmlns:svg="http://www.w3.org/2000/svg"><defs
     id="defs1" /><g
     id="layer1"><path
       style="fill:#ffffff;fill-opacity:1"
       d="M 223.8375,387.80755 V 327.40869 L 202.20971,305.78559 180.58193,284.1625 H 120.05547 59.529008 l 0.06727,-30.20381 0.06727,-30.20381 1.984375,-0.73183 c 1.091406,-0.40251 2.579687,-0.96909 3.307291,-1.25908 2.675942,-1.06649 5.597506,-2.22157 7.14375,-2.82436 0.873125,-0.34039 2.182813,-0.85575 2.910417,-1.14526 3.034064,-1.20723 5.652404,-2.2421 7.14375,-2.82349 0.873125,-0.34039 2.182812,-0.85575 2.910417,-1.14526 3.034064,-1.20723 5.652404,-2.2421 7.14375,-2.82349 0.873125,-0.34039 2.182812,-0.85575 2.910416,-1.14526 3.034064,-1.20723 5.652406,-2.2421 7.143756,-2.82349 0.87312,-0.34039 2.18281,-0.85575 2.91041,-1.14526 3.03407,-1.20723 5.65241,-2.2421 7.14375,-2.82349 0.87313,-0.34039 2.18282,-0.85533 2.91042,-1.14432 0.72761,-0.289 1.97776,-0.77661 2.77813,-1.08359 0.80036,-0.30698 1.99099,-0.78144 2.64583,-1.05435 0.65484,-0.27292 2.02406,-0.8163 3.04271,-1.20752 1.01864,-0.39121 2.38786,-0.93385 3.04271,-1.20586 0.65484,-0.272 2.91703,-1.16039 5.02708,-1.97418 2.11005,-0.81379 4.37224,-1.70676 5.02708,-1.98437 0.65485,-0.27762 2.91703,-1.17059 5.02709,-1.98438 2.11005,-0.81379 4.37224,-1.70676 5.02708,-1.98437 0.65484,-0.27762 2.91703,-1.1733 5.02708,-1.99041 2.11006,-0.81711 4.6699,-1.82946 5.68854,-2.24968 1.81567,-0.74899 6.24239,-2.51393 8.59896,-3.4284 2.17439,-0.84377 3.54653,-1.38461 6.21771,-2.45072 6.59943,-2.63395 7.91456,-3.10996 8.59235,-3.10996 0.29468,0 0.53578,-0.15712 0.53578,-0.34916 0,-0.40346 0.26701,-0.64567 3.83645,-3.48007 2.77734,-2.20541 2.83091,-2.2483 3.75356,-3.0052 0.3182,-0.26103 0.89342,-0.70531 1.27825,-0.98728 0.38484,-0.28196 0.92062,-0.69868 1.19063,-0.92604 0.27001,-0.22736 0.80579,-0.64407 1.19062,-0.92604 0.38484,-0.28197 0.92062,-0.69869 1.19063,-0.92604 0.27001,-0.22736 0.81073,-0.64408 1.2016,-0.92604 0.39087,-0.28197 0.90442,-0.69835 1.14123,-0.92528 0.23681,-0.22694 1.56166,-1.29271 2.94411,-2.36838 1.38245,-1.07567 2.64271,-2.08062 2.80059,-2.23322 0.15788,-0.1526 0.61403,-0.51558 1.01367,-0.80663 0.39964,-0.29104 0.94754,-0.71518 1.21755,-0.94254 0.27001,-0.22735 0.80354,-0.64407 1.18562,-0.92604 0.38208,-0.28196 1.13376,-0.89953 1.6704,-1.37235 0.53664,-0.47283 1.06037,-0.85979 1.16384,-0.8599 0.10347,-1.1e-4 0.40113,-0.2165 0.66146,-0.48086 0.26033,-0.26435 1.84255,-1.53668 3.51604,-2.82739 1.67349,-1.29071 3.2213,-2.50437 3.43958,-2.69703 1.71211,-1.51115 2.53801,-2.18562 2.68276,-2.19087 0.0931,-0.003 0.62886,-0.42081 1.19063,-0.92762 0.56177,-0.50681 1.22976,-0.99109 1.48442,-1.07616 0.25466,-0.0851 0.46302,-0.24953 0.46302,-0.36546 0,-0.11592 0.50602,-0.55438 1.12448,-0.97435 0.61847,-0.41998 1.24354,-0.89237 1.38906,-1.04975 0.14553,-0.15739 1.39568,-1.16379 2.77813,-2.23645 1.38245,-1.07265 2.87073,-2.28278 3.30729,-2.68917 0.43656,-0.4064 0.8699,-0.73945 0.96297,-0.74012 0.0931,-6.8e-4 0.62886,-0.41518 1.19063,-0.92113 0.56177,-0.50595 1.09755,-0.92266 1.19062,-0.92604 0.0931,-0.003 0.62886,-0.42081 1.19063,-0.92762 0.56177,-0.50681 1.22976,-0.99109 1.48442,-1.07616 0.25466,-0.0851 0.46302,-0.24953 0.46302,-0.36546 0,-0.11592 0.4999,-0.55438 1.11089,-0.97435 0.61098,-0.41998 1.42841,-1.06125 1.8165,-1.42505 0.38809,-0.3638 1.02683,-0.89216 1.41942,-1.17413 0.39259,-0.28196 0.93471,-0.69868 1.20472,-0.92604 0.27001,-0.22735 0.81726,-0.6515 1.21611,-0.94254 0.39886,-0.29104 1.15267,-0.91336 1.67513,-1.38292 0.52247,-0.46957 1.02609,-0.85652 1.11916,-0.8599 0.0931,-0.003 0.62886,-0.42009 1.19063,-0.92604 0.56177,-0.50595 1.09331,-0.92266 1.1812,-0.92604 0.0879,-0.003 0.45123,-0.27403 0.80742,-0.60145 0.35619,-0.32742 1.10138,-0.9525 1.65598,-1.38907 0.5546,-0.43656 1.22339,-0.97234 1.48621,-1.19062 0.26281,-0.21828 0.7927,-0.62758 1.17753,-0.90954 0.38484,-0.28197 0.92062,-0.69869 1.19063,-0.92604 0.27001,-0.22736 0.80579,-0.64408 1.19062,-0.92605 0.38484,-0.28196 0.92062,-0.69868 1.19063,-0.92604 0.27001,-0.22735 0.81726,-0.6515 1.21611,-0.94254 0.39886,-0.29104 1.15267,-0.91336 1.67513,-1.38292 0.52247,-0.46957 1.02102,-0.85652 1.1079,-0.8599 0.0869,-0.003 0.44406,-0.25606 0.79375,-0.56152 0.34968,-0.30547 1.09299,-0.93055 1.6518,-1.38907 0.5588,-0.45852 1.23374,-1.01227 1.49987,-1.23055 0.26613,-0.21828 0.79873,-0.62757 1.18356,-0.90954 0.38484,-0.28197 0.92062,-0.69868 1.19063,-0.92604 0.27001,-0.22736 0.80579,-0.64408 1.19062,-0.92604 0.38484,-0.28197 0.92062,-0.69869 1.19063,-0.92604 0.27001,-0.22736 0.8179,-0.6515 1.21754,-0.94255 0.39964,-0.29104 0.8558,-0.65553 1.01367,-0.80998 0.15788,-0.15446 1.42116,-1.16649 2.80729,-2.24896 1.38613,-1.08248 2.69582,-2.119174 2.91042,-2.303772 0.76876,-0.661291 1.55876,-1.293274 2.24699,-1.797533 0.38483,-0.281967 0.92061,-0.698685 1.19062,-0.926041 0.27001,-0.227357 0.80821,-0.644075 1.19599,-0.926042 0.38779,-0.281967 1.13947,-0.896858 1.67041,-1.366424 0.53093,-0.469566 1.04613,-0.856519 1.14487,-0.859896 0.0987,-0.0034 0.35983,-0.186427 0.58018,-0.40678 0.22036,-0.220353 1.85288,-1.54092 3.62782,-2.934593 1.77495,-1.393672 3.35934,-2.644341 3.52087,-2.779262 0.93621,-0.782023 1.52852,-1.251067 2.15585,-1.707212 0.38779,-0.281967 1.13947,-0.897567 1.67041,-1.368001 0.53093,-0.470433 1.17369,-0.924941 1.42836,-1.010017 0.25466,-0.08507 0.46302,-0.24953 0.46302,-0.365453 0,-0.115924 0.50601,-0.554385 1.12448,-0.974358 0.61846,-0.419973 1.24354,-0.892361 1.38906,-1.049751 0.14552,-0.15739 1.39568,-1.16379 2.77812,-2.236444 1.38245,-1.072655 2.87073,-2.282784 3.30729,-2.689175 0.43657,-0.406392 0.86991,-0.739445 0.96298,-0.740118 0.0931,-6.74e-4 0.62885,-0.415891 1.19062,-0.922704 0.56177,-0.506814 1.22976,-0.991088 1.48443,-1.076163 0.25466,-0.08508 0.46302,-0.24953 0.46302,-0.365454 0,-0.115923 0.50601,-0.554384 1.12448,-0.974358 0.61846,-0.419973 1.24354,-0.891578 1.38906,-1.048011 0.14552,-0.156433 1.09741,-0.930339 2.11531,-1.719792 1.0179,-0.789452 2.06973,-1.613961 2.33739,-1.832243 0.81545,-0.665015 1.44143,-1.165425 2.15136,-1.719791 0.3727,-0.291042 1.12286,-0.913358 1.667,-1.382924 0.54415,-0.469566 1.06013,-0.856519 1.14664,-0.859896 0.0865,-0.0034 0.50322,-0.312812 0.92604,-0.687635 0.42282,-0.374823 1.06641,-0.87798 1.43022,-1.118127 0.3638,-0.240147 0.75667,-0.588318 0.87304,-0.773712 0.17039,-0.271451 11.97552,-0.337081 60.63182,-0.337081 h 60.42023 l -0.14344,60.258853 c -0.13899,58.38673 -0.1588,60.27356 -0.63755,60.73218 -0.27176,0.26033 -0.4941,0.5711 -0.4941,0.6906 0,0.11949 -0.41672,0.65911 -0.92605,1.19915 -0.50932,0.54004 -0.92604,1.07583 -0.92604,1.19063 0,0.1148 -0.38695,0.63877 -0.85989,1.16436 -0.78743,0.87509 -1.18401,1.3613 -2.31511,2.83838 -0.37058,0.48393 -0.89898,1.1588 -1.85208,2.36543 -0.21828,0.27635 -0.635,0.80946 -0.92604,1.18469 -0.29104,0.37523 -0.91612,1.11228 -1.38906,1.63787 -0.47295,0.52559 -0.8599,1.04956 -0.8599,1.16436 0,0.1148 -0.41672,0.65059 -0.92604,1.19063 -0.50932,0.54004 -0.92604,1.06764 -0.92604,1.17245 0,0.10481 -0.41672,0.63241 -0.92605,1.17245 -0.50932,0.54004 -0.92604,1.07583 -0.92604,1.19063 0,0.1148 -0.38695,0.63197 -0.85989,1.14927 -0.78736,0.86119 -1.18291,1.34331 -2.31511,2.82183 -1.1311,1.47708 -1.52768,1.96329 -2.3151,2.83838 -0.47294,0.52559 -0.8599,1.04956 -0.8599,1.16436 0,0.1148 -0.41672,0.65059 -0.92604,1.19063 -0.50932,0.54004 -0.92604,1.06764 -0.92604,1.17245 0,0.10481 -0.38695,0.61 -0.8599,1.12264 -0.47294,0.51263 -1.09059,1.25121 -1.37256,1.64126 -0.28197,0.39006 -0.69868,0.93012 -0.92604,1.20013 -0.22736,0.27001 -0.64408,0.80579 -0.92604,1.19062 -0.28197,0.38484 -0.69869,0.92427 -0.92604,1.19875 -0.45396,0.54804 -1.25155,1.55625 -1.86859,2.36203 -1.1311,1.47708 -1.52768,1.96329 -2.3151,2.83838 -0.47294,0.52559 -0.8599,1.04956 -0.8599,1.16436 0,0.1148 -0.38695,0.62462 -0.85989,1.13293 -0.47295,0.5083 -1.0906,1.23869 -1.37257,1.62309 -0.28196,0.3844 -0.69868,0.91983 -0.92604,1.18984 -0.22735,0.27001 -0.64407,0.80579 -0.92604,1.19062 -0.28197,0.38484 -0.72882,0.96005 -0.99301,1.27825 -1.18451,1.4267 -1.42859,1.73664 -1.80161,2.28784 -0.21828,0.32254 -0.635,0.85658 -0.92605,1.18676 -0.29104,0.33019 -0.70776,0.86611 -0.92604,1.19095 -0.21828,0.32485 -0.75406,0.99334 -1.19062,1.48554 -0.72801,0.82079 -1.1419,1.33198 -2.24896,2.77767 -0.61704,0.80577 -1.41463,1.81398 -1.86858,2.36202 -0.22736,0.27448 -0.64408,0.81392 -0.92604,1.19875 -0.28197,0.38484 -0.69869,0.92062 -0.92605,1.19063 -0.22735,0.27001 -0.64407,0.80543 -0.92604,1.18983 -0.28196,0.3844 -0.89962,1.11479 -1.37256,1.6231 -0.47294,0.5083 -0.8599,1.01812 -0.8599,1.13292 0,0.11481 -0.38695,0.63877 -0.85989,1.16436 -0.78743,0.87509 -1.18401,1.36131 -2.31511,2.83839 -0.21828,0.28504 -0.635,0.82083 -0.92604,1.19062 -0.29104,0.3698 -0.70776,0.90558 -0.92604,1.19063 -0.61704,0.80577 -1.41463,1.81398 -1.86858,2.36202 -0.22736,0.27448 -0.64408,0.81819 -0.92604,1.20825 -0.28197,0.39006 -0.89962,1.12863 -1.37257,1.64127 -0.47294,0.51264 -0.85989,1.01782 -0.85989,1.12263 0,0.10481 -0.41672,0.63242 -0.92605,1.17246 -0.50932,0.54004 -0.92604,1.07582 -0.92604,1.19062 0,0.11481 -0.38695,0.63877 -0.85989,1.16436 -0.78743,0.87509 -1.18401,1.36131 -2.31511,2.83839 -1.1322,1.47851 -1.52774,1.96063 -2.3151,2.82183 -0.47294,0.51729 -0.8599,1.03446 -0.8599,1.14926 0,0.11481 -0.41672,0.65059 -0.92604,1.19063 -0.50932,0.54004 -0.92604,1.06764 -0.92604,1.17245 0,0.10481 -0.41672,0.63242 -0.92604,1.17246 -0.50932,0.54004 -0.92604,1.07582 -0.92604,1.19062 0,0.11481 -0.41672,0.65059 -0.92605,1.19063 -0.50932,0.54004 -0.92604,1.07582 -0.92604,1.19062 0,0.11481 -0.38695,0.63198 -0.85989,1.14927 -0.78736,0.8612 -1.18291,1.34332 -2.31511,2.82183 -1.1311,1.47708 -1.52768,1.9633 -2.3151,2.83838 -0.47294,0.5256 -0.8599,1.04956 -0.8599,1.16436 0,0.11481 -0.41672,0.65059 -0.92604,1.19063 -0.50932,0.54004 -0.92604,1.06764 -0.92604,1.17245 0,0.10481 -0.41672,0.63242 -0.92604,1.17246 -0.50932,0.54004 -0.92604,1.07582 -0.92604,1.19062 0,0.11481 -0.38696,0.63198 -0.8599,1.14927 -0.78736,0.8612 -1.1829,1.34332 -2.3151,2.82183 -0.21828,0.28505 -0.635,0.82083 -0.92605,1.19063 -0.29104,0.36979 -0.70776,0.90557 -0.92604,1.19062 -1.1311,1.47708 -1.52768,1.9633 -2.3151,2.83838 -0.47294,0.5256 -0.8599,1.04956 -0.8599,1.16436 0,0.11481 -0.38695,0.62462 -0.85989,1.13293 -0.47295,0.5083 -1.0906,1.2387 -1.37257,1.6231 -0.28196,0.3844 -0.69868,0.91982 -0.92604,1.18983 -0.22735,0.27001 -0.64407,0.80579 -0.92604,1.19062 -0.28197,0.38484 -0.69868,0.92428 -0.92604,1.19875 -0.45396,0.54804 -1.25154,1.55625 -1.86858,2.36203 -1.10707,1.44569 -1.52095,1.95688 -2.24896,2.77767 -0.43656,0.4922 -0.97235,1.16069 -1.19063,1.48553 -0.21828,0.32484 -0.635,0.86214 -0.92604,1.19399 -0.29104,0.33185 -0.75987,0.91772 -1.04183,1.30193 -0.28197,0.3842 -0.69869,0.91947 -0.92604,1.18948 -0.22736,0.27001 -0.64408,0.80579 -0.92605,1.19062 -0.28196,0.38484 -0.69868,0.92062 -0.92604,1.19063 -0.22735,0.27001 -0.64407,0.80579 -0.92604,1.19062 -0.28197,0.38484 -0.69868,0.92428 -0.92604,1.19875 -0.42158,0.50895 -1.10519,1.37131 -1.93546,2.44154 -0.5086,0.6556 -1.58174,1.94819 -2.5192,3.03437 -0.33093,0.38344 -0.66572,1.0041 -0.74398,1.37924 -0.0783,0.37514 -0.42076,1.33692 -0.76113,2.13729 -0.34037,0.80036 -0.93669,2.28864 -1.32514,3.30729 -0.38846,1.01864 -0.99558,2.4798 -1.34915,3.24701 -0.35357,0.7672 -0.64286,1.56824 -0.64286,1.78007 0,0.21184 -0.287,1.01287 -0.63777,1.78008 -0.35078,0.76721 -0.95446,2.22836 -1.34152,3.247 -0.38706,1.01865 -0.99303,2.4798 -1.3466,3.24701 -0.35357,0.76721 -0.64286,1.57563 -0.64286,1.79648 0,0.22086 -0.258,0.90283 -0.57334,1.51549 -0.31534,0.61267 -0.83768,1.82832 -1.16076,2.70144 -0.32308,0.87313 -0.85242,2.24235 -1.17631,3.04271 -0.32389,0.80036 -0.85579,2.18269 -1.18199,3.07183 -0.32621,0.88914 -0.68728,1.769 -0.80239,1.95525 -0.11511,0.18625 -0.47618,1.06612 -0.80238,1.95526 -0.32621,0.88914 -0.8581,2.27146 -1.18199,3.07183 -0.32389,0.80036 -0.85579,2.18268 -1.18199,3.07183 -0.32621,0.88914 -0.68728,1.769 -0.80239,1.95525 -0.11511,0.18625 -0.47618,1.06611 -0.80238,1.95525 -0.32621,0.88915 -0.8581,2.27147 -1.18199,3.07183 -0.32389,0.80037 -0.85579,2.18269 -1.18199,3.07183 -0.32621,0.88914 -0.68728,1.76901 -0.80239,1.95526 -0.11511,0.18625 -0.47618,1.06611 -0.80238,1.95525 -0.32621,0.88914 -0.8581,2.27147 -1.18199,3.07183 -0.32389,0.80036 -0.85579,2.18269 -1.18199,3.07183 -0.32621,0.88914 -0.68728,1.769 -0.80239,1.95525 -0.11511,0.18625 -0.47618,1.06612 -0.80238,1.95526 -0.32621,0.88914 -0.8581,2.27146 -1.18199,3.07183 -0.32389,0.80036 -0.85579,2.18268 -1.18199,3.07183 -0.32621,0.88914 -0.68728,1.769 -0.80239,1.95525 -0.11511,0.18625 -0.47618,1.06611 -0.80238,1.95525 -0.32621,0.88915 -0.8581,2.27147 -1.18199,3.07183 -0.32389,0.80037 -0.85579,2.18269 -1.18199,3.07183 -0.32621,0.88914 -0.68728,1.76901 -0.80239,1.95526 -0.11511,0.18625 -0.47618,1.06611 -0.80238,1.95525 -0.32621,0.88914 -0.8581,2.27147 -1.18199,3.07183 -0.32389,0.80036 -0.85579,2.18269 -1.18199,3.07183 -0.32621,0.88914 -0.68728,1.769 -0.80239,1.95525 -0.11511,0.18625 -0.47618,1.06612 -0.80238,1.95526 -0.32621,0.88914 -0.8581,2.27146 -1.18199,3.07183 -0.32389,0.80036 -0.85579,2.18268 -1.18199,3.07183 -0.32621,0.88914 -0.68728,1.769 -0.80239,1.95525 -0.11511,0.18625 -0.47618,1.06611 -0.80238,1.95525 -0.32621,0.88915 -0.8581,2.27147 -1.18199,3.07183 -0.32389,0.80037 -0.85579,2.18269 -1.18199,3.07183 -0.32621,0.88914 -0.68728,1.76901 -0.80239,1.95526 -0.11511,0.18625 -0.4768,1.06611 -0.80376,1.95525 -0.32696,0.88914 -0.88638,2.39053 -1.24314,3.33641 l -0.64866,1.7198 -30.07149,0.0673 -30.07149,0.0673 z"
       id="path16" /></g></svg>
