<?xml version="1.0" encoding="UTF-8" standalone="no"?>
<!-- Created with Inkscape (http://www.inkscape.org/) -->

<svg
   width="1920"
   height="1920"
   viewBox="0 0 507.99999 508"
   version="1.1"
   id="svg1"
   xml:space="preserve"
   xmlns="http://www.w3.org/2000/svg"
   xmlns:svg="http://www.w3.org/2000/svg"><defs
     id="defs1" /><g
     id="layer1"><path
       style="fill:#ffffff;fill-opacity:1"
       d="m 120.17375,388.09083 c -0.24175,-0.24175 -0.3175,-5.46451 -0.3175,-21.89158 v -21.57408 l 30.55937,-30.56361 30.55938,-30.56361 v -29.8968 -29.8968 L 150.54792,193.27812 120.12083,162.8519 v -21.23324 -21.23324 h 21.49783 21.49783 l 30.29393,30.29479 30.29392,30.29479 h 30.03107 30.03107 l 30.55852,-30.55938 30.55852,-30.55937 h 21.49782 21.49783 v 21.76241 21.76241 L 357.45208,193.80729 327.025,224.23351 V 254 283.76648 l 30.55938,30.55852 30.55937,30.55852 v 21.49782 21.49783 H 366.38134 344.61893 L 314.19271,357.45208 283.76649,327.025 h -29.63223 -29.63222 l -30.69588,30.69167 -30.69589,30.69166 h -21.30951 c -16.22129,0 -21.38532,-0.0758 -21.62701,-0.3175 z"
       id="path12" /></g></svg>
