<?xml version="1.0" encoding="UTF-8" standalone="no"?>
<!-- Created with Inkscape (http://www.inkscape.org/) -->

<svg
   width="1920"
   height="1920"
   viewBox="0 0 507.99999 508"
   version="1.1"
   id="svg1"
   xml:space="preserve"
   xmlns="http://www.w3.org/2000/svg"
   xmlns:svg="http://www.w3.org/2000/svg"><defs
     id="defs1" /><g
     id="layer1"><path
       id="path2"
       style="fill:#ffffff;fill-opacity:1"
       d="m 405.21299,59.528149 -60.73634,60.735831 -60.73635,60.73582 0.18914,1.50896 c 0.10378,0.82994 0.19854,10.4684 0.21084,21.41884 l 0.0222,19.9099 19.9099,0.0264 c 10.95044,0.0144 20.56474,0.11073 21.3651,0.21446 l 1.45521,0.18862 60.78905,-60.73789 60.78906,-60.73842 -0.0672,-21.563537 -0.0672,-21.563541 -21.56148,-0.0677 z M 59.795833,59.795833 v 21.365104 21.364583 l 60.655727,60.65625 60.65521,60.65573 h 21.35219 21.35219 l 0.0796,-21.23281 0.0791,-21.23282 -60.72187,-60.78802 -60.72136,-60.788017 H 81.160937 Z M 327.0002,283.7403 l -1.50896,0.18914 c -0.82994,0.10378 -10.4684,0.19854 -21.41884,0.21084 l -19.9099,0.0222 v 21.62969 21.62917 l 60.52344,60.52499 60.52343,60.52447 21.56355,-0.0672 21.56354,-0.0672 0.0677,-21.56148 0.0677,-21.56199 -60.73583,-60.73634 z m -146.77296,0.4222 -60.48054,60.64178 -60.480033,60.64177 0.0041,21.18062 c 0.0022,11.64937 0.09152,21.31148 0.198437,21.47156 0.106912,0.16008 0.372897,0.35925 0.591179,0.44235 0.218281,0.0831 9.920673,0.16058 21.560958,0.17208 l 21.164089,0.0207 60.52602,-60.52188 60.52602,-60.52241 V 305.92603 284.1625 h -21.80539 z" /></g></svg>
