<?xml version="1.0" encoding="UTF-8" standalone="no"?>
<!-- Created with Inkscape (http://www.inkscape.org/) -->

<svg
   width="1920"
   height="1920"
   viewBox="0 0 507.99999 508"
   version="1.1"
   id="svg1"
   xml:space="preserve"
   xmlns="http://www.w3.org/2000/svg"
   xmlns:svg="http://www.w3.org/2000/svg"><defs
     id="defs1" /><g
     id="layer1"><path
       style="fill:#ffffff;fill-opacity:1"
       d="m 60.060417,448.54048 c -0.218282,-0.0831 -0.484349,-0.28205 -0.591261,-0.44213 -0.106913,-0.16008 -0.19621,-9.82545 -0.198438,-21.47859 l -0.0041,-21.18753 65.063962,-65.06663 c 35.78518,-35.78666 69.9569,-69.88782 75.93714,-75.78037 L 211.1409,253.8715 135.46834,178.1986 59.795784,102.5257 V 81.160765 59.795833 h 21.364932 21.364934 l 75.676,75.675667 75.67601,75.67566 10.77677,-10.61058 c 5.92722,-5.83582 10.77677,-10.74941 10.77677,-10.9191 0,-0.16968 29.20088,-29.5092 64.89083,-65.19894 l 64.89084,-64.89043 21.56177,0.06772 21.56177,0.06772 0.0677,21.56177 0.0677,21.56177 -64.89043,64.89084 c -35.68974,35.68995 -65.01014,64.89083 -65.15644,64.89083 -0.14631,0 -5.08694,4.82203 -10.97919,10.71562 L 296.73266,254 l 10.71317,10.71562 c 5.89225,5.8936 10.83288,10.71563 10.97919,10.71563 0.1463,0 29.4667,29.20088 65.15644,64.89083 l 64.89043,64.89084 -0.0677,21.56177 -0.0677,21.56177 -21.56177,0.0677 -21.56177,0.0677 -64.89084,-64.89043 c -35.68995,-35.68974 -64.89083,-65.01014 -64.89083,-65.15644 0,-0.14631 -4.82202,-5.08693 -10.71561,-10.97917 l -10.71561,-10.71316 -10.4667,10.4498 c -5.75668,5.74739 -10.62638,10.80699 -10.82154,11.24355 -0.19516,0.43656 -29.50832,29.9343 -65.14036,65.55052 l -64.78551,64.75677 -21.164312,-0.0209 c -11.640374,-0.0115 -21.34291,-0.0889 -21.561191,-0.17197 z"
       id="path12" /></g></svg>
