<?xml version="1.0" encoding="UTF-8" standalone="no"?>
<!-- Created with Inkscape (http://www.inkscape.org/) -->

<svg
   width="1920"
   height="1920"
   viewBox="0 0 507.99999 508"
   version="1.1"
   id="svg1"
   xml:space="preserve"
   xmlns="http://www.w3.org/2000/svg"
   xmlns:svg="http://www.w3.org/2000/svg"><defs
     id="defs1" /><g
     id="layer1"><path
       style="fill:#ffffff;fill-opacity:1"
       d="m 294.54272,454.10085 c -0.1439,-0.40552 -4.32426,-11.88471 -9.28968,-25.50931 -4.96542,-13.6246 -9.02804,-24.8894 -9.02804,-25.03289 0,-0.14348 -0.26789,-0.22514 -0.59531,-0.18145 -0.32742,0.0437 -1.19063,0.15336 -1.91823,0.24371 -0.72761,0.0904 -1.73964,0.21762 -2.24896,0.2828 -3.72032,0.47612 -4.774,0.56921 -9.26042,0.81807 -5.70196,0.31629 -16.48166,0.172 -21.32651,-0.28547 -2.49637,-0.23571 -4.51962,-0.46229 -5.26411,-0.58951 -0.43656,-0.0746 -1.21047,-0.17353 -1.71979,-0.21984 -0.97545,-0.0887 -2.6288,-0.32715 -3.70417,-0.53425 -0.35215,-0.0678 -1.12129,-0.19066 -1.7092,-0.27299 -0.58791,-0.0823 -1.96189,-0.33299 -3.0533,-0.55703 -1.09141,-0.22404 -2.2225,-0.44373 -2.51354,-0.4882 -0.29104,-0.0445 -1.5412,-0.3421 -2.77813,-0.66139 -1.23692,-0.31929 -2.42964,-0.60545 -2.65048,-0.63591 -0.22084,-0.0305 -0.54826,-0.14605 -0.72761,-0.25689 -0.17934,-0.11084 -0.32607,-0.14139 -0.32607,-0.0679 0,0.0735 -0.62508,-0.0527 -1.38907,-0.28053 -0.76398,-0.22779 -1.56765,-0.45039 -1.78593,-0.49466 -0.21828,-0.0443 -0.42664,-0.10449 -0.46302,-0.13381 -0.0731,-0.0589 -0.0748,-0.0594 -1.38907,-0.36395 -0.50932,-0.11804 -1.0451,-0.28656 -1.19062,-0.3745 -0.14552,-0.0879 -0.41084,-0.18208 -0.58959,-0.20922 -0.65189,-0.099 -6.30991,-2.02054 -7.01441,-2.38224 -0.39866,-0.20468 -0.78842,-0.36223 -0.86614,-0.35011 -0.18727,0.0292 -2.95056,-0.9905 -4.00526,-1.47802 -0.45856,-0.21196 -0.91158,-0.38538 -1.00671,-0.38538 -0.46023,0 -11.37151,-5.11916 -13.47096,-6.32007 -0.56315,-0.32213 -1.17372,-0.54993 -1.35683,-0.50624 -0.18312,0.0437 -2.21768,2.34162 -4.52127,5.10652 -2.30358,2.76489 -4.31238,5.16035 -4.464,5.32324 -0.15161,0.16289 -0.76924,0.87726 -1.37249,1.5875 -0.60326,0.71024 -1.33658,1.56498 -1.62962,1.89943 -0.29304,0.33446 -0.90868,1.06925 -1.36809,1.63288 -0.45941,0.56364 -1.12492,1.36156 -1.47891,1.77316 -0.35399,0.4116 -0.64376,0.83868 -0.64394,0.94906 -2.7e-4,0.16814 -8.7963,10.909 -9.26103,11.30869 -0.0846,0.0728 -1.39828,1.62057 -2.91929,3.43958 -3.22446,3.85623 -3.58319,4.28064 -4.5544,5.38839 -0.39991,0.45612 -1.17381,1.39009 -1.71979,2.07548 -0.54598,0.68539 -1.08171,1.25093 -1.19051,1.25677 -0.10881,0.006 -0.77787,-0.40611 -1.48681,-0.91543 -0.70894,-0.50932 -1.42359,-0.92604 -1.58811,-0.92604 -0.16452,0 -0.29913,-0.11907 -0.29913,-0.26459 0,-0.14552 -0.1126,-0.26458 -0.25021,-0.26458 -0.13761,0 -1.62509,-0.9525 -3.30551,-2.11667 -1.68041,-1.16416 -3.17516,-2.11666 -3.32167,-2.11666 -0.1465,0 -0.26659,-0.0893 -0.26687,-0.19844 -2.9e-4,-0.10914 -0.62536,-0.61516 -1.38907,-1.12448 -0.7637,-0.50932 -1.42824,-1.01534 -1.47674,-1.12448 -0.0485,-0.10914 -0.19643,-0.19844 -0.32872,-0.19844 -0.21976,0 -1.12258,-0.69346 -1.98063,-1.52135 -0.18853,-0.1819 -0.47035,-0.33073 -0.62627,-0.33073 -0.15591,0 -0.28348,-0.11906 -0.28348,-0.26458 0,-0.14552 -0.17859,-0.26459 -0.39688,-0.26459 -0.21828,0 -0.39687,-0.10935 -0.39687,-0.243 0,-0.13365 -0.38695,-0.48295 -0.8599,-0.77622 -0.47294,-0.29326 -1.09811,-0.74946 -1.38927,-1.01376 -0.29116,-0.26431 -0.94601,-0.79584 -1.45521,-1.18119 -0.50921,-0.38535 -1.16395,-0.923 -1.455,-1.19478 -0.29104,-0.27179 -0.87519,-0.76218 -1.29812,-1.08977 -0.42293,-0.32759 -1.48167,-1.21869 -2.35276,-1.98022 -0.87109,-0.76153 -1.83474,-1.59821 -2.14145,-1.85929 -2.85954,-2.43411 -14.84455,-14.18924 -16.13691,-15.8274 -0.2739,-0.34718 -0.77324,-0.9289 -1.10965,-1.2927 l -0.61165,-0.66146 1.99189,-2.38125 c 1.09553,-1.30969 2.86415,-3.45281 3.93026,-4.7625 1.06611,-1.30969 2.15873,-2.61937 2.42803,-2.91042 0.26931,-0.29104 1.4388,-1.66026 2.59887,-3.0427 1.16007,-1.38245 2.23029,-2.65033 2.37827,-2.81752 0.14798,-0.16718 0.62625,-0.74564 1.06281,-1.28547 0.43656,-0.53983 1.03187,-1.24734 1.32291,-1.57226 0.29105,-0.32491 0.88636,-1.04743 1.32292,-1.6056 0.43656,-0.55816 0.91799,-1.1426 1.06983,-1.29877 0.15184,-0.15616 1.74586,-2.06986 3.54227,-4.25268 1.7964,-2.18281 3.40413,-4.08781 3.57272,-4.23333 0.16859,-0.14552 1.48306,-1.69333 2.92103,-3.43958 1.43798,-1.74625 2.80165,-3.36557 3.03037,-3.5985 0.22873,-0.23292 0.73299,-0.82823 1.1206,-1.32291 0.3876,-0.49468 0.96036,-1.19708 1.2728,-1.56088 0.31244,-0.36381 0.80277,-0.93461 1.08961,-1.26845 0.60943,-0.70928 0.6362,-0.64822 -1.28088,-2.92097 -0.32725,-0.38796 -0.59514,-0.82792 -0.59532,-0.97769 -1.7e-4,-0.14978 -0.23845,-0.44396 -0.52949,-0.65373 -0.29104,-0.20977 -0.52916,-0.48268 -0.52916,-0.60647 0,-0.12379 -0.14883,-0.38188 -0.33073,-0.57353 -0.6579,-0.69315 -1.14967,-1.37647 -2.57969,-3.58451 -0.80036,-1.23582 -1.54451,-2.28663 -1.65365,-2.33514 -0.10914,-0.0485 -0.19843,-0.25687 -0.19843,-0.46302 0,-0.20615 -0.11104,-0.37483 -0.24676,-0.37483 -0.13571,0 -0.33035,-0.26789 -0.43253,-0.59531 -0.10218,-0.32742 -0.25903,-0.65484 -0.34856,-0.7276 -0.26153,-0.21255 -0.82637,-1.15124 -0.99507,-1.65365 -0.0855,-0.25466 -0.26064,-0.46302 -0.38919,-0.46302 -0.12855,0 -0.23373,-0.17009 -0.23373,-0.37798 0,-0.20788 -0.14882,-0.54033 -0.33073,-0.73877 -0.43701,-0.47676 -0.84392,-1.14426 -1.57728,-2.58742 -0.33277,-0.65484 -0.67607,-1.25015 -0.76288,-1.32291 -0.1912,-0.16026 -0.27343,-0.31845 -3.34838,-6.4421 -1.34607,-2.68064 -2.44739,-4.97788 -2.44739,-5.10498 0,-0.1271 -0.27941,-0.76593 -0.62091,-1.41961 -0.34149,-0.65369 -0.95658,-2.14102 -1.36685,-3.30519 -0.41028,-1.16417 -0.88699,-2.29526 -1.05936,-2.51354 -0.17236,-0.21828 -0.72991,-1.64703 -1.23899,-3.175 -2.24094,-6.72607 -2.61417,-7.87981 -2.95286,-9.12813 -0.19741,-0.7276 -0.62516,-2.27541 -0.95056,-3.43958 -0.32541,-1.16417 -0.62559,-2.35479 -0.66708,-2.64583 -0.0415,-0.29104 -0.21219,-0.8731 -0.37932,-1.29347 -0.16713,-0.42036 -0.24862,-0.81956 -0.18108,-0.8871 0.0675,-0.0675 0.007,-0.4282 -0.13522,-0.80147 -0.14192,-0.37327 -0.30885,-0.98611 -0.37097,-1.36186 -0.0621,-0.37575 -0.47524,-2.64772 -0.91806,-5.04881 -0.80478,-4.36368 -0.93755,-5.17417 -1.21353,-7.40833 -0.0809,-0.65485 -0.20105,-1.60735 -0.26703,-2.11667 -0.066,-0.50932 -0.18237,-1.69819 -0.25866,-2.64192 -0.0763,-0.94373 -0.18647,-2.08901 -0.24486,-2.54505 -0.0584,-0.45605 -0.18637,-2.48187 -0.28441,-4.50183 -0.098,-2.01996 -0.20844,-3.70616 -0.24533,-3.7471 -0.0778,-0.0863 -0.90901,-0.25392 -2.25534,-0.45472 -0.52097,-0.0777 -1.195262,-0.18905 -1.498418,-0.24743 -0.303156,-0.0584 -0.953233,-0.1707 -1.444616,-0.24958 -0.491384,-0.0789 -1.354996,-0.21743 -1.91914,-0.30788 -0.564144,-0.0905 -1.278519,-0.21911 -1.5875,-0.28591 -0.308981,-0.0668 -1.454753,-0.28631 -2.546159,-0.4878 -2.762582,-0.51003 -3.153139,-0.57853 -6.085417,-1.06724 -0.436563,-0.0728 -1.180703,-0.19707 -1.653646,-0.27623 -0.472943,-0.0792 -1.217083,-0.20348 -1.653646,-0.27624 -1.493088,-0.24885 -5.164192,-0.91815 -7.077604,-1.29036 -1.205677,-0.23454 -2.014738,-0.37783 -6.019271,-1.06604 -2.110052,-0.36263 -4.129348,-0.71767 -4.487324,-0.78897 -0.357977,-0.0713 -1.077118,-0.19321 -1.598092,-0.27091 -0.520974,-0.0777 -1.195263,-0.18904 -1.498418,-0.24743 -0.303156,-0.0584 -0.980793,-0.17442 -1.505859,-0.25787 -0.525066,-0.0834 -1.494861,-0.27278 -2.155098,-0.42074 -0.660238,-0.14796 -1.64471,-0.33369 -2.187716,-0.41274 -0.543007,-0.079 -1.701659,-0.2695 -2.574784,-0.42324 -1.578225,-0.2779 -2.813232,-0.4887 -3.571875,-0.60966 -0.310335,-0.0495 -0.393059,-0.46128 -0.379375,-1.88851 0.01561,-1.62833 0.298646,-6.89209 0.503604,-9.36585 0.191406,-2.31021 0.451571,-4.98488 0.579059,-5.95313 0.07664,-0.58208 0.163117,-1.41658 0.192166,-1.85445 0.02905,-0.43786 0.115346,-0.91411 0.191771,-1.05833 0.07642,-0.14422 0.167834,-0.68539 0.203132,-1.20261 0.06356,-0.93128 0.219801,-1.97002 0.296327,-1.97002 0.02182,0 0.07986,-0.41672 0.128974,-0.92604 0.04912,-0.50933 0.155622,-1.28323 0.236678,-1.7198 0.08106,-0.43656 0.215381,-1.27 0.298498,-1.85208 0.08312,-0.58208 0.208003,-1.35599 0.277524,-1.71979 0.324118,-1.69611 0.383576,-2.03138 0.537741,-3.03212 0.190529,-1.2368 0.316023,-1.86267 0.373484,-1.86267 0.05764,0 0.180372,-0.61367 0.396875,-1.98438 0.216503,-1.3707 0.339237,-1.98437 0.396875,-1.98437 0.03958,0 0.106946,-0.24973 0.356891,-1.32292 0.06778,-0.29104 0.385381,-1.58763 0.705772,-2.8813 0.320392,-1.29368 0.619971,-2.54384 0.665732,-2.77813 0.04576,-0.23429 0.107194,-0.45575 0.136518,-0.49213 0.0589,-0.0731 0.04901,-0.033 0.375468,-1.52136 0.273442,-1.24665 0.321592,-1.43323 0.392623,-1.52135 0.02932,-0.0364 0.09216,-0.2674 0.139637,-0.51338 0.09428,-0.48847 0.616713,-2.22733 0.859294,-2.86006 0.08369,-0.21828 0.183489,-0.54787 0.221783,-0.73243 0.156616,-0.75479 1.798954,-5.76285 1.943435,-5.9262 0.08578,-0.097 1.048941,-0.0168 2.140347,0.17815 1.091406,0.19497 2.371328,0.42315 2.844271,0.50707 0.472943,0.0839 1.246849,0.22249 1.719791,0.30793 0.472943,0.0855 1.098021,0.19499 1.389063,0.24342 0.595565,0.0991 4.678823,0.85555 5.67795,1.05186 0.357976,0.0703 1.131882,0.19315 1.719791,0.27293 0.587909,0.0798 1.366582,0.20286 1.730384,0.27354 1.515182,0.29434 2.01006,0.38215 2.910417,0.51644 0.520974,0.0777 1.240115,0.203 1.598092,0.27844 0.357976,0.0754 0.948522,0.18693 1.312324,0.24775 1.106865,0.18504 3.532599,0.63373 4.222742,0.78107 0.357976,0.0764 1.077118,0.20254 1.598092,0.28024 0.520974,0.0777 1.235349,0.19677 1.5875,0.26459 0.352151,0.0678 1.066526,0.18688 1.5875,0.26458 0.520974,0.0777 1.235349,0.19676 1.5875,0.26458 0.352151,0.0678 1.066526,0.18688 1.5875,0.26459 0.520974,0.0777 1.240115,0.19882 1.598092,0.26916 0.357976,0.0703 1.603366,0.30139 2.767533,0.51345 1.164168,0.21206 2.409558,0.44813 2.767528,0.52459 0.35798,0.0765 1.07712,0.20259 1.5981,0.2803 0.52097,0.0777 1.23535,0.19676 1.5875,0.26458 0.35215,0.0678 1.06652,0.18688 1.5875,0.26458 0.52097,0.0777 1.24011,0.19832 1.59809,0.26803 0.35798,0.0697 1.33432,0.25264 2.16966,0.4065 0.83534,0.15386 1.80877,0.33365 2.1632,0.39954 0.57295,0.10651 0.70459,-0.0411 1.18727,-1.33116 0.29858,-0.79802 0.65235,-1.66195 0.78617,-1.91984 0.13381,-0.2579 1.28273,-2.73109 2.55316,-5.49599 2.00031,-4.35338 7.27886,-14.30021 7.79265,-14.68437 0.0973,-0.0728 0.26222,-0.31089 0.36645,-0.52917 0.42224,-0.88422 3.07844,-5.0618 3.36457,-5.29166 0.0906,-0.0728 0.49451,-0.65872 0.89764,-1.30214 0.40313,-0.64341 0.95671,-1.41 1.23018,-1.70353 0.27346,-0.29354 0.49721,-0.63881 0.49721,-0.76729 0,-0.12847 0.14882,-0.39049 0.33073,-0.58225 0.1819,-0.19176 0.56885,-0.67916 0.85989,-1.08311 0.29104,-0.40395 0.64823,-0.86363 0.79375,-1.02151 0.14552,-0.15788 0.7947,-0.99847 1.44262,-1.86799 0.64792,-0.86951 1.38485,-1.82201 1.63761,-2.11666 0.25277,-0.29465 0.71521,-0.83339 1.02765,-1.19719 0.31244,-0.3638 0.8852,-1.06459 1.27281,-1.5573 0.3876,-0.49272 1.03215,-1.2277 1.43233,-1.6333 0.40018,-0.40559 0.72761,-0.79282 0.72761,-0.86051 0,-0.29103 8.49774,-8.93227 10.84698,-11.03014 1.05921,-0.94589 2.24927,-2.01745 2.64457,-2.38125 0.63596,-0.58528 2.31692,-2.02362 3.71058,-3.175 0.26421,-0.21828 0.7299,-0.60523 1.03486,-0.8599 0.30496,-0.25466 0.62115,-0.46302 0.70264,-0.46302 0.0815,0 0.2994,-0.14882 0.48424,-0.33073 0.18484,-0.1819 0.73097,-0.62838 1.21363,-0.99218 0.48265,-0.36381 1.02878,-0.81029 1.21362,-0.99219 0.18484,-0.1819 0.40275,-0.33073 0.48425,-0.33073 0.1351,0 0.80557,-0.50952 1.5728,-1.19525 0.72387,-0.64698 3.10426,-2.24433 3.34452,-2.24433 0.14519,0 0.26397,-0.094 0.26397,-0.209 0,-0.11495 0.59532,-0.55668 1.32292,-0.98163 0.7276,-0.42494 1.32292,-0.86667 1.32292,-0.98162 0,-0.11495 0.17859,-0.209 0.39687,-0.209 0.21828,0 0.39688,-0.10616 0.39688,-0.2359 0,-0.12975 0.29765,-0.31061 0.66145,-0.40192 0.36381,-0.0913 0.66146,-0.28281 0.66146,-0.42556 0,-0.14275 0.16014,-0.25954 0.35587,-0.25954 0.19573,0 0.54292,-0.20836 0.77153,-0.46302 0.38279,-0.42641 -0.31482,-2.47135 -8.82253,-25.86173 -5.08101,-13.969289 -9.2382,-25.548117 -9.2382,-25.730729 0,-0.182611 0.16402,-0.332021 0.36448,-0.332021 0.20046,0 0.503,-0.166912 0.67231,-0.370916 0.16931,-0.204004 0.62918,-0.451568 1.02193,-0.550144 0.39276,-0.09857 0.77483,-0.265193 0.84905,-0.370261 0.0742,-0.105068 1.92088,-1.06417 4.10369,-2.131337 6.00519,-2.935911 6.5596,-3.191925 6.91222,-3.191925 0.17931,0 0.48335,-0.154538 0.67565,-0.343418 0.1923,-0.18888 1.12353,-0.627303 2.06942,-0.974273 0.94589,-0.346971 1.95792,-0.779694 2.24896,-0.961607 0.75,-0.468784 16.9552,-6.243687 19.97604,-7.118687 1.38245,-0.400432 3.10885,-0.912469 3.83646,-1.13786 0.7276,-0.22539 1.50151,-0.4318 1.71979,-0.458688 0.21828,-0.02689 1.34937,-0.313107 2.51354,-0.636043 1.16417,-0.322935 2.44688,-0.630831 2.85047,-0.684212 0.40359,-0.05338 0.86846,-0.180283 1.03305,-0.282004 0.16459,-0.101721 0.54875,-0.218163 0.8537,-0.25876 0.30495,-0.0406 1.14976,-0.212651 1.87736,-0.38234 0.72761,-0.16969 1.72609,-0.326442 2.21885,-0.348338 l 0.89593,-0.03981 9.30036,25.532292 c 8.98875,24.676801 9.3222,25.530831 9.95199,25.488871 0.3584,-0.0239 1.12787,-0.10801 1.70996,-0.18696 0.58208,-0.079 1.59411,-0.20533 2.24896,-0.28083 0.65484,-0.0755 1.71191,-0.20304 2.34905,-0.28343 6.5273,-0.82355 22.66144,-0.97654 28.21032,-0.26749 0.43656,0.0558 1.62719,0.17583 2.64583,0.26678 1.01865,0.0909 2.26881,0.22368 2.77813,0.29497 0.50932,0.0713 1.40229,0.19078 1.98437,0.26553 0.58209,0.0747 1.74688,0.2534 2.58842,0.39703 0.84155,0.14363 1.95164,0.31512 2.46688,0.38108 0.76718,0.0982 4.27085,0.78827 6.60139,1.30015 0.28278,0.0621 1.30944,0.28562 2.28146,0.49669 0.97202,0.21108 1.86499,0.44374 1.98438,0.51702 0.11938,0.0733 0.63378,0.20062 1.1431,0.28295 0.50932,0.0823 1.58089,0.34643 2.38125,0.58689 0.80036,0.24046 1.57427,0.46247 1.71979,0.49336 0.14552,0.0309 0.74083,0.19186 1.32292,0.35771 0.58208,0.16584 1.14316,0.31823 1.24683,0.33864 0.79262,0.15601 10.63971,3.67185 12.24692,4.37269 0.58208,0.25382 1.18401,0.48604 1.33761,0.51604 0.40632,0.0794 6.82813,3.06205 10.91112,5.0678 1.93462,0.95037 3.54743,1.68362 3.58404,1.62945 0.11347,-0.16791 6.5981,-8.0049 7.08715,-8.56515 0.25405,-0.29104 0.73741,-0.8438 1.07412,-1.22835 0.33671,-0.38456 0.92934,-1.09893 1.31694,-1.5875 0.3876,-0.48858 0.92338,-1.14373 1.19063,-1.45589 0.26724,-0.31217 0.97946,-1.14561 1.58271,-1.85209 0.60326,-0.70648 1.33659,-1.55815 1.62962,-1.8926 0.29304,-0.33445 0.93056,-1.0994 1.41672,-1.69988 0.48616,-0.60048 1.64018,-1.99372 2.5645,-3.096071 0.92432,-1.102357 1.87682,-2.242678 2.11667,-2.534047 0.9935,-1.206919 4.6806,-5.577135 4.92953,-5.842846 0.14798,-0.157954 0.68577,-0.802625 1.1951,-1.432601 0.50932,-0.629975 1.04792,-1.274646 1.19688,-1.432601 0.41374,-0.438712 5.97638,-7.074307 6.84429,-8.164459 0.7629,-0.958255 0.76752,-0.959818 1.5875,-0.537238 0.4523,0.233098 1.98866,1.179923 3.41412,2.104056 1.42547,0.924133 2.65105,1.680242 2.72353,1.680242 0.0725,0 0.45278,0.297657 0.84512,0.661459 0.39235,0.363802 0.8634,0.661458 1.04679,0.661458 0.18339,0 0.33343,0.100314 0.33343,0.222919 0,0.122606 0.41672,0.447337 0.92604,0.721626 0.50933,0.274288 0.92605,0.590693 0.92605,0.703122 0,0.112429 0.16867,0.204416 0.37482,0.204416 0.20616,0 0.41452,0.09591 0.46302,0.213137 0.0485,0.117226 1.27882,1.074929 2.73403,2.128229 3.71008,2.68541 6.04656,4.469125 7.15705,5.463843 0.32491,0.291041 0.99062,0.852061 1.47935,1.24671 3.37054,2.721703 3.93131,3.208958 3.93131,3.415904 0,0.127697 0.12822,0.232177 0.28494,0.232177 0.15671,0 0.62048,0.327422 1.0306,0.727605 0.41012,0.40018 1.61783,1.50151 2.6838,2.44739 3.8523,3.41831 15.05149,14.83056 15.05034,15.33665 -1.8e-4,0.0778 -0.26807,0.45643 -0.59532,0.84137 -1.41552,1.66507 -2.82732,3.31301 -3.32143,3.87695 -0.29304,0.33445 -0.93056,1.09819 -1.41672,1.69719 -0.48615,0.599 -1.00814,1.21832 -1.15998,1.37628 -0.22916,0.2384 -2.05204,2.41406 -4.75838,5.67924 -0.287,0.34626 -0.75993,0.90363 -1.05098,1.2386 -0.29104,0.33496 -0.88635,1.04748 -1.32291,1.58336 -0.43656,0.53587 -0.9913,1.20465 -1.23275,1.48616 -0.24144,0.28152 -0.83675,1.00194 -1.32291,1.60094 -0.48616,0.599 -1.00652,1.21833 -1.15636,1.37628 -0.14983,0.15796 -1.44956,1.71594 -2.88827,3.46219 -1.43871,1.74625 -2.8044,3.36876 -3.03486,3.60557 -0.23046,0.23681 -0.64657,0.71306 -0.92468,1.05833 -1.04395,1.29603 -3.17662,3.81254 -3.44696,4.06735 -0.15439,0.14552 -0.59961,0.6813 -0.98937,1.19063 -0.38976,0.50932 -1.00696,1.26281 -1.37155,1.67441 -0.36458,0.4116 -1.03876,1.20952 -1.49818,1.77316 -0.45941,0.56363 -1.0759,1.29842 -1.36997,1.63288 -0.29407,0.33445 -0.95406,1.11607 -1.46663,1.73693 l -0.93195,1.12885 0.56461,0.48969 c 0.31054,0.26933 0.56462,0.56366 0.56462,0.65407 0,0.16158 0.60622,0.95085 1.25677,1.63626 0.1819,0.19165 0.33073,0.42499 0.33073,0.51854 0,0.0935 0.14883,0.32052 0.33073,0.50439 0.1819,0.18386 0.56885,0.66657 0.85989,1.07269 0.29105,0.40611 0.79706,1.06803 1.12448,1.47093 0.32743,0.4029 0.59532,0.86418 0.59532,1.02508 0,0.16089 0.11906,0.29253 0.26458,0.29253 0.14552,0 0.26458,0.1786 0.26458,0.39688 0,0.21828 0.094,0.39687 0.209,0.39687 0.11495,0 0.55668,0.59532 0.98163,1.32292 0.42494,0.7276 0.86667,1.32292 0.98162,1.32292 0.11495,0 0.209,0.17859 0.209,0.39687 0,0.21828 0.1168,0.39688 0.25955,0.39688 0.14274,0 0.33425,0.29765 0.42555,0.66146 0.0913,0.3638 0.27217,0.66145 0.40192,0.66145 0.12974,0 0.2359,0.17009 0.2359,0.37798 0,0.20789 0.14883,0.53749 0.33073,0.73245 0.1819,0.19496 0.55989,0.76901 0.83997,1.27567 0.28008,0.50666 0.58016,0.98073 0.66684,1.05349 0.0867,0.0728 0.29999,0.42994 0.47402,0.79375 0.17402,0.3638 0.67559,1.25677 1.11459,1.98437 0.439,0.72761 0.91193,1.57924 1.05095,1.89253 0.13902,0.31329 0.36598,0.63958 0.50435,0.7251 0.13838,0.0855 0.33376,0.48285 0.43418,0.88295 0.10041,0.4001 0.26243,0.78818 0.36003,0.8624 0.26363,0.20046 2.95559,5.72022 2.95559,6.06031 0,0.16079 0.0955,0.29234 0.21232,0.29234 0.11677,0 0.42965,0.62507 0.69528,1.38906 0.26564,0.76398 0.65445,1.66512 0.86402,2.00254 0.20957,0.33741 0.79751,1.76398 1.30653,3.17016 0.50902,1.40618 1.01603,2.6184 1.12671,2.69382 0.11067,0.0754 0.62061,1.38728 1.1332,2.91525 2.00212,5.96813 2.61375,7.85477 2.95924,9.12812 0.19741,0.72761 0.62819,2.27542 0.95729,3.43959 0.32911,1.16416 0.63241,2.37775 0.67402,2.69686 0.0416,0.31911 0.14774,0.69685 0.23586,0.83943 0.13778,0.22294 0.3303,1.06726 0.82253,3.60746 0.0564,0.29104 0.35013,1.77932 0.65273,3.30729 0.3026,1.52797 0.60177,3.13531 0.66482,3.57188 0.0631,0.43656 0.1954,1.26999 0.29412,1.85208 0.21884,1.29043 0.28528,1.74499 0.50243,3.43769 0.0932,0.72657 0.21694,1.67907 0.27495,2.11667 0.44014,3.32008 0.6194,5.52555 0.80659,9.92376 0.0898,2.11006 0.19356,3.86996 0.23056,3.9109 0.0757,0.0838 0.65476,0.20292 2.15588,0.44359 0.56414,0.0905 1.42775,0.229 1.91914,0.30788 0.49138,0.0789 1.14622,0.19276 1.4552,0.25306 0.30899,0.0603 0.91898,0.16958 1.35554,0.24285 0.43656,0.0733 1.15094,0.19371 1.5875,0.26765 0.92799,0.15716 6.31544,1.13481 7.26545,1.31844 0.35797,0.0692 1.07712,0.18939 1.59809,0.26709 0.52097,0.0777 1.24012,0.20136 1.59809,0.2748 0.35798,0.0734 1.54384,0.25676 2.63524,0.40738 3.21453,0.44363 5.3742,0.76095 6.15157,0.90386 1.78424,0.328 2.39943,0.43615 6.01927,1.05825 2.11005,0.36263 4.12934,0.71767 4.48732,0.78897 0.35798,0.0713 1.07712,0.19321 1.59809,0.27091 0.52098,0.0777 1.24012,0.20383 1.5981,0.2803 0.35797,0.0765 1.60336,0.31252 2.76753,0.52458 1.16416,0.21206 2.40955,0.44312 2.76753,0.51346 0.35798,0.0703 1.07712,0.19146 1.59809,0.26916 0.52098,0.0777 1.23535,0.19676 1.5875,0.26458 0.35215,0.0678 1.12129,0.19741 1.7092,0.28798 0.58791,0.0906 1.24752,0.20254 1.4658,0.24883 0.21828,0.0463 0.47429,0.0933 0.56891,0.10441 0.17368,0.0204 0.0685,4.58691 -0.162,7.0317 -0.0686,0.7276 -0.20168,2.51354 -0.29575,3.96875 -0.0941,1.45521 -0.22413,2.73513 -0.28901,2.84427 -0.0649,0.10914 -0.007,0.19844 0.12753,0.19844 0.13502,0 0.20959,0.32742 0.1657,0.7276 -0.0439,0.40018 -0.1514,1.54349 -0.23892,2.54069 -0.19632,2.23678 -0.22356,2.38334 -0.47789,2.57194 -0.11251,0.0834 -0.26318,0.60956 -0.33483,1.16919 -0.0716,0.55962 -0.18796,1.35456 -0.25846,1.76654 -0.20789,1.21471 -0.33954,2.11518 -0.53504,3.65945 -0.10133,0.80037 -0.23404,1.69334 -0.29493,1.98438 -0.0609,0.29104 -0.15692,0.8532 -0.21341,1.24924 -0.0565,0.39604 -0.16706,0.93182 -0.24572,1.19062 -0.0787,0.25881 -0.20682,0.85751 -0.28481,1.33045 -0.32295,1.9586 -0.4471,2.6318 -0.67095,3.63802 -0.12949,0.58208 -0.3058,1.47505 -0.3918,1.98438 -0.086,0.50932 -0.21662,1.12489 -0.29028,1.36792 -0.0736,0.24304 -0.17596,0.66022 -0.22735,0.92708 -0.0514,0.26685 -0.23746,1.02004 -0.41349,1.67375 -0.17602,0.65371 -0.3671,1.39738 -0.4246,1.65261 -0.49721,2.20667 -0.95511,4.06187 -1.09411,4.4328 -0.0818,0.21828 -0.17606,0.51594 -0.20948,0.66146 -0.0334,0.14552 -0.24715,0.88966 -0.47495,1.65365 -0.22779,0.76398 -0.33724,1.38906 -0.24322,1.38906 0.094,0 0.0281,0.14287 -0.14655,0.3175 -0.17463,0.17463 -0.3175,0.5715 -0.3175,0.88194 0,0.31045 -0.0893,0.65375 -0.19844,0.76289 -0.10914,0.10914 -0.20288,0.27781 -0.20831,0.37482 -0.008,0.14633 -0.38448,1.43649 -1.09323,3.74827 -0.0669,0.21828 -0.0939,0.39687 -0.0599,0.39687 0.034,0 -0.0841,0.27264 -0.26246,0.60586 -0.33251,0.6213 -0.64889,0.64074 -2.95077,0.18128 -0.35797,-0.0714 -2.67492,-0.4802 -5.14878,-0.90834 -2.47385,-0.42814 -4.79557,-0.84344 -5.15937,-0.92288 -0.36381,-0.0795 -1.31631,-0.26445 -2.11667,-0.41113 -0.80036,-0.14667 -1.7481,-0.32371 -2.10607,-0.39343 -0.35798,-0.0697 -1.07712,-0.19032 -1.5981,-0.26802 -0.52097,-0.0777 -1.24011,-0.20292 -1.59809,-0.27826 -0.35798,-0.0753 -1.00805,-0.18882 -1.44462,-0.25218 -0.73303,-0.10638 -2.50413,-0.44478 -4.10104,-0.78357 -0.3638,-0.0772 -1.19724,-0.20792 -1.85208,-0.29053 -0.65484,-0.0826 -1.36922,-0.1976 -1.5875,-0.25553 -0.21828,-0.0579 -0.78383,-0.16912 -1.25677,-0.24711 -0.47294,-0.078 -1.21708,-0.20131 -1.65365,-0.27408 -0.78251,-0.13041 -1.35266,-0.22505 -3.175,-0.527 -0.50932,-0.0844 -1.10463,-0.20084 -1.32291,-0.25876 -0.21828,-0.0579 -0.93266,-0.17292 -1.5875,-0.25553 -0.65485,-0.0826 -1.48828,-0.21335 -1.85209,-0.29054 -1.89984,-0.40305 -3.56451,-0.71746 -5.55625,-1.04942 -0.43656,-0.0728 -1.15093,-0.19182 -1.5875,-0.26458 -0.43656,-0.0728 -1.15093,-0.19182 -1.5875,-0.26458 -1.37217,-0.2287 -2.20812,-0.37694 -3.56023,-0.63136 -1.43438,-0.26989 -1.78745,-0.0573 -2.13178,1.28364 -0.0921,0.35875 -0.40928,1.19219 -0.7048,1.85208 -1.11267,2.48458 -4.32871,9.34068 -4.90667,10.46022 -0.22537,0.43656 -0.71318,1.38906 -1.08401,2.11667 -0.37084,0.7276 -0.74789,1.38245 -0.8379,1.45521 -0.09,0.0728 -0.36904,0.54901 -0.62009,1.05833 -0.58336,1.18353 -1.3574,2.5456 -1.68983,2.97362 -0.14254,0.18352 -0.54517,0.86878 -0.89474,1.5228 -0.34956,0.65402 -0.72528,1.30886 -0.83491,1.45521 -0.60861,0.81236 -2.04962,3.05445 -2.04962,3.18902 0,0.0867 -0.14883,0.32352 -0.33073,0.52636 -0.78516,0.87552 -0.99219,1.17481 -0.99219,1.43432 0,0.15167 -0.11906,0.27575 -0.26458,0.27575 -0.14552,0 -0.26458,0.15005 -0.26458,0.33344 0,0.18338 -0.29766,0.65444 -0.66146,1.04678 -0.3638,0.39235 -0.66146,0.83761 -0.66146,0.98949 0,0.15187 -0.11906,0.27613 -0.26458,0.27613 -0.14552,0 -0.26459,0.12756 -0.26459,0.28348 0,0.15591 -0.14882,0.44944 -0.33073,0.65228 -0.49176,0.54836 -0.76374,0.90399 -1.91489,2.50382 -1.37647,1.91297 -3.59021,4.60708 -3.8771,4.7184 -0.125,0.0485 -0.22728,0.21345 -0.22728,0.36654 0,0.15309 -0.29765,0.5542 -0.66146,0.89136 -0.3638,0.33716 -0.66145,0.68623 -0.66145,0.77571 0,0.0895 -0.41672,0.55571 -0.92605,1.03606 -0.50932,0.48035 -0.92604,0.94848 -0.92604,1.04027 0,0.30031 -9.92176,10.48624 -10.21428,10.48624 -0.0688,0 -0.58692,0.44649 -1.15134,0.99219 -0.87345,0.84449 -2.27193,2.09594 -4.47966,4.00867 -0.26859,0.23271 -0.87727,0.72076 -1.35263,1.08456 -0.47536,0.3638 -1.07067,0.84005 -1.32292,1.05833 -0.25225,0.21828 -0.84757,0.69453 -1.32294,1.05834 -0.47537,0.3638 -1.17585,0.9292 -1.55662,1.25644 -0.38077,0.32725 -0.81486,0.59514 -0.96463,0.59532 -0.14978,1.7e-4 -0.44396,0.23844 -0.65373,0.52949 -0.20977,0.29104 -0.47282,0.52916 -0.58455,0.52916 -0.1816,0 -0.74996,0.41632 -1.62778,1.19231 -0.16567,0.14645 -1.31324,0.92035 -2.55017,1.71979 -1.23692,0.79944 -2.28864,1.54283 -2.33715,1.65197 -0.0485,0.10914 -0.25687,0.19843 -0.46302,0.19843 -0.20615,0 -0.37483,0.1168 -0.37483,0.25955 0,0.14274 -0.29765,0.33425 -0.66146,0.42555 -0.3638,0.0913 -0.66145,0.27217 -0.66145,0.40192 0,0.12974 -0.14883,0.23986 -0.33073,0.2447 -0.1819,0.005 -0.58975,0.2251 -0.90632,0.48946 l -0.57559,0.48066 4.06792,11.1751 c 2.23736,6.14631 4.18269,11.31363 4.32297,11.48294 0.23213,0.28018 10.23033,27.6062 10.41019,28.45204 0.0434,0.20404 -0.4441,0.63579 -1.11344,0.98612 -0.65485,0.34274 -1.32926,0.74013 -1.49871,0.88309 -0.16944,0.14296 -0.61593,0.33719 -0.99219,0.43162 -0.37626,0.0944 -0.6841,0.27308 -0.6841,0.39698 0,0.12391 -0.47625,0.36797 -1.05834,0.54237 -0.58208,0.17439 -1.05833,0.41252 -1.05833,0.52916 0,0.11665 -0.47625,0.35477 -1.05833,0.52917 -0.58209,0.1744 -1.05834,0.39796 -1.05834,0.49681 0,0.0989 -0.65484,0.40232 -1.45521,0.67437 -0.80036,0.27205 -1.4552,0.58297 -1.4552,0.69091 0,0.10795 -0.65485,0.4027 -1.45521,0.65499 -0.80037,0.25229 -1.45521,0.54009 -1.45521,0.63954 0,0.0994 -0.92273,0.5146 -2.05052,0.92256 -1.12779,0.40796 -2.11099,0.83077 -2.18489,0.93958 -0.17154,0.25257 -16.76214,6.28972 -17.77509,6.46818 -0.41726,0.0735 -1.54748,0.43057 -2.5116,0.79346 -0.96413,0.3629 -1.80496,0.60781 -1.86852,0.54425 -0.0635,-0.0636 -0.61081,0.0676 -1.21611,0.29151 -0.60531,0.22389 -1.51728,0.49851 -2.0266,0.61026 -0.50933,0.11176 -1.64042,0.40101 -2.51355,0.64278 -0.87312,0.24177 -2.09351,0.55338 -2.71197,0.69248 -0.61847,0.13909 -1.69003,0.38286 -2.38125,0.5417 -0.69123,0.15885 -1.51786,0.32621 -1.83697,0.37192 -0.31911,0.0457 -0.69688,0.15523 -0.8395,0.24337 -0.14262,0.0881 -0.7911,0.2228 -1.44106,0.29924 -1.10679,0.13017 -1.19835,0.0922 -1.4434,-0.59832 z M 262.06979,349.41087 c 0.87313,-0.0801 2.06375,-0.20411 2.64583,-0.27552 0.58209,-0.0714 1.65365,-0.19679 2.38125,-0.27862 0.72761,-0.0818 2.57308,-0.38825 4.10105,-0.68093 1.52797,-0.29269 2.95672,-0.56514 3.175,-0.60544 1.95855,-0.36166 2.65186,-0.53133 3.53875,-0.86602 0.56387,-0.2128 1.08356,-0.32856 1.15487,-0.25725 0.0713,0.0713 0.90406,-0.16183 1.85056,-0.51809 0.94649,-0.35626 1.90006,-0.64775 2.11903,-0.64775 0.52399,0 6.92749,-2.31808 7.60866,-2.75435 0.29104,-0.1864 1.18401,-0.5876 1.98438,-0.89154 0.80036,-0.30394 1.92686,-0.79858 2.50334,-1.0992 0.57647,-0.30062 1.20155,-0.54658 1.38906,-0.54658 0.18751,0 0.341,-0.0893 0.34109,-0.19843 8e-5,-0.10914 0.77242,-0.55563 1.71631,-0.99219 0.94388,-0.43656 1.71772,-0.87014 1.71963,-0.96351 0.002,-0.0934 0.32971,-0.25163 0.72844,-0.3517 0.39872,-0.10008 0.78567,-0.26778 0.85989,-0.37269 0.21037,-0.29733 2.88986,-1.88398 3.18163,-1.88398 0.14333,0 0.26061,-0.10031 0.26061,-0.22292 0,-0.1226 0.44648,-0.45002 0.99218,-0.7276 0.54571,-0.27758 1.05172,-0.5714 1.12448,-0.65295 0.0728,-0.0815 0.96573,-0.73382 1.98438,-1.44951 1.01864,-0.7157 1.98206,-1.42289 2.14091,-1.57154 0.15886,-0.14865 0.68373,-0.56792 1.16638,-0.93173 0.48265,-0.3638 1.01046,-0.78052 1.17291,-0.92604 0.16245,-0.14552 0.82821,-0.67589 1.47946,-1.17859 1.63428,-1.26151 2.44712,-2.01056 6.50968,-5.99881 1.94587,-1.91028 3.53795,-3.55655 3.53795,-3.65837 0,-0.10183 0.32742,-0.51695 0.7276,-0.92249 0.40019,-0.40555 1.0848,-1.17889 1.52136,-1.71854 0.43656,-0.53966 1.0663,-1.30002 1.39942,-1.68969 0.33312,-0.38968 0.84885,-1.09546 1.14606,-1.5684 0.29721,-0.47295 0.64974,-0.8599 0.78339,-0.8599 0.13365,0 0.243,-0.16867 0.243,-0.37483 0,-0.20615 0.0893,-0.41451 0.19844,-0.46302 0.30851,-0.13711 1.65365,-2.00594 1.65365,-2.29745 0,-0.1431 0.10302,-0.29987 0.22894,-0.34838 0.12593,-0.0485 0.751,-0.92805 1.38907,-1.95455 0.63806,-1.02649 1.30922,-2.09805 1.49147,-2.38125 0.18225,-0.28319 0.44789,-0.75302 0.59032,-1.04406 0.14242,-0.29104 0.6193,-1.12448 1.05971,-1.85209 0.76852,-1.26964 1.87875,-3.48829 3.44239,-6.87916 0.40263,-0.87313 0.93374,-2.02474 1.18026,-2.55914 0.24652,-0.5344 0.47751,-1.12971 0.51333,-1.32292 0.0358,-0.1932 0.26476,-0.8123 0.50877,-1.37577 0.24401,-0.56348 0.44365,-1.18153 0.44365,-1.37345 0,-0.19192 0.11907,-0.42253 0.26459,-0.51247 0.14552,-0.0899 0.26458,-0.43034 0.26458,-0.75645 0,-0.32611 0.11566,-0.70858 0.25701,-0.84994 0.14136,-0.14136 0.30207,-0.49259 0.35713,-0.78052 0.0551,-0.28793 0.1867,-0.72257 0.29253,-0.96587 0.10583,-0.2433 0.23367,-0.66001 0.28409,-0.92604 0.0504,-0.26602 0.10989,-0.48368 0.13216,-0.48368 0.0223,0 0.0765,-0.1786 0.12049,-0.39688 0.044,-0.21828 0.3316,-1.23999 0.63912,-2.27047 0.49983,-1.67491 1.59975,-6.64015 2.01733,-9.10661 0.33292,-1.96643 0.37946,-2.2966 0.54078,-3.83646 0.0915,-0.87312 0.2168,-1.94469 0.27851,-2.38125 0.60495,-4.27968 0.59408,-16.40424 -0.0181,-20.24062 -0.0581,-0.36381 -0.17314,-1.19724 -0.25574,-1.85209 -0.19787,-1.56864 -0.34525,-2.57656 -0.54165,-3.70416 -0.0887,-0.50933 -0.20136,-1.16417 -0.25033,-1.45521 -0.049,-0.29104 -0.23146,-1.12448 -0.40554,-1.85209 -0.17409,-0.7276 -0.35728,-1.62057 -0.40709,-1.98437 -0.0498,-0.3638 -0.21095,-0.97664 -0.35809,-1.36186 -0.14715,-0.38522 -0.21404,-0.75389 -0.14866,-0.81927 0.0654,-0.0654 -0.0639,-0.55628 -0.28727,-1.0909 -0.22338,-0.53462 -0.44828,-1.29704 -0.49979,-1.69427 -0.13852,-1.06825 -4.38013,-12.61375 -4.67188,-12.71669 -0.13748,-0.0485 -0.24997,-0.22887 -0.24997,-0.40081 0,-0.29223 -1.32401,-3.25987 -1.8476,-4.1412 -0.12968,-0.21828 -0.57033,-1.05172 -0.97924,-1.85208 -0.4089,-0.80037 -0.89264,-1.61254 -1.07498,-1.80484 -0.18233,-0.1923 -0.33151,-0.51972 -0.33151,-0.7276 0,-0.20789 -0.11907,-0.37798 -0.26459,-0.37798 -0.14552,0 -0.26458,-0.17009 -0.26458,-0.37798 0,-0.20788 -0.14883,-0.53749 -0.33073,-0.73245 -0.1819,-0.19496 -0.55989,-0.76901 -0.83997,-1.27567 -0.28008,-0.50665 -0.57888,-0.98072 -0.66399,-1.05348 -0.0851,-0.0728 -0.38905,-0.57878 -0.67541,-1.12448 -0.28636,-0.54571 -0.61264,-0.99219 -0.72507,-0.99219 -0.11243,0 -0.20441,-0.15231 -0.20441,-0.33847 0,-0.18615 -0.23813,-0.51009 -0.52917,-0.71986 -0.29104,-0.20977 -0.53076,-0.50395 -0.53272,-0.65373 -0.002,-0.14977 -0.24006,-0.56997 -0.52914,-0.93377 -0.28907,-0.36381 -1.26685,-1.61396 -2.17283,-2.77813 -0.90599,-1.16416 -1.8585,-2.30922 -2.11669,-2.54457 -0.2582,-0.23535 -0.46945,-0.4883 -0.46945,-0.5621 0,-0.1773 -3.26135,-3.66609 -4.72755,-5.05723 -0.63561,-0.60308 -2.02297,-1.92995 -3.083,-2.9486 -1.06004,-1.01864 -2.37227,-2.20927 -2.91607,-2.64583 -0.54381,-0.43656 -1.12099,-0.91713 -1.28262,-1.06793 -0.16164,-0.15079 -0.77014,-0.62636 -1.35222,-1.05682 -0.58209,-0.43046 -1.11787,-0.85642 -1.19063,-0.94657 -0.17054,-0.21131 -6.33594,-4.49694 -7.09575,-4.93233 -0.31744,-0.1819 -0.84045,-0.47955 -1.16224,-0.66146 -0.3218,-0.1819 -0.74702,-0.47955 -0.94495,-0.66145 -0.19792,-0.18191 -0.52002,-0.33073 -0.71578,-0.33073 -0.19576,0 -0.39562,-0.0893 -0.44412,-0.19844 -0.20349,-0.45786 -8.53012,-4.57912 -11.33299,-5.60927 -0.50932,-0.18719 -1.43076,-0.56438 -2.04764,-0.8382 -0.61687,-0.27381 -1.29446,-0.49784 -1.50574,-0.49784 -0.21128,0 -0.45772,-0.11907 -0.54766,-0.26459 -0.0899,-0.14552 -0.44713,-0.26458 -0.79375,-0.26458 -0.34663,0 -0.70381,-0.11906 -0.79375,-0.26458 -0.0899,-0.14552 -0.43431,-0.26459 -0.76527,-0.26459 -0.33096,0 -0.68457,-0.0828 -0.78579,-0.18404 -0.10123,-0.10123 -0.32943,-0.20554 -0.50712,-0.23181 -0.17769,-0.0263 -1.30246,-0.35732 -2.49949,-0.73566 -1.19704,-0.37835 -2.44719,-0.74418 -2.77813,-0.81296 -0.33094,-0.0688 -0.89936,-0.19493 -1.26316,-0.28032 -0.58004,-0.13614 -1.26954,-0.27472 -3.92374,-0.78861 -0.33905,-0.0656 -0.8153,-0.17962 -1.05833,-0.25327 -0.50138,-0.15195 -1.38692,-0.2942 -3.4846,-0.55976 -0.80036,-0.10132 -1.68853,-0.2278 -1.97371,-0.28106 -0.64001,-0.11952 -3.36403,-0.35873 -5.8315,-0.51208 -2.48324,-0.15434 -9.31254,-0.13791 -11.77395,0.0283 -3.33358,0.22513 -4.85318,0.3559 -5.82084,0.5009 -0.50932,0.0763 -1.40229,0.19648 -1.98437,0.26701 -0.58209,0.0705 -1.35599,0.19199 -1.71979,0.26988 -0.36381,0.0779 -1.07818,0.20549 -1.5875,0.28354 -1.64239,0.25168 -1.96238,0.314 -3.3073,0.64408 -0.7276,0.17858 -1.57977,0.359 -1.89371,0.40094 -0.60891,0.0813 -1.21446,0.25237 -4.28685,1.21076 -1.07098,0.33408 -2.14254,0.62461 -2.38125,0.64562 -0.62842,0.0553 -7.09117,2.43765 -7.78483,2.86969 -0.32268,0.20098 -1.17042,0.58149 -1.88387,0.84558 -1.48263,0.54881 -8.84005,4.24524 -9.15386,4.59898 -0.0728,0.082 -0.57878,0.38342 -1.12448,0.66978 -0.5457,0.28636 -0.99219,0.59973 -0.99219,0.69638 0,0.0967 -0.27026,0.24357 -0.60057,0.32647 -0.33032,0.0829 -0.84549,0.37891 -1.14482,0.65778 -0.29934,0.27887 -0.80298,0.58915 -1.11922,0.68952 -0.31623,0.10037 -0.57497,0.29353 -0.57497,0.42925 0,0.13571 -0.17859,0.24675 -0.39688,0.24675 -0.21828,0 -0.39687,0.11906 -0.39687,0.26458 0,0.14552 -0.1177,0.26459 -0.26156,0.26459 -0.14386,0 -0.47128,0.17073 -0.7276,0.3794 -0.25633,0.20868 -1.67273,1.31053 -3.14757,2.44857 -4.04299,3.11973 -5.46661,4.37739 -9.22473,8.14936 -3.3614,3.3738 -4.60308,4.71536 -6.48229,7.00374 -0.93546,1.13915 -1.34014,1.62806 -2.18281,2.63717 -0.25466,0.30496 -0.46302,0.67217 -0.46302,0.81603 0,0.14386 -0.11907,0.26156 -0.26459,0.26156 -0.14552,0 -0.26458,0.12426 -0.26458,0.27613 0,0.15187 -0.29766,0.59714 -0.66146,0.98948 -0.3638,0.39235 -0.66146,0.8634 -0.66146,1.04679 0,0.18339 -0.11906,0.33343 -0.26458,0.33343 -0.14552,0 -0.26458,0.12409 -0.26458,0.27575 0,0.15167 -0.14883,0.45345 -0.33073,0.67064 -0.98517,1.17629 -1.47816,1.92191 -1.69219,2.55934 -0.0855,0.25466 -0.23842,0.46302 -0.33981,0.46302 -0.10139,0 -0.34785,0.41672 -0.54769,0.92604 -0.19984,0.50933 -0.43797,0.92605 -0.52917,0.92605 -0.0912,0 -0.32932,0.41672 -0.52916,0.92604 -0.19985,0.50932 -0.44211,0.92604 -0.53837,0.92604 -0.0963,0 -0.39817,0.50602 -0.67092,1.12448 -0.27274,0.61846 -0.572,1.18401 -0.66501,1.25677 -0.093,0.0728 -0.72919,1.32292 -1.41373,2.77812 -0.68455,1.45521 -1.47494,3.10357 -1.75643,3.66303 -0.28149,0.55945 -0.51179,1.22025 -0.51179,1.46844 0,0.24818 -0.10742,0.56435 -0.2387,0.7026 -0.13128,0.13824 -0.42159,0.78713 -0.64513,1.44198 -0.22354,0.65484 -0.72457,2.08359 -1.1134,3.175 -0.38883,1.0914 -0.73007,2.12975 -0.75832,2.30744 -0.0282,0.17769 -0.13418,0.40589 -0.23541,0.50712 -0.10122,0.10123 -0.18404,0.44202 -0.18404,0.75731 0,0.3153 -0.0828,0.65609 -0.18405,0.75731 -0.10123,0.10123 -0.20651,0.32943 -0.23396,0.50712 -0.0274,0.17769 -0.1957,0.85885 -0.37389,1.5137 -0.1782,0.65484 -0.37486,1.48828 -0.43703,1.85208 -0.0622,0.3638 -0.21778,1.01865 -0.34581,1.45521 -0.12803,0.43656 -0.32146,1.27 -0.42985,1.85208 -0.10838,0.58209 -0.24302,1.23693 -0.29919,1.45521 -0.0562,0.21828 -0.14221,0.69453 -0.19119,1.05833 -0.049,0.36381 -0.21682,1.37584 -0.37298,2.24896 -0.70629,3.94888 -1.14036,9.1216 -1.18782,14.15521 -0.0278,2.95275 0.24483,8.96834 0.49172,10.84792 0.0669,0.50932 0.18147,1.40229 0.25461,1.98437 0.25114,1.99876 0.39622,2.91465 0.7963,5.02708 0.5261,2.77782 0.56282,2.95836 0.90141,4.43178 0.15885,0.69122 0.39909,1.76278 0.53387,2.38125 0.13479,0.61846 0.38727,1.48166 0.56106,1.91822 0.1738,0.43657 0.35184,1.07208 0.39564,1.41226 0.1147,0.89067 3.5842,10.41845 3.96587,10.89087 0.17635,0.21828 0.52409,1.02195 0.77277,1.78594 0.24867,0.76398 0.54278,1.38906 0.65357,1.38906 0.11079,0 0.34412,0.47625 0.51852,1.05833 0.1744,0.58209 0.42191,1.05834 0.55002,1.05834 0.12812,0 0.3111,0.35582 0.40662,0.79071 0.0955,0.4349 0.27056,0.8506 0.38899,0.92379 0.11842,0.0732 0.53821,0.75061 0.93287,1.50537 1.02001,1.95073 1.30383,2.45059 1.47685,2.60096 0.0837,0.0728 0.38138,0.54683 0.66146,1.05349 0.28008,0.50666 0.6283,1.0584 0.77382,1.22609 0.22457,0.25878 1.04114,1.50497 2.57802,3.9344 0.18282,0.28899 0.54076,0.71968 0.79542,0.95708 0.25466,0.2374 0.46302,0.5665 0.46302,0.73133 0,0.16483 0.11907,0.29969 0.26459,0.29969 0.14552,0 0.26458,0.15231 0.26458,0.33847 0,0.18616 0.23812,0.5101 0.52917,0.71987 0.29104,0.20977 0.52916,0.50742 0.52916,0.66145 0,0.15404 0.23813,0.45169 0.52917,0.66146 0.29104,0.20977 0.52917,0.47016 0.52917,0.57864 0,0.17445 1.09838,1.47646 2.44739,2.90113 0.25466,0.26894 0.46302,0.5445 0.46302,0.61235 0,0.1968 6.97181,7.06703 8.10274,7.9847 0.56396,0.45761 1.35894,1.14222 1.76662,1.52135 0.40768,0.37913 0.79328,0.68933 0.85688,0.68933 0.12623,0 1.0103,0.69387 1.68557,1.32292 0.23432,0.21828 1.07963,0.87108 1.87847,1.45067 0.79884,0.57959 1.49212,1.14514 1.54063,1.25677 0.0485,0.11164 0.24694,0.20298 0.44097,0.20298 0.19403,0 0.39246,0.0915 0.44097,0.20322 0.0485,0.11177 0.74304,0.61388 1.5434,1.11579 0.80037,0.50192 1.51474,0.97602 1.5875,1.05355 0.0728,0.0775 0.40019,0.28981 0.72761,0.47171 0.32742,0.1819 0.8632,0.47955 1.19062,0.66146 0.32742,0.1819 0.65485,0.39026 0.72761,0.46302 0.33931,0.33931 4.70772,2.68447 7.40833,3.97712 1.23693,0.59206 2.70669,1.30864 3.26615,1.59239 0.55945,0.28374 1.16217,0.5159 1.33937,0.5159 0.17719,0 0.81503,0.23813 1.41742,0.52917 0.60239,0.29104 1.19749,0.52917 1.32244,0.52917 0.12496,0 0.99392,0.30561 1.93101,0.67913 0.9371,0.37352 1.88241,0.72166 2.10069,0.77365 0.21828,0.052 0.90455,0.27747 1.52504,0.50106 0.62049,0.22359 1.18479,0.41449 1.25399,0.42421 0.0692,0.01 0.27591,0.0658 0.45934,0.12464 0.47906,0.15366 5.78935,1.45941 6.41892,1.57836 0.29105,0.055 1.42214,0.28377 2.51355,0.50841 1.0914,0.22464 2.52015,0.47251 3.175,0.55082 0.65484,0.0783 2.14312,0.26766 3.30729,0.42077 1.16416,0.15312 3.1287,0.34656 4.36562,0.42987 1.23693,0.0833 2.28127,0.18089 2.32076,0.21683 0.12943,0.11782 11.00191,-0.0768 12.6282,-0.22605 z"
       id="path16" /></g></svg>
