<?xml version="1.0" encoding="UTF-8" standalone="no"?>
<!-- Created with Inkscape (http://www.inkscape.org/) -->

<svg
   width="1920"
   height="1920"
   viewBox="0 0 507.99999 508"
   version="1.1"
   id="svg1"
   xml:space="preserve"
   xmlns="http://www.w3.org/2000/svg"
   xmlns:svg="http://www.w3.org/2000/svg"><defs
     id="defs1" /><g
     id="layer1"><path
       style="fill:#ffffff;fill-opacity:1"
       d="m 209.81612,454.26052 c -0.94504,-0.25249 -1.76096,-0.41638 -1.81314,-0.36419 -0.0522,0.0522 -0.41007,-0.0309 -0.79529,-0.1847 -0.38522,-0.15377 -0.93852,-0.31353 -1.22957,-0.35502 -0.29104,-0.0415 -1.48166,-0.33906 -2.64583,-0.66126 -1.16417,-0.3222 -2.36178,-0.6181 -2.66138,-0.65756 -0.29959,-0.0395 -1.13302,-0.25437 -1.85208,-0.47757 -0.71905,-0.2232 -2.37893,-0.72742 -3.68862,-1.12048 -3.49487,-1.04887 -19.51248,-6.76669 -19.97604,-7.13086 -0.21828,-0.17148 -1.17078,-0.58797 -2.11667,-0.92555 -0.94589,-0.33757 -1.89839,-0.75803 -2.11667,-0.93435 -0.21828,-0.17632 -1.02195,-0.52404 -1.78593,-0.77271 -0.76399,-0.24867 -1.38907,-0.56162 -1.38907,-0.69545 0,-0.13383 -0.13942,-0.24332 -0.30982,-0.24332 -0.30526,0 -3.41497,-1.38899 -4.18809,-1.87067 -0.21828,-0.13599 -0.69453,-0.36957 -1.05834,-0.51906 -2.19171,-0.90061 -5.95241,-3.11677 -5.88906,-3.4704 0.0352,-0.19667 4.22218,-11.78758 9.30434,-25.75758 8.50965,-23.39161 9.20741,-25.43661 8.82462,-25.86302 -0.22861,-0.25466 -0.5758,-0.46302 -0.77153,-0.46302 -0.19573,0 -0.35587,-0.10616 -0.35587,-0.2359 0,-0.12975 -0.29765,-0.31061 -0.66146,-0.40192 -0.3638,-0.0913 -0.66145,-0.28281 -0.66145,-0.42555 0,-0.14275 -0.16868,-0.25955 -0.37483,-0.25955 -0.20615,0 -0.41451,-0.0893 -0.46302,-0.19843 -0.0485,-0.10914 -1.09932,-0.85329 -2.33514,-1.65365 -2.20804,-1.43002 -2.89136,-1.92179 -3.58451,-2.57969 -0.19165,-0.1819 -0.44974,-0.33073 -0.57353,-0.33073 -0.12379,0 -0.3967,-0.23812 -0.60647,-0.52916 -0.20977,-0.29105 -0.50395,-0.52932 -0.65373,-0.52949 -0.14977,-1.8e-4 -0.58386,-0.26807 -0.96463,-0.59532 -0.38077,-0.32724 -1.08125,-0.89264 -1.55662,-1.25644 -0.47537,-0.36381 -1.07069,-0.84006 -1.32294,-1.05834 -0.25225,-0.21828 -0.84756,-0.69453 -1.32292,-1.05833 -0.47536,-0.3638 -1.08404,-0.85185 -1.35263,-1.08456 -2.20773,-1.91273 -3.60621,-3.16418 -4.47966,-4.00867 -0.56442,-0.5457 -1.08252,-0.99219 -1.15134,-0.99219 -0.29252,0 -10.21428,-10.18593 -10.21428,-10.48624 0,-0.0918 -0.41672,-0.55992 -0.92605,-1.04027 -0.50932,-0.48035 -0.92604,-0.94658 -0.92604,-1.03606 0,-0.0895 -0.29765,-0.43855 -0.66146,-0.77571 -0.3638,-0.33716 -0.66145,-0.73827 -0.66145,-0.89136 0,-0.15309 -0.10228,-0.31803 -0.22728,-0.36654 -0.28784,-0.11169 -2.50567,-2.8118 -3.87563,-4.7184 -0.57509,-0.80036 -1.16712,-1.5999 -1.31563,-1.77676 -0.1485,-0.17685 -0.41883,-0.49924 -0.60073,-0.71643 -0.18191,-0.21719 -0.33073,-0.51898 -0.33073,-0.67064 0,-0.15167 -0.11907,-0.27575 -0.26459,-0.27575 -0.14552,0 -0.26458,-0.12426 -0.26458,-0.27613 0,-0.15188 -0.29766,-0.59714 -0.66146,-0.98949 -0.3638,-0.39234 -0.66146,-0.8634 -0.66146,-1.04678 0,-0.18339 -0.11906,-0.33344 -0.26458,-0.33344 -0.14552,0 -0.26458,-0.12756 -0.26458,-0.28348 0,-0.15591 -0.14883,-0.44944 -0.33073,-0.65228 -0.70698,-0.78834 -0.99219,-1.16445 -0.99219,-1.30841 0,-0.12868 -1.45754,-2.39097 -2.04962,-3.18128 -0.10963,-0.14635 -0.48535,-0.80119 -0.83491,-1.45521 -0.34957,-0.65402 -0.7522,-1.33928 -0.89474,-1.5228 -0.33243,-0.42802 -1.10647,-1.79009 -1.68983,-2.97362 -0.25105,-0.50932 -0.53009,-0.98557 -0.62009,-1.05833 -0.09,-0.0728 -0.46706,-0.72761 -0.8379,-1.45521 -0.37083,-0.72761 -0.85864,-1.68011 -1.08401,-2.11667 -0.57796,-1.11954 -3.794,-7.97564 -4.90667,-10.46022 -0.29552,-0.65989 -0.61268,-1.49333 -0.7048,-1.85208 -0.0921,-0.35876 -0.33189,-0.87374 -0.53281,-1.14441 -0.34927,-0.47052 -0.4677,-0.47401 -2.69612,-0.0795 -1.89709,0.33581 -9.11694,1.63334 -11.988083,2.15446 -0.363802,0.066 -1.123031,0.19314 -1.687174,0.28247 -0.564144,0.0893 -1.278519,0.21241 -1.5875,0.27352 -0.308982,0.0611 -1.633347,0.29252 -2.943035,0.51427 -1.309687,0.22174 -2.619375,0.51051 -2.910416,0.6417 -0.291042,0.13118 -2.374636,0.55873 -4.630209,0.95011 -2.255573,0.39137 -6.660885,1.15945 -9.789583,1.70684 -3.128698,0.54739 -7.921935,1.38583 -10.651639,1.8632 -2.729703,0.47737 -5.017075,0.81396 -5.083048,0.74799 -0.131757,-0.13176 -2.750713,-8.36737 -2.906709,-9.14049 -0.197964,-0.9811 -1.250864,-5.01818 -1.608995,-6.16927 -0.203737,-0.65484 -0.433727,-1.56801 -0.51109,-2.02926 -0.07736,-0.46125 -0.315347,-1.53281 -0.528855,-2.38125 -0.213507,-0.84844 -0.458178,-1.95933 -0.543711,-2.46865 -0.08553,-0.50933 -0.261462,-1.4023 -0.390953,-1.98438 -0.129491,-0.58208 -0.298471,-1.41552 -0.375512,-1.85208 -0.124088,-0.70316 -0.518695,-2.7258 -0.825902,-4.23334 -0.05931,-0.29104 -0.175842,-1.00541 -0.258963,-1.5875 -0.08312,-0.58208 -0.21204,-1.41552 -0.286489,-1.85208 -0.07445,-0.43656 -0.174255,-1.15094 -0.221791,-1.5875 -0.127027,-1.16658 -0.42031,-3.342 -0.552888,-4.10104 -0.12586,-0.72058 -0.344672,-2.6857 -0.503672,-4.52343 -0.211003,-2.43878 -0.43941,-4.90862 -0.548178,-5.92761 -0.06213,-0.58209 -0.188666,-2.84427 -0.281189,-5.02709 -0.09252,-2.18281 -0.217534,-4.04981 -0.277802,-4.1489 -0.162806,-0.26766 0.186666,-0.41972 1.370443,-0.59628 0.584834,-0.0872 1.311372,-0.20636 1.614528,-0.26474 0.303156,-0.0584 0.953233,-0.17353 1.444616,-0.25588 1.767851,-0.29627 6.728151,-1.19561 7.375716,-1.33727 0.881841,-0.19291 4.860945,-0.86941 6.34441,-1.07862 0.651769,-0.0919 1.25535,-0.21059 1.341292,-0.26371 0.08594,-0.0531 0.7433,-0.17188 1.460798,-0.26392 0.717498,-0.0921 2.137979,-0.33133 3.156625,-0.53174 1.018645,-0.20041 2.983177,-0.55506 4.365625,-0.78811 1.382448,-0.23305 3.346979,-0.58859 4.365625,-0.79009 1.018645,-0.2015 2.268802,-0.42792 2.778125,-0.50314 1.456854,-0.21518 2.927033,-0.45554 3.539257,-0.57864 0.308981,-0.0621 2.645378,-0.47852 5.191993,-0.92532 5.777919,-1.01371 6.127203,-1.07584 6.614583,-1.17651 0.21828,-0.0451 0.97256,-0.16746 1.67618,-0.27194 0.70361,-0.10448 1.32209,-0.3221 1.37439,-0.48361 0.0523,-0.16151 0.16327,-1.84147 0.24661,-3.73324 0.17995,-4.08498 0.36676,-6.33978 0.78927,-9.52689 0.058,-0.4376 0.18174,-1.3901 0.27495,-2.11667 0.21715,-1.6927 0.28359,-2.14726 0.50243,-3.43769 0.0987,-0.58209 0.23107,-1.41552 0.29412,-1.85208 0.0631,-0.43657 0.36222,-2.04391 0.66482,-3.57188 0.3026,-1.52797 0.59633,-3.01625 0.65273,-3.30729 0.49223,-2.5402 0.68475,-3.38452 0.82253,-3.60746 0.0881,-0.14258 0.19426,-0.52032 0.23586,-0.83943 0.0416,-0.31911 0.34491,-1.5327 0.67402,-2.69686 0.3291,-1.16417 0.75988,-2.71198 0.95729,-3.43959 0.34549,-1.27335 0.95712,-3.15999 2.95924,-9.12812 0.51259,-1.52797 1.02253,-2.83983 1.1332,-2.91525 0.11068,-0.0754 0.61769,-1.28764 1.12671,-2.69382 0.50902,-1.40618 1.09696,-2.83275 1.30653,-3.17016 0.20957,-0.33742 0.59838,-1.23856 0.86402,-2.00254 0.26563,-0.76399 0.57851,-1.38906 0.69528,-1.38906 0.11678,0 0.21232,-0.13155 0.21232,-0.29234 0,-0.34009 2.69196,-5.85985 2.95559,-6.06031 0.0976,-0.0742 0.25962,-0.4623 0.36003,-0.8624 0.10042,-0.4001 0.2958,-0.79743 0.43418,-0.88295 0.13837,-0.0855 0.36533,-0.41181 0.50435,-0.7251 0.13902,-0.31329 0.61195,-1.16492 1.05095,-1.89253 0.439,-0.7276 0.94057,-1.62057 1.11459,-1.98437 0.17403,-0.36381 0.38734,-0.72099 0.47402,-0.79375 0.0867,-0.0728 0.38676,-0.54683 0.66684,-1.05349 0.28008,-0.50666 0.65807,-1.08071 0.83997,-1.27567 0.1819,-0.19496 0.33073,-0.52456 0.33073,-0.73245 0,-0.20789 0.10616,-0.37798 0.2359,-0.37798 0.12975,0 0.31061,-0.29765 0.40192,-0.66145 0.0913,-0.36381 0.28281,-0.66146 0.42555,-0.66146 0.14275,0 0.25955,-0.1786 0.25955,-0.39688 0,-0.21828 0.0941,-0.39687 0.209,-0.39687 0.11495,0 0.55668,-0.59532 0.98162,-1.32292 0.42495,-0.7276 0.86668,-1.32292 0.98163,-1.32292 0.11495,0 0.209,-0.17859 0.209,-0.39687 0,-0.21828 0.11906,-0.39688 0.26458,-0.39688 0.14552,0 0.26458,-0.13164 0.26458,-0.29253 0,-0.1609 0.26789,-0.62218 0.59532,-1.02508 0.32742,-0.4029 0.83343,-1.06482 1.12447,-1.47093 0.29105,-0.40612 0.678,-0.88883 0.8599,-1.07269 0.1819,-0.18387 0.33073,-0.40098 0.33073,-0.48247 0,-0.14774 0.62934,-0.959 1.25677,-1.62005 0.1819,-0.19165 0.33073,-0.43228 0.33073,-0.53475 0,-0.10247 0.22738,-0.38351 0.50529,-0.62454 0.49081,-0.42567 0.47101,-0.47963 -0.69116,-1.88311 -0.65805,-0.79469 -1.59077,-1.89657 -2.07271,-2.44863 -0.48194,-0.55205 -1.21272,-1.43304 -1.62394,-1.95775 -0.41123,-0.52471 -0.93107,-1.14459 -1.1552,-1.37751 -0.41951,-0.43596 -2.6872,-3.1106 -3.58474,-4.22805 -0.27812,-0.34626 -0.74379,-0.90363 -1.03483,-1.2386 -0.29104,-0.33496 -0.88636,-1.04748 -1.32292,-1.58336 -0.43656,-0.53587 -0.9913,-1.20465 -1.23274,-1.48616 -0.24145,-0.28152 -0.83676,-1.00194 -1.32292,-1.60094 -0.48616,-0.599 -1.005,-1.21833 -1.15298,-1.37628 -0.14798,-0.15796 -1.21753,-1.41829 -2.37678,-2.80073 -1.15924,-1.38245 -2.22879,-2.65033 -2.37677,-2.81752 -0.14798,-0.16718 -0.62625,-0.7516 -1.06281,-1.29872 -0.78942,-0.98932 -1.06931,-1.31167 -2.71198,-3.12337 -0.47294,-0.5216 -0.85989,-1.02024 -0.85989,-1.10807 0,-0.0878 -0.32743,-0.49604 -0.72761,-0.90713 -0.40018,-0.41109 -1.08479,-1.18939 -1.52135,-1.72955 -0.43656,-0.54015 -0.9913,-1.21243 -1.23275,-1.49394 -0.24144,-0.28152 -0.81487,-0.973 -1.27428,-1.53663 -0.45942,-0.56364 -1.1336,-1.36156 -1.49818,-1.77316 -0.36459,-0.4116 -0.98179,-1.16116 -1.37155,-1.66568 -0.38976,-0.50453 -0.88725,-1.11171 -1.10553,-1.3493 -0.70685,-0.76938 -1.32292,-1.57227 -1.32292,-1.72406 0,-0.0815 0.14883,-0.30183 0.33073,-0.48964 0.1819,-0.18781 1.2237,-1.31771 2.3151,-2.51089 3.11751,-3.40821 10.49409,-10.66062 12.8035,-12.58797 0.69747,-0.58208 1.72408,-1.50482 2.28136,-2.05052 0.55728,-0.545702 1.07799,-0.992187 1.15715,-0.992187 0.0791,0 0.49052,-0.327422 0.91415,-0.727604 0.42362,-0.400182 1.21455,-1.084792 1.75761,-1.521354 0.54307,-0.436562 1.25672,-1.031875 1.5859,-1.322917 0.66282,-0.586019 1.04101,-0.891567 2.78367,-2.248958 0.65388,-0.509323 1.36786,-1.070674 1.58662,-1.247446 0.70321,-0.568231 2.45672,-1.87451 4.76338,-3.548479 1.23692,-0.897652 2.28864,-1.733603 2.33715,-1.857668 0.0485,-0.124066 0.25687,-0.225574 0.46302,-0.225574 0.20615,0 0.37483,-0.119062 0.37483,-0.264583 0,-0.145521 0.15004,-0.264583 0.33343,-0.264583 0.18339,0 0.65444,-0.297657 1.04679,-0.661459 0.39234,-0.363802 0.78971,-0.661458 0.88305,-0.661458 0.0933,0 1.09892,-0.654844 2.23464,-1.455208 1.13572,-0.800365 2.19565,-1.455209 2.35539,-1.455209 0.15975,0 0.29045,-0.111039 0.29045,-0.246753 0,-0.135715 0.26789,-0.330356 0.59531,-0.432536 0.32742,-0.10218 0.65484,-0.261782 0.7276,-0.35467 0.55161,-0.704206 2.38125,-1.378119 2.38125,-0.877089 0,0.11309 0.32743,0.570912 0.72761,1.017383 0.40018,0.44647 1.08479,1.255537 1.52135,1.797926 0.43656,0.542388 0.97235,1.198632 1.19063,1.458319 0.84038,0.999788 2.80217,3.290276 3.30729,3.861416 0.29104,0.329083 0.84629,0.998074 1.2339,1.486648 0.3876,0.488573 0.96036,1.185971 1.2728,1.549773 0.31244,0.363802 0.76922,0.902292 1.01506,1.196644 0.99122,1.1868 3.37404,3.980578 3.62199,4.24666 0.14552,0.156161 0.62177,0.740608 1.05833,1.298771 0.43656,0.558162 1.03188,1.284212 1.32292,1.613444 0.94595,1.070071 1.83611,2.134641 2.64583,3.164221 0.43656,0.5551 0.91483,1.13704 1.06281,1.29321 0.14798,0.15616 1.21753,1.41502 2.37677,2.79747 1.15925,1.38244 2.2288,2.64277 2.37678,2.80073 0.14798,0.15795 0.68578,0.80103 1.1951,1.42905 0.50932,0.62803 1.34276,1.61698 1.85208,2.19767 1.7133,1.95337 1.8956,2.16865 2.60256,3.0734 0.38761,0.49604 0.94286,1.17247 1.2339,1.50318 0.29104,0.3307 0.88636,1.03972 1.32292,1.5756 1.84778,2.26815 1.48445,2.14847 3.36309,1.10776 1.74264,-0.96537 12.48949,-6.02868 13.00683,-6.12808 0.16436,-0.0316 0.77508,-0.26509 1.35716,-0.51891 1.52368,-0.66441 11.26334,-4.15253 12.03854,-4.31143 0.0728,-0.0149 0.66808,-0.17884 1.32292,-0.36428 0.65484,-0.18544 1.30969,-0.36244 1.45521,-0.39333 0.14552,-0.0309 0.91943,-0.2529 1.71979,-0.49336 0.80036,-0.24046 1.87193,-0.50456 2.38125,-0.58689 0.50932,-0.0823 1.02372,-0.20966 1.1431,-0.28295 0.11939,-0.0733 1.01236,-0.30594 1.98438,-0.51702 0.97202,-0.21107 1.99868,-0.43458 2.28146,-0.49669 2.33054,-0.51188 5.83421,-1.20192 6.60139,-1.30015 0.51524,-0.066 1.62533,-0.23745 2.46688,-0.38108 0.84154,-0.14363 2.00633,-0.32229 2.58841,-0.39703 0.58209,-0.0747 1.47506,-0.19423 1.98438,-0.26553 0.50932,-0.0713 1.75948,-0.20403 2.77812,-0.29497 1.01865,-0.0909 2.20928,-0.211 2.64584,-0.26678 5.54888,-0.70905 21.68302,-0.55606 28.21032,0.26749 0.63714,0.0804 1.69421,0.20794 2.34905,0.28343 0.65485,0.0755 1.66688,0.20457 2.24896,0.28681 1.11623,0.15772 1.99624,0.17442 2.11562,0.0401 0.0549,-0.0618 17.27753,-47.253862 18.44263,-50.535135 0.22018,-0.620093 0.3368,-0.681356 0.89384,-0.469569 0.35234,0.13396 0.64062,0.189926 0.64062,0.124369 0,-0.06556 0.31764,0.0016 0.70588,0.149179 0.38823,0.147605 1.01331,0.307128 1.38906,0.354494 0.62326,0.07857 1.41404,0.259593 5.84256,1.337488 2.31369,0.563148 5.40027,1.419925 6.17097,1.712943 0.38951,0.148091 0.7082,0.219766 0.7082,0.159276 0,-0.06049 0.8632,0.189235 1.91823,0.554943 1.05502,0.365708 2.16727,0.697361 2.47165,0.737006 0.73159,0.09529 17.66444,6.256242 17.83512,6.489241 0.0728,0.09933 0.90619,0.459988 1.85208,0.801463 0.94589,0.341475 1.89839,0.765125 2.11667,0.941443 0.21828,0.176319 1.02195,0.524039 1.78593,0.772711 0.76399,0.248673 1.38907,0.561626 1.38907,0.695452 0,0.133825 0.16415,0.243319 0.36477,0.243319 0.37326,0 9.44782,4.480428 10.28471,5.077916 0.25466,0.181813 0.46216,0.453113 0.46111,0.602889 -10e-4,0.149776 -4.16002,11.689888 -9.24216,25.644694 l -9.24025,25.372368 0.57705,0.48185 c 0.31738,0.26501 0.72589,0.48581 0.90779,0.49065 0.1819,0.005 0.33073,0.12559 0.33073,0.26834 0,0.14275 0.29765,0.33425 0.66145,0.42556 0.36381,0.0913 0.66146,0.27217 0.66146,0.40192 0,0.12974 0.1786,0.2359 0.39688,0.2359 0.21828,0 0.39687,0.0941 0.39687,0.209 0,0.11495 0.59532,0.55668 1.32292,0.98162 0.7276,0.42495 1.32292,0.86668 1.32292,0.98163 0,0.11495 0.11878,0.209 0.26397,0.209 0.34887,0 3.33937,2.12413 4.37686,3.10885 0.19165,0.1819 0.42499,0.33073 0.51854,0.33073 0.0935,0 0.32133,0.14883 0.50617,0.33073 0.18484,0.1819 0.73097,0.62838 1.21362,0.99219 0.48266,0.3638 1.02879,0.81028 1.21363,0.99218 0.18484,0.18191 0.40275,0.33073 0.48424,0.33073 0.0815,0 0.39768,0.20836 0.70264,0.46302 0.30496,0.25467 0.77065,0.64162 1.03486,0.8599 1.39366,1.15138 3.07462,2.58972 3.71058,3.175 0.3953,0.3638 1.58536,1.43536 2.64457,2.38125 2.34924,2.09787 10.84698,10.73911 10.84698,11.03014 0,0.0677 0.32743,0.45492 0.72761,0.86051 0.40018,0.4056 1.04473,1.14058 1.43233,1.6333 0.38761,0.49271 0.96037,1.1935 1.27281,1.5573 0.31244,0.3638 0.77488,0.90254 1.02765,1.19719 0.25276,0.29465 0.98969,1.24715 1.63761,2.11666 0.64792,0.86952 1.2971,1.71011 1.44262,1.86799 0.14552,0.15788 0.50271,0.61756 0.79375,1.02151 0.29104,0.40395 0.67799,0.89135 0.85989,1.08311 0.18191,0.19176 0.33073,0.45378 0.33073,0.58225 0,0.12848 0.22375,0.47375 0.49721,0.76729 0.27347,0.29353 0.82705,1.06012 1.23018,1.70353 0.40313,0.64342 0.80707,1.22938 0.89764,1.30214 0.28613,0.22986 2.94233,4.40744 3.36457,5.29166 0.10423,0.21828 0.26913,0.45641 0.36645,0.52917 0.51279,0.38342 5.79158,10.32895 7.79403,14.68437 1.27118,2.7649 2.46162,5.32474 2.64542,5.68855 0.1838,0.3638 0.48254,1.12221 0.66387,1.68536 0.32598,1.0124 0.34198,1.02213 1.42318,0.86581 0.60142,-0.087 1.39115,-0.21828 1.75495,-0.29184 1.51334,-0.30598 2.03711,-0.39789 3.0533,-0.53578 0.58791,-0.0798 1.36182,-0.20741 1.7198,-0.28365 0.82163,-0.17497 4.59453,-0.8739 5.77762,-1.0703 0.49138,-0.0816 1.14623,-0.19764 1.45521,-0.25791 0.97117,-0.18946 3.42857,-0.60713 4.53053,-0.77002 2.09196,-0.30924 2.9127,-0.45373 3.0483,-0.53665 0.0758,-0.0464 0.67115,-0.15738 1.32292,-0.24668 0.65177,-0.0893 1.54222,-0.2384 1.97878,-0.33134 0.43656,-0.0929 0.97235,-0.19368 1.19063,-0.22386 0.21828,-0.0302 0.75406,-0.12492 1.19062,-0.21053 1.33533,-0.26187 8.40833,-1.50136 9.39271,-1.646 0.87192,-0.12812 1.30627,-0.20537 2.91042,-0.51763 0.52989,-0.10315 8.35913,-1.48262 12.03854,-2.12112 0.43656,-0.0758 0.93632,-0.1877 1.11057,-0.24875 0.18497,-0.0648 0.52982,0.46142 0.82862,1.26442 0.62398,1.6769 2.12944,6.4567 2.27545,7.22451 0.0583,0.30658 0.36656,1.43231 0.68502,2.50163 0.31845,1.06931 0.63278,2.24723 0.69851,2.61758 0.0657,0.37036 0.29849,1.29329 0.51726,2.05097 0.21876,0.75768 0.44934,1.65065 0.5124,1.98438 0.0631,0.33372 0.17518,0.87466 0.24914,1.20208 0.074,0.32743 0.18901,0.84295 0.25566,1.14562 0.0666,0.30267 0.18143,0.74915 0.25508,0.99219 0.0737,0.24303 0.2029,0.84858 0.28721,1.34566 0.0843,0.49707 0.19783,0.97584 0.25227,1.06392 0.0544,0.0881 0.18087,0.69341 0.28096,1.34518 0.20382,1.32715 0.33172,1.97879 0.38842,1.97879 0.021,0 0.0896,0.41672 0.1526,0.92604 0.063,0.50932 0.24999,1.58089 0.41558,2.38125 0.16558,0.80036 0.33069,1.8124 0.36691,2.24896 0.0362,0.43656 0.0875,0.79375 0.11397,0.79375 0.0265,0 0.0941,0.35719 0.1503,0.79375 0.17403,1.35195 0.38952,2.88045 0.50356,3.57187 0.06,0.36381 0.17793,1.25677 0.26206,1.98438 0.0841,0.7276 0.20634,1.62057 0.27158,1.98437 0.0652,0.36381 0.18508,1.43537 0.26629,2.38125 0.0812,0.94589 0.21026,2.37464 0.28677,3.175 0.0765,0.80037 0.18909,1.99099 0.25017,2.64584 0.0611,0.65484 0.19064,3.12539 0.28791,5.4901 0.16785,4.0807 0.1517,4.30051 -0.31746,4.31972 -0.27187,0.0111 -0.67291,0.0572 -0.89119,0.10231 -0.21828,0.0451 -0.81359,0.15379 -1.32291,0.24145 -0.50933,0.0877 -3.00964,0.52274 -5.55625,0.96685 -2.54662,0.44411 -4.92787,0.85791 -5.29167,0.91957 -0.3638,0.0617 -0.95911,0.17684 -1.32292,0.25597 -0.76065,0.16545 -9.78945,1.71913 -10.98021,1.88949 -0.43656,0.0625 -1.27,0.22652 -1.85208,0.36458 -0.58208,0.13807 -2.84427,0.55247 -5.02708,0.92088 -2.18281,0.36842 -4.22155,0.71937 -4.53054,0.7799 -0.30898,0.0605 -0.99359,0.17932 -1.52135,0.26399 -0.52776,0.0847 -1.39138,0.22321 -1.91914,0.30788 -0.52776,0.0847 -1.21237,0.20308 -1.52135,0.26314 -0.30899,0.0601 -2.22866,0.40716 -4.26596,0.77131 -2.03729,0.36415 -4.00182,0.72606 -4.36562,0.80424 -0.3638,0.0782 -1.22701,0.21418 -1.91823,0.30223 l -1.25677,0.16009 -0.0223,1.74909 c -0.0229,1.79435 -0.0639,2.4911 -0.37593,6.37929 -0.26699,3.32739 -0.32383,3.94554 -0.52308,5.68854 -0.17323,1.51544 -0.23448,1.98785 -0.5317,4.10104 -0.0716,0.50933 -0.49245,2.89058 -0.93514,5.29167 -0.44269,2.40109 -0.85571,4.67306 -0.91782,5.04881 -0.0621,0.37575 -0.22905,0.98859 -0.37097,1.36186 -0.14191,0.37327 -0.20276,0.73393 -0.13522,0.80147 0.0675,0.0675 -0.014,0.46674 -0.18108,0.8871 -0.16713,0.42037 -0.33782,1.00243 -0.37932,1.29347 -0.0415,0.29104 -0.34167,1.48166 -0.66708,2.64583 -0.3254,1.16417 -0.75315,2.71198 -0.95056,3.43958 -0.33869,1.24832 -0.71192,2.40206 -2.95286,9.12813 -0.50908,1.52797 -1.06663,2.95672 -1.23899,3.175 -0.17237,0.21828 -0.64908,1.34937 -1.05936,2.51354 -0.41027,1.16417 -1.02536,2.6515 -1.36685,3.30519 -0.3415,0.65368 -0.62091,1.29251 -0.62091,1.41961 0,0.1271 -1.10132,2.42434 -2.44739,5.10498 -3.07495,6.12365 -3.15718,6.28184 -3.34838,6.4421 -0.0868,0.0728 -0.43011,0.66807 -0.76288,1.32291 -0.73336,1.44316 -1.14027,2.11066 -1.57728,2.58742 -0.18191,0.19844 -0.33073,0.53089 -0.33073,0.73877 0,0.20789 -0.10518,0.37798 -0.23373,0.37798 -0.12855,0 -0.30368,0.20836 -0.38919,0.46302 -0.1687,0.50241 -0.73354,1.4411 -0.99507,1.65365 -0.0895,0.0728 -0.24638,0.40018 -0.34856,0.7276 -0.10218,0.32742 -0.29682,0.59531 -0.43253,0.59531 -0.13572,0 -0.24676,0.16868 -0.24676,0.37483 0,0.20615 -0.0893,0.41451 -0.19843,0.46302 -0.10914,0.0485 -0.85329,1.09932 -1.65365,2.33514 -1.43002,2.20804 -1.92179,2.89136 -2.57969,3.58451 -0.1819,0.19165 -0.33073,0.44974 -0.33073,0.57353 0,0.12379 -0.23812,0.3967 -0.52916,0.60647 -0.29105,0.20977 -0.53134,0.50395 -0.53399,0.65373 -0.004,0.25056 -0.53057,0.95813 -2.02214,2.7194 -0.54173,0.63969 -0.57486,1.38937 -0.0614,1.38937 0.12995,0 0.23628,0.13518 0.23628,0.30039 0,0.16522 0.27071,0.55217 0.60159,0.8599 0.33087,0.30773 0.77736,0.8078 0.99218,1.11127 0.34435,0.48642 2.30661,2.84172 3.04091,3.64999 0.14798,0.16289 1.21954,1.42699 2.38125,2.80911 2.68335,3.19248 2.88741,3.4342 3.57424,4.23393 0.31244,0.3638 0.8852,1.05964 1.2728,1.54631 0.38761,0.48668 1.03216,1.25226 1.43234,1.7013 0.40018,0.44905 0.7276,0.91406 0.7276,1.03337 0,0.11931 0.13498,0.21693 0.29995,0.21693 0.30903,0 1.06197,0.77547 2.29868,2.36745 0.38977,0.50172 0.9891,1.2161 1.33185,1.5875 0.34276,0.37139 0.9976,1.13793 1.45521,1.7034 0.45761,0.56548 1.07015,1.30144 1.36119,1.63547 0.29104,0.33403 0.88635,1.04577 1.32291,1.58165 0.43657,0.53588 0.9913,1.20465 1.23275,1.48617 0.24145,0.28151 0.83676,1.00193 1.32292,1.60093 0.48615,0.599 1.00298,1.21833 1.1485,1.37628 0.14552,0.15796 0.91943,1.0611 1.71979,2.00699 0.80037,0.94588 1.57427,1.84902 1.71979,2.00698 0.14553,0.15795 0.66235,0.77728 1.14851,1.37628 0.48616,0.599 1.08147,1.31942 1.32292,1.60094 0.24144,0.28151 0.79618,0.95073 1.23274,1.48715 0.43656,0.53643 0.99616,1.21618 1.24356,1.51056 0.42677,0.50783 0.41999,0.56609 -0.1323,1.13762 -0.32015,0.33131 -1.23694,1.35071 -2.0373,2.26534 -0.80036,0.91462 -2.6756,2.89477 -4.16719,4.40033 -1.49159,1.50556 -2.71198,2.85664 -2.71198,3.00239 0,0.42634 -4.07845,4.29785 -4.29716,4.07913 -0.0619,-0.0619 -0.60004,0.33387 -1.19576,0.8796 -0.59572,0.54572 -1.69933,1.528 -2.45245,2.18284 -0.75313,0.65485 -1.69584,1.48828 -2.09492,1.85209 -0.39908,0.3638 -1.21455,1.05922 -1.81216,1.54538 -0.59761,0.48616 -1.32182,1.08147 -1.60935,1.32291 -0.89423,0.75092 -2.21295,1.81307 -4.0007,3.22231 -0.94588,0.74562 -1.92951,1.52573 -2.18583,1.73358 -0.25633,0.20784 -0.57383,0.3779 -0.70556,0.3779 -0.13173,0 -0.2792,0.0983 -0.3277,0.21852 -0.0912,0.22585 -3.72109,2.89261 -6.96737,5.11862 -1.01864,0.6985 -2.5487,1.74792 -3.40012,2.33205 -0.85143,0.58413 -1.6551,1.06206 -1.78594,1.06206 -0.13084,0 -0.23789,0.11906 -0.23789,0.26458 0,0.14552 -0.12194,0.26459 -0.27096,0.26459 -0.14903,0 -0.87677,0.41672 -1.61719,0.92604 -1.28267,0.88231 -2.07564,1.15906 -2.08483,0.7276 -0.002,-0.10914 -0.32975,-0.57578 -0.7276,-1.03698 -0.39786,-0.4612 -1.08057,-1.28375 -1.51713,-1.82789 -0.43656,-0.54414 -1.03188,-1.2552 -1.32292,-1.58014 -0.29104,-0.32495 -0.88635,-1.03032 -1.32292,-1.56751 -1.06408,-1.30935 -2.55442,-3.0603 -3.0427,-3.57479 -0.21828,-0.22999 -0.75095,-0.89049 -1.18369,-1.46777 -0.71936,-0.95962 -1.88663,-2.32677 -2.71892,-3.18451 -0.1819,-0.18746 -0.33073,-0.40477 -0.33073,-0.48291 0,-0.0781 -0.32742,-0.48867 -0.7276,-0.9123 -0.40018,-0.42362 -1.08479,-1.21455 -1.52136,-1.75761 -0.43656,-0.54307 -1.03187,-1.25323 -1.32291,-1.57815 -0.29104,-0.32491 -0.88636,-1.04743 -1.32292,-1.60559 -0.43656,-0.55816 -0.91594,-1.14261 -1.06529,-1.29877 -0.14935,-0.15616 -1.51544,-1.77221 -3.03575,-3.59122 -1.52031,-1.81901 -2.8864,-3.43506 -3.03575,-3.59122 -0.14935,-0.15617 -0.62873,-0.73811 -1.06529,-1.29321 -1.16451,-1.4807 -2.02405,-2.48571 -2.84427,-3.32562 -0.40018,-0.4098 -0.72761,-0.86338 -0.72761,-1.00797 0,-0.14459 -0.0893,-0.30257 -0.19843,-0.35108 -0.16943,-0.0753 -1.62095,-1.73125 -3.63803,-4.15039 -0.29104,-0.34905 -0.90625,-1.06372 -1.36715,-1.58815 l -0.83798,-0.95351 -1.14639,0.62779 c -1.62074,0.88755 -2.13577,1.1435 -5.11514,2.54199 -6.31717,2.96522 -8.23313,3.83095 -8.47831,3.83095 -0.0951,0 -0.54815,0.17342 -1.00671,0.38538 -1.0547,0.48752 -3.81799,1.50722 -4.00526,1.47802 -0.0777,-0.0121 -0.46748,0.14543 -0.86614,0.35011 -0.7045,0.3617 -6.36252,2.28329 -7.01441,2.38224 -0.17875,0.0271 -0.44407,0.12129 -0.58959,0.20922 -0.14552,0.0879 -0.6813,0.25646 -1.19062,0.3745 -1.31425,0.30458 -1.31597,0.30503 -1.38907,0.36395 -0.0364,0.0293 -0.24474,0.0895 -0.46302,0.13381 -0.21828,0.0443 -1.0237,0.26739 -1.78983,0.49582 -0.76612,0.22843 -1.45073,0.42122 -1.52135,0.42843 -0.0706,0.007 -0.15817,0.023 -0.19455,0.0351 -0.0364,0.0121 -0.30427,0.0612 -0.59531,0.10899 -0.29104,0.0478 -1.5412,0.34819 -2.77812,0.66748 -1.23693,0.31929 -2.48709,0.61692 -2.77813,0.66139 -0.29104,0.0445 -1.42213,0.26416 -2.51354,0.4882 -1.09141,0.22404 -2.46539,0.4747 -3.0533,0.55703 -0.58791,0.0823 -1.35705,0.20517 -1.7092,0.27299 -1.07537,0.2071 -2.72872,0.44556 -3.70417,0.53425 -0.50932,0.0463 -1.28323,0.14524 -1.71979,0.21984 -0.74449,0.12722 -2.76774,0.3538 -5.26411,0.58951 -4.84485,0.45747 -15.62455,0.60176 -21.32651,0.28547 -4.48642,-0.24886 -5.5401,-0.34195 -9.26042,-0.81807 -0.50932,-0.0652 -1.46182,-0.18451 -2.11667,-0.26516 -0.65484,-0.0807 -1.54781,-0.19511 -1.98437,-0.25434 l -0.79375,-0.10769 -4.0349,11.15872 c -2.21919,6.1373 -4.03489,11.3207 -4.03489,11.51867 0,0.25589 -8.47352,23.84505 -10.24658,28.52512 -0.16048,0.42359 -1.39443,0.34678 -3.51022,-0.21851 z m 49.39431,-104.5989 c 2.00921,-0.0921 4.06983,-0.21858 4.57915,-0.28106 0.50933,-0.0625 1.46183,-0.17925 2.11667,-0.25949 0.65484,-0.0802 1.48828,-0.19755 1.85208,-0.26068 0.36381,-0.0631 1.24851,-0.18616 1.966,-0.27338 0.7175,-0.0872 1.38236,-0.20667 1.47748,-0.26546 0.0951,-0.0588 0.5201,-0.16853 0.94441,-0.24388 1.11475,-0.19797 3.30983,-0.63772 4.07878,-0.81713 0.3638,-0.0849 0.93222,-0.21061 1.26316,-0.2794 0.33094,-0.0688 1.58109,-0.43461 2.77813,-0.81296 1.19703,-0.37834 2.3218,-0.70939 2.49949,-0.73566 0.17769,-0.0263 0.40589,-0.13058 0.50712,-0.23181 0.10122,-0.10122 0.45483,-0.18404 0.78579,-0.18404 0.33096,0 0.67533,-0.11907 0.76527,-0.26459 0.0899,-0.14552 0.44712,-0.26458 0.79375,-0.26458 0.34662,0 0.70381,-0.11906 0.79375,-0.26458 0.0899,-0.14552 0.33638,-0.26459 0.54766,-0.26459 0.21128,0 0.88887,-0.22403 1.50574,-0.49784 0.61688,-0.27382 1.53832,-0.65101 2.04764,-0.8382 2.80287,-1.03015 11.1295,-5.15141 11.33299,-5.60927 0.0485,-0.10914 0.24836,-0.19844 0.44412,-0.19844 0.19576,0 0.51786,-0.14882 0.71578,-0.33073 0.19793,-0.1819 0.62315,-0.47955 0.94495,-0.66145 0.32179,-0.18191 0.8448,-0.47956 1.16224,-0.66146 0.75981,-0.43539 6.92521,-4.72102 7.09575,-4.93233 0.0728,-0.0901 0.60854,-0.51611 1.19063,-0.94657 0.58208,-0.43046 1.19058,-0.90603 1.35222,-1.05682 0.16163,-0.1508 0.73881,-0.63137 1.28262,-1.06793 0.5438,-0.43656 1.85603,-1.62719 2.91607,-2.64583 1.06003,-1.01865 2.44739,-2.34552 3.083,-2.9486 1.4662,-1.39114 4.72755,-4.87993 4.72755,-5.05723 0,-0.0738 0.21125,-0.32675 0.46945,-0.5621 0.25819,-0.23535 1.2107,-1.3804 2.11669,-2.54457 0.90598,-1.16417 1.88376,-2.41432 2.17283,-2.77813 0.28908,-0.3638 0.52719,-0.784 0.52914,-0.93377 0.002,-0.14978 0.24168,-0.44396 0.53272,-0.65373 0.29104,-0.20977 0.52917,-0.53371 0.52917,-0.71986 0,-0.18616 0.092,-0.33847 0.20441,-0.33847 0.11243,0 0.43871,-0.44648 0.72507,-0.99219 0.28636,-0.5457 0.5903,-1.05172 0.67541,-1.12448 0.0851,-0.0728 0.38391,-0.54683 0.66399,-1.05348 0.28008,-0.50666 0.65807,-1.08071 0.83997,-1.27567 0.1819,-0.19496 0.33073,-0.52457 0.33073,-0.73245 0,-0.20789 0.11906,-0.37798 0.26458,-0.37798 0.14552,0 0.26459,-0.17009 0.26459,-0.37798 0,-0.20788 0.14918,-0.5353 0.33151,-0.7276 0.18234,-0.1923 0.66608,-1.00447 1.07498,-1.80484 0.40891,-0.80036 0.84956,-1.6338 0.97924,-1.85208 0.52359,-0.88133 1.8476,-3.84897 1.8476,-4.1412 0,-0.17194 0.11249,-0.35231 0.24997,-0.40081 0.29175,-0.10294 4.53336,-11.64844 4.67188,-12.71669 0.0515,-0.39723 0.27641,-1.15965 0.49979,-1.69427 0.22338,-0.53462 0.35265,-1.02552 0.28727,-1.0909 -0.0654,-0.0654 0.002,-0.43405 0.14866,-0.81927 0.14714,-0.38522 0.30828,-0.99806 0.35809,-1.36186 0.0498,-0.3638 0.233,-1.25677 0.40709,-1.98438 0.17408,-0.7276 0.35658,-1.56104 0.40554,-1.85208 0.049,-0.29104 0.16161,-0.94588 0.25033,-1.45521 0.1964,-1.1276 0.34378,-2.13552 0.54165,-3.70416 0.0826,-0.65485 0.19768,-1.48828 0.25574,-1.85209 0.61222,-3.83638 0.62309,-15.96094 0.0181,-20.24062 -0.0617,-0.43656 -0.18704,-1.50813 -0.27851,-2.38125 -0.24339,-2.32323 -0.47581,-3.68783 -1.34827,-7.91599 -0.35789,-1.73441 -0.90232,-3.9966 -1.20984,-5.02708 -0.30752,-1.03048 -0.59512,-2.05219 -0.63912,-2.27047 -0.044,-0.21828 -0.0982,-0.39688 -0.12049,-0.39688 -0.0223,0 -0.0817,-0.21766 -0.13216,-0.48368 -0.0504,-0.26603 -0.17826,-0.68274 -0.28409,-0.92604 -0.10583,-0.2433 -0.23747,-0.67794 -0.29253,-0.96587 -0.0551,-0.28793 -0.21577,-0.63916 -0.35713,-0.78052 -0.14135,-0.14136 -0.25701,-0.52383 -0.25701,-0.84994 0,-0.32611 -0.11906,-0.66651 -0.26458,-0.75645 -0.14552,-0.0899 -0.26459,-0.32055 -0.26459,-0.51247 0,-0.19192 -0.19964,-0.80997 -0.44365,-1.37345 -0.24401,-0.56347 -0.47296,-1.18257 -0.50877,-1.37577 -0.0358,-0.19321 -0.26681,-0.78852 -0.51333,-1.32292 -0.24652,-0.5344 -0.77763,-1.68601 -1.18026,-2.55914 -1.56364,-3.39087 -2.67387,-5.60952 -3.44239,-6.87917 -0.44041,-0.7276 -0.91729,-1.56104 -1.05971,-1.85208 -0.14243,-0.29104 -0.40807,-0.76087 -0.59032,-1.04406 -0.18225,-0.2832 -0.85341,-1.35476 -1.49147,-2.38125 -0.63807,-1.0265 -1.26314,-1.90604 -1.38907,-1.95455 -0.12592,-0.0485 -0.22894,-0.20528 -0.22894,-0.34838 0,-0.29151 -1.34514,-2.16034 -1.65365,-2.29745 -0.10914,-0.0485 -0.19844,-0.25687 -0.19844,-0.46302 0,-0.20616 -0.10935,-0.37483 -0.243,-0.37483 -0.13365,0 -0.48618,-0.38695 -0.78339,-0.8599 -0.29721,-0.47294 -0.81294,-1.17872 -1.14606,-1.5684 -0.33312,-0.38967 -0.96286,-1.15003 -1.39942,-1.68969 -0.43656,-0.53965 -1.12117,-1.31299 -1.52136,-1.71854 -0.40018,-0.40554 -0.7276,-0.82066 -0.7276,-0.92249 0,-0.10182 -1.59208,-1.74809 -3.53795,-3.65837 -4.06256,-3.98825 -4.8754,-4.7373 -6.50968,-5.99881 -0.65125,-0.5027 -1.31701,-1.03307 -1.47946,-1.17859 -0.16245,-0.14552 -0.69026,-0.56224 -1.17291,-0.92604 -0.48265,-0.36381 -1.00752,-0.78308 -1.16638,-0.93173 -0.15885,-0.14865 -1.12227,-0.85584 -2.14091,-1.57154 -1.01865,-0.71569 -1.91162,-1.36797 -1.98438,-1.44951 -0.0728,-0.0815 -0.57877,-0.37537 -1.12448,-0.65295 -0.5457,-0.27758 -0.99218,-0.605 -0.99218,-0.7276 0,-0.12261 -0.11728,-0.22292 -0.26061,-0.22292 -0.29177,0 -2.97126,-1.58665 -3.18163,-1.88398 -0.0742,-0.10491 -0.46117,-0.27261 -0.85989,-0.37269 -0.39873,-0.10007 -0.72652,-0.25834 -0.72844,-0.3517 -0.002,-0.0934 -0.77575,-0.52695 -1.71963,-0.96351 -0.94389,-0.43656 -1.71623,-0.88305 -1.71631,-0.99219 -9e-5,-0.10914 -0.15358,-0.19843 -0.34109,-0.19843 -0.18751,0 -0.81259,-0.24596 -1.38906,-0.54658 -0.57648,-0.30062 -1.70298,-0.79526 -2.50334,-1.0992 -0.80037,-0.30394 -1.69334,-0.70514 -1.98438,-0.89154 -0.68117,-0.43627 -7.08467,-2.75435 -7.60866,-2.75435 -0.21897,0 -1.17254,-0.29149 -2.11903,-0.64775 -0.9465,-0.35626 -1.77925,-0.5894 -1.85056,-0.51809 -0.0713,0.0713 -0.591,-0.0444 -1.15487,-0.25725 -0.88689,-0.33469 -1.5802,-0.50436 -3.53875,-0.86602 -0.21828,-0.0403 -1.64703,-0.31337 -3.175,-0.60682 -1.52797,-0.29344 -3.43297,-0.60534 -4.23334,-0.69311 -0.80036,-0.0878 -1.81239,-0.20869 -2.24896,-0.26871 -5.20758,-0.71605 -15.93764,-0.64335 -21.96041,0.14878 -1.16417,0.15311 -2.65245,0.34246 -3.30729,0.42077 -0.65485,0.0783 -2.0836,0.32618 -3.175,0.55082 -1.09141,0.22464 -2.2225,0.45343 -2.51355,0.50841 -0.71388,0.13488 -5.98418,1.4379 -6.48229,1.60267 -0.21828,0.0722 -0.42498,0.1283 -0.45933,0.12465 -0.0344,-0.004 -0.57014,0.1763 -1.19063,0.39989 -0.62049,0.22359 -1.30676,0.44907 -1.52504,0.50106 -0.21828,0.052 -1.16359,0.40013 -2.10069,0.77365 -0.93709,0.37352 -1.80605,0.67913 -1.93101,0.67913 -0.12495,0 -0.72005,0.23813 -1.32244,0.52917 -0.60239,0.29104 -1.24023,0.52917 -1.41742,0.52917 -0.1772,0 -0.77992,0.23216 -1.33937,0.5159 -0.55946,0.28375 -2.02922,1.00033 -3.26615,1.59239 -2.70061,1.29265 -7.06902,3.63781 -7.40833,3.97712 -0.0728,0.0728 -0.40019,0.28112 -0.72761,0.46302 -0.32742,0.18191 -0.8632,0.47956 -1.19062,0.66146 -0.32742,0.1819 -0.65485,0.39417 -0.72761,0.47171 -0.0728,0.0775 -0.78713,0.55163 -1.5875,1.05355 -0.80036,0.50191 -1.49489,1.00402 -1.5434,1.11579 -0.0485,0.11177 -0.24694,0.20322 -0.44097,0.20322 -0.19403,0 -0.39247,0.0913 -0.44097,0.20298 -0.0485,0.11163 -0.74179,0.67718 -1.54063,1.25677 -0.79884,0.57959 -1.64415,1.23239 -1.87847,1.45067 -0.67527,0.62905 -1.55934,1.32292 -1.68557,1.32292 -0.0636,0 -0.4492,0.3102 -0.85688,0.68933 -0.40768,0.37913 -1.20266,1.06374 -1.76662,1.52135 -1.13093,0.91767 -8.10274,7.7879 -8.10274,7.9847 0,0.0678 -0.20836,0.34341 -0.46302,0.61235 -1.34901,1.42467 -2.44739,2.72668 -2.44739,2.90113 0,0.10848 -0.23813,0.36887 -0.52917,0.57864 -0.29104,0.20977 -0.52917,0.50742 -0.52917,0.66146 0,0.15403 -0.23812,0.45168 -0.52916,0.66145 -0.29105,0.20977 -0.52917,0.53371 -0.52917,0.71987 0,0.18616 -0.11906,0.33847 -0.26458,0.33847 -0.14552,0 -0.26459,0.13486 -0.26459,0.29969 0,0.16483 -0.20836,0.49393 -0.46302,0.73133 -0.25466,0.2374 -0.6126,0.66809 -0.79542,0.95708 -1.53688,2.42943 -2.35345,3.67562 -2.57802,3.9344 -0.14552,0.16769 -0.49374,0.71943 -0.77382,1.22609 -0.28008,0.50666 -0.57774,0.98073 -0.66146,1.05349 -0.17302,0.15037 -0.45684,0.65023 -1.47685,2.60096 -0.39466,0.75476 -0.81445,1.43217 -0.93287,1.50537 -0.11843,0.0732 -0.29348,0.48889 -0.38899,0.92379 -0.0955,0.43489 -0.2785,0.79071 -0.40662,0.79071 -0.12811,0 -0.37562,0.47625 -0.55002,1.05834 -0.1744,0.58208 -0.40773,1.05833 -0.51852,1.05833 -0.11079,0 -0.4049,0.62508 -0.65357,1.38906 -0.24868,0.76399 -0.59642,1.56766 -0.77277,1.78594 -0.38167,0.47242 -3.85117,10.0002 -3.96587,10.89087 -0.0438,0.34018 -0.22184,0.97569 -0.39564,1.41225 -0.17379,0.43657 -0.42627,1.29977 -0.56106,1.91823 -0.13478,0.61847 -0.37502,1.69003 -0.53387,2.38125 -0.33859,1.47342 -0.37531,1.65396 -0.90141,4.43178 -0.40008,2.11243 -0.54516,3.02832 -0.7963,5.02708 -0.0731,0.58208 -0.18771,1.47505 -0.25461,1.98437 -0.24689,1.87958 -0.51956,7.89517 -0.49172,10.84792 0.0475,5.03361 0.48153,10.20633 1.18782,14.15521 0.15616,0.87312 0.32401,1.88515 0.37298,2.24896 0.049,0.3638 0.13501,0.84005 0.19119,1.05833 0.0562,0.21828 0.19081,0.87312 0.29919,1.45521 0.10839,0.58208 0.30182,1.41552 0.42985,1.85208 0.12803,0.43656 0.28364,1.09141 0.34581,1.45521 0.0622,0.3638 0.25883,1.19724 0.43703,1.85208 0.17819,0.65485 0.34644,1.33601 0.37389,1.5137 0.0275,0.17769 0.13273,0.40589 0.23396,0.50712 0.10123,0.10122 0.18405,0.44201 0.18405,0.75731 0,0.31529 0.0828,0.65608 0.18404,0.75731 0.10123,0.10123 0.20716,0.32943 0.23541,0.50712 0.0283,0.17769 0.36949,1.21604 0.75832,2.30744 0.38883,1.09141 0.88986,2.52016 1.1134,3.175 0.22354,0.65485 0.51385,1.30374 0.64513,1.44198 0.13128,0.13825 0.2387,0.45442 0.2387,0.7026 0,0.24819 0.2303,0.90899 0.51179,1.46844 0.28149,0.55946 1.07188,2.20782 1.75643,3.66302 0.68454,1.45521 1.32073,2.70537 1.41373,2.77813 0.093,0.0728 0.39227,0.63831 0.66501,1.25677 0.27275,0.61846 0.57466,1.12448 0.67092,1.12448 0.0963,0 0.33852,0.41672 0.53837,0.92604 0.19984,0.50932 0.43796,0.92604 0.52916,0.92604 0.0912,0 0.32933,0.41672 0.52917,0.92604 0.19984,0.50933 0.4463,0.92605 0.54769,0.92605 0.10139,0 0.2543,0.20836 0.33981,0.46302 0.20878,0.6218 0.93726,1.72815 1.69219,2.56997 0.1819,0.20284 0.33073,0.49636 0.33073,0.65227 0,0.15592 0.11906,0.28349 0.26458,0.28349 0.14552,0 0.26458,0.15004 0.26458,0.33343 0,0.18339 0.29766,0.65444 0.66146,1.04679 0.3638,0.39234 0.66146,0.83761 0.66146,0.98948 0,0.15187 0.11906,0.27613 0.26458,0.27613 0.14552,0 0.26459,0.1177 0.26459,0.26156 0,0.14386 0.20836,0.51107 0.46302,0.81603 0.84267,1.00911 1.24735,1.49802 2.18281,2.63717 1.87921,2.28838 3.12089,3.62994 6.48229,7.00374 3.75812,3.77197 5.18174,5.02963 9.22473,8.14936 1.47484,1.13804 2.89124,2.23989 3.14757,2.44857 0.25632,0.20867 0.58374,0.3794 0.7276,0.3794 0.14386,0 0.26156,0.11907 0.26156,0.26459 0,0.14552 0.17859,0.26458 0.39687,0.26458 0.21829,0 0.39688,0.11104 0.39688,0.24675 0,0.13572 0.25874,0.32888 0.57497,0.42925 0.31624,0.10037 0.81988,0.41065 1.11922,0.68952 0.29933,0.27887 0.8145,0.57487 1.14482,0.65778 0.33031,0.0829 0.60057,0.22981 0.60057,0.32647 0,0.0967 0.44649,0.41002 0.99219,0.69638 0.5457,0.28636 1.05172,0.58776 1.12448,0.66978 0.31381,0.35374 7.67123,4.05017 9.15386,4.59898 0.71345,0.26409 1.56119,0.6446 1.88387,0.84558 0.69366,0.43204 7.15641,2.81437 7.78483,2.86969 0.23871,0.021 1.31027,0.31154 2.38125,0.64562 3.07239,0.95839 3.67794,1.12942 4.28685,1.21076 0.31394,0.0419 1.16611,0.22236 1.89371,0.40094 1.34492,0.33008 1.66491,0.3924 3.3073,0.64408 0.50932,0.0781 1.22369,0.20564 1.5875,0.28354 0.3638,0.0779 1.1377,0.19934 1.71979,0.26988 0.58208,0.0705 1.47505,0.19127 1.98437,0.2683 1.44237,0.21815 3.50108,0.36135 7.80521,0.54292 2.18281,0.0921 4.00165,0.19686 4.04185,0.23283 0.0402,0.036 0.36083,0.0338 0.71251,-0.005 0.35168,-0.0386 2.28332,-0.14555 4.29253,-0.23765 z"
       id="path16" /></g></svg>
