<?xml version="1.0" encoding="UTF-8" standalone="no"?>
<svg
   height="128px"
   viewBox="0 0 128 128"
   width="128px"
   version="1.1"
   id="svg58"
   sodipodi:docname="logo-main-nightly.svg"
   inkscape:version="1.2.2 (b0a8486541, 2022-12-01)"
   xmlns:inkscape="http://www.inkscape.org/namespaces/inkscape"
   xmlns:sodipodi="http://sodipodi.sourceforge.net/DTD/sodipodi-0.dtd"
   xmlns="http://www.w3.org/2000/svg"
   xmlns:svg="http://www.w3.org/2000/svg">
  <defs
     id="defs62" />
  <sodipodi:namedview
     id="namedview60"
     pagecolor="#ffffff"
     bordercolor="#000000"
     borderopacity="0.25"
     inkscape:showpageshadow="2"
     inkscape:pageopacity="0.0"
     inkscape:pagecheckerboard="0"
     inkscape:deskcolor="#d1d1d1"
     showgrid="false"
     inkscape:zoom="6.1328125"
     inkscape:cx="64.326115"
     inkscape:cy="64.326115"
     inkscape:window-width="1920"
     inkscape:window-height="1011"
     inkscape:window-x="0"
     inkscape:window-y="0"
     inkscape:window-maximized="1"
     inkscape:current-layer="svg58" />
  <filter
     id="a"
     height="1"
     width="1"
     x="0"
     y="0">
    <feColorMatrix
       color-interpolation-filters="sRGB"
       values="0 0 0 0 1 0 0 0 0 1 0 0 0 0 1 0 0 0 1 0"
       id="feColorMatrix2" />
  </filter>
  <clipPath
     id="b">
    <rect
       height="128"
       width="128"
       id="rect5" />
  </clipPath>
  <clipPath
     id="c">
    <rect
       height="128"
       width="128"
       id="rect8" />
  </clipPath>
  <mask
     id="d">
    <g
       filter="url(#a)"
       id="g21">
      <g
         clip-path="url(#c)"
         filter="url(#a)"
         id="g19">
        <g
           clip-path="url(#b)"
           id="g17">
          <path
             d="m 27.769531 3.996094 h 72.460938 c 13.128906 0 23.773437 10.644531 23.773437 23.773437 v 72.460938 c 0 13.128906 -10.644531 23.773437 -23.773437 23.773437 h -72.460938 c -13.128906 0 -23.773437 -10.644531 -23.773437 -23.773437 v -72.460938 c 0 -13.128906 10.644531 -23.773437 23.773437 -23.773437 z m 0 0"
             fill="#ffffff"
             id="path11" />
          <path
             d="m 18.15625 88.414062 v -17.980468 h 13.503906 v 23.3125 h 23.6875 v 12.648437 h -37.191406 z m 78.351562 17.375 c -0.339843 -0.332031 -1.953124 -1.917968 -3.589843 -3.527343 c -1.636719 -1.605469 -7.558594 -7.414063 -13.15625 -12.910157 c -12.804688 -12.5625 -12.199219 -11.964843 -12.183594 -12.042968 c 0.015625 -0.058594 2.65625 -2.765625 8.015625 -8.214844 l 1.554688 -1.582031 l 0.367187 0.347656 c 0.378906 0.355469 7.742187 7.578125 10.722656 10.515625 c 0.921875 0.90625 1.699219 1.648438 1.726563 1.648438 c 0.074218 0 1.078125 -1.34375 1.628906 -2.175782 c 5.328125 -8.074218 5.988281 -18.441406 1.722656 -27.089844 c -1.03125 -2.082031 -2.160156 -3.824218 -3.660156 -5.621093 c -0.660156 -0.792969 -2.429688 -2.5625 -3.222656 -3.226563 c -3.429688 -2.855468 -7.28125 -4.777344 -11.53125 -5.753906 c -0.863282 -0.199219 -1.992188 -0.394531 -3.101563 -0.542969 c -0.683593 -0.089843 -2.125 -0.097656 -27.183593 -0.109375 l -26.460938 -0.015625 v -13.882812 l 26.621094 0.019531 c 29.101562 0.015625 26.835937 -0.007812 29.222656 0.308594 c 8.214844 1.078125 15.671875 4.476562 22 10.011718 c 0.828125 0.726563 2.789062 2.691407 3.515625 3.515626 c 5.40625 6.179687 8.78125 13.472656 9.933594 21.480468 c 0.328125 2.292969 0.425781 3.914063 0.386719 6.496094 c -0.03125 1.988281 -0.097657 3 -0.304688 4.582031 c -1.03125 7.816407 -4.195312 15.058594 -9.230469 21.101563 c -0.257812 0.3125 -0.46875 0.582031 -0.46875 0.601562 c 0 0.019532 1.554688 1.558594 3.457031 3.425782 c 1.902344 1.867187 3.453126 3.425781 3.445313 3.460937 c -0.019531 0.070313 -9.53125 9.785156 -9.582031 9.78125 c -0.015625 0 -0.304688 -0.269531 -0.644532 -0.601563 z m -54.769531 -33.75 v -11.683593 h -23.582031 v -12.648438 h 37.191406 v 36.015625 h -13.609375 z m 0 0"
             fill="#0090ff"
             id="path13" />
          <path
             d="m 115.914062 73.609375 h 4.101563 c 0.023437 0 0.039063 0.015625 0.039063 0.039063 c 0 0.023437 -0.015626 0.042968 -0.039063 0.042968 h -4.101563 c -0.023437 0 -0.039062 -0.019531 -0.039062 -0.042968 c 0 -0.023438 0.015625 -0.039063 0.039062 -0.039063 z m 0 0"
             fill="#ffffff"
             id="path15" />
        </g>
      </g>
    </g>
  </mask>
  <mask
     id="e">
    <g
       filter="url(#a)"
       id="g26">
      <rect
         fill-opacity="0.8"
         height="184.32"
         width="184.32"
         x="-28.16"
         y="-28.16"
         id="rect24" />
    </g>
  </mask>
  <linearGradient
     id="f"
     gradientTransform="matrix(0 0.37 -0.98462 0 295.38501 -30.360001)"
     gradientUnits="userSpaceOnUse"
     x1="300"
     x2="428"
     y1="235"
     y2="235">
    <stop
       offset="0"
       stop-color="#f9f06b"
       id="stop29" />
    <stop
       offset="1"
       stop-color="#f5c211"
       id="stop31" />
  </linearGradient>
  <clipPath
     id="g">
    <rect
       height="128"
       width="128"
       id="rect34" />
  </clipPath>
  <clipPath
     id="h">
    <rect
       height="128"
       width="128"
       id="rect37" />
  </clipPath>
  <path
     d="m 27.769531 3.996094 h 72.460938 c 13.128906 0 23.773437 10.644531 23.773437 23.773437 v 72.460938 c 0 13.128906 -10.644531 23.773437 -23.773437 23.773437 h -72.460938 c -13.128906 0 -23.773437 -10.644531 -23.773437 -23.773437 v -72.460938 c 0 -13.128906 10.644531 -23.773437 23.773437 -23.773437 z m 0 0"
     fill="#ffffff"
     id="path40" />
  <path
     d="M 18.156101,88.414063 V 70.433595 h 13.503905 v 23.3125 h 23.6875 V 106.39453 H 18.156101 Z m 78.351561,17.374997 c -0.339843,-0.33203 -1.953124,-1.91797 -3.589843,-3.52734 C 91.2811,100.65625 85.359225,94.847657 79.761569,89.351563 66.956881,76.789063 67.56235,77.38672 67.577975,77.308595 c 0.01563,-0.05859 2.65625,-2.765625 8.015625,-8.214844 l 1.554688,-1.582031 0.367187,0.347656 c 0.378906,0.355469 7.742187,7.578125 10.722656,10.515625 0.921875,0.90625 1.699219,1.648438 1.726563,1.648438 0.07422,0 1.078125,-1.34375 1.628906,-2.175782 5.328125,-8.074218 5.988281,-18.441406 1.722656,-27.089844 -1.03125,-2.082031 -2.160156,-3.824218 -3.660156,-5.621093 -0.660156,-0.792969 -2.429688,-2.5625 -3.222656,-3.226563 -3.429688,-2.855468 -7.28125,-4.777344 -11.53125,-5.753906 -0.863282,-0.199219 -1.992188,-0.394531 -3.101563,-0.542969 -0.683593,-0.08984 -2.125,-0.09766 -27.183593,-0.109375 L 18.156101,35.488282 V 21.605469 l 26.621093,0.01953 c 29.101562,0.01563 26.835937,-0.0078 29.222656,0.308594 8.214844,1.078125 15.671875,4.476562 22,10.011719 0.828125,0.726563 2.789062,2.691407 3.515625,3.515626 5.406245,6.179687 8.781245,13.472656 9.933595,21.480468 0.32812,2.292969 0.42578,3.914063 0.38671,6.496094 -0.0312,1.988281 -0.0977,3 -0.30468,4.582031 -1.03125,7.816407 -4.19531,15.058594 -9.23047,21.101563 -0.25781,0.3125 -0.468749,0.582031 -0.468749,0.601562 0,0.01953 1.554689,1.558594 3.457029,3.425782 1.90234,1.867187 3.45312,3.425781 3.44531,3.460937 -0.0195,0.07031 -9.531245,9.785155 -9.582026,9.781245 -0.01563,0 -0.304688,-0.26953 -0.644532,-0.60156 z M 41.738131,72.039063 V 60.35547 H 18.156101 V 47.707032 H 55.347506 V 83.722657 H 41.738131 Z m 0,0"
     fill="#0090ff"
     id="path42" />
  <path
     d="m 115.914062 73.609375 h 4.101563 c 0.023437 0 0.039063 0.015625 0.039063 0.039063 c 0 0.023437 -0.015626 0.042968 -0.039063 0.042968 h -4.101563 c -0.023437 0 -0.039062 -0.019531 -0.039062 -0.042968 c 0 -0.023438 0.015625 -0.039063 0.039062 -0.039063 z m 0 0"
     fill="#ffffff"
     id="path44" />
  <g
     mask="url(#d)"
     id="g56">
    <g
       clip-path="url(#h)"
       id="g54">
      <g
         mask="url(#e)"
         id="g52">
        <g
           clip-path="url(#g)"
           id="g50">
          <path
             d="m 128 80.640625 v 47.359375 h -128 v -47.359375 z m 0 0"
             fill="url(#f)"
             id="path46" />
          <path
             d="m 13.308594 80.640625 l 47.355468 47.359375 h 21.214844 l -47.359375 -47.359375 z m 42.421875 0 l 47.363281 47.359375 h 21.214844 l -47.363282 -47.359375 z m 42.429687 0 l 29.839844 29.839844 v -21.210938 l -8.628906 -8.628906 z m -98.160156 7.90625 v 21.214844 l 18.238281 18.238281 h 21.214844 z m 0 0"
             id="path48" />
        </g>
      </g>
    </g>
  </g>
</svg>
