<?xml version="1.0" encoding="UTF-8" standalone="no"?>
<!-- Created with Inkscape (http://www.inkscape.org/) -->

<svg
   width="33.866661mm"
   height="33.866669mm"
   viewBox="0 0 33.866661 33.866669"
   version="1.1"
   id="svg3164"
   sodipodi:docname="logo.svg"
   inkscape:version="1.2.2 (b0a8486541, 2022-12-01)"
   xmlns:inkscape="http://www.inkscape.org/namespaces/inkscape"
   xmlns:sodipodi="http://sodipodi.sourceforge.net/DTD/sodipodi-0.dtd"
   xmlns="http://www.w3.org/2000/svg"
   xmlns:svg="http://www.w3.org/2000/svg">
  <sodipodi:namedview
     id="namedview7"
     pagecolor="#ffffff"
     bordercolor="#000000"
     borderopacity="0.25"
     inkscape:showpageshadow="2"
     inkscape:pageopacity="0.0"
     inkscape:pagecheckerboard="0"
     inkscape:deskcolor="#d1d1d1"
     inkscape:document-units="mm"
     showgrid="false"
     inkscape:zoom="4.336553"
     inkscape:cx="60.762545"
     inkscape:cy="69.986461"
     inkscape:window-width="1920"
     inkscape:window-height="1011"
     inkscape:window-x="0"
     inkscape:window-y="0"
     inkscape:window-maximized="1"
     inkscape:current-layer="layer1" />
  <defs
     id="defs3161" />
  <g
     id="layer1"
     transform="translate(-88.246287,-131.945)">
    <rect
       style="display:inline;fill:#ffffff;stroke-width:0.305287;enable-background:new"
       id="rect1646"
       width="31.751726"
       height="31.751245"
       x="89.303757"
       y="133.00272"
       ry="6.2953353" />
    <path
       style="display:inline;fill:#0090ff;fill-opacity:1;stroke-width:0.0595823;enable-background:new"
       d="m 93.049951,155.33742 v -4.75731 h 1.786649 1.786647 v 3.0841 3.0841 h 3.13373 3.133723 v 1.67321 1.67321 h -4.920375 -4.920374 z m 20.730799,4.59732 c -0.0897,-0.0878 -0.5172,-0.50746 -0.95004,-0.93253 -0.43284,-0.42507 -1.99935,-1.96241 -3.48113,-3.41632 -3.3872,-3.32348 -3.22747,-3.16554 -3.22277,-3.18658 0.003,-0.0155 0.70203,-0.73168 2.12027,-2.17369 l 0.4114,-0.4183 0.0974,0.092 c 0.10016,0.0946 2.04822,2.00525 2.83725,2.78271 0.2435,0.23992 0.44896,0.43622 0.45657,0.43622 0.0192,0 0.28508,-0.35587 0.43053,-0.57625 1.40975,-2.13597 1.58414,-4.87923 0.4556,-7.1669 -0.27221,-0.55181 -0.57161,-1.01206 -0.96785,-1.48787 -0.1747,-0.20978 -0.64324,-0.67832 -0.85302,-0.85302 -0.9077,-0.75591 -1.92675,-1.26467 -3.05047,-1.52292 -0.22889,-0.0526 -0.52747,-0.10488 -0.8206,-0.14369 -0.18127,-0.024 -0.56299,-0.0256 -7.19269,-0.0292 l -7.001249,-0.004 v -1.83633 -1.83633 l 7.043789,0.004 c 7.69944,0.005 7.09991,-0.002 7.73152,0.0816 2.17319,0.28604 4.14711,1.18458 5.82079,2.64967 0.219,0.19171 0.73857,0.71129 0.93028,0.93029 1.43082,1.63452 2.32339,3.56441 2.62831,5.68285 0.0873,0.6066 0.11289,1.0358 0.10245,1.71898 -0.008,0.52568 -0.026,0.79349 -0.0811,1.21237 -0.27221,2.06816 -1.10988,3.98378 -2.44153,5.5834 -0.0685,0.0823 -0.12457,0.15362 -0.12457,0.1585 0,0.005 0.41189,0.41304 0.9153,0.90702 0.50342,0.49398 0.91339,0.90597 0.91105,0.91554 -0.004,0.0183 -2.52163,2.58836 -2.5348,2.58809 -0.004,-6e-5 -0.081,-0.072 -0.1707,-0.15983 z m -14.491707,-8.92923 v -3.09119 h -3.119546 -3.119546 v -1.67321 -1.67321 h 4.920374 4.920375 v 4.7644 4.76439 h -1.80083 -1.800827 z"
       id="path2-3-2" />
  </g>
</svg>
