<?xml version="1.0" encoding="UTF-8" standalone="no"?>
<!-- Created with Inkscape (http://www.inkscape.org/) -->

<svg
   width="1920"
   height="1920"
   viewBox="0 0 507.99999 508"
   version="1.1"
   id="svg1"
   xml:space="preserve"
   xmlns="http://www.w3.org/2000/svg"
   xmlns:svg="http://www.w3.org/2000/svg"><defs
     id="defs1" /><g
     id="layer1"><path
       style="fill:#ffffff;fill-opacity:1"
       d="m 246.72396,428.36778 c -23.96953,-1.51789 -46.01946,-10.18513 -65.21754,-25.6353 -2.85886,-2.30074 -10.52962,-9.70918 -13.32462,-12.86894 l -1.87231,-2.11667 -27.39381,-0.13433 -27.3938,-0.13433 -2.64584,-0.72454 c -5.42961,-1.48686 -9.900795,-4.18089 -14.074063,-8.48008 -4.050113,-4.17232 -5.904225,-7.32572 -7.66191,-13.03108 -0.692562,-2.24802 -0.729668,-2.63795 -0.741331,-7.79043 -0.01162,-5.1334 0.02682,-5.56385 0.71753,-8.0355 1.567521,-5.60923 3.934457,-9.44187 8.632204,-13.97761 3.495873,-3.37531 6.05043,-5.05434 9.88856,-6.49941 4.89052,-1.84131 5.60774,-1.9072 20.80174,-1.91108 l 13.59399,-0.003 -0.15451,-1.25677 c -0.085,-0.69122 -0.23355,-2.22516 -0.33015,-3.40875 -0.0966,-1.18359 -0.27611,-2.31468 -0.39892,-2.51354 -0.18351,-0.29718 -3.22883,-0.38648 -17.10029,-0.50146 l -16.87701,-0.13989 -2.64584,-0.71898 c -5.412586,-1.47082 -9.896142,-4.17054 -14.074063,-8.47452 -4.050113,-4.17232 -5.904225,-7.32572 -7.66191,-13.03108 -0.692562,-2.24802 -0.729668,-2.63795 -0.741331,-7.79043 -0.01162,-5.1334 0.02682,-5.56385 0.71753,-8.0355 1.567521,-5.60923 3.934457,-9.44187 8.632204,-13.97761 3.495873,-3.37531 6.050432,-5.05434 9.88856,-6.49941 4.99305,-1.87991 5.32524,-1.9072 23.2623,-1.91108 14.23923,-0.003 16.10155,-0.0505 16.47031,-0.41925 0.3393,-0.3393 0.41503,-1.10578 0.41173,-4.16719 -0.002,-2.06328 -0.0948,-3.89422 -0.20578,-4.06876 -0.15142,-0.23819 -3.63116,-0.33922 -13.95272,-0.4051 l -13.75099,-0.0878 -2.64584,-0.71835 c -5.41067,-1.46901 -9.895613,-4.16936 -14.074063,-8.47389 -4.050113,-4.17232 -5.904225,-7.32572 -7.66191,-13.03107 -0.692562,-2.24803 -0.729668,-2.63796 -0.741331,-7.79043 -0.01162,-5.13341 0.02682,-5.56386 0.71753,-8.03551 1.567521,-5.60923 3.934457,-9.44186 8.632204,-13.97761 3.495873,-3.37531 6.05043,-5.05434 9.88856,-6.49941 5.24288,-1.97397 4.0581,-1.90719 33.90751,-1.91108 l 26.69976,-0.003 1.28218,-0.82277 c 0.71266,-0.45731 1.33299,-1.0743 1.39658,-1.38906 0.0629,-0.31146 0.17308,-2.70942 0.2448,-5.32879 0.25511,-9.31638 2.13144,-18.37802 5.64292,-27.25209 1.81258,-4.58067 5.29438,-11.5945 6.89558,-13.89062 l 1.1993,-1.71979 -0.18394,-24.87084 c -0.20128,-27.214657 -0.22784,-26.594638 1.33999,-31.28755 2.94634,-8.819137 10.12014,-15.992937 18.93928,-18.939275 3.18525,-1.064143 6.00714,-1.499212 9.72401,-1.499212 3.71687,0 6.53876,0.435069 9.72401,1.499212 8.81914,2.946338 15.99294,10.120138 18.93928,18.939275 1.22996,3.681597 1.49921,5.860254 1.49921,12.131117 v 5.788233 l 2.05052,-0.19507 c 2.65599,-0.25266 15.46797,-0.25266 18.12396,0 l 2.05052,0.19507 v -5.788233 c 0,-6.270863 0.26925,-8.44952 1.49921,-12.131117 2.94634,-8.819137 10.12014,-15.992937 18.93928,-18.939275 3.18525,-1.064143 6.00714,-1.499212 9.72401,-1.499212 3.71687,0 6.53876,0.435069 9.72401,1.499212 8.81914,2.946338 15.99294,10.120138 18.93928,18.939275 1.56783,4.692912 1.54127,4.072893 1.33999,31.28755 l -0.18394,24.87084 1.1993,1.71979 c 1.6012,2.29612 5.083,9.30995 6.89558,13.89062 3.51148,8.87407 5.38781,17.93571 5.64292,27.25209 0.0717,2.61937 0.18188,5.01733 0.2448,5.32879 0.0636,0.31476 0.68392,0.93175 1.39658,1.38906 l 1.28218,0.82277 26.69976,0.003 c 29.84941,0.004 28.66463,-0.0629 33.90751,1.91108 3.83813,1.44507 6.39269,3.1241 9.88856,6.49941 4.69775,4.53575 7.06468,8.36838 8.6322,13.97761 0.69072,2.47165 0.72915,2.9021 0.71753,8.03551 -0.0117,5.15247 -0.0488,5.5424 -0.74133,7.79043 -1.75768,5.70535 -3.61179,8.85875 -7.66191,13.03107 -4.17845,4.30453 -8.66339,7.00488 -14.07406,8.47389 l -2.64584,0.71835 -13.75099,0.0878 c -10.32156,0.0659 -13.8013,0.16691 -13.95272,0.4051 -0.11095,0.17454 -0.20355,2.00548 -0.20578,4.06876 -0.003,3.06141 0.0724,3.82789 0.41173,4.16719 0.36876,0.36876 2.23108,0.41616 16.47031,0.41925 17.93706,0.004 18.26925,0.0312 23.2623,1.91108 3.83813,1.44507 6.39269,3.1241 9.88856,6.49941 4.69775,4.53574 7.06468,8.36838 8.6322,13.97761 0.69072,2.47165 0.72915,2.9021 0.71753,8.0355 -0.0117,5.15248 -0.0488,5.54241 -0.74133,7.79043 -1.75768,5.70536 -3.61179,8.85876 -7.66191,13.03108 -4.17792,4.30398 -8.66147,7.0037 -14.07406,8.47452 l -2.64584,0.71898 -16.87701,0.13989 c -13.87146,0.11498 -16.91678,0.20428 -17.10029,0.50146 -0.12281,0.19886 -0.30232,1.32995 -0.39892,2.51354 -0.0966,1.18359 -0.24516,2.71753 -0.33015,3.40875 l -0.15451,1.25677 13.59399,0.003 c 15.194,0.004 15.91122,0.0698 20.80174,1.91108 3.83813,1.44507 6.39269,3.1241 9.88856,6.49941 4.69775,4.53574 7.06468,8.36838 8.6322,13.97761 0.69072,2.47165 0.72915,2.9021 0.71753,8.0355 -0.0117,5.15248 -0.0488,5.54241 -0.74133,7.79043 -1.75768,5.70536 -3.61179,8.85876 -7.66191,13.03108 -4.17327,4.29919 -8.64445,6.99322 -14.07406,8.48008 l -2.64584,0.72454 -27.3938,0.13433 -27.39381,0.13433 -1.87231,2.11667 c -2.795,3.15976 -10.46576,10.5682 -13.32462,12.86894 -8.57642,6.90211 -18.23024,12.74903 -27.91129,16.90472 -9.55819,4.10296 -21.50774,7.16297 -32.46562,8.31371 -4.70571,0.49417 -14.75928,0.71028 -19.39271,0.41687 z m 16.12016,-61.24895 c 9.79558,-1.51953 18.33016,-5.56724 26.34045,-12.49252 9.05128,-7.82527 15.43268,-18.45674 17.59034,-29.30566 1.14988,-5.78167 1.20009,-7.75109 1.20009,-47.07176 0,-33.68382 -0.0417,-37.48197 -0.41577,-37.85603 -0.37522,-0.37522 -5.59978,-0.41578 -53.55923,-0.41578 -47.95945,0 -53.18401,0.0406 -53.55923,0.41578 -0.37405,0.37406 -0.41577,4.17221 -0.41577,37.85603 0,39.32067 0.0502,41.29009 1.20009,47.07176 2.61816,13.16434 11.40185,25.80217 23.53362,33.85978 6.55874,4.35614 14.0958,7.19932 21.30379,8.03635 1.38245,0.16053 2.93026,0.34048 3.43958,0.39988 1.92775,0.22482 10.82319,-0.1071 13.34204,-0.49783 z m 13.75886,-188.1471 c 0.93879,-0.9388 0.45757,-2.58457 -1.91551,-6.55091 -4.99083,-8.34165 -13.52032,-12.58318 -23.26716,-11.57026 -3.28522,0.34141 -5.25802,0.85689 -7.71558,2.01606 -4.39903,2.07491 -7.77344,5.17721 -10.3922,9.5542 -1.82667,3.05308 -2.33128,4.22187 -2.33128,5.39976 0,1.65931 -1.35729,1.56692 23.01875,1.56692 19.81741,0 22.23161,-0.0444 22.60298,-0.41577 z"
       id="path2" /></g></svg>
