<?xml version="1.0" encoding="UTF-8" standalone="no"?>
<!-- Created with Inkscape (http://www.inkscape.org/) -->

<svg
   width="1920"
   height="1920"
   viewBox="0 0 507.99999 508"
   version="1.1"
   id="svg1"
   xml:space="preserve"
   xmlns="http://www.w3.org/2000/svg"
   xmlns:svg="http://www.w3.org/2000/svg"><defs
     id="defs1" /><g
     id="layer1"><path
       style="fill:#ffffff;fill-opacity:1"
       d="m 246.72396,428.36778 c -23.971,-1.51798 -45.98824,-10.17207 -65.21979,-25.6353 -3.5347,-2.84209 -11.73531,-10.94834 -14.89237,-14.72102 -1.4613,-1.74625 -2.78621,-3.26248 -2.94425,-3.36939 -0.99906,-0.67586 -2.63638,-0.12848 -17.50944,5.85366 -8.28139,3.33088 -15.85964,6.30323 -16.84057,6.60522 -5.80561,1.78733 -12.33646,1.78677 -18.12883,-0.002 -2.41552,-0.74576 -6.1759,-2.65774 -8.26579,-4.20277 -2.21508,-1.63758 -6.488915,-6.02137 -7.857991,-8.06016 -7.009843,-10.43887 -6.718607,-24.15836 0.727343,-34.26354 1.455333,-1.97509 5.582008,-6.06265 7.527518,-7.45618 2.35132,-1.6842 5.83161,-3.21837 19.97604,-8.80574 16.7168,-6.60352 16.32739,-6.43969 16.52391,-6.95183 0.20041,-0.52225 -0.38736,-7.05463 -0.67696,-7.52359 -0.17509,-0.28354 -3.46844,-0.37816 -17.09389,-0.4911 l -16.87701,-0.13989 -2.64584,-0.71898 c -5.412586,-1.47082 -9.896142,-4.17054 -14.074063,-8.47452 -4.050113,-4.17232 -5.904225,-7.32572 -7.66191,-13.03108 -0.692562,-2.24802 -0.729668,-2.63795 -0.741331,-7.79043 -0.01162,-5.1334 0.02682,-5.56385 0.71753,-8.0355 1.567521,-5.60923 3.934457,-9.44187 8.632204,-13.97761 3.495873,-3.37531 6.050432,-5.05434 9.88856,-6.49941 4.99305,-1.87991 5.32524,-1.9072 23.2623,-1.91108 14.23923,-0.003 16.10155,-0.0505 16.47031,-0.41925 0.3393,-0.3393 0.41503,-1.10578 0.41173,-4.16719 -0.002,-2.06328 -0.0915,-3.8886 -0.19844,-4.05628 -0.10691,-0.16768 -7.08295,-3.05984 -15.5023,-6.42704 -8.41936,-3.36719 -16.15842,-6.55014 -17.19792,-7.07323 -7.054119,-3.54968 -12.696148,-10.18018 -15.072981,-17.71374 -2.450242,-7.76623 -1.87527,-15.51532 1.676424,-22.59374 3.929601,-7.83157 11.001077,-13.69493 19.321027,-16.02017 2.03031,-0.56743 3.27209,-0.72577 6.56112,-0.83663 6.35685,-0.21425 8.15977,0.18581 16.97753,3.76731 14.91511,6.05806 23.63826,9.39065 24.58028,9.39065 0.78893,0 1.38676,-0.29585 2.92828,-1.44915 1.06534,-0.79703 2.69509,-1.94307 3.62167,-2.54677 0.99706,-0.6496 1.73097,-1.32705 1.79805,-1.65971 0.0623,-0.30914 0.17203,-2.70521 0.24375,-5.32458 0.37687,-13.76328 4.4485,-27.41791 12.05735,-40.43557 2.30588,-3.94502 2.37104,-3.68378 -2.04839,-8.2119 -7.09295,-7.26739 -9.73331,-12.91484 -10.03653,-21.46711 -0.31805,-8.97049 2.81173,-16.637216 9.34977,-22.903292 3.87714,-3.71586 8.15342,-6.18638 13.06827,-7.549896 2.10016,-0.582643 3.23152,-0.717948 6.87917,-0.822716 5.04327,-0.144854 7.64886,0.259501 11.83797,1.837106 4.88681,1.840357 5.9967,2.699851 15.03828,11.645564 7.581,7.500624 8.29418,8.135934 9.13313,8.135934 0.50051,0 3.05089,-0.38092 5.66751,-0.84649 4.74335,-0.84398 4.7846,-0.84649 13.88561,-0.84649 9.10101,0 9.14226,0.003 13.88561,0.84649 2.61662,0.46557 5.17022,0.84649 5.67465,0.84649 0.84883,0 1.51938,-0.59839 9.00085,-8.032325 4.44602,-4.41778 8.79806,-8.509142 9.67118,-9.091914 7.18656,-4.796709 15.91466,-6.186779 24.47008,-3.897196 9.84193,2.633872 18.46736,11.093297 21.16419,20.756855 0.69966,2.50711 1.32569,6.54555 1.32771,8.565 0.004,4.14389 -1.32628,9.70647 -3.23552,13.52771 -1.61542,3.23317 -3.13647,5.21532 -7.12819,9.28904 -4.35383,4.44327 -4.3236,4.34597 -2.36355,7.60755 1.90879,3.1763 4.93864,9.34783 6.51275,13.26591 3.62889,9.03257 5.5775,18.25068 5.84469,27.64896 0.0765,2.69213 0.18993,5.14773 0.25198,5.45687 0.0677,0.33727 0.82359,1.02514 1.88989,1.7198 0.97739,0.63673 2.67001,1.84231 3.76138,2.67906 1.30941,1.00391 2.23227,1.52135 2.71336,1.52135 0.40097,0 7.17621,-2.61828 15.05607,-5.8184 7.87986,-3.20012 15.23682,-6.10472 16.3488,-6.45466 3.24188,-1.02021 5.67534,-1.30107 10.00667,-1.15492 4.73558,0.15979 7.18287,0.78506 11.59427,2.96227 7.74972,3.82481 14.18962,11.69933 16.4569,20.123 0.64876,2.41037 0.71214,3.06968 0.71214,7.40833 0,4.33866 -0.0634,4.99797 -0.71214,7.40834 -0.79224,2.94342 -2.48575,6.66332 -4.18216,9.18639 -1.42355,2.11723 -5.71425,6.53507 -7.77682,8.00726 -2.53399,1.80868 -4.49427,2.67596 -20.67542,9.14736 -8.41935,3.3672 -15.39539,6.25936 -15.5023,6.42704 -0.10691,0.16768 -0.19621,1.993 -0.19844,4.05628 -0.003,3.06141 0.0724,3.82789 0.41173,4.16719 0.36876,0.36876 2.23108,0.41616 16.47031,0.41925 17.93706,0.004 18.26925,0.0312 23.2623,1.91108 3.83813,1.44507 6.39269,3.1241 9.88856,6.49941 4.69775,4.53574 7.06468,8.36838 8.6322,13.97761 0.69072,2.47165 0.72915,2.9021 0.71753,8.0355 -0.0117,5.15248 -0.0488,5.54241 -0.74133,7.79043 -1.75768,5.70536 -3.61179,8.85876 -7.66191,13.03108 -4.17792,4.30398 -8.66147,7.0037 -14.07406,8.47452 l -2.64584,0.71898 -16.87701,0.13989 c -17.92708,0.1486 -17.36951,0.10592 -17.3827,1.33052 -0.002,0.21828 -0.12693,1.69042 -0.27686,3.27141 -0.14992,1.58099 -0.20545,3.08606 -0.12339,3.34459 0.18308,0.57685 -0.38002,0.3378 16.53601,7.01987 17.90559,7.07296 19.1953,7.72061 23.38702,11.7442 4.99527,4.7949 8.40168,11.13009 9.42747,17.53303 0.5114,3.19217 0.21254,9.00839 -0.62738,12.20945 -1.8445,7.02976 -6.56078,13.47626 -13.01913,17.79535 -2.74533,1.83597 -5.4699,3.04087 -9.0943,4.02181 -2.27265,0.61509 -3.00907,0.68557 -7.16327,0.68557 -4.15346,0 -4.89084,-0.0705 -7.16153,-0.68513 -1.39223,-0.37683 -9.54317,-3.49548 -18.1132,-6.93035 -16.71302,-6.69858 -17.18589,-6.84333 -18.45681,-5.6499 -0.34868,0.32742 -1.51582,1.66687 -2.59364,2.97656 -2.3824,2.8949 -10.12176,10.66574 -13.23301,13.28682 -6.7348,5.67377 -14.54472,10.92716 -21.7801,14.65052 -5.96898,3.07167 -9.81502,4.69964 -15.89608,6.7286 -8.16702,2.72494 -15.8071,4.38546 -24.26354,5.27351 -4.70571,0.49417 -14.75928,0.71028 -19.39271,0.41687 z m 16.12016,-61.24895 c 9.79558,-1.51953 18.33016,-5.56724 26.34045,-12.49252 9.05128,-7.82527 15.43268,-18.45674 17.59034,-29.30566 1.14988,-5.78167 1.20009,-7.75109 1.20009,-47.07176 0,-33.68382 -0.0417,-37.48197 -0.41577,-37.85603 -0.37522,-0.37522 -5.59978,-0.41578 -53.55923,-0.41578 -47.95945,0 -53.18401,0.0406 -53.55923,0.41578 -0.37405,0.37406 -0.41577,4.17221 -0.41577,37.85603 0,39.32067 0.0502,41.29009 1.20009,47.07176 2.61816,13.16434 11.40185,25.80217 23.53362,33.85978 6.55874,4.35614 14.0958,7.19932 21.30379,8.03635 1.38245,0.16053 2.93026,0.34048 3.43958,0.39988 1.92775,0.22482 10.82319,-0.1071 13.34204,-0.49783 z m 13.78787,-188.17611 c 1.65729,-1.6573 -2.58973,-9.08602 -7.40843,-12.95855 -2.36583,-1.90128 -6.05756,-3.84403 -8.47669,-4.46079 -4.04157,-1.0304 -9.45217,-1.0304 -13.49375,0 -2.41912,0.61676 -6.11085,2.55951 -8.47668,4.46079 -4.8187,3.87253 -9.06572,11.30125 -7.40843,12.95855 0.40959,0.40958 2.20066,0.44478 22.63199,0.44478 20.43133,0 22.2224,-0.0352 22.63199,-0.44478 z"
       id="path2" /></g></svg>
