<?xml version="1.0" encoding="UTF-8" standalone="no"?>
<!-- Created with Inkscape (http://www.inkscape.org/) -->

<svg
   width="1920"
   height="1920"
   viewBox="0 0 507.99999 508"
   version="1.1"
   id="svg1"
   xml:space="preserve"
   xmlns="http://www.w3.org/2000/svg"
   xmlns:svg="http://www.w3.org/2000/svg"><defs
     id="defs1" /><g
     id="layer1"><path
       style="fill:#ffffff;fill-opacity:1"
       d="m 246.72396,428.36778 c -23.971,-1.51798 -45.98824,-10.17207 -65.21979,-25.6353 -3.5347,-2.84209 -11.73531,-10.94834 -14.89237,-14.72102 -1.4613,-1.74625 -2.78621,-3.26248 -2.94425,-3.36939 -0.9899,-0.66966 -2.62573,-0.11997 -17.89944,6.0148 -8.75776,3.51761 -16.63835,6.52159 -18.12395,6.90863 -8.2766,2.15628 -17.96391,0.32673 -24.72124,-4.66888 -2.21508,-1.63758 -6.488915,-6.02137 -7.857991,-8.06016 -7.009843,-10.43887 -6.718607,-24.15836 0.727343,-34.26354 1.455333,-1.97509 5.582008,-6.06265 7.527518,-7.45618 2.35132,-1.6842 5.83161,-3.21837 19.97604,-8.80574 16.7168,-6.60352 16.32739,-6.43969 16.52391,-6.95183 0.20041,-0.52225 -0.38736,-7.05463 -0.67696,-7.52359 -0.17509,-0.28354 -3.46844,-0.37816 -17.09389,-0.4911 l -16.87701,-0.13989 -2.64584,-0.71898 c -5.412586,-1.47082 -9.896142,-4.17054 -14.074063,-8.47452 -4.050113,-4.17232 -5.904225,-7.32572 -7.66191,-13.03108 -0.692562,-2.24802 -0.729668,-2.63795 -0.741331,-7.79043 -0.01162,-5.1334 0.02682,-5.56385 0.71753,-8.0355 1.567521,-5.60923 3.934457,-9.44187 8.632204,-13.97761 3.495873,-3.37531 6.050432,-5.05434 9.88856,-6.49941 4.99305,-1.87991 5.32524,-1.9072 23.2623,-1.91108 14.23923,-0.003 16.10155,-0.0505 16.47031,-0.41925 0.3393,-0.3393 0.41503,-1.10578 0.41173,-4.16719 -0.002,-2.06328 -0.0915,-3.8886 -0.19844,-4.05628 -0.10691,-0.16768 -7.08295,-3.05984 -15.5023,-6.42704 -8.41936,-3.36719 -16.15842,-6.55014 -17.19792,-7.07323 -7.054119,-3.54968 -12.696148,-10.18018 -15.072981,-17.71374 -2.450242,-7.76623 -1.87527,-15.51532 1.676424,-22.59374 3.955083,-7.88235 11.001397,-13.69806 19.459337,-16.06085 2.47726,-0.69205 2.93121,-0.73395 7.78993,-0.71918 4.45866,0.0135 5.44243,0.0941 7.24355,0.59309 1.14631,0.31758 8.79548,3.25732 16.99818,6.53276 10.34452,4.13069 15.2244,5.95534 15.92713,5.95534 0.81538,0 1.39123,-0.28287 2.95011,-1.44915 1.06534,-0.79703 2.69509,-1.94307 3.62167,-2.54677 0.99706,-0.6496 1.73097,-1.32705 1.79805,-1.65971 0.0623,-0.30914 0.17203,-2.70521 0.24375,-5.32458 0.25511,-9.31638 2.13144,-18.37802 5.64292,-27.25209 1.81258,-4.58067 5.29438,-11.5945 6.89558,-13.89062 l 1.1993,-1.71979 -0.18394,-24.87083 c -0.20128,-27.214667 -0.22784,-26.594648 1.33999,-31.28756 2.94634,-8.819137 10.12014,-15.992937 18.93928,-18.939275 3.18525,-1.064143 6.00714,-1.499212 9.72401,-1.499212 3.71687,0 6.53876,0.435069 9.72401,1.499212 8.81914,2.946338 15.99294,10.120138 18.93928,18.939275 1.22996,3.681597 1.49921,5.860254 1.49921,12.131117 v 5.788233 l 2.05052,-0.19507 c 2.65599,-0.25266 15.46797,-0.25266 18.12396,0 l 2.05052,0.19507 v -5.788233 c 0,-6.270863 0.26925,-8.44952 1.49921,-12.131117 2.94634,-8.819137 10.12014,-15.992937 18.93928,-18.939275 3.18525,-1.064143 6.00714,-1.499212 9.72401,-1.499212 3.71687,0 6.53876,0.435069 9.72401,1.499212 8.81914,2.946338 15.99294,10.120138 18.93928,18.939275 1.56783,4.692912 1.54127,4.072893 1.33999,31.28756 l -0.18394,24.87083 1.1993,1.71979 c 1.6012,2.29612 5.083,9.30995 6.89558,13.89062 3.51148,8.87407 5.38781,17.93571 5.64292,27.25209 0.0717,2.61937 0.18141,5.01544 0.24375,5.32458 0.0671,0.33266 0.80099,1.01011 1.79805,1.65971 0.92658,0.6037 2.55633,1.74974 3.62167,2.54677 1.55888,1.16628 2.13473,1.44915 2.95011,1.44915 0.70273,0 5.58261,-1.82465 15.92713,-5.95534 8.2027,-3.27544 15.85187,-6.21518 16.99818,-6.53276 1.80112,-0.49899 2.78489,-0.57954 7.24355,-0.59309 4.85872,-0.0148 5.31267,0.0271 7.78993,0.71918 8.45794,2.36279 15.50425,8.1785 19.45934,16.06085 1.49814,2.98574 2.25799,5.32748 2.78699,8.58905 2.07421,12.78844 -4.61385,25.89648 -16.18355,31.71843 -1.0395,0.52309 -8.77856,3.70604 -17.19792,7.07323 -8.41935,3.3672 -15.39539,6.25936 -15.5023,6.42704 -0.10691,0.16768 -0.19621,1.993 -0.19844,4.05628 -0.003,3.06141 0.0724,3.82789 0.41173,4.16719 0.36876,0.36876 2.23108,0.41616 16.47031,0.41925 17.93706,0.004 18.26925,0.0312 23.2623,1.91108 3.83813,1.44507 6.39269,3.1241 9.88856,6.49941 4.69775,4.53574 7.06468,8.36838 8.6322,13.97761 0.69072,2.47165 0.72915,2.9021 0.71753,8.0355 -0.0117,5.15248 -0.0488,5.54241 -0.74133,7.79043 -1.75768,5.70536 -3.61179,8.85876 -7.66191,13.03108 -4.17792,4.30398 -8.66147,7.0037 -14.07406,8.47452 l -2.64584,0.71898 -16.87701,0.13989 c -13.62545,0.11294 -16.9188,0.20756 -17.09389,0.4911 -0.2896,0.46896 -0.87737,7.00134 -0.67696,7.52359 0.19652,0.51214 -0.19289,0.34831 16.52391,6.95183 14.14443,5.58737 17.62472,7.12154 19.97604,8.80574 1.94551,1.39353 6.07218,5.48109 7.52752,7.45618 7.44595,10.10518 7.73718,23.82467 0.72734,34.26354 -1.36907,2.03879 -5.64291,6.42258 -7.85799,8.06016 -6.75733,4.99561 -16.44464,6.82516 -24.72124,4.66888 -1.4856,-0.38704 -9.36619,-3.39102 -18.12395,-6.90863 -15.27371,-6.13477 -16.90954,-6.68446 -17.89944,-6.0148 -0.15804,0.10691 -1.48295,1.62314 -2.94425,3.36939 -3.15706,3.77268 -11.35767,11.87893 -14.89237,14.72102 -8.6011,6.91576 -18.23477,12.75 -27.91354,16.90472 -9.55819,4.10296 -21.50774,7.16297 -32.46562,8.31371 -4.70571,0.49417 -14.75928,0.71028 -19.39271,0.41687 z m 16.12016,-61.24895 c 9.79558,-1.51953 18.33016,-5.56724 26.34045,-12.49252 9.05128,-7.82527 15.43268,-18.45674 17.59034,-29.30566 1.14988,-5.78167 1.20009,-7.75109 1.20009,-47.07176 0,-33.68382 -0.0417,-37.48197 -0.41577,-37.85603 -0.37522,-0.37522 -5.59978,-0.41578 -53.55923,-0.41578 -47.95945,0 -53.18401,0.0406 -53.55923,0.41578 -0.37405,0.37406 -0.41577,4.17221 -0.41577,37.85603 0,39.32067 0.0502,41.29009 1.20009,47.07176 2.61816,13.16434 11.40185,25.80217 23.53362,33.85978 6.55874,4.35614 14.0958,7.19932 21.30379,8.03635 1.38245,0.16053 2.93026,0.34048 3.43958,0.39988 1.92775,0.22482 10.82319,-0.1071 13.34204,-0.49783 z m 13.75886,-188.1471 c 0.93879,-0.9388 0.45757,-2.58457 -1.91551,-6.55091 -4.99083,-8.34165 -13.52032,-12.58318 -23.26716,-11.57026 -3.28522,0.34141 -5.25802,0.85689 -7.71558,2.01606 -4.39903,2.07491 -7.77344,5.17721 -10.3922,9.5542 -1.82667,3.05308 -2.33128,4.22187 -2.33128,5.39976 0,1.65931 -1.35729,1.56692 23.01875,1.56692 19.81741,0 22.23161,-0.0444 22.60298,-0.41577 z"
       id="path2" /></g></svg>
