<?xml version="1.0" encoding="UTF-8" standalone="no"?>
<!-- Created with Inkscape (http://www.inkscape.org/) -->

<svg
   width="1920"
   height="1920"
   viewBox="0 0 508 508"
   version="1.1"
   id="svg1"
   xml:space="preserve"
   xmlns="http://www.w3.org/2000/svg"
   xmlns:svg="http://www.w3.org/2000/svg"><defs
     id="defs1" /><g
     id="layer1"><path
       style="fill:#ffffff;fill-opacity:1"
       d="m 252.94947,447.55211 c -0.17686,-0.21311 -0.93558,-0.81056 -1.68604,-1.32767 -0.75046,-0.51712 -2.01932,-1.41842 -2.81968,-2.00291 -0.80036,-0.58448 -2.22911,-1.59391 -3.175,-2.24318 -0.94589,-0.64926 -2.43417,-1.71111 -3.30729,-2.35966 -1.86336,-1.38409 -3.71549,-2.70939 -5.55625,-3.97579 -0.72761,-0.50058 -1.62057,-1.13745 -1.98438,-1.41527 -0.3638,-0.27782 -1.19724,-0.8797 -1.85208,-1.33751 -0.65484,-0.45781 -1.905,-1.36101 -2.77813,-2.00712 -0.87312,-0.64611 -2.18281,-1.59922 -2.91041,-2.11801 -0.72761,-0.51879 -1.97776,-1.42147 -2.77813,-2.00596 -0.80036,-0.58448 -2.22911,-1.59391 -3.175,-2.24318 -0.94588,-0.64926 -2.43416,-1.71111 -3.30729,-2.35966 -0.87312,-0.64856 -2.18281,-1.60366 -2.91042,-2.12245 -0.7276,-0.51879 -1.97776,-1.42147 -2.77812,-2.00596 -0.80036,-0.58448 -2.22911,-1.59391 -3.175,-2.24318 -0.94589,-0.64926 -2.43417,-1.71111 -3.30729,-2.35966 -0.87313,-0.64856 -2.18281,-1.60297 -2.91042,-2.12092 -0.7276,-0.51794 -2.15635,-1.53977 -3.175,-2.27073 -1.01864,-0.73095 -2.44739,-1.74211 -3.175,-2.24703 -0.7276,-0.50492 -2.03729,-1.44639 -2.91042,-2.09215 -0.87312,-0.64577 -2.3614,-1.72579 -3.30729,-2.40004 -0.94588,-0.67425 -2.19604,-1.57128 -2.77812,-1.9934 -0.58209,-0.42212 -1.83224,-1.30732 -2.77813,-1.96711 -0.94588,-0.65979 -2.61276,-1.85246 -3.70416,-2.65039 -2.39399,-1.75024 -4.02418,-2.92044 -6.4823,-4.65317 -3.9002,-2.74926 -4.54402,-3.21 -6.08541,-4.35494 -0.87313,-0.64855 -2.36141,-1.7156 -3.30729,-2.37122 -0.94589,-0.65563 -2.37464,-1.67029 -3.175,-2.2548 -0.80037,-0.58452 -2.05052,-1.48425 -2.77813,-1.99941 -1.22517,-0.86744 -3.35676,-2.39025 -6.61458,-4.72546 -0.72761,-0.52155 -1.97776,-1.42649 -2.77813,-2.01097 -0.80036,-0.58449 -2.22911,-1.59392 -3.175,-2.24318 -0.94588,-0.64927 -2.43416,-1.71112 -3.30729,-2.35967 -0.87312,-0.64855 -2.18281,-1.60209 -2.91042,-2.11898 -0.7276,-0.5169 -2.03729,-1.46956 -2.91041,-2.11705 -0.87313,-0.64748 -2.12328,-1.5356 -2.77813,-1.97359 -1.21269,-0.81111 -2.82717,-1.96271 -5.40871,-3.85802 -0.79284,-0.58209 -2.10252,-1.53459 -2.91042,-2.11667 -0.80789,-0.58208 -2.11112,-1.53458 -2.89606,-2.11667 -0.78495,-0.58208 -1.76756,-1.26182 -2.18359,-1.51054 -0.41604,-0.24872 -1.4708,-0.98725 -2.34393,-1.64119 -0.87312,-0.65393 -2.18281,-1.61188 -2.91041,-2.12877 -0.72761,-0.5169 -2.03729,-1.46956 -2.91042,-2.11705 -0.87312,-0.64748 -2.12328,-1.5356 -2.77812,-1.97359 -1.2127,-0.81111 -2.82717,-1.96271 -5.40872,-3.85802 -0.79283,-0.58209 -2.1058,-1.53459 -2.9177,-2.11667 -0.81191,-0.58208 -2.119046,-1.53458 -2.904758,-2.11667 -0.785713,-0.58208 -1.765048,-1.26182 -2.176301,-1.51054 -0.411253,-0.24872 -1.462108,-0.98602 -2.335233,-1.63845 -0.873125,-0.65242 -2.361406,-1.73569 -3.307291,-2.40726 -0.945886,-0.67156 -2.434167,-1.74938 -3.307292,-2.39514 -0.873125,-0.64577 -2.182813,-1.58724 -2.910417,-2.09216 -0.727604,-0.50491 -2.156354,-1.51608 -3.175,-2.24703 -1.018646,-0.73095 -2.447396,-1.75278 -3.175,-2.27073 -0.727604,-0.51795 -2.037291,-1.47236 -2.910416,-2.12091 -0.873125,-0.64855 -2.361407,-1.7104 -3.307292,-2.35967 -0.945885,-0.64926 -2.374635,-1.65869 -3.175,-2.24318 -0.800365,-0.58448 -2.110052,-1.50792 -2.910417,-2.05209 -0.800364,-0.54416 -2.012896,-1.40951 -2.694516,-1.92299 -0.681619,-0.51348 -1.660607,-1.23125 -2.175529,-1.59505 l -0.936221,-0.66146 -0.0073,-42.53177 c -0.004,-23.39248 0.09097,-42.53177 0.211052,-42.53177 0.120086,0 0.887482,0.50601 1.705326,1.12448 2.150982,1.6266 4.176323,3.08128 5.087796,3.65426 0.436563,0.27443 1.508125,1.03229 2.38125,1.68411 0.873125,0.65183 2.182813,1.60806 2.910417,2.12495 0.727604,0.51689 2.037292,1.46956 2.910417,2.11704 0.873125,0.64748 2.123281,1.5356 2.778125,1.97359 1.212696,0.81111 2.827169,1.96271 5.408713,3.85802 0.792836,0.58209 2.102524,1.53459 2.910417,2.11667 0.807893,0.58208 2.111123,1.53458 2.896066,2.11667 0.784943,0.58208 1.767559,1.26183 2.18359,1.51054 0.416032,0.24872 1.470797,0.98725 2.343922,1.64119 0.873125,0.65394 2.182812,1.61189 2.910417,2.12878 0.727604,0.51689 2.037291,1.46801 2.910416,2.11361 0.873119,0.6456 2.578289,1.8654 3.789249,2.71068 1.21096,0.84527 2.63971,1.85648 3.175,2.24713 0.53529,0.39064 1.56856,1.13551 2.29616,1.65526 0.72761,0.51975 2.21589,1.59648 3.3073,2.39274 1.0914,0.79626 2.69875,1.94931 3.57187,2.56233 2.99198,2.10068 3.70738,2.61109 5.68854,4.05861 1.09141,0.79742 2.57969,1.87511 3.30729,2.39485 0.72761,0.51975 1.76088,1.26462 2.29617,1.65526 0.53529,0.39065 1.96404,1.40186 3.175,2.24714 1.21096,0.84527 2.91613,2.06508 3.78925,2.71067 1.82256,1.34762 3.45545,2.52171 6.08542,4.37558 3.90021,2.74927 4.54402,3.21 6.08541,4.35494 0.87313,0.64855 2.36141,1.7156 3.3073,2.37123 0.94588,0.65562 2.37463,1.6713 3.175,2.25706 0.80036,0.58576 2.22911,1.59624 3.175,2.24551 0.94588,0.64926 2.43416,1.71111 3.30729,2.35966 0.87312,0.64855 2.18281,1.60365 2.91041,2.12245 0.72761,0.51879 1.97777,1.42147 2.77813,2.00596 0.80036,0.58448 2.22911,1.59391 3.175,2.24318 0.94589,0.64926 2.43417,1.71111 3.30729,2.35966 0.87313,0.64855 2.18281,1.60365 2.91042,2.12245 0.7276,0.51879 1.97776,1.42147 2.77812,2.00596 0.80037,0.58448 2.22912,1.59391 3.175,2.24318 0.94589,0.64926 2.43417,1.71111 3.30729,2.35966 0.87313,0.64855 2.18282,1.6021 2.91042,2.11899 0.72761,0.51689 2.03729,1.46956 2.91042,2.11704 0.87312,0.64748 2.12328,1.5356 2.77812,1.97359 1.2127,0.81111 2.82717,1.96271 5.40872,3.85802 0.79283,0.58209 2.1058,1.53459 2.9177,2.11667 0.81191,0.58208 2.11905,1.53458 2.90476,2.11667 0.78571,0.58208 1.76505,1.26183 2.1763,1.51054 0.41125,0.24872 1.46211,0.98602 2.33523,1.63845 0.87313,0.65243 2.36141,1.73569 3.30729,2.40726 0.94589,0.67156 2.43417,1.75483 3.30729,2.40726 0.87313,0.65243 1.92398,1.38973 2.33524,1.63844 0.41125,0.24872 1.39059,0.92846 2.1763,1.51055 0.78571,0.58208 2.09285,1.53458 2.90475,2.11666 0.81191,0.58209 2.12487,1.53459 2.91771,2.11667 1.95858,1.43795 3.9539,2.8667 5.541,3.96765 1.97574,1.37053 3.78306,2.66622 5.55625,3.98333 0.87313,0.64855 2.36141,1.7156 3.3073,2.37123 0.94588,0.65562 2.37463,1.67028 3.175,2.2548 0.80036,0.58452 2.05052,1.48425 2.77812,1.9994 0.72761,0.51516 2.18679,1.55387 3.24262,2.30825 1.05584,0.75437 2.42506,1.7228 3.04271,2.15205 0.61765,0.42926 1.36113,0.98746 1.65217,1.24045 0.58271,0.50652 0.1051,0.76303 4.7625,-2.55777 0.72761,-0.5188 2.03729,-1.47658 2.91042,-2.12841 0.87312,-0.65182 1.94469,-1.40968 2.38125,-1.68411 0.77933,-0.48991 2.17871,-1.48572 5.04233,-3.58812 0.79283,-0.58208 2.10252,-1.53458 2.91041,-2.11667 0.8079,-0.58208 2.13804,-1.56434 2.95589,-2.18281 0.81784,-0.61846 1.57091,-1.12448 1.67349,-1.12448 0.10257,0 0.85602,-0.50601 1.67432,-1.12448 0.8183,-0.61846 2.14883,-1.60073 2.95672,-2.18281 0.80789,-0.58208 2.11758,-1.53458 2.91042,-2.11667 1.95858,-1.43795 3.95389,-2.86669 5.541,-3.96764 1.97574,-1.37053 3.78306,-2.66622 5.55625,-3.98333 0.87313,-0.64855 2.36141,-1.7104 3.30729,-2.35967 0.94589,-0.64926 2.37464,-1.65869 3.175,-2.24318 0.80037,-0.58448 2.05052,-1.48942 2.77813,-2.01097 3.25782,-2.33521 5.38941,-3.85802 6.61458,-4.72546 0.72761,-0.51516 1.97776,-1.41489 2.77813,-1.99941 0.80036,-0.58451 2.22911,-1.59917 3.175,-2.2548 0.94588,-0.65562 2.43416,-1.7213 3.30729,-2.36817 0.87312,-0.64687 2.57829,-1.86772 3.78925,-2.713 1.21096,-0.84527 2.63971,-1.85648 3.175,-2.24713 0.53529,-0.39064 1.56856,-1.13551 2.29616,-1.65526 0.72761,-0.51975 2.21589,-1.59785 3.3073,-2.39577 1.0914,-0.79793 2.75828,-1.9906 3.70416,-2.65039 0.94589,-0.65979 2.19604,-1.54499 2.77813,-1.96711 0.58208,-0.42212 1.83224,-1.31915 2.77812,-1.9934 0.94589,-0.67425 2.43417,-1.75427 3.30729,-2.40004 0.87313,-0.64576 2.18282,-1.58723 2.91042,-2.09215 0.72761,-0.50492 2.15636,-1.51608 3.175,-2.24703 1.01865,-0.73096 2.4474,-1.75279 3.175,-2.27073 0.72761,-0.51795 2.03729,-1.47236 2.91042,-2.12092 0.87312,-0.64855 2.3614,-1.7104 3.30729,-2.35966 0.94589,-0.64927 2.37464,-1.6587 3.175,-2.24318 0.80036,-0.58449 2.05052,-1.48717 2.77812,-2.00596 0.72761,-0.51879 2.0373,-1.47389 2.91042,-2.12245 0.87313,-0.64855 2.36141,-1.7104 3.30729,-2.35966 0.94589,-0.64927 2.37464,-1.6587 3.175,-2.24318 0.80037,-0.58449 2.05052,-1.48717 2.77813,-2.00596 0.7276,-0.51879 2.03729,-1.47389 2.91041,-2.12245 0.87313,-0.64855 2.36141,-1.7104 3.3073,-2.35966 0.94588,-0.64927 2.37463,-1.6587 3.175,-2.24318 0.80036,-0.58449 2.05052,-1.48942 2.77812,-2.01097 3.25782,-2.33521 5.38942,-3.85802 6.61458,-4.72546 0.72761,-0.51516 1.97777,-1.41489 2.77813,-1.99941 0.80036,-0.58452 2.22911,-1.59918 3.175,-2.2548 0.94589,-0.65562 2.43417,-1.72268 3.30729,-2.37123 1.84193,-1.36817 3.86113,-2.80291 5.79063,-4.11452 0.74926,-0.50932 1.92053,-1.34276 2.60281,-1.85208 0.68229,-0.50932 1.90027,-1.40229 2.70662,-1.98438 0.80635,-0.58208 2.10832,-1.53458 2.89326,-2.11666 0.78495,-0.58209 1.76756,-1.26183 2.18359,-1.51055 0.41604,-0.24871 1.4708,-0.98725 2.34392,-1.64118 0.87313,-0.65394 2.18282,-1.61203 2.91042,-2.12909 0.72761,-0.51707 2.21589,-1.59351 3.30729,-2.3921 1.09141,-0.79859 2.57969,-1.86523 3.30729,-2.37032 0.72761,-0.50509 2.15636,-1.5164 3.175,-2.24735 1.01865,-0.73095 2.4474,-1.75278 3.175,-2.27073 0.72761,-0.51795 2.0373,-1.47036 2.91042,-2.11647 0.87313,-0.64611 2.09352,-1.52944 2.71198,-1.96296 l 1.12448,-0.78822 v 42.67669 42.6767 l -1.25677,0.85366 c -2.71677,1.84538 -4.3452,2.99501 -7.34948,5.18858 -0.79721,0.58209 -2.11048,1.53459 -2.91837,2.11667 -0.80789,0.58208 -2.11582,1.53458 -2.90651,2.11667 -0.79069,0.58208 -1.94504,1.39032 -2.56522,1.79608 -0.62019,0.40576 -1.84198,1.26838 -2.71511,1.91693 -0.87312,0.64855 -2.18281,1.60209 -2.91042,2.11898 -0.7276,0.51689 -2.03729,1.47043 -2.91041,2.11899 -0.87313,0.64855 -2.36141,1.7104 -3.30729,2.35966 -0.94589,0.64927 -2.37464,1.6587 -3.175,2.24318 -0.80037,0.58449 -2.05052,1.48717 -2.77813,2.00596 -0.7276,0.51879 -2.03729,1.47389 -2.91042,2.12245 -0.87312,0.64855 -2.3614,1.7104 -3.30729,2.35966 -0.94588,0.64927 -2.37463,1.6587 -3.175,2.24318 -0.80036,0.58449 -2.05052,1.48942 -2.77812,2.01097 -3.25782,2.33521 -5.38942,3.85802 -6.61459,4.72546 -0.7276,0.51516 -1.97776,1.41489 -2.77812,1.99941 -0.80036,0.58452 -2.22911,1.59918 -3.175,2.2548 -0.94589,0.65562 -2.43417,1.72233 -3.30729,2.37045 -1.95235,1.44923 -3.70463,2.70036 -5.95313,4.25052 -0.94588,0.65211 -2.43416,1.71629 -3.30729,2.36484 -1.77319,1.31711 -3.58051,2.6128 -5.55625,3.98333 -1.50136,1.04147 -3.43025,2.42068 -5.54896,3.96765 -0.79721,0.58208 -2.11376,1.53458 -2.92566,2.11666 -0.8119,0.58209 -2.11546,1.53459 -2.8968,2.11667 -0.78134,0.58208 -1.75709,1.26197 -2.16835,1.51086 -0.41125,0.24889 -1.6407,1.11136 -2.7321,1.91661 -1.09141,0.80525 -2.57969,1.88715 -3.3073,2.40421 -0.7276,0.51706 -2.03729,1.47343 -2.91041,2.12526 -0.87313,0.65182 -1.94469,1.40968 -2.38125,1.68411 -0.77933,0.48991 -2.17872,1.48572 -5.04233,3.58812 -0.79284,0.58208 -2.10252,1.53458 -2.91042,2.11666 -0.80789,0.58209 -2.13804,1.56435 -2.95588,2.18282 -0.81785,0.61846 -1.57092,1.12448 -1.67349,1.12448 -0.10258,0 -0.85602,0.50601 -1.67433,1.12448 -0.8183,0.61846 -2.14882,1.60072 -2.95671,2.18281 -0.8079,0.58208 -2.11758,1.53458 -2.91042,2.11666 -1.95858,1.43796 -3.9539,2.8667 -5.54101,3.96765 -1.97573,1.37053 -3.78305,2.66622 -5.55625,3.98333 -0.87312,0.64855 -2.3614,1.7104 -3.30729,2.35967 -0.94588,0.64926 -2.37463,1.65869 -3.175,2.24318 -0.80036,0.58448 -2.05052,1.48942 -2.77812,2.01097 -3.25782,2.33521 -5.38942,3.85802 -6.61459,4.72546 -0.7276,0.51516 -1.97776,1.41489 -2.77812,1.99941 -0.80036,0.58451 -2.22911,1.59917 -3.175,2.2548 -0.94589,0.65562 -2.43417,1.72267 -3.30729,2.37122 -1.54139,1.14494 -2.18521,1.60568 -6.08542,4.35494 -2.62997,1.85387 -4.26286,3.02797 -6.08542,4.37558 -0.87312,0.6456 -2.57828,1.8654 -3.78924,2.71068 -1.21097,0.84527 -2.63972,1.85648 -3.175,2.24713 -0.53529,0.39064 -1.56857,1.13551 -2.29617,1.65526 -0.72761,0.51975 -2.21589,1.59648 -3.30729,2.39274 -1.09141,0.79626 -2.63922,1.90799 -3.43959,2.47052 -1.79789,1.26364 -4.47771,3.15647 -5.59209,3.94986 -0.96878,0.68973 -1.61898,0.75492 -2.07302,0.20784 z"
       id="path8" /></g></svg>
