<?xml version="1.0" encoding="UTF-8" standalone="no"?>
<!-- Created with Inkscape (http://www.inkscape.org/) -->

<svg
   width="1920"
   height="1920"
   viewBox="0 0 507.99999 508"
   version="1.1"
   id="svg1"
   xml:space="preserve"
   xmlns="http://www.w3.org/2000/svg"
   xmlns:svg="http://www.w3.org/2000/svg"><defs
     id="defs1" /><g
     id="layer1"><path
       style="fill:#ffffff;fill-opacity:1"
       d="m 0,507.73542 c 0,-0.30085 29.925244,-0.31053 36.909375,-0.0119 2.492915,0.10658 -4.224012,0.20062 -16.338021,0.22875 C 7.0016606,507.98374 0,507.90995 0,507.73542 Z m 435.37187,-0.0119 c 6.78951,-0.29026 12.56771,-0.28478 12.56771,0.0119 0,0.17183 -2.94471,0.24783 -8.40052,0.21681 -7.4193,-0.0422 -7.90604,-0.0689 -4.16719,-0.22875 z m 72.29957,-222.96567 c 0.0469,-122.7832 0.12212,-223.539841 0.16724,-223.903643 0.0451,-0.363802 0.0999,100.095183 0.12168,223.242183 C 507.98216,407.24336 507.9069,508 507.79312,508 c -0.11379,0 -0.16854,-100.45898 -0.12168,-223.24219 z M 0,223.96979 C 0,25.061921 0.04440978,0 0.396875,0 0.74683806,0 0.79375,2.9398148 0.79375,24.870833 c 0,16.447756 -0.0898434,24.870834 -0.26528074,24.870834 -0.17714297,0 -0.24307252,66.149313 -0.1984375,199.098963 C 0.36679554,358.34505 0.30757812,447.93958 0.1984375,447.93958 0.08929687,447.93958 0,347.15318 0,223.96979 Z M 81.292597,426.97073 60.589583,406.26645 V 254.26458 102.2627 L 81.557188,81.293849 102.52479,60.325 h 151.7398 151.73979 L 426.83969,81.161562 447.675,101.99812 V 254.00125 406.00438 L 426.83844,426.83969 406.00188,447.675 H 253.99874 101.99561 Z M 387.61458,254 V 120.38542 h -50.75599 c -27.9158,0 -88.1019,-0.0793 -133.74688,-0.17625 l -82.99088,-0.17625 v 50.56376 c 0,33.42377 0.0897,50.61919 0.26459,50.72728 0.17548,0.10845 0.26458,28.09253 0.26458,83.09434 v 82.93082 l 78.25052,0.067 c 43.03779,0.0369 103.10482,0.0966 133.48229,0.13273 l 55.23177,0.0657 z M 60.060417,0.396875 C 59.767674,0.04414151 84.667239,0.00733793 283.93167,0.06597511 l 224.20062,0.0659751 -204.32448,0.066487 C 167.90006,0.24266154 99.483333,0.35346122 99.483333,0.52933714 c 0,0.17377554 -6.70038,0.26441286 -19.54677,0.26441286 -17.052127,0 -19.588806,-0.0506509 -19.876146,-0.396875 z"
       id="path16" /></g></svg>
