<?xml version="1.0" encoding="UTF-8" standalone="no"?>
<!-- Created with Inkscape (http://www.inkscape.org/) -->

<svg
   width="1920"
   height="1920"
   viewBox="0 0 507.99999 508"
   version="1.1"
   id="svg1"
   xml:space="preserve"
   xmlns="http://www.w3.org/2000/svg"
   xmlns:svg="http://www.w3.org/2000/svg"><defs
     id="defs1" /><g
     id="layer1"><path
       style="fill:#ffffff;fill-opacity:1"
       d="m 110.72813,447.78677 c -0.43657,-0.0614 -1.91257,-0.24146 -3.28001,-0.40026 -8.717117,-1.01228 -18.333162,-4.97299 -25.774742,-10.61624 -2.789648,-2.11551 -7.182329,-6.37339 -9.358481,-9.07131 -6.144049,-7.61718 -10.110334,-16.62605 -11.648671,-26.45833 -0.623221,-3.98333 -0.623221,-12.15626 0,-16.13959 1.537807,-9.8289 5.495033,-18.81951 11.645657,-26.45833 2.129061,-2.64421 6.878278,-7.24784 9.28031,-8.99583 l 1.817908,-1.32292 -0.166334,-16.80104 c -0.09148,-9.24058 -0.346732,-48.35261 -0.567219,-86.91563 -0.220487,-38.56302 -0.474431,-73.68646 -0.56432,-78.05208 l -0.163434,-7.9375 -1.7007,-1.32292 c -2.286619,-1.77868 -6.999941,-6.64347 -9.019972,-9.30983 -5.607296,-7.40142 -9.353993,-16.44502 -10.666987,-25.74746 -0.456711,-3.23575 -0.456711,-11.58092 0,-14.81667 2.529748,-17.923023 13.461914,-33.256148 29.52949,-41.417167 5.183664,-2.632878 10.726485,-4.407724 16.668755,-5.337437 3.98332,-0.623221 12.15625,-0.623221 16.13958,0 9.8289,1.537807 18.81951,5.495033 26.45833,11.645657 2.61317,2.104073 7.2297,6.857554 8.98072,9.247135 l 1.3078,1.784732 H 254 348.35419 l 1.3078,-1.784732 c 1.75102,-2.389581 6.36755,-7.143062 8.98072,-9.247135 7.64043,-6.151926 16.64542,-10.114834 26.45833,-11.643767 3.61673,-0.563516 11.86443,-0.621497 15.47813,-0.108811 17.94438,2.545826 33.25591,13.463267 41.41717,29.53132 4.03445,7.943121 5.79279,15.452225 5.79279,24.738545 0,9.28632 -1.75834,16.79542 -5.79279,24.73854 -6.36696,12.53539 -17.36226,22.23313 -30.43697,26.84509 -6.08151,2.14519 -11.49057,3.03917 -18.38854,3.03917 -6.89796,0 -12.30702,-0.89398 -18.38854,-3.03917 -10.73912,-3.78811 -20.71353,-11.52358 -27.02417,-20.95811 l -1.19459,-1.78594 h -79.0003 -79.00031 l 10.29536,10.3849 c 11.51388,11.61402 93.22263,94.20671 132.24598,133.67666 13.95802,14.11776 31.21303,31.52624 38.34446,38.68553 l 12.96624,13.01688 2.66596,-0.42912 c 3.76884,-0.60664 12.28889,-0.60527 16.15971,0.003 12.20076,1.916 22.77215,7.36577 31.231,16.10022 8.18942,8.45624 13.31587,18.95629 14.96724,30.65608 0.45671,3.23575 0.45671,11.58092 0,14.81667 -2.52975,17.92302 -13.46192,33.25615 -29.5295,41.41717 -5.18734,2.63475 -10.73808,4.4115 -16.66874,5.33554 -3.61673,0.56352 -11.86444,0.6215 -15.47813,0.10882 -17.94439,-2.54583 -33.25591,-13.46327 -41.41717,-29.53133 -2.6297,-5.17741 -4.40125,-10.70659 -5.34065,-16.66874 -0.57031,-3.61964 -0.58908,-12.60789 -0.0335,-16.01699 l 0.36813,-2.25864 -38.21661,-38.61948 c -21.01913,-21.24071 -59.3569,-59.9912 -85.19503,-86.11219 -25.83814,-26.12099 -52.84922,-53.3863 -60.02464,-60.58958 l -13.04621,-13.09688 0.1478,13.09688 c 0.0813,7.20328 0.33217,43.69594 0.55752,81.09479 0.36972,61.35969 0.45047,68.02375 0.82718,68.2625 3.96636,2.51385 9.8736,7.82261 12.95407,11.64167 6.14535,7.61879 10.11732,16.64203 11.64678,26.45833 0.56351,3.61673 0.62149,11.86443 0.10881,15.47813 -2.54583,17.94438 -13.46327,33.25591 -29.53132,41.41717 -5.10809,2.59449 -10.73388,4.40753 -16.41987,5.29168 -2.54103,0.39512 -10.79763,0.72669 -12.41971,0.49875 z"
       id="path16" /></g></svg>
