<?xml version="1.0" encoding="UTF-8" standalone="no"?>
<!-- Created with Inkscape (http://www.inkscape.org/) -->

<svg
   width="1920"
   height="1920"
   viewBox="0 0 507.99999 508"
   version="1.1"
   id="svg1"
   xml:space="preserve"
   xmlns="http://www.w3.org/2000/svg"
   xmlns:svg="http://www.w3.org/2000/svg"><defs
     id="defs1" /><g
     id="layer1"><path
       style="fill:#ffffff;fill-opacity:1"
       d="m 243.15208,458.62221 c -4.82868,-0.32949 -11.76357,-0.982 -15.20173,-1.43034 -2.18931,-0.28549 -4.01032,-0.51952 -4.0467,-0.52006 -0.0364,-5.4e-4 -0.0661,-12.37504 -0.0661,-27.49888 v -27.49791 l -1.52135,-0.30215 c -3.27383,-0.65019 -10.73867,-2.67693 -15.13356,-4.10884 -12.65673,-4.1237 -25.60001,-10.38146 -36.52634,-17.6596 -8.94226,-5.95652 -15.44237,-11.3373 -23.70769,-19.6252 l -6.11289,-6.12959 -10.15898,5.87172 c -5.58744,3.22945 -10.31244,6.01354 -10.49999,6.18688 -0.37754,0.34892 -25.631967,14.97288 -26.299056,15.22887 -0.309825,0.11889 -1.241959,-0.93608 -3.590687,-4.06387 -10.293682,-13.70805 -19.096652,-29.10997 -25.494402,-44.60573 -0.716763,-1.73604 -1.211512,-3.23586 -1.099443,-3.33293 0.227701,-0.19723 -0.245584,0.0775 27.191263,-15.78195 10.914065,-6.3087 19.879165,-11.57496 19.922455,-11.70281 0.0433,-0.12786 -0.40716,-1.81488 -1.00099,-3.74894 -8.70846,-28.36263 -8.6252,-60.59819 0.2287,-88.5476 l 1.02619,-3.23942 -0.82776,-0.50149 C 108.0791,204.3075 64.695804,179.31824 64.1623,179.07516 l -0.60891,-0.27744 1.271185,-3.07855 c 6.055989,-14.66635 15.012378,-30.28586 25.180293,-43.91321 2.602412,-3.48783 3.525815,-4.54704 3.854178,-4.42104 0.318852,0.12236 28.118924,16.11363 46.128584,26.53427 0.68409,0.39583 0.68826,0.3923 6.87917,-5.81598 8.34824,-8.37166 14.82011,-13.73309 23.78945,-19.70764 10.92633,-7.27814 23.86961,-13.5359 36.52634,-17.6596 4.39489,-1.43191 11.85973,-3.45865 15.13356,-4.10884 l 1.52135,-0.30215 V 78.959367 c 0,-15.05109 0.0298,-27.366057 0.0661,-27.366596 0.0364,-5.38e-4 1.85208,-0.233725 4.03489,-0.518193 9.57791,-1.248209 13.22433,-1.451264 26.06146,-1.451264 9.73097,0 13.32646,0.09762 17.19792,0.466925 4.66845,0.445333 9.99189,1.066264 11.8401,1.381038 l 0.8599,0.146451 v 27.337962 27.33796 l 1.65364,0.31472 c 3.17241,0.60377 10.6836,2.63465 15.26585,4.1276 12.65673,4.1237 25.60001,10.38146 36.52634,17.6596 8.89156,5.92274 15.41801,11.31907 23.61118,19.52264 l 6.01638,6.02402 23.56562,-13.60986 c 12.96109,-7.48543 23.67257,-13.54377 23.80329,-13.46298 0.50385,0.3114 6.69368,8.76801 9.71166,13.26819 5.5497,8.27527 9.97054,15.9773 14.32803,24.96242 2.40955,4.96848 5.45095,11.89035 5.71688,13.01096 0.13586,0.57248 -1.48995,1.55723 -23.47177,14.21688 -12.98975,7.48099 -23.64147,13.61661 -23.67049,13.63471 -0.029,0.0181 0.41746,1.51729 0.99218,3.33153 2.00419,6.32669 3.80884,14.15353 5.00046,21.68717 3.48592,22.03855 1.66475,46.69146 -5.00363,67.73333 -0.81147,2.56058 -0.97574,3.3729 -0.7276,3.59788 0.51049,0.46283 20.18421,11.74796 20.48058,11.74796 0.2135,0 23.98236,13.5888 26.19498,14.97583 l 0.58212,0.36491 -1.28403,3.1114 c -0.70622,1.71127 -1.95095,4.58045 -2.76608,6.37595 -0.81513,1.79551 -1.43456,3.34332 -1.37651,3.43959 0.058,0.0963 -0.47116,1.30612 -1.17603,2.68857 -0.70488,1.38244 -1.28764,2.39824 -1.29503,2.25731 -0.007,-0.14093 -1.18129,1.88314 -2.60867,4.49792 -4.86307,8.90855 -10.29774,17.36911 -16.24156,25.28448 -2.72693,3.63143 -3.22568,4.17221 -3.64232,3.94923 -0.2655,-0.1421 -3.02562,-1.7321 -6.13358,-3.53333 -3.10797,-1.80124 -13.56062,-7.84869 -23.22811,-13.43878 l -17.57726,-10.16381 -6.10295,6.11957 c -8.25523,8.27771 -14.7588,13.66086 -23.69774,19.61517 -10.92633,7.27814 -23.86961,13.5359 -36.52634,17.6596 -4.59481,1.49704 -12.0936,3.52373 -15.28925,4.1322 l -1.67705,0.31933 0.19439,27.44784 0.19439,27.44785 -1.03088,0.16238 c -2.24436,0.35352 -7.60045,0.9805 -11.74651,1.37503 -4.12379,0.3924 -24.50373,0.73331 -28.31042,0.47355 z M 265.1125,349.3795 c 34.69022,-4.06817 64.53602,-26.65543 77.77349,-58.85887 7.66287,-18.64182 9.26707,-39.80606 4.48966,-59.23205 -4.70726,-19.14076 -15.07121,-36.31438 -29.67787,-49.17781 -14.86951,-13.09491 -32.93313,-21.13885 -52.84986,-23.53467 -5.27267,-0.63425 -15.88311,-0.635 -21.16667,-0.001 -19.19993,2.30212 -37.03315,9.96439 -51.46146,22.11106 -16.41699,13.82087 -27.92284,33.29915 -32.13216,54.39662 -1.4603,7.31914 -1.71048,10.08611 -1.71048,18.91771 0,8.8316 0.25018,11.59857 1.71048,18.91771 5.139,25.7571 20.78305,48.39906 43.10494,62.38668 12.99175,8.14106 28.24264,13.14691 44.06055,14.46215 3.96688,0.32984 13.50992,0.12303 17.85938,-0.38704 z"
       id="path16" /></g></svg>
