<?xml version="1.0" encoding="UTF-8" standalone="no"?>
<!-- Created with Inkscape (http://www.inkscape.org/) -->

<svg
   width="1920"
   height="1920"
   viewBox="0 0 507.99999 508"
   version="1.1"
   id="svg1"
   xml:space="preserve"
   xmlns="http://www.w3.org/2000/svg"
   xmlns:svg="http://www.w3.org/2000/svg"><defs
     id="defs1" /><g
     id="layer1"><path
       style="fill:#ffffff;fill-opacity:1"
       d="m 242.8875,458.88658 c -18.28012,-1.24459 -33.05557,-3.8755 -49.03235,-8.73069 -4.75956,-1.44638 -13.6768,-4.57826 -15.04185,-5.28293 l -0.7065,-0.36472 7.73977,-13.43172 c 4.25687,-7.38745 10.34258,-17.9561 13.5238,-23.4859 3.18121,-5.52979 6.17988,-10.73273 6.66371,-11.56208 l 0.87969,-1.50793 1.11968,0.39931 c 5.01391,1.78811 15.9656,4.40889 23.07616,5.5222 8.62311,1.35014 12.06023,1.59049 22.7581,1.5914 10.51449,8.9e-4 12.93405,-0.15177 21.26002,-1.34143 27.48675,-3.92747 53.04854,-15.45772 74.65144,-33.6733 4.37487,-3.68889 13.17872,-12.51404 16.93407,-16.97504 18.02483,-21.41176 29.62709,-47.05285 33.58161,-74.21563 1.1583,-7.95615 1.4341,-12.07766 1.4341,-21.43124 0,-9.35359 -0.2758,-13.4751 -1.4341,-21.43125 -3.95452,-27.16278 -15.55678,-52.80387 -33.58161,-74.21563 -3.75535,-4.461 -12.5592,-13.28615 -16.93407,-16.97504 -23.66519,-19.95451 -50.88471,-31.38719 -82.55,-34.67245 -4.44654,-0.46133 -22.0118,-0.46133 -26.45834,0 -31.66529,3.28526 -58.88481,14.71794 -82.55,34.67245 -4.37487,3.68889 -13.17872,12.51404 -16.93407,16.97504 -18.02483,21.41176 -29.62709,47.05285 -33.58161,74.21563 -1.1583,7.95615 -1.4341,12.07766 -1.4341,21.43125 0,9.35358 0.2758,13.47509 1.4341,21.43124 1.02764,7.05864 2.88963,15.33665 4.90313,21.79825 0.77526,2.48794 0.87764,3.06979 0.58767,3.33975 -0.19314,0.1798 -9.39991,5.53803 -20.459492,11.90716 -11.059583,6.36914 -20.465521,11.84278 -20.902083,12.16365 -1.051815,0.77305 -8.359741,4.96265 -8.463963,4.85234 -0.184319,-0.19509 -3.584827,-9.56012 -4.450594,-12.25698 -4.866331,-15.15859 -7.763503,-29.45104 -9.358914,-46.16979 -0.670217,-7.02339 -0.670217,-27.63702 0,-34.66042 2.044588,-21.4258 6.438995,-39.92589 13.968675,-58.80699 C 77.674932,142.52484 102.09232,111.08293 132.97938,88.565606 161.18628,68.00218 193.63756,55.145103 228.6,50.681075 c 8.81857,-1.125961 12.60161,-1.323009 25.4,-1.323009 12.79839,0 16.58143,0.197048 25.4,1.323009 34.96244,4.464028 67.41372,17.321105 95.62062,37.884531 16.01182,11.672954 30.99838,26.460414 43.01532,42.443854 21.45499,28.53677 34.96522,61.96599 39.54757,97.85512 1.12283,8.79406 1.32268,12.61186 1.32268,25.26771 0,12.65585 -0.19985,16.47366 -1.32268,25.26771 -4.58235,35.88913 -18.09258,69.31836 -39.54757,97.85512 -12.01694,15.98344 -27.0035,30.7709 -43.01532,42.44386 -28.18733,20.54916 -60.94269,33.5259 -95.62062,37.88218 -8.1996,1.03004 -12.09085,1.24928 -23.54792,1.32671 -6.33015,0.0428 -12.16422,0.0332 -12.96458,-0.0213 z M 123.00895,411.92665 c -9.6472,-8.03092 -18.82759,-17.20821 -26.852529,-26.84346 -1.662698,-1.99634 -3.020446,-3.76151 -3.017216,-3.92259 0.0032,-0.16109 5.385041,-3.38852 11.959585,-7.17206 6.57454,-3.78354 12.61432,-7.28139 13.42173,-7.773 1.63307,-0.99434 22.82638,-13.26894 23.74791,-13.75416 0.54283,-0.28582 1.0326,0.14334 6.93703,6.07862 5.80657,5.83691 6.32742,6.43453 6.05593,6.9486 -0.16338,0.30934 -5.57699,9.70994 -12.03026,20.89022 -6.45327,11.18028 -11.73321,20.42677 -11.73321,20.54776 0,0.39178 -4.36978,7.76508 -4.65912,7.86153 -0.15415,0.0514 -1.87758,-1.23627 -3.82985,-2.86146 z"
       id="path16" /></g></svg>
